<svg width="380" height="380" viewBox="0 0 380 380" fill="none" xmlns="http://www.w3.org/2000/svg">
<path d="M73.2997 302.515C71.878 300.598 68.062 296.81 66.173 294.523C62.2937 289.823 58.54 285.155 55.1547 280.008C42.917 260.943 33.3317 237.991 29.8287 215.475C20.8205 157.574 44.9017 97.1884 90.6192 61.4212C112.796 43.8222 139.215 32.3727 167.221 28.2242C173.186 27.2942 179.561 26.3669 185.569 26.2737C221.377 25.7182 258.727 37.4807 287.15 59.4202C289.982 61.6084 292.94 63.8767 295.545 66.3259C297.075 67.7224 299.39 69.7252 300.752 71.1724C304.69 74.2669 311.912 82.6927 315.095 86.6844C334.992 111.438 347.447 141.334 351.012 172.892C355.94 213.779 342.64 258.613 317.185 290.893C315.257 293.373 313.21 295.755 311.045 298.033C310.025 299.1 307.725 301.25 306.932 302.265C310.105 302.323 313.27 302.358 316.425 302.708C318.987 302.993 320.182 304.155 318.95 306.753C317.177 307.93 305.01 307.263 301.625 307.543C299.702 309.733 296.2 312.798 293.925 314.768C263.752 340.888 222.05 355.538 182.25 353.358C149.534 351.568 118.164 339.74 92.41 319.485C88.8585 316.718 81.4595 310.758 78.4977 307.445C75.7662 307.375 61.8147 307.6 60.289 306.918C54.997 301.05 71.216 302.508 73.2997 302.515Z" fill="#041445"/>
<path d="M73.2997 302.515C71.878 300.598 68.062 296.81 66.173 294.523C62.2937 289.823 58.54 285.155 55.1547 280.008C42.917 260.943 33.3317 237.991 29.8287 215.475C20.8205 157.574 44.9017 97.1884 90.6192 61.4212C112.796 43.8222 139.215 32.3727 167.221 28.2242C173.186 27.2942 179.561 26.3669 185.569 26.2737C221.377 25.7182 258.727 37.4807 287.15 59.4202C289.982 61.6084 292.94 63.8767 295.545 66.3259C297.075 67.7224 299.39 69.7252 300.752 71.1724C304.69 74.2669 311.912 82.6927 315.095 86.6844C334.992 111.438 347.447 141.334 351.012 172.892C355.94 213.779 342.64 258.613 317.185 290.893C315.257 293.373 313.21 295.755 311.045 298.033C310.025 299.1 307.725 301.25 306.932 302.265C303.885 302.698 295.757 302.525 292.41 302.535L268.935 302.73C269.045 300.345 269.19 297.96 269.37 295.58C274.285 294.285 275.742 292.798 279.632 291.443L279.91 291.55C284.005 293.163 288.94 299.028 293.592 296.828C298.31 294.598 307.657 284.503 309.432 279.843C309.497 279.675 309.557 279.508 309.615 279.34C308.16 273.893 304.9 272.26 303.367 268.553C304.24 265.4 305.647 261.493 307.182 258.593C310.812 258.018 318.02 257.395 320.065 254.608C322.297 251.56 321.48 235.122 320.845 231.481C320.785 231.13 320.705 230.782 320.61 230.439C317.745 227.363 311.602 227.113 307.402 226.44C306.182 222.942 304.29 219.989 302.985 216.648C305.197 212.195 307.835 209.7 309.27 204.602C308.925 203.408 308.417 201.988 307.645 201.02C304.95 197.647 296.98 189.27 293.59 187.381C293.047 187.077 292.482 186.811 291.902 186.585C286.712 188.188 284.14 191.295 279.425 193.089C277.19 191.894 272.412 189.952 269.902 189.063C268.055 178.7 269.562 176.111 258.265 174.576C254.705 169.392 252.127 168.009 245.95 167.222C245.981 164.765 246.052 162.238 245.953 159.788C250.982 159.262 253.385 158.401 256.972 154.326C258.02 153.138 259.27 150.694 259.415 149.118C259.945 143.305 259.732 136.761 259.77 130.901C259.72 125.093 259.937 119.159 259.67 113.367C259.5 109.683 256.902 106.09 254.105 103.909C250.2 100.864 241.504 101.824 236.61 101.838L215.635 101.903L153.885 101.953L109.522 101.897C101.439 101.867 93.2047 101.703 85.282 102.111C80.8947 102.338 74.586 107.217 74.2745 111.32C73.619 119.947 74.0572 129.861 73.9175 138.559C73.8067 145.45 72.9345 152.549 79.1507 156.911C82.6285 159.392 84.6452 159.7 88.8137 159.743C88.7965 162.347 88.727 164.91 88.9945 167.501C77.5827 168.282 73.8222 172.52 73.9707 184.05C74.098 193.951 73.7902 204.057 74.021 213.974C74.19 221.687 81.92 225.636 88.8062 225.675C88.7927 228.261 88.727 231.072 88.8542 233.634C82.0245 233.892 74.692 236.475 74.255 244.183C73.6157 255.458 74.1072 267.333 74.0162 278.638C73.9457 287.425 80.908 291.18 88.9082 291.303C88.8592 295.185 88.8302 298.823 88.9965 302.718C83.9967 302.753 78.262 302.825 73.2997 302.515Z" fill="#3D9FE9"/>
<path d="M231.244 54.6133C235.36 58.0123 234.37 60.2323 234.17 65.293L268.748 65.382C274.485 65.3833 288.895 64.5835 293.56 67.181C294.438 67.2278 294.803 66.8378 295.545 66.3255C297.075 67.722 299.39 69.7248 300.753 71.172L300.333 71.673L299.895 71.6178C299.795 71.128 299.72 71.0475 299.383 70.6823C299.455 72.3953 301.04 73.54 300.858 75.1805C304.133 82.5953 303.168 96.4025 303.115 104.949C302.948 117.311 303.005 129.675 303.283 142.036C306.238 141.996 311.703 141.33 314.12 142.578C317.618 144.383 311.383 151.86 310.238 153.542L302.178 165.313C300.098 168.311 298.183 171.483 295.925 174.339C294.743 175.835 292.368 176.72 290.845 175.146C287.58 171.773 285.303 167.602 282.613 163.772L273.99 151.275C273.055 149.9 271.685 148.22 270.853 146.861C266.97 140.52 279.8 141.99 282.79 142.037L282.725 109.415C282.725 105.771 283.15 89.1393 281.998 86.5713C278.598 85.1575 241.712 85.811 234.263 85.876C234.28 88.7768 234.381 91.8808 233.865 94.72C233.344 95.2388 232.437 95.8205 231.809 96.256C231.674 96.2255 231.54 96.1918 231.406 96.1545C225.905 94.608 220.161 89.597 215.408 86.4978C211.691 84.0735 207.801 81.6458 204.238 78.9925C201.192 76.724 200.833 74.9268 204.072 72.5993C208.344 69.472 212.708 66.4293 217.068 63.4653C221.839 60.2225 225.875 56.7788 231.244 54.6133Z" fill="#041445"/>
<path d="M293.56 67.1817C294.438 67.2284 294.803 66.8384 295.545 66.3262C297.075 67.7227 299.39 69.7254 300.753 71.1727L300.333 71.6737L299.895 71.6184C299.795 71.1287 299.72 71.0482 299.383 70.6829C299.455 72.3959 301.04 73.5407 300.858 75.1812C298.613 71.3737 297.188 69.9164 293.56 67.1817Z" fill="#1A80C0"/>
<path d="M207.433 76.0396C210.505 72.9283 213.892 71.3878 217.256 68.8503C221.414 65.7146 226.225 62.9766 230.278 59.8086L230.526 69.7658C246.937 70.0316 263.417 69.5618 279.832 69.8476C284.832 69.9346 290.272 69.3721 294.16 72.9676C296.965 75.5143 298.627 79.0818 298.772 82.8668C299.357 86.3606 298.95 97.4438 299.015 101.614C299.247 116.408 298.79 131.58 299.192 146.351C302.175 146.606 306.44 146.559 309.505 146.495C305.815 152.665 301.775 158.035 297.725 163.96C296.13 166.298 294.607 168.582 292.915 170.858C290.295 166.941 287.462 163.13 284.897 159.186C282.095 154.878 278.665 150.836 275.937 146.52C279.152 146.763 283.482 146.835 286.63 146.184C286.907 139.019 286.73 130.967 286.72 123.737C286.77 111.658 286.695 99.5796 286.497 87.5023C285.86 84.7801 284.647 82.0163 281.415 81.7718C275.59 81.3311 269.62 81.5206 263.765 81.5228L230.57 81.4816L230.206 91.2943C223.129 86.0058 214.882 80.7773 207.433 76.0396Z" fill="#5EB3EF"/>
<path d="M207.433 76.0396C210.505 72.9283 213.892 71.3878 217.256 68.8503C221.414 65.7146 226.225 62.9766 230.278 59.8086L230.526 69.7658C246.937 70.0316 263.417 69.5618 279.832 69.8476C284.832 69.9346 290.272 69.3721 294.16 72.9676C296.965 75.5143 298.627 79.0818 298.772 82.8668C298.52 86.1753 298.63 90.5366 298.625 93.9256C297.765 91.6921 299.307 81.5461 297.497 80.2783C296.795 80.2616 295.285 80.4123 294.882 79.9861C289.277 74.0596 287.14 74.0818 279.055 74.0788L278.872 74.3098C280.58 76.6406 280.642 75.4543 281.992 76.7538L282.162 77.3978C281.41 77.9003 280.99 77.5071 280.92 77.6418C280.672 78.1191 280.102 80.3076 279.515 80.4083C278.765 80.5373 276.267 80.4753 275.635 80.9078C280.192 81.3041 285.967 80.6021 286.802 86.7951L286.497 87.5023C285.86 84.7801 284.647 82.0163 281.415 81.7718C275.59 81.3311 269.62 81.5206 263.765 81.5228L230.57 81.4816L230.206 91.2943C223.129 86.0058 214.882 80.7773 207.433 76.0396Z" fill="#7CDFF8"/>
<path d="M175.237 67.8604C178.489 69.4804 181.761 71.4216 184.587 73.7123C186.316 75.1138 187.635 76.6184 189.489 77.8844C185.244 80.5304 180.413 85.5391 175.412 87.5751C175.318 85.4456 175.104 83.1233 174.946 80.9826C172.929 80.7241 170.909 80.7619 168.875 80.7474C162.886 80.7334 153.947 80.9789 148.118 80.4994C147.978 78.6534 148.041 76.9279 148.081 75.0836C156.785 74.6439 166.543 75.1331 175.027 74.3071C175.043 72.2233 175.162 69.9566 175.237 67.8604Z" fill="#7FEEF9"/>
<path d="M57.7939 151.654C59.4142 152.231 66.7912 164.471 67.5584 166.553C64.9402 166.526 62.8669 166.457 60.2619 166.237C60.1997 170.861 60.5999 182.561 59.8597 186.396L57.8242 187.526C56.8909 187.545 56.0564 187.157 55.3169 186.626C54.1204 184.632 54.7204 169.655 54.7452 166.236C52.3409 166.307 50.2807 166.247 47.8784 166.16C49.9879 161.94 54.3082 154.565 57.7939 151.654Z" fill="#7FEEF9"/>
<path d="M320.947 162.919C322.965 164.29 329.735 175.139 331.007 177.96C328.717 178.05 326.232 178.028 323.922 178.048C323.815 181.929 324.12 188.114 323.677 191.707C323.177 192.405 322.727 192.396 321.81 192.75C320.232 192.807 319.815 192.676 318.262 192.279C318.162 187.515 318.167 182.779 318.045 177.993C315.997 178.075 313.72 177.972 311.655 177.924C315.112 172.629 316.522 168.207 320.947 162.919Z" fill="#7CDFF8"/>
<path d="M57.5781 193.337C59.2061 193.447 60.2086 193.792 60.6031 195.529C61.2331 198.304 59.7823 199.852 57.3358 200.322C52.5248 199.038 52.9776 193.74 57.5781 193.337Z" fill="#7CDFF8"/>
<path d="M56.8283 206.025C58.372 206.017 59.5123 206.093 60.1255 207.7C61.1215 210.31 60.3653 212.243 57.9808 213.323C52.9725 212.883 53.1745 207.113 56.8283 206.025Z" fill="#7CDFF8"/>
<path d="M135.381 75.1251C139.853 74.5694 142.661 75.2521 140.752 80.5094L140.266 80.6894C138.179 80.9291 136.968 80.8596 134.881 80.7181C134.591 79.1736 134.035 76.2934 135.381 75.1251Z" fill="#7FEEF9"/>
<path d="M55.7467 219.346C57.2702 219.114 58.3807 218.861 59.5562 220.004C61.2937 221.693 60.3919 224.17 58.8547 225.614C54.7604 226.183 52.9979 222.085 55.7467 219.346Z" fill="#7CDFF8"/>
<path d="M125.282 74.8248C128.673 74.6348 129.063 78.1196 127.364 80.3408C126.929 80.9106 125.757 80.7851 125.05 80.8006C121.463 79.8038 121.081 75.7848 125.282 74.8248Z" fill="#7FEEF9"/>
<path d="M320.897 198.942C323.455 199.317 324.965 203.852 321.387 205.212C317.325 204.467 317.307 200.609 320.897 198.942Z" fill="#7CDFF8"/>
<path d="M57.2801 231.961C58.4939 232.241 59.2959 232.655 59.7649 233.851C60.0484 234.582 59.9956 235.401 59.6204 236.09C59.2006 236.873 58.7174 236.819 57.8386 237.075C53.5731 236.563 53.8879 233.51 57.2801 231.961Z" fill="#7CDFF8"/>
<path d="M56.6398 244.002C57.5183 243.976 58.2106 243.831 58.9058 244.295C60.1226 245.821 60.1403 247.494 58.4231 248.675C57.0536 248.719 56.3078 248.642 55.5171 247.395C55.1783 246.867 55.0846 246.219 55.2598 245.617C55.5108 244.735 55.8941 244.452 56.6398 244.002Z" fill="#7CDFF8"/>
<path d="M112.473 75.3682C114.482 75.6149 116.149 77.2437 114.869 79.3142C113.858 79.4444 113.316 79.6149 112.374 79.2457C111.081 77.9409 111.638 76.8737 112.473 75.3682Z" fill="#7CDFF8"/>
<path d="M78.4976 307.445C81.1003 307.078 91.5048 307.375 94.6238 307.393H126.586L196.273 307.423C210.177 307.423 224.078 307.405 237.982 307.49C241.074 307.51 241.415 309.62 242.922 309.75C251.565 310.495 260.39 312.12 267.92 307.353C275.98 307.753 284.89 307.218 293.025 307.448C295.735 307.525 299.012 307.335 301.625 307.543C299.702 309.733 296.2 312.798 293.925 314.768C263.752 340.888 222.05 355.538 182.25 353.358C149.534 351.568 118.164 339.74 92.4098 319.485C88.8583 316.718 81.4593 310.758 78.4976 307.445Z" fill="#3A70D6"/>
<path d="M245.157 179.957C248.373 179.583 259.495 179.726 262.715 180.36C263.48 182.848 263.858 185.355 264.31 187.918C264.533 188.819 264.863 190.316 265.148 191.141C267.68 193.735 276.55 197.53 280.375 198.347C282.168 198.731 284.665 196.248 286.045 195.112C287.738 193.707 289.558 192.467 291.485 191.407C294.933 194.444 301.763 200.804 304.415 204.566C301.925 208.554 299.34 212.475 297.138 216.625C300.028 219.771 301.015 227.16 303.573 229.945C304.528 230.984 313.16 231.922 316.143 233.594C316.61 236.481 316.803 247.455 316.643 250.718C311.14 253.885 307.05 252.685 303.098 254.568C300.705 259.388 299.46 264.238 297.408 268.893C300.075 273.435 302.575 275.408 304.638 280.405C300.105 285.233 296.543 289.318 291.088 293.155C288.968 291.123 282.61 285.943 279.868 286.39C277.188 286.828 268.913 290.473 266.368 291.763C263.958 295.253 263.71 300.923 262.198 305.11C259.125 305.38 246.824 306.11 244.579 304.128C242.914 302.658 242.506 295.735 241.846 292.668C238.092 289.11 232.148 288.345 227.202 285.538C223.217 288.098 219.823 290.148 215.891 292.855C210.168 288.63 207.211 285.05 202.608 279.66C204.707 275.09 209.665 270.945 209.485 267.633C208.314 264.995 204.585 255.43 203.363 253.735C198.334 252.528 195.591 253.543 190.536 250.875C190.377 247.868 190.349 235.758 190.787 233.084C194.577 231.824 200.108 231.899 203.077 230.058C204.745 229.023 208.958 217.768 209.214 215.82C208.164 213.185 204.081 207.289 202.358 204.68C205.362 201.171 212.461 193.613 216.169 191.295C218.47 193.746 222.848 196.679 225.692 198.734C228.762 198.354 230.596 197.044 233.369 195.746C235.409 194.792 237.958 194.128 239.868 192.963C242.904 191.112 242.628 186.035 243.482 182.928C243.792 181.768 244.042 180.638 245.157 179.957Z" fill="#67B1ED"/>
<path d="M245.157 179.957C248.373 179.583 259.495 179.726 262.715 180.36C263.48 182.848 263.858 185.355 264.31 187.918C262.933 189.864 259.833 190.526 258.633 193.803C257.87 195.89 257.32 199.383 256.378 201.072C257.095 202.552 258.305 202.188 259.815 202.492L259.83 202.697C258.343 202.55 257.263 202.325 256.05 202.131C255.098 201.979 251.655 202.177 250.485 202.216C247.598 202.393 244.881 203.176 242.112 203.907C221.625 209.309 209.856 231.924 215.123 252.098C215.805 254.713 219.204 262.385 218.998 264.643C217.913 265.203 215.683 264.265 214.809 264.473C213.364 264.815 210.61 266.703 209.485 267.633C208.314 264.995 204.585 255.43 203.363 253.735C198.334 252.528 195.591 253.543 190.536 250.875C190.377 247.868 190.349 235.758 190.787 233.084C194.577 231.824 200.108 231.899 203.077 230.058C204.745 229.023 208.958 217.768 209.214 215.82C208.164 213.185 204.081 207.289 202.358 204.68C205.362 201.171 212.461 193.613 216.169 191.295C218.47 193.746 222.848 196.679 225.692 198.734C228.762 198.354 230.596 197.044 233.369 195.746C235.409 194.792 237.958 194.128 239.868 192.963C242.904 191.112 242.628 186.035 243.482 182.928C243.792 181.768 244.042 180.638 245.157 179.957Z" fill="#AEE5F7"/>
<path d="M245.156 179.957C248.373 179.583 259.495 179.726 262.715 180.36C263.48 182.848 263.857 185.355 264.31 187.918C262.932 189.864 259.832 190.526 258.632 193.803C257.87 195.89 257.32 199.383 256.377 201.072C257.095 202.552 258.305 202.188 259.815 202.492L259.83 202.697C258.342 202.55 257.262 202.325 256.05 202.131C255.097 201.979 251.655 202.177 250.485 202.216C251.067 202.103 251.65 201.984 252.23 201.86C252.77 200.864 253.707 182.433 253.777 180.078C251.012 180.082 247.882 180.153 245.156 179.957Z" fill="#7CDFF8"/>
<path d="M240.593 274.395C239.767 273.725 237.684 273.093 236.615 272.458C225.766 266.045 218.195 252.03 219.232 239.493C219.932 231.029 225.04 220.996 231.602 215.664C241.303 207.783 254.845 205.035 266.342 210.367C283.007 218.095 288.782 230.996 287.077 248.477C287.797 250.575 285.417 256.653 284.4 258.628C280.07 267.025 272.812 273.255 263.727 275.97C263.175 276.135 262.612 278.51 262.725 279.313C265.082 282.523 273.842 275.763 276.862 273.81C281.002 271.133 285.37 265.483 287.707 260.808C288.04 260.14 291.205 252.408 290.977 252.613C290.785 257.683 284.297 268.085 280.272 271.523C271.45 279.06 263.822 282.65 252.002 281.888C247.751 281.613 245.315 281.778 241.393 279.875C246.996 281.708 251.292 281.698 257.212 281.51L257.3 281.318C256.54 280.758 256.787 281.118 256.542 280.2C256.797 279.193 257.33 278.213 256.992 277.61C255.877 277.423 252.68 277.528 251.285 277.52C249.557 277.513 241.211 275.538 240.499 274.58L240.593 274.395Z" fill="#041445"/>
<path d="M287.077 248.477C287.797 250.575 285.417 256.652 284.4 258.627C280.07 267.025 272.812 273.255 263.727 275.97C263.175 276.135 262.612 278.51 262.725 279.312C265.082 282.522 273.842 275.762 276.862 273.81C281.002 271.132 285.37 265.482 287.707 260.807C288.04 260.14 291.205 252.407 290.977 252.612C290.785 257.682 284.297 268.085 280.272 271.522C271.45 279.06 263.822 282.65 252.002 281.887C247.751 281.612 245.315 281.777 241.393 279.875C246.996 281.707 251.292 281.697 257.212 281.51L257.3 281.317C256.54 280.757 256.787 281.117 256.542 280.2C256.797 279.192 257.33 278.212 256.992 277.61C255.877 277.422 252.68 277.527 251.285 277.52C249.557 277.512 241.211 275.537 240.499 274.58L240.593 274.395C242.594 275.06 245.108 276 247.121 276.48C254.985 278.357 264.912 275.977 271.782 271.905C276.535 269.09 282.28 262.44 284.42 257.382C285.642 254.49 286.367 251.542 287.077 248.477Z" fill="#7CDFF8"/>
<path d="M251.1 212.528C267.577 211.202 282.04 223.417 283.485 239.885C284.932 256.352 272.822 270.902 256.365 272.467C239.739 274.05 225.006 261.787 223.544 245.15C222.083 228.512 234.453 213.869 251.1 212.528Z" fill="#458EDB"/>
<path d="M250.925 221.988C262.282 220.647 272.552 228.828 273.787 240.198C275.02 251.567 266.742 261.762 255.362 262.887C244.131 264 234.102 255.855 232.884 244.636C231.667 233.416 239.716 223.311 250.925 221.988Z" fill="#041445"/>
<path d="M251.793 226.698C260.505 225.732 268.34 232.038 269.26 240.755C270.18 249.473 263.833 257.275 255.11 258.147C246.453 259.015 238.722 252.725 237.81 244.073C236.897 235.421 243.145 227.657 251.793 226.698Z" fill="#5EB3EF"/>
<path d="M86.5743 106.852C95.6158 106.472 107.01 106.816 116.187 106.827L170.192 106.796L219.866 106.788C228.638 106.788 237.423 106.718 246.192 106.894C249.97 106.97 254.197 108.202 254.652 112.646C255.325 119.221 255.11 125.966 255.117 132.583C255.125 137.755 255.232 143.103 254.75 148.25C254.217 152.784 251.385 153.791 247.524 154.394C246.25 154.555 244.512 154.539 243.214 154.547C237.57 154.581 231.924 154.566 226.28 154.558L184.428 154.494L119.209 154.452C108.643 154.42 98.0721 154.382 87.5081 154.253C86.6926 154.243 83.2008 153.88 82.5796 153.525C80.2718 152.205 78.9573 149.688 78.9291 147.127C78.8078 136.054 78.6243 124.914 79.0206 113.856C79.1828 109.327 82.3686 107.153 86.5743 106.852Z" fill="#6F97CA"/>
<path d="M89.0996 110.603C90.9109 110.386 94.9504 110.469 96.8571 110.473L110.283 110.493L157.054 110.567L214.363 110.52C224.551 110.507 234.988 110.36 245.153 110.733C248.412 110.853 249.612 111.79 251.62 114.114L251.63 114.389C251.73 117.397 251.067 120.812 250.935 123.926C250.632 131.067 250.592 138.289 250.28 145.426C250.112 149.224 249.746 150.143 245.864 150.228L136.339 150.242L106.101 150.258C100.569 150.274 88.8144 150.806 83.9606 149.483C81.9841 148.944 82.9239 117.357 82.8711 114.277C82.8136 110.911 86.6136 110.84 89.0996 110.603Z" fill="#4F72A4"/>
<path d="M181.113 123.306C184.768 123.141 188.821 123.205 192.509 123.239C207.602 123.38 222.776 122.894 237.845 123.547C245.837 123.894 245.696 136.937 238.801 138.418C234.89 138.685 229.941 138.549 225.909 138.542L202.921 138.447L189.41 138.478C186.487 138.488 182.696 138.631 179.871 138.145C176.206 135.252 174.505 130.378 177.144 126.21C178.048 124.771 179.468 123.732 181.113 123.306Z" fill="#304F89"/>
<path d="M233.001 127.065C238.464 126.796 240.55 131.736 236.418 133.905C230.194 135.037 230.241 128.568 233.001 127.065Z" fill="#F65563"/>
<path d="M204.14 127.266C204.51 127.238 205.55 127.164 205.844 127.237C208.764 127.956 209.62 131.755 207.186 133.482C206.338 133.611 204.909 133.852 204.17 133.4C202.128 132.15 203.102 128.8 204.14 127.266Z" fill="#7CDFF8"/>
<path d="M213.866 127.276C214.941 127.231 216.297 127.282 217.392 127.295C217.984 129.349 218.61 132.028 216.942 133.661C215.965 133.702 214.739 133.841 213.926 133.213C211.946 131.682 212.467 128.994 213.866 127.276Z" fill="#7CDFF8"/>
<path d="M195.753 127.222C198.915 127.978 198.748 130.316 198.747 132.965L196.449 133.891C196.129 133.882 195.809 133.85 195.493 133.798C192.07 133.251 192.893 128.915 195.753 127.222Z" fill="#7CDFF8"/>
<path d="M224.083 127.211C227.858 127.255 229.07 132.312 225.45 133.494C221.394 133.193 220.969 129.636 224.083 127.211Z" fill="#7CDFF8"/>
<path d="M185.832 127.221C187.021 127.573 187.727 128.616 188.502 129.555C188.446 132.052 188.86 132.732 186.42 133.554C182.096 132.571 182.213 129.319 185.832 127.221Z" fill="#7CDFF8"/>
<path d="M97.9981 121.812C103.144 121.397 107.505 124.374 108.241 129.624C108.557 132.023 107.908 134.45 106.437 136.371C104.833 138.498 102.989 139.377 100.44 139.76C87.0266 140.015 85.4076 124.054 97.9981 121.812Z" fill="#3A70D6"/>
<path d="M98.3091 124.981C101.965 125.117 103.538 127.452 104.721 130.502C103.714 133.458 102.895 135.013 99.7459 136.025C93.2771 136.434 91.1349 127.962 98.3091 124.981Z" fill="#7FEEF9"/>
<path d="M141.54 122.099C150.253 121.537 153.39 130.232 148.979 137.067C147.628 139.159 144.048 139.248 141.688 139.345C136.842 138.978 133.321 137.356 132.67 131.965C132.382 129.597 133.064 127.213 134.56 125.356C136.53 122.918 138.608 122.4 141.54 122.099Z" fill="#3A70D6"/>
<path d="M141.403 124.975C147.502 125.345 150.177 132.462 142.738 135.873C140.426 136.078 138.313 135.27 137.251 133.078C136.601 131.745 136.539 130.201 137.08 128.821C137.976 126.549 139.366 125.826 141.403 124.975Z" fill="#7FEEF9"/>
<path d="M119.348 122.075C127.616 121.469 130.732 127.035 128.361 134.584C127.87 136.15 126.898 137.226 125.694 138.308C124.223 138.712 122.783 139.175 121.26 139.242C116.284 139.045 111.857 137.708 111.023 132.079C110.662 129.786 111.253 127.445 112.659 125.598C114.444 123.265 116.564 122.465 119.348 122.075Z" fill="#3A70D6"/>
<path d="M120.227 125.063C127.19 126.224 127.673 133.548 120.904 136.061C118.282 135.984 116.277 134.597 115.529 131.985C115.113 130.547 115.334 129 116.137 127.737C117.184 126.08 118.445 125.467 120.227 125.063Z" fill="#7FEEF9"/>
<path d="M129.062 107.125L154.174 107.111C158.184 107.107 163.57 106.911 167.445 107.17C167.123 107.273 164.807 107.234 164.313 107.234C159.678 107.691 154.751 107.099 150.067 107.378C147.658 107.521 144.393 110.337 142.449 108.831L142.779 107.804C141.361 107.36 131.853 107.483 129.062 107.125Z" fill="#5EB3EF"/>
<path d="M202.159 220.667C196.152 220.851 189.094 220.681 183.001 220.688L143.844 220.709L109.101 220.722C101.495 220.723 93.605 220.91 86.0085 220.41C83.7887 220.264 82.7677 219.918 81.219 218.23C78.1657 214.901 78.782 210.442 78.7725 206.291C78.912 197.806 78.6845 189.183 78.7962 180.709C78.8482 176.762 82.0512 172.694 86.1125 172.54C94.5295 172.221 103.078 172.353 111.51 172.353L158.769 172.324L212.695 172.317C220.903 172.315 233.507 171.924 241.274 172.462C246.473 172.205 248.609 172.199 252.928 175.108C248.958 175.154 244.888 175.007 241.102 176.29C238.874 179.272 238.792 184.848 237.86 188.588C234.736 189.802 229.177 191.806 226.393 193.364C223.307 190.631 220.349 188.221 216.406 186.738C213.975 187.142 213.297 187.35 211.2 188.616C210.401 189.485 206.565 193.301 205.671 193.801C204.43 195.076 203.494 196.1 202.356 197.466C201.267 199.618 197.788 203.293 196.995 205.228C198.583 207.555 200.054 209.958 201.405 212.429C201.657 212.882 203.31 216.046 203.389 216.155C203.602 218.191 203.09 218.879 202.159 220.667Z" fill="#4F73A7"/>
<path d="M202.159 220.667C196.152 220.851 189.094 220.681 183.001 220.688L143.844 220.709L109.101 220.722C101.495 220.723 93.605 220.91 86.0085 220.41C83.7887 220.264 82.7677 219.918 81.219 218.23C78.1657 214.901 78.782 210.442 78.7725 206.291C78.912 197.806 78.6845 189.183 78.7962 180.709C78.8482 176.762 82.0512 172.694 86.1125 172.54C94.5295 172.221 103.078 172.353 111.51 172.353L158.769 172.324L212.695 172.317C220.903 172.315 233.507 171.924 241.274 172.462C246.473 172.205 248.609 172.199 252.928 175.108C248.958 175.154 244.888 175.007 241.102 176.29C233.69 175.937 223.695 176.381 215.906 176.253C212.033 176.473 207.327 176.336 203.387 176.348C195.268 176.398 187.149 176.391 179.03 176.326L118.727 176.282L100.69 176.323C96.2337 176.291 91.9025 176.125 87.4497 176.428C82.604 176.758 82.657 180.206 82.7417 184.094C82.8297 187.413 82.815 190.919 82.815 194.305C82.819 197.903 82.8037 201.502 82.7692 205.101C82.751 207.3 82.6412 209.598 82.845 211.783C83.094 214.455 84.0285 216.131 86.9842 216.177C94.1107 216.286 101.237 216.208 108.362 216.208L152.217 216.132L186.875 216.199C191.835 216.204 198.546 216.413 203.389 216.155C203.602 218.191 203.09 218.879 202.159 220.667Z" fill="#6F9ED0"/>
<path d="M241.274 172.463C246.473 172.206 248.609 172.199 252.928 175.108C248.958 175.154 244.888 175.008 241.102 176.29C233.69 175.938 223.695 176.382 215.906 176.254C217.99 175.525 223.288 176.468 224.169 175.738L223.544 175.402C223.959 174.253 224.21 174.955 224.119 173.817L223.328 173.194C224.42 172.132 238.349 172.818 241.011 172.496L241.274 172.463Z" fill="#5EB3EF"/>
<path d="M176.652 192.468C178.353 190.718 179.866 188.845 182.462 188.605C189.659 187.942 196.978 188.366 204.205 188.276C206.28 188.25 209.171 188.263 211.2 188.617C210.401 189.486 206.565 193.301 205.671 193.802C204.43 195.077 203.494 196.1 202.356 197.467C201.267 199.618 197.788 203.293 196.995 205.229L196.861 204.889C195.706 204.098 184.856 205.575 181.911 204.472C176.513 202.451 174.98 198.023 176.652 192.468Z" fill="#304F89"/>
<path d="M202.356 197.466L201.897 196.93C201.748 194.2 202.764 192.614 205.671 193.801C204.43 195.076 203.494 196.1 202.356 197.466Z" fill="#5EB3EF"/>
<path d="M194.632 193.179C198.472 192.987 201.305 196.641 198.102 199.005C197.004 199.244 195.953 199.533 194.883 199.008C194.207 198.674 193.714 198.056 193.537 197.322C193.173 195.787 193.845 194.415 194.632 193.179Z" fill="#7CDFF8"/>
<path d="M185.954 192.71C186.91 193.013 188.369 194.524 188.6 195.479C189.193 197.938 188.291 198.532 186.35 199.219C181.185 198.266 182.583 194.955 185.954 192.71Z" fill="#7CDFF8"/>
<path d="M98.2358 187.589C104.277 187.333 106.544 189.903 108.422 195.357C107.606 200.682 105.205 204.308 99.79 205.37C87.1768 205.803 85.9185 188.998 98.2358 187.589Z" fill="#3A70D6"/>
<path d="M97.1529 191.273C99.8246 191.113 102.268 191.241 103.707 193.96C104.397 195.252 104.514 196.774 104.029 198.156C103.379 199.959 102.146 200.918 100.509 201.688C97.8891 202.055 95.7831 201.536 94.3069 199.103C93.5909 197.945 93.4041 196.536 93.7934 195.232C94.2951 193.52 95.6476 192.159 97.1529 191.273Z" fill="#67F2F7"/>
<path d="M119.391 187.836C121.667 187.645 124.104 187.748 125.971 189.122C130.861 192.719 130.079 202.005 124.569 204.675C123.575 205.156 122.501 205.305 121.437 205.477C118.897 205.532 116.705 205.09 114.674 203.49C112.711 201.954 111.454 199.689 111.189 197.211C110.622 191.808 114.191 188.345 119.391 187.836Z" fill="#3A70D6"/>
<path d="M118.799 191.273C121.276 191.022 123.52 191.247 124.987 193.589C125.692 194.737 125.918 196.116 125.614 197.429C125.135 199.491 123.638 200.641 121.958 201.697C113.745 202.332 113.295 192.816 118.799 191.273Z" fill="#7FEEF9"/>
<path d="M139.278 188.077C141.119 187.902 143.128 187.749 144.935 188.133C151.662 189.56 152.398 199.331 147.959 203.482C146.673 204.684 145.889 204.879 144.244 205.34C141.813 205.556 138.489 205.409 136.503 203.946C132.169 200.753 131.28 193.185 135.649 189.591C137.066 188.426 137.537 188.371 139.278 188.077Z" fill="#3A70D6"/>
<path d="M140.394 191.284C145.759 190.849 146.851 192.729 147.522 197.683C146.332 199.459 145.513 200.318 143.624 201.278C135.863 203.721 133.992 192.77 140.394 191.284Z" fill="#7FEEF9"/>
<path d="M83.5491 286.117C77.9416 280.975 78.6891 279.357 78.7326 272.072C78.7799 264.11 78.8111 256.207 78.6894 248.208C78.6189 243.59 80.9021 239.114 85.9726 238.451C90.0734 238.089 94.5501 238.236 98.7114 238.232L121.569 238.237C142.638 238.242 164.837 237.831 185.774 238.257C185.895 239.78 185.943 241.384 186.013 242.917C186.164 246.236 186.144 251.21 186.623 254.292C189.066 258.067 194.585 258.342 198.706 258.61C199.839 258.912 200.324 259.122 201.138 260.02C202.255 262.035 203.475 265.435 204.351 267.682C203.899 268.91 203.384 270.335 202.424 271.27C200.61 273.69 195.914 278.692 198.056 281.695C198.69 282.145 201.658 285.757 202.332 286.55L120.735 286.597L98.1384 286.555C94.1276 286.545 87.1999 286.735 83.5491 286.117Z" fill="#4E71A5"/>
<path d="M83.5491 286.117C77.9416 280.975 78.6891 279.357 78.7326 272.072C78.7799 264.11 78.8111 256.207 78.6894 248.208C78.6189 243.59 80.9021 239.114 85.9726 238.451C90.0734 238.089 94.5501 238.236 98.7114 238.232L121.569 238.237C142.638 238.242 164.837 237.831 185.774 238.257C185.895 239.78 185.943 241.384 186.013 242.917C181.91 242.572 174.64 242.793 170.334 242.793L142.422 242.769L107.143 242.855C101.635 242.862 87.7544 242.454 83.1159 243.671C82.5271 248.037 82.4591 278.42 83.6174 280.825C85.0091 281.89 86.8031 282.087 88.5159 282.117C94.4029 282.227 100.341 282.077 106.24 282.075L147.843 282.07L181.386 282.227C184.702 282.232 195.459 282.615 198.056 281.695C198.69 282.145 201.658 285.757 202.332 286.55L120.735 286.597L98.1384 286.555C94.1276 286.545 87.1999 286.735 83.5491 286.117Z" fill="#6F9BCF"/>
<path d="M186.623 254.292C189.066 258.067 194.585 258.342 198.706 258.61C199.839 258.912 200.324 259.122 201.138 260.02C202.255 262.035 203.475 265.435 204.351 267.682C203.899 268.91 203.384 270.335 202.424 271.27C199.059 268.79 182.186 274.33 177.558 266.822C172.718 258.967 178.457 252.75 186.623 254.292Z" fill="#304F89"/>
<path d="M198.917 263.535C198.207 264.243 197.138 265.398 196.135 265.398C192.075 265.393 191.668 259.038 196.648 259.008C198.293 260.883 198.812 261.103 198.917 263.535Z" fill="#7CDFF8"/>
<path d="M198.706 258.61C199.839 258.913 200.324 259.123 201.137 260.02C201.092 261.805 200.675 262.94 198.917 263.535C198.812 261.103 198.293 260.883 196.648 259.008C197.139 258.973 198.179 258.72 198.706 258.61Z" fill="#3A70D6"/>
<path d="M185.75 259.26C189.279 260.082 189.328 263.92 186.197 265.82C182.814 264.53 181.94 260.542 185.75 259.26Z" fill="#7CDFF8"/>
<path d="M96.7739 253.825C99.0597 253.645 100.995 253.455 103.089 254.47C107.474 256.595 109.355 261.597 106.99 265.95C105.695 268.335 103.88 270.37 101.285 271.235C99.3252 271.51 97.2794 271.347 95.4629 270.527C93.1929 269.487 91.4189 267.602 90.5187 265.275C88.5879 260.13 91.9062 255.49 96.7739 253.825Z" fill="#3A70D6"/>
<path d="M97.4446 257.002C99.8039 256.95 102.397 257.755 103.613 259.932C104.294 261.157 104.42 262.612 103.958 263.935C103.319 265.722 102.1 266.66 100.465 267.402C99.9384 267.472 99.4069 267.495 98.8766 267.467C92.6246 267.085 92.4899 260.575 97.4446 257.002Z" fill="#7FEEF9"/>
<path d="M141.384 253.605C153.66 254.203 152.999 270.12 142.917 271.53C130.666 271.7 129.608 254.505 141.384 253.605Z" fill="#3A70D6"/>
<path d="M141.225 257.008C147.675 257.11 150.179 264.763 142.61 267.5C140.213 267.665 137.765 266.788 136.804 264.415C136.297 263.128 136.334 261.693 136.907 260.435C137.876 258.285 139.203 257.708 141.225 257.008Z" fill="#7FEEF9"/>
<path d="M118.399 253.805C120.825 253.518 123.199 253.608 125.311 254.955C126.962 256.02 128.131 257.688 128.566 259.603C129.774 264.72 127.007 269.968 121.702 271.145C111.552 271.998 106.278 257.02 118.399 253.805Z" fill="#3A70D6"/>
<path d="M120.02 257.043C122.302 257.433 124.347 258.258 125.228 260.628C125.689 261.89 125.588 263.288 124.951 264.473C124.019 266.188 122.691 266.808 120.956 267.288C113.422 267.108 113.737 258.768 120.02 257.043Z" fill="#7FEEF9"/>
<path d="M93.0658 291.082L167.593 291.09L192.109 291.177C196.512 291.185 201.713 291.32 206.048 291.027C209.283 294.217 211.01 296.302 215.438 297.57C220.444 296.402 222.611 294.055 226.386 291.882C227.915 291.002 235.287 294.81 236.825 295.66C237.854 296.23 237.84 296.332 238.156 297.432C238.265 299.022 238.699 301.217 239.034 302.775L93.1185 302.692C93.077 298.822 93.0593 294.952 93.0658 291.082Z" fill="#3A70D6"/>
<path d="M92.9126 159.739C105.281 159.906 118.066 159.719 130.475 159.72L241.485 159.715C241.449 162.277 241.538 164.824 241.464 167.401C238.454 167.148 230.768 167.462 227.306 167.469L196.612 167.472L93.0179 167.411L92.9126 159.739Z" fill="#304F89"/>
<path d="M92.9441 225.497L142.934 225.639C148.965 225.642 198.505 225.096 200.684 226.07C199.727 227.043 197.164 227.118 195.812 227.215C190.968 227.395 186.572 227.517 185.666 233.337L92.9661 233.279C92.9426 230.685 92.9351 228.091 92.9441 225.497Z" fill="#304F89"/>
</svg>
