<svg width="380" height="380" viewBox="0 0 380 380" fill="none" xmlns="http://www.w3.org/2000/svg">
<path d="M119.7 43.0737C124.006 40.6005 135.582 36.08 140.344 34.5772C170.945 24.92 198.96 23.1897 230.087 31.8932C237.959 34.0945 243.649 35.08 251.29 39.0905C264.393 44.1582 277.185 51.9582 288.313 60.5197C297.33 52.7467 307.725 47.3972 319.43 45.225C322.313 44.6902 332.15 43.0305 333.77 45.256C335.993 48.31 334.913 59.7777 334.278 63.439C332.908 71.364 329.775 79.0937 325.953 86.0902C324.525 88.6442 322.34 91.4222 320.885 93.9392C322.305 96.909 324.958 99.9447 326.63 102.785C328.985 106.783 331.43 111.197 333.56 115.319C349.88 147.27 355.398 183.653 349.283 219.006C347.093 231.155 342.58 244.692 337.713 256.035C322.735 290.93 294.243 319.897 260.39 336.835C255.8 339.132 251.29 340.812 246.522 342.652C213.746 355.65 177.491 356.955 143.864 346.35C101.084 332.72 65.6038 302.42 45.443 262.3C38.842 249.441 33.244 231.557 30.795 217.37C26.4743 190.809 28.6248 163.599 37.064 138.046C50.4323 96.796 81.3383 62.6787 119.7 43.0737Z" fill="#4CC27B"/>
<path d="M288.312 60.5196C297.33 52.7466 307.725 47.3971 319.43 45.2249C322.312 44.6901 332.15 43.0304 333.77 45.2559C335.992 48.3099 334.912 59.7776 334.277 63.4389C332.907 71.3639 329.775 79.0936 325.952 86.0901C324.525 88.6441 322.34 91.4221 320.885 93.9391C316.675 99.0999 314.42 101.168 310.147 105.818C311.442 114.445 311.147 119.47 305.777 126.636C305.32 127.243 304.837 127.832 304.335 128.404C338.75 150.715 347.78 198.497 325.612 232.582C315.005 249.079 298.2 260.61 278.99 264.57C261.432 268.29 240.548 264.507 225.33 254.857C212.311 246.602 199.527 232.407 190.755 219.685L190.474 219.935C186.293 223.726 180.243 232.083 176.227 236.627C159.83 255.18 138.033 267.205 112.755 265.887C92.9628 265.132 75.7166 256.987 62.2391 242.401C48.6128 227.79 41.4378 208.31 42.3296 188.351C43.0053 168.437 51.6498 149.63 66.3223 136.149C80.7411 122.795 99.8873 115.738 119.524 116.538C139.69 117.41 159.627 127.994 173.156 142.781C176.911 146.968 180.574 151.236 184.142 155.584C186.074 157.923 188.008 160.695 190.167 162.723C193.443 159.45 198.001 152.948 201.341 149.122C212.91 135.87 224.627 125.624 241.684 120.235C245.373 119.07 249.205 118.378 252.405 117.383C253.997 114.529 259.525 109.36 261.867 106.922C260.71 102.952 262.3 100.89 263.807 96.9559C259.497 96.4039 255.242 96.1691 251.12 97.7261C235.544 103.594 250.687 84.2859 254.335 80.8391C261.61 73.9661 266.37 72.9681 276.035 73.0011C280.105 69.2509 284.165 64.5416 288.312 60.5196Z" fill="#041640"/>
<path d="M232.852 133.412C234.357 132.512 247.145 127.533 248.165 127.716C247.444 131.533 245.946 135.917 246.27 139.655C249.755 140.675 263.958 136.696 267.55 134.844C268.533 134.336 269.66 133.408 270.463 132.63C271.413 133 271.545 132.854 271.94 133.533C271.46 136.255 263.408 144.452 260.958 146.521C259.5 147.751 254.645 148.74 252.518 149.318C235.815 153.847 225.827 167.601 215.261 180.285C202.408 195.715 190.612 212.574 177.43 227.76C158.984 249.866 142.847 260.655 113.413 261.04L115.83 259.188C117.513 257.648 125.765 249.979 126.211 247.68C126.463 246.383 124.788 244.734 123.82 243.787C122.376 242.848 116.69 237.017 115.218 235.539C116.327 235.802 116.409 236.26 117.39 236.715L118.123 236.418C124.015 237.721 133.811 236.249 138.891 233.204C156.305 222.768 167.959 204.4 180.835 189.124C183.028 186.523 185.542 183.318 187.45 180.522L187.393 180.057C188.143 178.448 189.425 177.546 190.303 176.191C192.758 172.4 196.251 169.466 199.031 166.142C204.373 159.753 209.591 153.139 215.331 147.09C217.537 144.766 220.737 142.652 223.01 140.263C224.594 138.617 231.43 135.046 232.852 133.412Z" fill="#56C87D"/>
<path d="M232.852 133.412C234.357 132.512 247.145 127.533 248.165 127.716C247.444 131.533 245.946 135.917 246.27 139.655C245.65 139.135 244.813 138.555 243.926 138.846C227.231 144.328 216.189 158.385 205.449 171.459C205.017 171.985 203.453 173.718 202.946 174.007C203.4 172.538 205.688 171.1 205.941 169.806C204.932 168.33 200.738 169.106 199.159 169.208C198.436 169.255 197.856 168.269 196.969 169.242C193.631 172.368 191.056 177.683 187.45 180.522L187.393 180.057C188.143 178.448 189.425 177.546 190.303 176.191C192.758 172.4 196.251 169.466 199.031 166.142C204.373 159.753 209.591 153.139 215.331 147.09C217.537 144.766 220.737 142.652 223.01 140.263C224.594 138.617 231.43 135.046 232.852 133.412Z" fill="#80DF7B"/>
<path d="M123.82 243.787C127.862 245.483 128.963 244.757 133.061 244.071C144.055 242.231 152.455 234.73 160.121 227.186C161.382 225.945 164.359 222.189 165.552 221.507C164.804 223.923 157.718 228.604 158.578 230.795L159.121 231.116C159.363 232.654 159.953 233.771 161.805 233.56C162.388 233.07 162.401 233.133 162.218 232.323C163.067 232.568 164.415 234.058 165.141 234.762C165.45 234.371 165.42 234.319 165.549 233.827C168.539 232.652 172.423 225.947 175.326 223.612L175.381 223.893C173.967 225.746 172.46 227.215 170.992 228.961C168.83 231.532 166.847 233.991 164.444 236.37C155.21 245.37 143.849 251.888 131.418 255.315C126.745 256.61 123.286 257.588 118.425 257.575C117.944 257.575 117.237 259.293 115.83 259.188C117.513 257.648 125.765 249.979 126.211 247.68C126.463 246.383 124.788 244.734 123.82 243.787Z" fill="#26A986"/>
<path d="M276.388 131.426C279.478 130.054 282.48 128.769 286.033 128.59C286.558 128.907 286.948 129.151 287.51 129.41L288.05 128.665C288.812 130.013 286.582 134.264 287.36 136.352C287.587 137.862 287.165 139.182 288.473 140.131C291.12 140.294 296.385 136.518 298.545 134.811C302.873 138.885 306.782 141.23 311.297 145.978C314.625 149.479 318.17 154.81 320.895 157.509C321.432 156.682 322.435 156.499 323.345 156.164C323.593 156.478 323.55 156.396 323.725 156.762L323.723 156.54L323.902 156.244C328.08 161.889 332.302 177.472 332.615 184.468C328.685 188.488 323.245 193.375 320.18 197.851C317.002 194.769 307.998 187.038 306.7 183.456C306.063 181.696 305.803 179.788 305.355 177.973C304.655 175.127 303.36 172.336 301.885 169.814C300.19 166.848 298.153 164.09 295.818 161.596C295.03 160.759 292.917 158.885 292.425 158.175C286.047 152.742 280.855 150.475 272.795 148.452C270.61 147.937 268.37 147.702 266.125 147.753C270.225 143.851 273.382 140.653 276.717 136.106L276.948 136.266C277.508 134.931 277.323 133.681 276.785 132.355C276.658 132.044 276.525 131.734 276.388 131.426Z" fill="#51CDB4"/>
<path d="M272.795 148.452L273.007 147.958C273.532 148.096 274.057 148.241 274.58 148.39C275.257 147.895 275.61 147.715 276.065 147.031L276.005 146.555L275.11 146.049C277.725 144.242 289.967 151.163 291.895 153.634L290.48 152.998L290.305 153.158C290.557 154.177 290.58 154.531 290.487 155.576C291.157 156.823 292.925 157.27 292.425 158.175C286.047 152.743 280.855 150.475 272.795 148.452Z" fill="#9AE79E"/>
<path d="M202.347 155.446C203.645 153.686 206.144 151.144 207.633 149.378C217.918 137.183 233.136 126.06 249.235 123.336C249.245 124.839 248.54 126.263 248.165 127.716C247.145 127.533 234.357 132.511 232.852 133.412C231.429 135.046 224.593 138.616 223.01 140.263C220.737 142.652 217.537 144.765 215.331 147.09C209.591 153.139 204.372 159.753 199.03 166.142C196.251 169.466 192.758 172.4 190.303 176.191C189.425 177.546 188.143 178.447 187.393 180.057L187.45 180.522C185.542 183.317 183.028 186.522 180.835 189.124C167.959 204.4 156.304 222.768 138.891 233.204C133.81 236.249 124.014 237.72 118.122 236.418L117.39 236.715C116.409 236.26 116.327 235.801 115.217 235.539C114.749 235.302 114.914 235.473 114.75 234.985C116.454 234.48 119.164 234.595 121.02 234.396C128.424 233.602 137.527 230.123 143.343 225.41C157.215 214.169 167.628 198.67 178.775 184.85C183.274 179.433 187.584 173.805 192.078 168.393C195.236 164.591 198.847 158.722 202.347 155.446Z" fill="#9AE79E"/>
<path d="M202.347 155.446C203.645 153.686 206.144 151.144 207.634 149.378C217.918 137.183 233.136 126.06 249.236 123.336C249.246 124.839 248.54 126.263 248.165 127.716C247.145 127.533 234.357 132.511 232.852 133.412L232.957 132.93C235.887 131.279 239.308 130.07 242.519 129.07C244.579 128.428 246.608 128.505 247.583 125.86C246.852 125.688 245.453 126.738 242.899 126.718C242.678 126.212 242.556 125.942 242.28 125.452C238.84 126.415 237.493 127.511 233.682 129.241C221.119 134.946 211.997 145.174 203.021 155.289C202.796 155.341 202.572 155.394 202.347 155.446Z" fill="#C9F8AC"/>
<path d="M261.868 106.922C262.665 107.758 263.775 108.994 264.65 109.677C265.4 110.338 265.568 110.243 265.685 110.994C264.805 113.222 262.755 118.06 263.773 120.35C263.97 120.804 264.355 121.149 264.828 121.296C266.148 121.716 268.545 121.052 269.803 120.568C271.028 121.05 272.673 121.21 273.003 122.476C273.225 121.837 274.323 120.01 274.855 118.555C275.653 119.812 276.853 121.846 277.805 122.9C276.285 126.162 275.908 127.44 273.59 130.216C272.44 130.905 271.275 131.539 270.463 132.63C269.66 133.407 268.533 134.336 267.55 134.843C263.958 136.695 249.755 140.675 246.27 139.654C245.946 135.917 247.444 131.532 248.165 127.715C248.54 126.262 249.246 124.839 249.236 123.335C250.33 122.043 251.763 118.945 252.405 117.383C253.998 114.529 259.525 109.36 261.868 106.922Z" fill="#F77644"/>
<path d="M264.65 109.678C265.4 110.338 265.567 110.244 265.685 110.994C264.805 113.223 262.755 118.06 263.772 120.351C263.97 120.804 264.355 121.149 264.827 121.296C266.147 121.716 268.545 121.053 269.802 120.568C271.027 121.05 272.672 121.211 273.002 122.476C268.227 129.198 261.66 131.743 253.675 132.063C253.967 122.95 257.477 115.396 264.65 109.678Z" fill="#EDDC6A"/>
<path d="M298.545 134.811C299.62 133.775 300.7 132.744 301.787 131.72C309.472 138.455 316.617 144.247 322.205 153.214C322.557 153.779 323.745 155.711 323.902 156.243L323.722 156.54L323.725 156.761C323.55 156.396 323.592 156.478 323.345 156.164C322.435 156.499 321.432 156.682 320.895 157.509C318.17 154.81 314.625 149.479 311.297 145.978C306.782 141.23 302.872 138.885 298.545 134.811Z" fill="#9AE79E"/>
<path d="M277.805 122.9C281.752 123.967 285.352 124.105 288.857 126.302C288.75 128.166 287.95 134.645 287.36 136.352C286.582 134.265 288.812 130.014 288.05 128.666L287.51 129.41C286.947 129.151 286.557 128.907 286.032 128.59C282.48 128.77 279.477 130.055 276.387 131.426C276.525 131.734 276.657 132.044 276.785 132.356C277.322 133.681 277.507 134.931 276.947 136.266L276.717 136.107C277.047 133.096 276.505 131.436 273.59 130.217C275.907 127.441 276.285 126.163 277.805 122.9Z" fill="#9AE79E"/>
<path d="M269.803 120.568C270.865 119.943 273.263 118.515 274.338 118.159L274.855 118.555C274.323 120.01 273.225 121.837 273.003 122.476C272.673 121.21 271.028 121.05 269.803 120.568Z" fill="#F6C160"/>
<path d="M110.917 153.102C113.651 152.604 122.571 152.916 125.472 153.672C138.969 157.192 148.251 167.398 156.701 177.826C160.691 182.751 163.698 185.822 167.187 191.267C164.973 194.72 162.585 197.772 159.94 200.893C151.238 211.163 144.045 221.253 131.329 226.95C118.833 232.297 102.384 230.142 91.9189 221.504C76.4144 208.707 73.0567 182.695 86.0407 167.022C92.3074 159.458 101.127 154.091 110.917 153.102Z" fill="#56C87D"/>
<path d="M118.998 163.866C126.535 164.076 122.112 168.594 126.315 170.998C127.837 170.833 130.672 167.897 132.457 168.717C134.69 169.742 137.771 172.832 139.079 174.887C140.566 177.224 139.051 178.836 138.325 180.965C137.412 184.836 142.895 183.226 144.337 186.234C145.665 189.003 144.625 194.579 143.865 197.414C142.5 197.985 139.217 198.697 137.607 199.101C138.392 201.682 139.206 203.173 140.619 205.485C138.968 208.377 135.171 212.191 132.297 213.876C130.806 213.224 127.629 211.67 126.088 211.792C124.194 211.942 125.452 215.103 123.795 216.777C121.912 218.677 118.823 218.48 116.309 218.557C114.448 218.547 112.991 218.356 111.156 218.136C110.64 216.399 110.316 214.062 109.868 212.183C106.212 210.838 105.525 211.779 102.835 214.058C98.4886 212.434 96.6553 209.706 94.1573 206.003C94.9503 204.441 97.0333 200.86 96.3878 199.32C95.3231 198.078 92.3718 197.922 90.5888 197.562C89.4978 194.683 88.7831 187.569 90.6276 184.761C91.3061 183.728 94.8246 183.473 96.1468 183.324C96.6996 180.008 96.6731 179.357 94.2991 176.908C94.4143 176.661 94.5328 176.416 94.6551 176.173C96.5266 172.442 99.0496 169.833 103.007 168.513C105.851 170.515 106.812 171.871 109.83 169.393C110.233 167.796 110.541 165.7 110.831 164.046L118.998 163.866Z" fill="#041640"/>
<path d="M118.739 167.613L119.581 167.618C120.37 168.494 120.348 170.643 121.534 172.416C123.089 173.349 125.062 174.64 126.848 174.82C129.731 175.11 130.157 173.906 131.854 172.594C133.482 174.728 133.881 175.351 135.962 177.074C135.029 177.852 133.737 178.741 133.242 179.788C133.277 181.461 135.166 186.218 136.304 187.609C136.783 188.194 140.216 188.03 141.199 188.014C141.028 190.084 140.982 192.347 140.899 194.436C137.124 194.437 134.154 195.535 133.328 199.972C132.9 202.271 134.305 203.725 135.644 205.43C133.773 206.574 133.106 207.385 131.772 209.113C130.076 207.735 129.021 207.118 127.161 205.988C122.633 209.286 120.602 207.143 120.726 214.21C118.828 214.285 116.843 214.305 114.937 214.348L114.409 214.22C114.011 213.748 113.578 210.875 113.307 209.845C111.594 208.526 107.518 206.556 105.213 206.778C104.177 206.878 103.226 208.564 102.614 209.46C101.086 208.463 99.2924 206.682 97.5154 205.435C102.746 203.515 101.567 199.212 98.6832 195.685C97.1627 193.826 95.4872 193.877 93.2744 193.801C93.3514 191.879 93.3839 189.954 93.3717 188.03C95.0789 187.891 95.9037 187.749 97.5409 187.317C98.8494 185.707 101.072 182.691 100.983 180.604C100.9 178.649 99.8229 177.917 98.4972 176.656C100.115 174.828 101.022 173.895 102.854 172.285C104.005 173.807 104.332 174.108 105.857 175.243C109.114 174.574 110.474 173.683 113.412 172.159C113.773 170.492 113.762 169.477 113.806 167.755C115.634 167.789 116.916 167.749 118.739 167.613Z" fill="#B3CADC"/>
<path d="M115.106 179.521C121.385 178.51 127.289 182.799 128.269 189.084C129.248 195.368 124.93 201.251 118.64 202.2C112.395 203.141 106.562 198.86 105.59 192.619C104.617 186.378 108.87 180.524 115.106 179.521Z" fill="#041640"/>
<path d="M116.913 183.075C121.163 182.892 124.778 186.145 125.043 190.391C125.308 194.637 122.126 198.315 117.886 198.662C115.069 198.893 112.347 197.584 110.769 195.239C109.19 192.894 109.002 189.879 110.276 187.356C111.551 184.834 114.089 183.196 116.913 183.075Z" fill="#56C87D"/>
<path d="M263.547 152.865C266.682 152.874 270.69 153.001 273.747 153.759C306.71 161.948 312.462 206.195 284.582 224.232C275.315 230.228 264.822 230.743 254.335 228.464C236.262 223.463 224.043 205.815 213.423 191.325C217.708 183.782 225.146 175.703 231.051 169.288C240.529 158.992 249.169 153.341 263.547 152.865Z" fill="#56C87D"/>
<path d="M263.428 168.603C272.8 167.974 278.53 173.839 281.698 182.019C288.703 183.605 292.175 187.419 292.69 194.941C292.885 197.785 291.308 201.862 289.285 203.874C284.988 208.142 276.608 207.491 270.998 207.488L260.625 207.476C253.84 207.495 239.151 208.686 234.333 204.659C228.08 199.433 230.695 189.522 236.96 185.612C237.487 185.283 239.556 182.114 240.33 181.303C243.536 177.942 248.088 178.46 251.003 174.204C253.985 170.28 258.61 168.98 263.428 168.603Z" fill="#041640"/>
<path d="M263.05 172.324C266.767 172.14 269.76 173.056 272.84 175.234C276.537 177.85 277.477 181.859 278.145 186.114C280.16 185.805 281 185.551 282.925 186.434C288.705 189.085 291.127 196.297 286.205 201.079C284.94 202.314 283.365 203.184 281.647 203.599C278.732 204.307 264.012 203.994 260.42 203.982C254.317 204.014 246.725 204.443 240.77 203.489C235.671 202.672 231.884 195.003 236.873 191.441C238.246 190.46 239.793 189.713 241.339 188.929C241.145 183.099 245.455 181.116 250.625 182.55C252.73 176.428 256.712 173.256 263.05 172.324Z" fill="#CAE7F7"/>
<path d="M47.6836 184.383C48.5571 164.907 60.6768 144.656 76.6623 133.863C87.4893 126.553 95.4921 123.62 108.279 121.785C112.421 126.927 116.823 130.102 120.959 134.792C119.327 136.63 109.509 146.906 108.267 147.636C106.68 148.968 99.6816 151.192 97.1981 152.366C83.3941 158.896 76.0433 170.403 73.3213 185.143C68.7021 189.327 64.6823 193.488 60.2248 197.584C57.0223 192.86 54.2168 191.408 50.6661 187.449C49.6021 186.231 48.8698 185.483 47.6836 184.383Z" fill="#56C87D"/>
<path d="M47.6836 184.383C48.5571 164.907 60.6768 144.656 76.6623 133.863C87.4893 126.553 95.4921 123.62 108.279 121.785C112.421 126.927 116.823 130.102 120.959 134.792C119.327 136.63 109.509 146.906 108.267 147.636L108.214 147.148C108.855 146.583 110.243 145.493 110.521 144.8C109.412 144.399 103.835 143.665 102.416 143.445C100.551 143.156 96.2853 141.24 94.6003 141.093C88.1458 140.531 80.8191 140.979 74.4386 141.564C73.0583 142.441 71.7643 143.837 70.6256 144.878C59.1278 155.386 52.2833 171.21 51.3753 186.666C51.3531 187.043 50.9466 187.257 50.6661 187.449C49.6021 186.231 48.8698 185.483 47.6836 184.383Z" fill="#80DF7B"/>
<path d="M46.8359 190.743C48.4644 191.782 58.4672 201.388 60.2562 203.182C63.2252 201.534 65.2382 199.163 67.5769 196.702C69.5997 194.465 70.9267 193.067 73.1929 191.034C73.8969 209.149 82.0007 223.477 98.6752 231.074C103.564 233.301 107.035 233.127 110.742 237.427C113.969 241.006 117.524 244.016 120.622 247.798C118.356 250.668 110.944 257.85 107.993 260.873C93.2077 259.405 80.0837 252.558 69.2494 242.579C54.5962 229.084 47.6354 210.384 46.8359 190.743Z" fill="#26A986"/>
<path d="M67.5767 196.701C69.5994 194.465 70.9264 193.066 73.1927 191.033C73.8967 209.148 82.0004 223.476 98.6749 231.073C103.564 233.3 107.035 233.126 110.742 237.426L109.991 237.971C108.945 238.162 107.553 237.882 106.493 237.725C88.1517 235.005 74.9252 219.452 69.6422 202.469C69.1119 200.763 68.6387 198.033 67.5767 196.701Z" fill="#80DF7B"/>
<path d="M331.59 191.905C332.038 191.524 332.45 191.045 332.995 191.014C334.028 192.774 331.483 205.806 330.903 208.44C327.068 225.862 315.593 241.413 300.5 250.795C293.15 255.435 281.058 260.07 271.915 260.553C271.645 260.565 271.398 260.198 271.2 259.988C267.458 256.67 262.785 251.73 259.248 248.068C261.74 244.906 266.283 240.565 269.233 237.186C271.823 233.984 274.448 233.914 278.24 232.428C291.31 227.304 296.725 221.726 303.383 209.92C303.488 209.376 304 208.293 304.208 207.687C306.068 202.241 307.165 197.063 307.058 191.275C311.748 195.397 314.733 199.558 320.125 203.84C321.385 202.334 330.255 192.773 331.59 191.905Z" fill="#369CCF"/>
<path d="M331.59 191.905C332.038 191.524 332.45 191.045 332.995 191.014C334.028 192.774 331.483 205.806 330.903 208.44C327.068 225.862 315.593 241.413 300.5 250.795C293.15 255.435 281.058 260.07 271.915 260.553C271.645 260.565 271.398 260.198 271.2 259.988C270.893 258.83 270.305 258.643 270.263 257.86C278.883 255.778 286.533 253.798 294.268 249.634C311.26 240.485 323.393 225.058 327.603 206.191C328.39 202.664 328.348 199.206 328.788 195.661C328.86 195.065 331.218 192.74 331.718 192.254L331.59 191.905Z" fill="#43AFDD"/>
<path d="M303.382 209.92C303.527 212.189 298.665 218.658 297.072 220.526C292.952 225.368 285.015 230.781 278.872 232.598C278.882 233.726 278.977 234.512 278.575 235.564L278.375 235.738C278.08 235.999 278.192 235.892 277.917 236.199C281.99 236.511 292.537 229.469 295.585 226.609C298.335 224.032 302.38 219.771 304.23 216.385C304.75 215.43 305.872 213.393 306.542 212.641C301.312 223.238 292.98 230.954 281.845 235.531C279.972 236.302 271.395 238.018 269.612 237.544L269.232 237.186C271.822 233.984 274.447 233.914 278.24 232.428C291.31 227.304 296.725 221.726 303.382 209.92Z" fill="#51CDB4"/>
<path d="M113.758 121.483C143.916 121.639 162.743 135.515 180.475 158.708C182.259 161.041 184.409 163.297 185.963 165.796C186.545 166.841 186.673 166.697 186.626 167.803C185.12 170.064 181.332 173.759 179.326 176.36C176.452 180.144 173.47 183.846 170.383 187.46C168.987 185.446 166.876 183.117 165.723 181.346C164.381 179.968 162.315 177.148 161.086 175.566C148.967 159.97 136.035 147.406 114.842 147.678C116.636 145.953 118.709 143.585 120.493 141.752C122.208 139.991 125.521 137.069 126.71 135.15C124.709 130.648 121.813 129.659 118.942 126.138C117.221 124.547 115.556 122.988 113.758 121.483Z" fill="#50C0D7"/>
<path d="M113.758 121.483C143.916 121.639 162.743 135.515 180.475 158.708C182.259 161.041 184.409 163.297 185.963 165.796C185.893 167.011 185.932 167.066 185.166 167.799C182.044 168.418 176.13 159.829 174.246 157.507C161.432 141.712 145.214 128.274 124.315 125.965C123.112 125.832 119.936 125.151 118.915 125.339L118.942 126.138C117.221 124.547 115.556 122.988 113.758 121.483Z" fill="#96E7ED"/>
<path d="M165.724 181.346C167.668 181.598 167.36 184.785 169.913 184.195C171.043 182.991 170.758 179.82 170.982 178.066C171.206 176.314 172.797 174.157 174.115 173.015C174.916 172.321 173.263 171.213 173.391 170.267C175.382 172.033 175.77 174.175 179.054 176.195L179.326 176.36C176.452 180.144 173.47 183.846 170.384 187.46C168.987 185.446 166.876 183.117 165.724 181.346Z" fill="#3599D1"/>
<path d="M209.031 196.382L209.549 195.654C214.646 196.23 230.733 235.434 265.92 234.769C264.78 235.766 263.438 236.883 262.398 237.958C260.37 240.845 253.195 245.424 253.598 248.662C253.733 249.748 259.633 254.305 260.963 256.003L265.748 261.278C262.73 260.995 259.748 260.838 256.693 260.513C230.401 257.708 214.522 242.427 198.817 222.549C197.504 221.597 194.117 217.357 193.222 215.957C194.468 214.065 196.68 211.74 198.096 209.868C201.586 205.255 204.921 200.478 209.031 196.382Z" fill="#18A28F"/>
<path d="M200.981 219.066C204.089 222.375 206.766 226.143 209.763 229.499C216.31 236.83 223.537 244.339 232.425 248.902C239.876 252.727 249.278 256.352 257.725 257.002C259.073 257.105 260.038 257.012 260.963 256.002L265.748 261.277C262.73 260.995 259.748 260.837 256.693 260.512C230.401 257.707 214.522 242.426 198.817 222.549C199.46 221.062 199.582 219.816 200.981 219.066Z" fill="#40C7A9"/>
<path d="M209.03 196.382L209.549 195.654C214.646 196.23 230.732 235.434 265.92 234.769C264.78 235.766 263.437 236.883 262.397 237.958C261.305 237.741 260.777 237.94 259.807 237.92C238.921 237.49 222.981 220.207 212.133 204.128C212.076 204.076 212.018 204.025 211.96 203.973C210.344 201.224 209.515 199.547 209.03 196.382Z" fill="#64D891"/>
<path d="M209.031 196.382C209.515 199.547 210.344 201.224 211.96 203.973C208.712 207.356 206.289 213.448 202.722 216.988C202.17 217.535 201.66 218.665 200.981 219.066C199.582 219.816 199.46 221.062 198.817 222.549C197.504 221.597 194.117 217.356 193.222 215.957C194.468 214.065 196.68 211.74 198.096 209.867C201.586 205.255 204.921 200.478 209.031 196.382Z" fill="#228895"/>
<path d="M309.765 52.5125C310.72 52.4053 311.815 54.6333 312.582 55.601C317.245 61.4763 322.515 65.3145 328.477 69.6218C328.435 69.774 328.392 69.9258 328.35 70.0773C324.15 84.5863 313.74 98.1255 301.615 106.927C298.025 109.536 291.845 113.499 288.005 115.627C286.03 113.122 284.685 111.927 282.345 109.744C284.282 107.729 286.175 105.672 288.022 103.575C289.962 101.172 291.632 98.7683 292.427 95.769C294.28 88.7778 289.977 88.7638 285.067 91.2755C279.365 94.194 277.597 97.409 273.71 101.878C271.707 99.8323 270.197 98.3803 268.03 96.5175C269.982 92.0565 271.86 88.9868 274.172 84.861C282.715 69.621 293.662 59.3695 309.765 52.5125Z" fill="#C9DDEB"/>
<path d="M303.64 65.0063C309.465 63.8073 315.163 67.5381 316.39 73.3553C317.62 79.1723 313.92 84.8896 308.108 86.1491C302.255 87.4176 296.488 83.6831 295.248 77.8233C294.01 71.9636 297.775 66.2146 303.64 65.0063Z" fill="#041640"/>
<path d="M304.945 68.5168C305.587 68.4661 306.235 68.4881 306.87 68.5821C309.302 68.9276 311.185 70.2758 312.652 72.1803C313.552 77.3576 312.28 80.6728 307.207 82.7381C299.172 84.0016 294.372 71.9708 304.945 68.5168Z" fill="#43AFDD"/>
<path d="M306.173 108.49C307.19 109.923 305.993 118.001 305.41 119.818C304.273 123.367 294.453 135.259 290.955 133.923C292.338 127.894 292.97 124.97 291.2 118.973C291.08 118.561 291.64 117.831 292.05 117.649C297.6 115.183 301.533 112.296 306.173 108.49Z" fill="#328DDE"/>
<path d="M270.457 77.0981C271.205 76.9793 273.447 76.9974 274.317 76.9854C269.837 83.1951 268.4 86.5008 265.28 93.4321C260.745 92.4271 257.152 92.2031 252.535 92.8186C250.997 93.1298 250.472 93.3801 249.02 94.0236C256.212 85.5723 257.537 78.7918 270.457 77.0981Z" fill="#43AFDD"/>
<path d="M329.575 48.1798L330.112 48.0498C330.78 48.7828 330.55 53.8723 330.492 55.1288C330.302 58.6863 329.925 62.2311 329.362 65.7488C326.54 63.5876 318.425 56.9646 316.36 54.2056C315.317 53.0171 314.695 52.2861 313.812 50.9868C318.657 49.4563 324.508 48.4938 329.575 48.1798Z" fill="#26A986"/>
<path d="M313.812 50.9877C318.657 49.4572 324.508 48.4947 329.575 48.1807L330.027 48.5017L330.07 48.8619C327.455 51.5382 322.515 52.4892 318.995 53.4699C317.682 53.8357 317.52 53.4099 316.36 54.2064C315.317 53.0179 314.695 52.2869 313.812 50.9877Z" fill="#9AE79E"/>
<path d="M289.04 93.2334C289.433 93.4966 289.255 93.3347 289.458 93.8722C286.545 100.117 274.57 112.975 268.77 116.046C268.398 115.781 268.545 115.948 268.395 115.484C270.933 110.305 283.315 95.3284 289.04 93.2334Z" fill="#3599D1"/>
<path d="M266.422 101.355C267 101.446 267.34 101.54 267.857 101.848C268.85 102.428 269.557 103.393 269.812 104.514C270.092 105.793 269.817 106.204 269.122 107.269C268.695 107.461 268.495 107.413 268.022 107.408C265.725 106.277 266.005 103.458 266.422 101.355Z" fill="#43AFDD"/>
<path d="M279.122 113.198C280.332 113.692 282.977 115.804 283.11 117.189C282.492 117.834 282.592 117.634 281.502 117.829C279.585 117.472 278.075 116.402 276.44 115.385C277.34 114.662 278.232 113.933 279.122 113.198Z" fill="#9AE79E"/>
<path d="M190.307 54.9033C197.321 57.4033 205.669 63.6421 212.628 66.9111C214.831 67.9458 216.996 69.6533 219.315 70.6518C219.701 70.8276 220.322 71.1436 220.706 71.2393C220.847 73.8061 220.853 75.3958 220.72 77.9621C220.574 78.5788 220.388 79.5368 220.133 80.0873C219.205 80.0523 218.537 79.9346 217.694 80.2931C216.576 81.7041 217.239 85.7248 217.231 87.9413L217.253 108.413C218.461 108.595 219.813 108.676 220.722 109.514C222.774 111.404 222.386 116.61 222.464 119.534C219.404 120.028 205.717 119.901 201.685 119.86C187.4 119.715 171.819 120.249 157.62 119.65C157.682 116.159 157.443 112.6 158.954 109.468C160.328 108.983 161.088 108.862 162.533 108.608C162.487 99.0791 162.506 89.5503 162.59 80.0221L159.788 79.6821C159.514 77.1023 159.525 73.8836 159.436 71.2253L161.454 70.3098C162.742 69.7818 165.171 68.4723 166.299 67.6938C170.591 65.2681 186.489 55.9433 190.307 54.9033Z" fill="#041640"/>
<path d="M166.04 79.9515C179.717 79.5475 193.583 79.8783 207.275 79.7833C209.486 79.768 211.775 79.7835 213.975 79.9283C213.901 89.486 213.905 99.0443 213.986 108.602C211.807 108.892 199.687 108.836 197.411 108.624C197.063 104.632 198.1 87.4408 196.383 85.5333C195.043 84.0448 192.748 83.8485 190.875 83.744C188.673 83.621 185.592 83.4298 183.871 85.083C182.149 86.7375 182.75 105.214 182.741 108.629C180.933 108.866 177.995 108.708 176.182 108.562C172.797 108.495 169.412 108.494 166.027 108.558C165.999 99.5178 165.719 88.8725 166.04 79.9515Z" fill="#B2CDE8"/>
<path d="M203.987 95.4196C206.115 95.2956 207.672 95.2416 209.818 95.2901C209.841 97.9546 209.879 100.828 209.602 103.481L203.773 103.437L203.7 103.197C203.784 100.847 203.611 97.5839 203.987 95.4196Z" fill="#2C85DA"/>
<path d="M176.462 95.1387C176.448 95.7209 176.47 96.6804 176.306 97.2062L176.238 101.448L176.203 103.025C175.672 102.745 171.444 103.258 170.534 103.329C170.265 100.166 170.303 98.2882 170.525 95.1977C172.525 95.0854 174.492 95.3694 176.462 95.1387Z" fill="#2C85DA"/>
<path d="M176.306 97.2061L176.238 101.448C175.758 101.378 175.28 101.299 174.803 101.209C173.753 101.007 173.413 100.856 172.834 99.9916C172.747 97.8806 174.621 97.6876 176.306 97.2061Z" fill="#3599D1"/>
<path d="M204.711 83.9531L208.709 84.0006C209.367 84.3659 209.716 84.4096 209.936 85.2404C210.409 87.0321 210.223 89.6864 210.082 91.5349C208.205 91.5306 205.851 91.5746 204.045 91.2154C203.7 89.7636 203.775 87.7549 203.767 86.2204C203.773 85.0081 203.922 84.9571 204.711 83.9531Z" fill="#2C85DA"/>
<path d="M204.711 83.9531L208.709 84.0006L208.791 84.5429C206.902 85.3059 205.016 84.7684 204.073 85.4916L203.767 86.2204C203.773 85.0081 203.921 84.9571 204.711 83.9531Z" fill="#1D6BB3"/>
<path d="M170.554 84.3347C172.394 84.2829 174.112 84.1829 175.944 84.4169C176.714 85.9527 176.349 89.1402 176.236 90.9762C174.734 90.9839 172.092 91.2924 170.516 91.4262C170.342 88.8392 170.438 86.9322 170.554 84.3347Z" fill="#3599D1"/>
<path d="M202.719 108.399C201.697 105.038 201.739 87.4791 202.353 84.1806C202.825 83.8751 204.074 83.9599 204.711 83.9534C203.921 84.9574 203.773 85.0084 203.767 86.2206C203.775 87.7551 203.699 89.7639 204.044 91.2156C204.024 92.5954 203.978 94.0474 203.987 95.4201C203.61 97.5844 203.784 100.848 203.7 103.197L203.326 102.827L202.945 103.053C202.55 104.82 203.08 106.804 202.719 108.399Z" fill="#1267BB"/>
<path d="M176.462 95.1389L177.767 95.0361C177.891 99.5419 177.88 104.05 177.732 108.556C179.062 108.565 181.5 108.507 182.741 108.628C180.933 108.866 177.995 108.708 176.182 108.561L176.202 103.025L176.238 101.448L176.306 97.2064C176.47 96.6806 176.447 95.7211 176.462 95.1389Z" fill="#1267BB"/>
<path d="M175.944 84.417C176.584 84.4785 177.442 84.4105 177.713 84.874C178.417 86.079 177.935 89.1817 177.823 90.6815C177.395 90.822 176.663 91.0392 176.28 91.2122L176.236 90.9762C176.349 89.1402 176.714 85.9527 175.944 84.417Z" fill="#1267BB"/>
<path d="M202.72 108.4C203.08 106.804 202.551 104.82 202.945 103.053L203.326 102.827L203.7 103.198L203.773 103.438L203.766 108.541C206.987 108.529 210.815 108.422 213.986 108.602C211.807 108.892 199.687 108.836 197.411 108.624C198.355 108.484 201.456 108.479 202.72 108.4Z" fill="#1D6BB3"/>
<path d="M176.279 91.2124C176.663 91.0394 177.395 90.8221 177.823 90.6816L177.767 95.0364L176.462 95.1391C176.5 93.7129 176.401 92.6374 176.279 91.2124Z" fill="#1D6BB3"/>
<path d="M190.278 58.5361C191.198 58.9241 195.598 61.7696 197.12 62.5529C200.924 64.6721 204.816 66.7821 208.589 68.9436C210.388 69.9744 216.395 72.6661 217.099 74.1964C217.087 75.1734 217.061 75.2854 216.553 76.1181C215.364 77.1246 193.228 76.7264 190.125 76.7201C186.592 76.7176 164.239 77.1141 162.983 75.7661C162.222 72.9604 170.513 69.6016 172.657 68.4296C178.461 65.2559 184.412 61.5036 190.278 58.5361Z" fill="#B2CDE8"/>
<path d="M168.185 112.113C174.091 111.885 181.028 112.059 187.004 112.071L217.885 112.05C218.119 113.406 218.198 114.546 218.301 115.921C216.445 116.023 213.612 115.934 211.684 115.931L180.68 115.88C175.687 115.9 170.693 115.925 165.7 115.958C163.99 115.97 162.308 116.178 161.347 114.479C161.462 111.814 166.213 112.186 168.185 112.113Z" fill="#B2CDE8"/>
<path d="M190.183 98.1133L193.966 98.2573C194.217 101.785 194.245 105.326 194.052 108.857L190.813 108.939L185.891 108.932C185.75 105.423 185.908 101.808 186.009 98.2898L190.183 98.1133Z" fill="#80DF7B"/>
<path d="M186.607 86.3683C188.959 86.2175 191.313 86.2898 193.669 86.3238C193.816 88.1633 194.335 93.4855 193.848 95.1248L193.312 95.257L185.985 95.2025C185.858 93.2695 185.359 88.321 185.991 86.6415L186.607 86.3683Z" fill="#56C87D"/>
<path d="M119.7 43.0737C124.006 40.6005 135.582 36.08 140.344 34.5772C170.945 24.92 198.96 23.1897 230.087 31.8932C237.959 34.0945 243.649 35.08 251.29 39.0905C251.42 40.2565 251.213 39.8285 252.113 40.677C251.288 41.449 250.825 40.8112 250.405 41.4085C248.646 43.9075 242.359 45.024 240.883 46.8542C239.397 49.2327 237.689 48.4847 235.413 49.2062C234.903 49.368 234.275 50.7647 233.087 50.9447C231.354 51.207 231.025 51.7812 229.072 51.6222C227.686 52.1542 224.416 55.8772 223.664 57.5402C222.958 59.1027 221.801 63.0285 220.76 64.2727C220.022 65.1545 218.395 64.7687 218.727 66.5577L218.965 66.7062C219.254 66.8895 219.455 67.033 219.728 67.2342C219.907 69.3765 218.552 68.5322 219.316 70.6515C216.996 69.653 214.831 67.9455 212.629 66.9107C205.67 63.6417 197.321 57.403 190.307 54.903C186.489 55.943 170.591 65.2677 166.299 67.6935C166.206 67.5162 165.975 67.2212 165.848 67.0472C165.266 67.0895 165.286 66.9657 164.676 66.6312L164.623 66.2867L165.116 65.9495L165.172 65.633C164.015 66.5282 162.658 67.1312 161.218 67.3905C160.458 67.5242 159.476 67.5117 158.876 66.983C157.512 65.7832 158.674 65.642 158.501 63.7C155.511 60.5345 156.853 58.8327 155.988 55.2552C154.972 51.0497 149.957 48.2002 145.753 48.5025C145.106 48.4642 140.519 49.0937 140.251 48.8735C137.257 46.4147 136.851 49.2195 134.299 49.8212C131.852 50.3982 127.27 50.649 125.437 48.3335C123.987 46.502 123.695 45.7045 121.266 45.3352C121.001 45.2917 121.028 44.9787 120.973 44.6597L121.761 43.6332L121.589 43.2055C120.999 43.3997 120.737 43.4455 120.143 43.549L119.7 43.0737Z" fill="#80DF7B"/>
<path d="M220.706 71.2393C221.075 71.28 221.371 71.3148 221.742 71.3245C222.158 72.2525 221.761 73.3113 221.852 73.5248C222.436 74.9013 223.758 74.3928 223.071 76.3328C222.422 76.6968 222.333 76.6635 221.563 76.6948C220.792 77.4513 221.388 78.6308 220.847 79.3685L220.72 77.962C220.853 75.3958 220.847 73.806 220.706 71.2393Z" fill="#80DF7B"/>
<path d="M217.231 87.9417C217.239 85.7252 216.576 81.7044 217.694 80.2934C218.537 79.9349 219.205 80.0527 220.133 80.0877C219.745 80.3119 219.405 80.5059 219.005 80.7127C218.573 81.4322 217.708 82.4069 217.642 83.1842C217.542 84.3477 218.239 88.3179 217.609 89.1364L217.231 87.9417Z" fill="#80DF7B"/>
<path d="M159.436 71.225C159.324 71.5865 159.202 71.908 159.072 72.2618L159.432 71.6883L158.794 72.0098C157.921 70.9853 157.778 69.799 158.606 68.7253C159.45 68.587 159.081 68.5088 159.768 68.85C159.73 71.142 159.962 69.7348 161.454 70.3095L159.436 71.225Z" fill="#80DF7B"/>
<path d="M186.024 258.878C201.563 256.605 215.982 267.418 218.154 282.97C220.325 298.523 209.419 312.873 193.852 314.943C178.427 316.993 164.24 306.208 162.088 290.798C159.936 275.388 170.628 261.13 186.024 258.878Z" fill="#041640"/>
<path d="M166.172 284.4C167.328 273.528 175.676 264.803 186.488 263.17C197.3 261.535 207.853 267.4 212.172 277.448C216.151 286.703 213.939 297.458 206.629 304.39C199.32 311.323 188.463 312.965 179.431 308.503C170.399 304.04 165.106 294.42 166.172 284.4Z" fill="#2AB47E"/>
<path d="M166.172 284.4C167.328 273.528 175.676 264.803 186.488 263.17C197.3 261.535 207.853 267.4 212.172 277.448C211.976 279.82 214.552 283.963 213.743 286.76C212.452 287.468 201.809 286.613 199.887 286.74C200.741 284.478 204.011 282.988 205.671 279.338L205.481 279.078L205.116 279.225C203.803 277.145 203.273 276.775 201.042 275.663C195.404 279.913 191.624 286.563 186.415 289.913C185.501 289.033 180.565 284.688 179.631 284.03C178.753 285.02 177.525 286.53 176.492 287.258L176.3 287.01L175.677 287.25C175.008 288.155 174.57 288.84 173.365 289.045C170.907 289.46 169.88 290.345 167.238 290.188L166.738 291.183C166.324 289.063 166.77 286.633 166.172 284.4Z" fill="#80DF7B"/>
<path d="M201.042 275.662C203.273 276.775 203.803 277.145 205.116 279.225C203.844 281.955 194.014 291.37 191.374 294.29C190.491 295.267 187.636 297.465 186.448 298.795L186.275 298.602C184.056 296.177 177.14 291.335 176.034 288.12C176.182 287.642 176.146 287.602 176.492 287.257C177.525 286.53 178.753 285.02 179.631 284.03C180.564 284.687 185.501 289.032 186.415 289.912C191.624 286.562 195.404 279.912 201.042 275.662Z" fill="white"/>
<path d="M130.52 274.092C137.137 273.7 137.345 274.102 138.423 280.547C139.703 279.705 142.031 277.222 143.501 277.78C145.662 278.6 147.929 280.687 149.072 282.682C150.007 284.317 148.648 287.35 148.067 289.052C152.297 289.597 153.405 290.102 153.341 294.777C153.315 296.627 153.352 298.842 152.468 300.532C151.93 301.56 149.14 301.927 148.051 302.152C148.504 303.037 149.275 304.387 149.517 305.325C150.634 309.647 146.166 312.155 142.79 313.045C141.615 312.437 140.497 311.702 139.205 311.71C136.615 313.04 140.515 316.365 133.298 316.9C130.619 317.025 129.182 317.05 126.592 316.422C126.209 314.69 125.978 313.092 125.543 311.27L120.203 313.175C115.555 308.95 112.024 309.142 116.75 302.48C114.451 301.892 111.607 301.515 111.043 298.835C110.539 296.44 110.272 292.97 111.397 290.71C111.944 289.612 114.754 289.012 115.875 288.71C114.714 286.84 114.25 285.547 113.746 283.425C115.611 281.632 118.302 278.947 120.291 277.465C122.434 278.267 123.639 278.985 125.488 280.305C125.928 278.652 126.153 277.027 126.418 275.34C128.127 274.422 128.66 274.295 130.52 274.092Z" fill="#041640"/>
<path d="M131.751 277.84L133.321 277.812C135.479 279.45 131.755 281.77 140.423 283C143.3 281.145 144.012 282.065 146.339 284.147C145.555 285.65 144.807 287.17 144.097 288.707C145.267 292.652 146.263 292.498 149.955 293.45C149.813 294.62 149.819 295.812 149.797 296.992C149.016 297.547 148.169 297.43 147.315 297.895C145.136 299.082 144.677 300.707 143.957 302.837C144.796 303.922 145.64 305.12 146.454 306.23C144.732 307.243 143.625 308.828 142.149 308.73C141.527 307.893 141.683 307.812 141.532 306.71C139.495 307.737 138.012 308.115 135.873 308.89C134.925 309.235 134.876 309.71 134.519 310.54C134.429 311.395 134.465 312.115 133.96 312.765C132.953 313.358 131.092 313.042 129.78 312.987C129.645 309.322 127.671 308.205 124.236 307.438C121.867 306.908 122.333 309.11 120.273 308.82C117.078 306.665 120.824 302.182 118.986 299.395C118.087 298.03 115.791 297.902 114.213 297.652C114.218 296.107 114.348 295.215 114.571 293.672C116.018 293.035 117.532 292.155 118.928 291.388C119.509 288.483 119.304 287.08 118.331 284.283C120.329 281.028 121.058 281.905 124.198 283.247C125.966 282.595 129.332 281.755 129.846 279.908C129.642 279.285 129.417 278.885 129.615 278.283C130.408 277.77 130.782 277.855 131.751 277.84Z" fill="#B2CBDC"/>
<path d="M131.339 286.333C136.344 285.878 140.773 289.555 141.245 294.558C141.717 299.56 138.054 304.003 133.052 304.493C128.027 304.983 123.559 301.298 123.084 296.273C122.61 291.245 126.311 286.788 131.339 286.333Z" fill="#041640"/>
<path d="M131.032 289.67C134.076 289.182 136.952 291.215 137.506 294.247C138.06 297.282 136.09 300.2 133.07 300.822C131.057 301.235 128.978 300.527 127.636 298.97C126.294 297.415 125.899 295.252 126.604 293.322C127.309 291.392 129.003 289.995 131.032 289.67Z" fill="#26A986"/>
<path d="M124.314 64.8516C129.787 65.0358 130.302 65.8456 131.129 70.9596C132.355 70.3976 134.08 69.2158 135.261 68.4593C141.96 70.9016 143.431 73.3533 140.89 80.0001C142.265 80.2996 145.206 80.7823 145.655 82.3703C146.248 84.4686 146.541 88.8803 145.721 90.8648C144.433 92.1758 143.074 92.0493 141.228 92.2116L141.43 92.8408C143.415 99.1301 142.035 101.989 135.492 103.806C133.65 103.219 132.68 102.681 131.005 101.749C129.675 106.65 130.26 107.806 124.704 107.78C119.804 107.676 118.938 107.031 118.129 102.066L113.794 103.654C109.851 102.684 107.458 100.611 106.28 96.7618C106.875 94.8038 107.559 93.5213 108.657 91.8206C105.041 91.8366 103.501 92.3511 103.339 87.9943C103.246 85.5111 103.352 83.8726 103.924 81.4356C105.817 80.7096 107.149 80.4373 109.107 79.9996L108.488 78.9658C105.189 73.4976 109.054 70.8411 113.742 68.4773C119.554 72.4093 117.525 69.8781 119.683 66.2328C120.474 64.8976 122.781 64.9261 124.314 64.8516Z" fill="#041640"/>
<path d="M126.055 68.8616L126.765 68.6934C128.499 70.1811 125.749 76.0761 135.276 72.6916C136.581 73.7816 138.021 74.0244 138.34 75.7754C138.012 76.8494 137.308 77.3559 136.482 78.1536C137.156 80.3184 137.798 81.3871 138.873 83.3561L142.179 84.4459L142.277 88.2106C141.105 88.4484 139.89 88.8891 138.748 89.2649C137.774 90.9036 137.584 92.2459 137.289 94.0959C137.8 95.2494 138.325 96.3976 138.861 97.5401C138.715 97.6989 138.568 97.8559 138.419 98.0111C135.133 101.44 132.111 95.7599 126.789 101.302C126.628 102.132 126.525 103.247 126.42 104.108C125.118 104.043 123.759 104.021 122.451 103.98C121.289 103.847 121.396 100.809 120.219 99.6924C118.175 97.7534 115.563 99.2049 113.596 100C112.681 98.9329 111.158 97.6931 110.065 96.7439C111.941 92.3121 112.892 88.6776 106.668 88.0104C106.761 86.8981 106.968 85.5619 107.113 84.4359C109.347 83.7571 112.869 81.8331 111.921 79.0151C110.71 75.4136 109.223 74.6691 113.399 72.8521C114.742 73.5551 115.542 73.8344 116.985 74.3384C119.961 73.3606 120.85 72.1286 121.984 69.3891L126.055 68.8616Z" fill="#B1CFE4"/>
<path d="M123.342 77.323C126.645 76.819 129.963 78.133 132.025 80.7612C134.088 83.3895 134.575 86.925 133.3 90.0132C132.025 93.1012 129.186 95.2635 125.87 95.6715C120.845 96.2897 116.255 92.7587 115.564 87.7432C114.873 82.7277 118.337 78.0867 123.342 77.323Z" fill="#041640"/>
<path d="M123.993 80.507C127.273 80.0702 130.299 82.3362 130.804 85.606C131.309 88.876 129.106 91.949 125.847 92.5215C123.678 92.9025 121.473 92.0807 120.082 90.3735C118.691 88.6662 118.332 86.3402 119.144 84.2932C119.955 82.246 121.81 80.7977 123.993 80.507Z" fill="#80DF7B"/>
<path d="M259.917 282.057C262.27 281.95 263.082 282.137 265.085 283.317C266.182 285.07 266.315 286.027 266.882 288.015C267.6 288.81 273.505 289.105 275.34 289.702C275.797 290.315 276.165 290.99 276.437 291.702C277.362 294.125 276.55 296.39 275.567 298.592C270.525 300.955 258.487 300.195 252.687 300.115C248.062 300.065 243.437 300.037 238.812 300.032C238.911 301.13 239.299 303.745 238.706 304.522C233.827 301.742 232.789 300.835 228.969 296.767C233.351 292.797 234.864 292.172 239.036 288.87C239.013 290.867 239.032 292.167 239.214 294.187C241.763 294.23 251.265 294.45 253.262 293.677C253.857 292.925 253.982 291.815 254.197 290.835C253.645 290.565 252.622 290.112 252.307 289.557C251.522 288.185 250.597 285.68 252.405 284.672C253.267 284.64 254.175 285.172 255.002 285.55C256.6 284.802 256.675 283.432 259.917 282.057Z" fill="white"/>
<path d="M86.1023 91.082C90.5973 91.2573 94.655 91.4215 99.156 91.7843C98.3525 94.093 95.561 104.572 92.0748 103.004C91.3998 102.198 91.4438 101.381 91.3238 100.3C91.0453 100.406 90.7688 100.518 90.4945 100.635C87.5738 101.894 86.8743 104.187 85.7888 106.929C85.2035 108.477 83.7258 115.631 82.0905 115.382C80.7313 113.867 81.1738 109.474 81.1963 107.572C81.2618 102.042 85.3428 99.0685 88.2983 94.8733C87.6418 93.9183 86.2145 92.0993 86.1023 91.082Z" fill="white"/>
<path d="M84.4329 268.355C84.7379 268.395 85.7144 268.585 85.8359 268.79C88.2171 272.843 87.3931 277.83 91.0524 281.368C92.2889 282.563 94.5829 284.938 96.2429 284.985C97.0854 284.753 97.2287 284.398 97.8042 283.665C99.4474 286.06 100.567 287.02 102.852 288.858L99.7759 290.648C98.8587 291.405 98.1566 293.238 96.9476 292.848C96.4501 291.855 96.5187 290.508 96.4669 289.35C89.2429 287.018 83.5131 280.445 83.0966 272.593C83.0216 271.18 83.3971 269.363 84.4329 268.355Z" fill="white"/>
<path d="M157.045 73.0615C157.474 73.3648 157.464 73.3808 157.836 73.7573L157.757 74.5155L157.38 74.662L157.096 74.4328L157.045 73.0615Z" fill="#80DF7B"/>
</svg>
