<svg width="662" height="662" viewBox="0 0 662 662" fill="none" xmlns="http://www.w3.org/2000/svg">
  <path
    d="M324.577 14.6112C497.783 9.60281 642.263 145.941 647.295 319.148C652.328 492.352 516.011 636.851 342.805 641.91C169.565 646.972 25.03 510.619 19.9954 337.377C14.9607 164.136 151.333 19.6206 324.577 14.6112ZM341.825 588.927C485.639 584.402 598.612 464.25 594.277 320.43C589.939 176.61 469.936 63.4798 326.109 67.6263C182.016 71.7806 68.6292 192.058 72.9729 336.146C77.317 480.234 197.744 593.462 341.825 588.927Z"
    fill="#F97316" />
  <path
    d="M224.062 418.852L94 349.53V301.05L224.062 231.727V280.661L130.707 325.063L224.062 370.372V418.852ZM263.509 514L362.302 147H404.448L305.202 514H263.509ZM443.938 418.852V370.372L537.293 325.063L443.938 280.661V231.727L574 301.05V349.53L443.938 418.852Z"
    fill="#F97316" />
</svg>
