<svg width="380" height="380" viewBox="0 0 380 380" fill="none" xmlns="http://www.w3.org/2000/svg">
<path d="M44.492 116.853C44.7913 115.34 46.9305 111.7 47.7305 110.305C53.3575 100.273 59.9963 90.8423 67.543 82.1613C95.0235 50.3636 133.885 30.6196 175.771 27.1758C230.066 23.1964 282.857 44.3553 317.047 88.2421C317.135 88.3108 317.222 88.3796 317.31 88.4483C321.665 84.1721 325.92 79.8448 330.497 75.6271C335.492 71.0266 343.272 62.2266 350.182 69.1366C351.397 70.3508 351.83 71.8103 351.782 73.5018C351.735 74.8051 351.425 76.0851 350.87 77.2651C348.217 83.0091 339.387 93.5378 335.277 99.0263C333.7 101.132 331.195 103.691 329.807 105.952C331.262 109.889 333.435 112.846 335.172 116.492C346.002 139.216 353.132 163.819 352.772 189.163C352.595 201.706 352.43 214.151 349.312 226.46C346.942 236.211 343.33 246.009 340.072 255.51C338.485 262.13 341.565 272.445 338.02 278.11C337.055 279.655 335.262 280.96 333.817 282.037C335.707 284.472 337.555 287.167 339.382 289.587C343.912 295.59 345.725 297.77 344.81 305.59C344.367 309.387 342.792 311.895 339.737 314.237C339.247 314.612 338.75 314.98 338.245 315.335C340.98 316.645 348.562 315.7 351.147 318.505C351.235 318.897 351.38 319.025 351.135 319.377C349.705 321.425 332.912 323.17 329.792 323.467C323.567 324.06 285.867 326.357 282.772 324.817C275.005 329.465 268.652 333.785 260.297 337.812C226.366 354.35 187.691 358.397 151.071 349.242C131.955 344.512 113.864 336.325 97.6925 325.087C97.0923 325.565 96.8698 325.765 96.0098 325.72C85.7613 325.157 75.9353 324.735 65.6358 324.397C54.4815 324.03 42.78 323.212 31.8618 320.685C31.006 320.487 29.771 319.11 29.132 318.45C33.707 315.415 40.105 316.627 41.738 315.12C38.3493 313.012 36.1708 310.212 35.1643 306.37C32.9483 297.912 38.0878 292.73 42.734 286.542C45.4073 282.982 48.653 278.742 50.9588 274.95C44.7685 268.857 34.8148 242.149 32.3108 233.244C26.4508 212.402 25.726 187.393 29.0838 166.009C29.4343 163.778 30.2618 157.389 31.1143 155.81C28.2698 152.504 25.8638 148.693 26.0108 144.188C26.2495 136.862 24.2876 126.927 29.6425 121.089C33.5475 116.833 39.331 117.117 44.492 116.853Z" fill="#06103E"/>
<path d="M44.4922 116.853C44.7914 115.34 46.9307 111.7 47.7307 110.305C53.3577 100.273 59.9964 90.8423 67.5432 82.1613C95.0237 50.3636 133.885 30.6196 175.771 27.1758C230.066 23.1964 282.857 44.3553 317.047 88.2421C317.135 88.3108 317.222 88.3796 317.31 88.4483C315.075 91.0053 313.022 92.8508 310.467 95.0831C306.435 91.5531 302.822 91.6723 297.675 91.6718C292.865 91.6713 288.05 91.7386 283.237 91.7853C283.207 87.6476 283.457 74.7128 282.59 71.5536C282.1 69.8026 281.165 68.2083 279.877 66.9243C278.342 65.3878 275.432 63.7086 273.275 63.6006C267.655 63.3198 261.662 63.4813 256.022 63.4973L222.429 63.5248L110.542 63.6971C97.8409 63.8306 95.9062 69.6378 96.5729 81.2916C96.7477 84.3451 96.6147 88.5883 96.5392 91.7221C92.3572 91.5981 87.9672 91.6208 83.8297 91.5191C70.8434 91.2001 65.4422 94.1061 65.2504 107.688C65.2277 110.78 65.2259 113.872 65.2454 116.964C58.3284 116.839 51.4102 116.802 44.4922 116.853Z" fill="#B779EC"/>
<path d="M88.9854 317.455C90.4619 317.127 98.6091 317.282 100.666 317.285L128.027 317.29L237.828 317.27H276.345C278.575 317.27 290.6 317.142 292.05 317.457C290.32 319.237 284.965 323.35 282.772 324.817C275.005 329.465 268.652 333.785 260.297 337.812C226.366 354.35 187.691 358.397 151.071 349.242C131.955 344.512 113.864 336.325 97.6926 325.087C95.0751 323.23 90.1576 320.2 88.9854 317.455Z" fill="#724ED2"/>
<path d="M329.807 105.952C331.262 109.889 333.435 112.846 335.172 116.492C346.002 139.216 353.132 163.819 352.772 189.163C352.595 201.706 352.43 214.151 349.312 226.46C346.942 236.211 343.33 246.009 340.072 255.51C338.905 251.577 339.367 232.134 339.402 226.731L339.565 188.433C339.607 171.587 327.41 174.968 314.747 174.955C314.395 168.977 314.545 161.986 314.532 155.898L314.53 123.806C315.08 122.957 315.825 122.232 316.54 121.517C321.385 116.665 325.39 111.16 329.807 105.952Z" fill="#B779EC"/>
<path d="M31.1144 155.811C36.9626 159.359 40.8956 158.579 47.4671 158.538C53.3589 158.476 59.2506 158.451 65.1426 158.464C65.1819 165.762 65.2831 173.466 65.1269 180.747C63.9574 180.728 62.4759 180.749 61.3374 180.686C40.1286 179.51 40.8959 182.905 40.9571 202.014L40.9546 223.908C40.9874 227.788 41.6909 229.766 44.4661 232.595C45.9679 234.126 48.4314 234.48 50.4821 234.515C55.3891 234.6 60.3081 234.433 65.2154 234.469C65.0994 240.986 64.3904 250.025 67.0514 255.74C61.0821 258.878 54.8959 269.253 50.9589 274.95C44.7686 268.858 34.8149 242.15 32.3109 233.244C26.4509 212.402 25.7261 187.393 29.0839 166.01C29.4344 163.778 30.2619 157.389 31.1144 155.811Z" fill="#9363DE"/>
<path d="M41.7383 315.12C47.9216 317.7 52.3368 317.27 58.8676 317.268L77.5306 317.24C80.9611 317.235 85.6386 317.1 88.9856 317.455C90.1578 320.2 95.0753 323.23 97.6928 325.088C97.0926 325.565 96.8701 325.765 96.0101 325.72C85.7616 325.158 75.9356 324.735 65.6361 324.398C54.4818 324.03 42.7803 323.213 31.8621 320.685C31.0063 320.488 29.7713 319.11 29.1323 318.45C33.7073 315.415 40.1053 316.628 41.7383 315.12Z" fill="#BED3E8"/>
<path d="M292.05 317.457C295.202 317.115 300.075 317.24 303.337 317.242L322.122 317.257C327.892 317.257 332.84 317.717 338.245 315.335C340.98 316.645 348.562 315.7 351.147 318.505C351.235 318.897 351.38 319.025 351.135 319.377C349.705 321.425 332.912 323.17 329.792 323.467C323.567 324.06 285.867 326.357 282.772 324.817C284.965 323.35 290.32 319.237 292.05 317.457Z" fill="#BED3E8"/>
<path d="M101.271 89.8037C128.576 90.05 155.883 90.104 183.189 89.966L278.737 89.986L278.65 115.896C278.627 121.158 278.452 127.272 278.757 132.469C275.23 133.187 272.1 133.964 269.275 136.409C268.187 137.606 266.05 140.045 265.435 141.366C262.377 147.934 262.957 153.307 255.797 157.26C254.7 157.865 251.522 159.304 250.26 159.515C248.866 161.494 254.5 165.1 255.977 165.914C261.195 168.048 265.41 168.035 270.9 168.056C273.412 167.827 276.317 167.455 278.76 166.812C278.795 171.062 278.885 175.486 278.847 179.725C278.832 181.558 277.977 184.167 277.942 186.384C277.79 205.262 277.752 224.141 277.827 243.02L165.576 242.965C144.533 242.963 121.925 243.379 101.009 242.689L101.004 234.508C106.977 234.588 110.525 235.602 114.039 229.922C115.121 227.097 115.125 224.476 115.081 221.483C114.928 210.932 115.296 200.32 114.761 189.786C114.602 186.676 113.407 184.366 111.198 182.223C107.656 180.216 105.003 180.475 101.027 180.491L101.032 158.692C105.504 158.564 107.815 158.629 111.389 155.686C112.127 154.966 112.862 154.161 113.624 153.47C118.268 149.256 116.825 139.475 116.938 133.311C117.076 125.85 115.591 123.699 110.541 118.894C107.317 117.136 104.696 116.953 101.018 116.972C101.051 107.915 101.135 98.8592 101.271 89.8037Z" fill="#EEF5FA"/>
<path d="M255.978 165.914C261.195 168.048 265.41 168.036 270.9 168.057C268.428 168.726 268.738 167.979 268.823 171.012C269.325 189.298 269.295 207.662 269.46 225.958C269.535 234.337 261.905 233.886 255.66 233.892C252.69 233.895 249.654 233.882 246.663 233.864L220.764 233.758L198.078 233.824C193.495 233.858 188.782 233.948 184.201 233.751C182.879 233.695 181.398 232.939 180.25 232.32C178.298 229.682 177.856 227.475 177.83 224.174C177.752 214.308 177.769 204.48 177.779 194.606C177.902 187.8 177.617 180.807 178.081 174.024C178.358 169.976 179.133 167.584 183.476 167.397C186.379 167.272 189.102 167.285 191.978 167.294L206.844 167.315L237.201 167.2C242.728 167.168 248.772 167.227 254.275 166.727C255.175 166.645 255.418 166.475 255.978 165.914Z" fill="#CCE0F0"/>
<path d="M195.318 175.568C201.817 175.123 212.327 175.631 219.372 175.59L238.432 175.444C242.685 175.414 251.497 174.807 254.86 176.943C257.477 178.612 259.312 181.264 259.952 184.301C261.125 189.914 257.387 195.367 251.795 196.447C249.351 196.816 245.434 196.736 242.871 196.745L228.725 196.779L208.059 196.784C205.037 196.781 193.754 197.185 191.452 195.665C183.214 190.226 185.072 177.826 195.318 175.568Z" fill="#289EEB"/>
<path d="M224.416 183.35C228.113 182.194 227.522 184.421 229.106 185.526C229.55 184.112 230.426 183.266 231.982 183.278C232.426 183.3 232.977 183.292 233.388 183.407C234.464 183.697 234.944 183.873 236.084 183.843C238.702 182.572 239.983 182.711 241.056 185.538C241.545 186.614 241.504 187.047 241.042 188.13C241.019 189.199 241.127 189.498 240.457 190.234C239.439 190.389 238.403 190.384 237.386 190.221C236.119 190.015 235.059 189.584 234.286 188.536L234.096 188.724C233.078 191.181 230.919 190.456 228.924 189.979L228.525 189.963C224.445 190.987 223.821 190.181 223.556 186.238C223.855 185.213 224.108 184.706 224.556 183.762L224.416 183.35Z" fill="#93DBF6"/>
<path d="M224.416 183.35C228.113 182.194 227.522 184.421 229.106 185.526L229.626 187.163C230.294 187.688 230.848 187.715 231.684 187.883L232.068 187.023L232.217 187.033C233.593 187.482 233.625 187.274 234.096 188.724C233.078 191.181 230.919 190.456 228.924 189.979L228.525 189.963C224.445 190.987 223.821 190.181 223.556 186.238C223.855 185.213 224.108 184.706 224.556 183.762L224.416 183.35Z" fill="#2E91D6"/>
<path d="M224.556 183.763C225.399 184.383 225.343 184.609 225.245 185.636C224.942 186.652 224.913 186.844 224.883 187.905C225.959 189.799 227.701 187.987 228.525 189.964C224.445 190.987 223.821 190.181 223.556 186.238C223.855 185.213 224.108 184.706 224.556 183.763Z" fill="#DEFBFD"/>
<path d="M224.416 183.35C228.113 182.194 227.522 184.421 229.106 185.526L229.626 187.163C228.394 185.794 226.929 185.769 225.245 185.635C225.343 184.609 225.399 184.382 224.556 183.762L224.416 183.35Z" fill="#93DBF6"/>
<path d="M232.068 187.023L232.217 187.033C233.593 187.483 233.625 187.274 234.096 188.724C233.078 191.181 230.919 190.456 228.924 189.979C229.474 188.241 230.781 189.588 231.755 188.511L231.684 187.884L232.068 187.023Z" fill="#C8F0F7"/>
<path d="M231.982 183.278C232.426 183.301 232.977 183.293 233.387 183.408C234.463 183.698 234.944 183.874 236.084 183.844C235.575 184.711 235.155 185.328 234.844 186.291C234.68 186.338 233.93 186.402 233.712 186.426L232.496 186.424C232.318 186.731 232.294 186.7 232.217 187.033L232.068 187.024L231.684 187.884C230.848 187.716 230.294 187.689 229.626 187.164L229.105 185.527C229.55 184.113 230.426 183.267 231.982 183.278Z" fill="#93DBF6"/>
<path d="M229.105 185.527C229.55 184.113 230.426 183.267 231.982 183.278C231.812 184.165 231.903 183.867 231.367 184.496C230.936 185.001 231.897 186.384 232.068 187.024L231.684 187.884C230.848 187.716 230.294 187.689 229.626 187.164L229.105 185.527Z" fill="#DEFBFD"/>
<path d="M233.388 183.407C234.464 183.697 234.944 183.873 236.084 183.843C235.575 184.71 235.155 185.328 234.844 186.291C234.68 186.338 233.93 186.402 233.712 186.425C233.762 185.344 233.565 184.471 233.388 183.407Z" fill="#50B0EA"/>
<path d="M234.844 186.291C235.731 186.355 236.365 186.402 237.248 186.552C237.566 186.934 237.494 186.71 237.535 187.205C237.761 188.383 237.547 188.006 238.246 188.816C239.1 188.86 238.901 188.784 239.79 188.196C240.055 188.492 240.171 188.734 240.487 188.821L241.042 188.131C241.019 189.199 241.127 189.498 240.457 190.235C239.439 190.389 238.403 190.385 237.386 190.222C236.119 190.016 235.059 189.585 234.286 188.536L234.096 188.725C233.625 187.275 233.593 187.483 232.217 187.033C232.294 186.7 232.318 186.731 232.496 186.424L233.712 186.426C233.93 186.402 234.68 186.338 234.844 186.291Z" fill="#DEFBFD"/>
<path d="M234.844 186.291C235.731 186.355 236.365 186.402 237.248 186.552C237.566 186.934 237.494 186.71 237.535 187.205C235.996 187.214 235.003 186.942 234.286 188.536L234.096 188.725C233.625 187.275 233.593 187.483 232.217 187.033C232.294 186.7 232.318 186.731 232.496 186.424L233.712 186.426C233.93 186.402 234.68 186.338 234.844 186.291Z" fill="#5E7AA3"/>
<path d="M214.073 183.261C215.803 183.027 216.994 183.17 218.153 183.034C217.656 183.75 217.443 184.005 217.121 184.801C216.613 185.847 215.997 186.381 215.573 187.194C215.546 187.817 215.546 188.527 215.441 189.132L214.842 189.233C214.28 190 213.939 190.192 212.967 190.344C211.898 190.516 210.801 190.388 209.8 189.975C209.568 189.857 209.08 189.772 208.804 189.709C208.294 188.371 208.245 188.28 208.246 186.845L208.503 186.035C209.556 183.059 211.317 182.922 214.073 183.261Z" fill="#2E91D6"/>
<path d="M214.073 183.261C215.803 183.027 216.994 183.17 218.153 183.034C217.656 183.75 217.443 184.005 217.121 184.801C216.613 185.847 215.997 186.381 215.573 187.194L215.27 186.04C213.687 185.97 211.543 185.449 210.547 186.189C209.72 186.415 209.356 186.244 208.503 186.035C209.556 183.059 211.317 182.922 214.073 183.261Z" fill="#93DBF6"/>
<path d="M214.072 183.261C215.803 183.027 216.994 183.17 218.153 183.034C217.656 183.75 217.443 184.005 217.12 184.801C216.613 185.847 215.997 186.381 215.573 187.194L215.27 186.04L215.389 185.512C214.77 184.662 214.608 184.436 214.167 183.472L214.072 183.261Z" fill="#50B0EA"/>
<path d="M208.503 186.035C209.356 186.245 209.72 186.415 210.547 186.189C210.645 187.161 210.759 188.113 210.785 189.09L209.8 189.975C209.568 189.858 209.08 189.772 208.804 189.709C208.294 188.372 208.245 188.281 208.246 186.846L208.503 186.035Z" fill="#93DBF6"/>
<path d="M210.785 189.089C211.927 189.091 213.79 189.034 214.842 189.234C214.28 190.001 213.939 190.192 212.967 190.345C211.897 190.517 210.801 190.389 209.8 189.975L210.785 189.089Z" fill="#DEFBFD"/>
<path d="M199.355 191.017C200.787 185.918 203.29 176.207 206.98 186.881L208.246 186.846C208.245 188.28 208.294 188.371 208.804 189.709L208.128 189.962C207.093 190.499 205.884 189.353 204.557 189.197C202.085 188.906 201.268 189.717 199.355 191.017Z" fill="#DEFBFD"/>
<path d="M206.979 186.881L208.245 186.846C208.245 188.28 208.294 188.371 208.803 189.709L208.128 189.962L208.056 189.849C207.312 188.701 207.278 188.22 206.979 186.881Z" fill="#2E91D6"/>
<path d="M220.747 183.343C221.551 183.297 223.825 183.069 224.416 183.35L224.556 183.762C224.108 184.706 223.855 185.213 223.556 186.238L223.202 186.156C222.243 188.183 220.184 188.249 218.4 187.153C218.124 188.09 218.006 188.329 218.175 189.277C218.029 189.854 218.08 189.866 217.634 190.24C217.196 189.773 216.699 189.14 216.133 188.92L215.661 189.348L215.441 189.132C215.546 188.527 215.546 187.817 215.573 187.194C215.997 186.381 216.613 185.847 217.121 184.801C217.443 184.005 217.656 183.75 218.153 183.034L218.831 183.227L220.747 183.343Z" fill="#C8F0F7"/>
<path d="M217.121 184.801C217.475 184.962 218.157 185.21 218.332 185.496L218.4 187.153C218.124 188.09 218.006 188.329 218.175 189.277C218.029 189.854 218.08 189.866 217.634 190.24C217.196 189.773 216.699 189.14 216.133 188.92L215.661 189.348L215.441 189.132C215.546 188.527 215.546 187.817 215.573 187.194C215.997 186.381 216.613 185.847 217.121 184.801Z" fill="#DEFBFD"/>
<path d="M220.747 183.343C221.55 183.297 223.825 183.068 224.415 183.35L224.556 183.762C224.107 184.706 223.855 185.213 223.555 186.238L223.202 186.156C221.795 184.825 222.019 186.86 220.747 183.343Z" fill="#50B0EA"/>
<path d="M245.081 183.74C245.941 183.617 246.512 183.416 247.239 183.821C247.393 185.032 245.971 185.454 245.443 186.206C244.458 187.612 246.154 190.222 243.695 190.403C242.783 190.177 241.382 190.099 240.457 190.234C241.127 189.498 241.019 189.199 241.042 188.13C241.503 187.047 241.545 186.614 241.056 185.538C243.005 183.819 242.056 183.556 245.081 183.74Z" fill="#DEFBFD"/>
<path d="M241.056 185.538C243.005 183.82 242.056 183.557 245.081 183.74L243.151 184.126C243.145 184.142 243.623 190.196 243.695 190.404C242.783 190.177 241.382 190.099 240.457 190.235C241.127 189.498 241.019 189.199 241.042 188.13C241.503 187.047 241.545 186.615 241.056 185.538Z" fill="#50B0EA"/>
<path d="M218.175 189.277C219.192 188.917 219.854 188.557 220.889 188.769L221.32 189.122C221.094 190.875 218.751 190.924 217.634 190.24C218.08 189.867 218.029 189.854 218.175 189.277Z" fill="#C8F0F7"/>
<path d="M197.72 205.104C197.864 205.095 198.007 205.087 198.151 205.079C208.598 204.542 220.677 205.149 231.293 204.939C238.113 205.173 245.763 204.589 252.47 205.473C258.25 206.234 262.253 215.106 258.953 220.077C256.075 224.413 254.208 225.711 249.182 225.828C236.616 225.894 224.049 225.896 211.482 225.832C206.963 225.819 202.442 225.906 197.926 225.854C194.695 225.817 192.82 225.45 190.272 223.442C185.725 219.857 185.288 213.046 188.954 208.696C191.349 205.855 194.236 205.349 197.72 205.104Z" fill="#F7714B"/>
<path d="M236.344 209.955C237.229 209.921 238.152 209.795 238.952 210.101C239.12 212.337 238.983 216.639 238.704 218.861C238.218 219.384 237.167 219.42 236.45 219.403L235.096 219.504C234.274 219.43 233.782 219.368 232.975 219.201C232.261 218.545 232.487 218.764 232.322 217.54C232.255 218.369 232.321 218.983 231.548 219.379C230.892 218.503 231.071 218.394 230.956 217.2C230.806 218.369 230.994 218.51 230.287 219.232C229.432 219.417 228.79 219.26 227.919 219.144C226.816 219.118 224.72 219.409 224.288 219.369L223.896 219.214L223.022 219.133C222.202 219.121 221.585 219.216 220.784 219.318C220.869 217.995 220.928 217.696 221.289 216.43C221.234 215.879 221.275 215.264 221.292 214.701C222.438 214.219 222.245 213.617 223.533 212.583C224.778 212.486 226.067 212.262 227.209 212.755C228.101 212.407 228.127 211.92 228.668 210.894C230.133 209.907 231.477 210.155 233.219 210.275C233.783 210.211 234.671 210.14 235.2 210.039L236.344 209.955Z" fill="#F9E2DB"/>
<path d="M223.533 212.583C224.778 212.486 226.067 212.262 227.209 212.755L227.347 213.696C228.263 214.671 228.014 216.629 228.02 218.105L227.919 219.144C226.816 219.118 224.72 219.409 224.288 219.369L223.896 219.214L223.022 219.133C222.202 219.121 221.585 219.216 220.784 219.318C220.869 217.995 220.928 217.696 221.289 216.43C221.234 215.879 221.275 215.264 221.292 214.701C222.438 214.219 222.245 213.617 223.533 212.583Z" fill="#DE6D4F"/>
<path d="M221.292 214.701C222.438 214.22 222.245 213.618 223.533 212.583C223.757 214.677 223.659 217.578 223.896 219.214L223.022 219.133C222.202 219.122 221.585 219.217 220.784 219.318C220.869 217.995 220.928 217.696 221.289 216.431C221.234 215.879 221.275 215.264 221.292 214.701Z" fill="#FEA58F"/>
<path d="M221.289 216.431C222.683 217.409 221.98 218.374 223.022 219.133C222.202 219.122 221.585 219.217 220.784 219.318C220.869 217.995 220.928 217.696 221.289 216.431Z" fill="#DE6D4F"/>
<path d="M223.533 212.583C224.778 212.486 226.067 212.262 227.209 212.755L227.347 213.696C222.945 215.17 226.461 217.543 224.288 219.369L223.895 219.214C223.659 217.578 223.757 214.677 223.533 212.583Z" fill="#F9E2DB"/>
<path d="M227.209 212.756C228.101 212.408 228.127 211.921 228.668 210.895C230.133 209.907 231.477 210.156 233.219 210.276C233 211.168 232.402 212.967 232.266 213.676C231.689 213.862 231.482 213.885 230.96 214.197L230.956 217.2C230.806 218.369 230.994 218.51 230.287 219.232C229.432 219.417 228.79 219.261 227.919 219.145L228.02 218.106C228.014 216.63 228.263 214.671 227.347 213.697L227.209 212.756Z" fill="#FDD1AE"/>
<path d="M228.02 218.106C228.647 216.473 227.984 215.288 228.745 214.527C229.737 214.17 229.899 214.178 230.96 214.197L230.956 217.2C230.806 218.369 230.994 218.51 230.287 219.232C229.432 219.417 228.79 219.261 227.919 219.145L228.02 218.106Z" fill="#F9E2DB"/>
<path d="M236.344 209.955C237.228 209.921 238.151 209.795 238.952 210.101C239.12 212.337 238.982 216.639 238.704 218.861C238.217 219.384 237.167 219.42 236.45 219.403C236.3 216.178 236.433 213.147 236.344 209.955Z" fill="#FDD1AE"/>
<path d="M235.2 210.04L236.344 209.955C236.433 213.148 236.3 216.179 236.45 219.404L235.096 219.505C235.28 216.163 235.25 213.378 235.2 210.04Z" fill="#DE6D4F"/>
<path d="M230.959 214.197C231.482 213.885 231.689 213.862 232.266 213.676C232.275 214.845 232.243 216.407 232.322 217.54C232.255 218.37 232.321 218.983 231.548 219.379C230.891 218.503 231.071 218.395 230.956 217.2L230.959 214.197Z" fill="#DE6D4F"/>
<path d="M207.413 210.627C210.504 210.545 213.126 210.226 214.96 213.177C214.255 215.227 214.283 215.967 212.22 216.813C209.775 217.395 208.942 218.883 207.845 219.071L207.432 218.726C206.884 217.058 206.994 212.371 207.413 210.627Z" fill="#F9E2DB"/>
<path d="M217.626 219.496C211.19 215.459 219.465 209.146 221.292 214.701C221.275 215.264 221.233 215.879 221.289 216.43C220.928 217.696 220.868 217.995 220.783 219.318C219.791 219.408 218.635 219.443 217.626 219.496Z" fill="#F9E2DB"/>
<path d="M180.365 113.615C181.572 113.271 182.839 113.081 184.091 113.072C194.245 113.001 204.473 113.024 214.623 113.02L245.751 113.055C251.805 113.06 260.14 112.798 265.947 113.537C272.09 114.319 267.312 133.252 269.275 136.409C268.187 137.606 266.05 140.045 265.435 141.366C262.377 147.934 262.957 153.307 255.797 157.26C254.7 157.865 251.522 159.304 250.26 159.515C250.19 159.173 250.175 159.231 249.98 158.915C246.061 158.681 239.191 158.944 234.977 158.927L200.119 158.891C194.302 158.91 188.491 159.063 182.712 158.815C178.621 158.64 178.118 156.026 177.901 152.341C177.369 143.339 178.146 134.183 177.88 125.161C177.793 122.213 177.785 119.012 178.189 116.121C178.975 115.005 179.412 114.58 180.365 113.615Z" fill="#4797EB"/>
<path d="M187.336 123.367C191.474 123.091 196.66 123.221 200.884 123.228L223.104 123.266L244.169 123.236C249.176 123.225 254.427 123.13 259.405 123.479C259.45 124.623 259.642 126.153 258.997 127.021C235.299 127.02 210.367 127.46 186.768 127.013C186.71 125.771 186.401 124.222 187.336 123.367Z" fill="#DEFBFD"/>
<path d="M187.488 133.87C194.229 133.329 206.407 133.72 213.446 133.714C228.71 133.633 243.975 133.685 259.237 133.87C259.257 134.944 259.407 136.553 258.915 137.394C246.899 137.905 232.333 137.491 220.166 137.482L200.082 137.463C195.794 137.456 191.057 137.541 186.814 137.254C186.827 136.173 186.676 134.553 187.488 133.87Z" fill="#DEFBFD"/>
<path d="M187.602 144.12C189.47 144.035 191.538 143.999 193.414 144.03C203.64 144.199 214.089 143.712 224.291 144.115C224.299 145.19 224.459 146.824 223.965 147.657L223.313 147.757L186.803 147.709C186.647 146.583 186.514 145.887 186.596 144.733C187.02 144.077 186.723 144.313 187.602 144.12Z" fill="#CCE0F0"/>
<path d="M114.945 167.594C125.827 167.147 136.738 167.367 147.633 167.258C152.658 167.208 157.637 167.205 162.69 167.312C168.24 167.43 169.25 170.371 169.289 175.319C169.119 191.199 169.107 207.13 169.3 223.012C169.327 225.328 169.399 227.953 168.944 230.218C166.889 232.526 165.704 233.336 162.576 233.514C157.113 233.825 118.361 234.188 116.76 232.939C115.659 232.08 115.497 230.672 114.103 229.956C114.081 229.945 114.06 229.933 114.039 229.922C115.121 227.097 115.125 224.476 115.081 221.483C114.928 210.932 115.296 200.32 114.761 189.786C114.603 186.676 113.407 184.366 111.199 182.223C112.459 178.24 108.913 171.029 114.945 167.594Z" fill="#BED3E8"/>
<path d="M132.207 193.954L132.742 193.957C136.504 197.046 140.399 200.549 143.214 204.505C147.425 201.861 150.179 197.782 155.196 194.374C157.838 196.439 163 198.85 161.7 202.712C159.861 204.418 156.8 200.38 155.591 199.036C153.07 200.395 151.883 201.801 149.871 203.82C148.101 205.511 145.566 207.385 143.5 208.632C141.374 206.614 139.063 205.106 136.892 203.2C135.19 201.707 133.47 199.547 132.01 197.766C129.991 200.105 124.731 205.375 122.088 206.731C120.759 205.379 120.184 204.741 119.084 203.207C121.129 200.59 129.174 195.493 132.207 193.954Z" fill="#5E9BDF"/>
<path d="M125.607 182.612C127.695 182.45 139.263 182.302 140.663 182.934C140.986 183.726 140.822 183.763 140.697 184.753C139.632 185.824 136.299 185.592 134.517 185.657C131.725 185.698 120.393 186.052 118.457 185.492C117.986 184.569 118.037 184.199 118.575 183.352C120.088 182.319 123.51 182.662 125.607 182.612Z" fill="#CCE0F0"/>
<path d="M122.289 222.788C123.749 222.78 131.464 222.823 132.208 223.358C132.348 224.364 132.08 224.973 131.8 225.954C128.701 225.927 125.336 226.112 122.219 226.227C122.164 225.077 122.238 223.938 122.289 222.788Z" fill="#CCE0F0"/>
<path d="M131.285 175.941C129.067 176.032 118.692 177.252 118.115 174.989C118.889 173.532 121.099 173.931 122.618 173.937C125.026 173.946 127.434 173.982 129.843 173.991C130.937 174.412 130.747 174.152 131.285 174.967L131.285 175.941Z" fill="#FEFEFF"/>
<path d="M129.843 173.991C131.705 173.925 137.999 173.446 139.308 174.056C139.509 174.91 139.557 174.515 139.194 175.284C137.598 176.231 133.315 175.967 131.286 175.941L131.285 174.967C130.748 174.152 130.937 174.411 129.843 173.991Z" fill="#CCE0F0"/>
<path d="M127.261 213.289C127.987 213.222 128.208 213.139 128.864 213.467L128.981 213.958C128.13 215.285 126.715 215.986 125.344 216.7C124.482 216.796 124.145 216.776 123.561 216.323L123.624 215.68C124.63 214.108 125.562 213.889 127.261 213.289Z" fill="#CCE0F0"/>
<path d="M146.496 212.548C147.723 212.517 148.496 212.326 149.21 213.452C149.2 214.296 149.135 214.336 148.665 215.078C147.627 214.538 146.153 214.298 145.898 213.123L146.496 212.548Z" fill="#CCE0F0"/>
<path d="M141.634 174.24C142.776 174.186 143.633 174.181 144.628 174.742L144.756 175.253L144.443 175.714C143.559 175.829 142.465 176.08 141.664 175.817C141.251 175.094 141.384 175.322 141.634 174.24Z" fill="#CCE0F0"/>
<path d="M110.541 118.894L111.079 118.557C111.605 114.773 111.657 113.343 116.076 113.159C119.892 113.001 123.688 113.067 127.505 113.077L146.91 113.12C149.964 113.122 153.098 113.044 156.142 113.066C159.569 113.092 165.413 112.35 168.124 114.665C170.693 119.279 168.558 144.443 169.301 150.66C169.747 154.395 167.858 159.185 163.479 158.927C148.106 159.05 132.668 158.915 117.292 158.674C114.449 158.63 112.659 158.443 111.389 155.685C112.127 154.965 112.862 154.161 113.624 153.47C118.268 149.256 116.825 139.474 116.938 133.31C117.076 125.85 115.591 123.699 110.541 118.894Z" fill="#45A0EA"/>
<path d="M115.582 98.0976C120.175 97.7933 146.5 97.4601 149.195 98.9223C149.757 99.2273 150.076 99.8988 150.194 100.502C150.418 101.643 150.174 104.145 149.47 105.096C148.851 105.931 147.739 105.9 146.798 105.987L125.216 106.063C122.003 106.065 115.05 106.288 112.176 105.584C110.844 101.425 110.14 98.4461 115.582 98.0976Z" fill="#5E9BDF"/>
<path d="M250.052 98.1109C254.22 97.9046 260.462 97.9041 264.552 98.0159C270.355 98.1744 271.81 106.146 262.72 106.241C258.892 106.231 247.412 107.159 244.695 105.247C243.699 104.546 243.161 103.571 242.977 102.378C242.823 101.377 242.999 100.284 243.68 99.4964C244.992 97.9784 248.187 98.1766 250.052 98.1109Z" fill="#B779EC"/>
<path d="M215.507 99.3203C219.148 99.0811 234.457 98.8003 237.335 99.8451C238.625 101.205 237.349 103.143 236.255 104.226C230.173 104.853 222.739 104.049 216.545 104.255C213.972 104.341 213.694 102.165 213.986 100.106C214.538 99.3873 214.406 99.6101 215.507 99.3203Z" fill="#CCE0F0"/>
<path d="M186.29 99.3179C189.165 98.9832 192.839 99.3134 195.817 99.1967C198.886 99.2277 201.971 99.0789 205.031 99.3272C206.826 99.4727 207.065 100.236 206.915 101.919C206.78 103.424 206.719 103.597 205.464 104.231C199.031 104.401 192.112 104.544 185.731 104.022C184.214 103.898 183.85 101.312 184.287 99.9882C184.988 99.3344 185.213 99.4862 186.29 99.3179Z" fill="#CCE0F0"/>
<path d="M69.4694 257.99L277.798 257.923C277.808 259.3 277.758 260.733 277.73 262.115C277.645 263.4 277.523 264.798 277.52 266.075C277.618 267.055 277.738 268.05 277.765 269.033C277.755 269.893 277.77 270.923 277.723 271.768C278.143 273.833 279.153 277.065 278.705 278.988L279.59 279.605C280.965 280.665 283.263 282.355 284.995 282.615C289.665 283.313 295.003 283.093 299.728 283.1L329.243 283.01C330.335 285.203 332.938 287.943 334.46 290.015C336.873 293.298 338.52 296.143 340.403 299.725C333.423 300.085 325.323 299.925 318.298 299.928L283.073 299.93L168.365 299.933L80.9309 299.88L56.8072 299.878C51.8857 299.898 44.1767 300.093 39.3789 299.525C45.0692 290.673 51.5519 281.75 57.7347 273.215C60.0214 270.06 66.5634 260.068 69.4694 257.99Z" fill="#DFEAF4"/>
<path d="M184.558 268.952C186.52 269.077 187.421 269.445 189.42 269.267C189.686 269.847 189.995 270.582 190.296 271.127L189.848 271.437C189.343 271.74 189.034 271.832 188.721 272.28C188.407 272.857 187.804 273.877 187.696 274.49L186.964 274.505C186.772 273.595 186.468 272.622 186.209 271.722L186.1 271.672C185.466 270.535 184.847 270.365 184.129 269.42L184.558 268.952Z" fill="#5E9BDF"/>
<path d="M186.209 271.723C186.949 271.15 186.536 271.3 187.503 271.293C188.172 271.685 188.222 271.703 188.721 272.28C188.407 272.858 187.804 273.878 187.696 274.49L186.964 274.505C186.772 273.595 186.468 272.623 186.209 271.723Z" fill="#899FC0"/>
<path d="M121.341 264.752C122.537 264.595 124.787 264.14 125.837 264.425C126.175 264.785 126.261 264.787 126.335 265.257C127.304 265.967 127.222 265.957 128.489 265.612L128.145 265.12L128.385 264.785L130.249 264.542C131.337 264.675 134.879 264.877 135.428 265.427L135.494 265.687C135.671 266.715 135.44 268.275 135.515 268.66L135.022 269.212C135.925 269.167 136.841 269.09 137.737 269.172C140.963 269.33 145.011 269.055 147.868 269.262C150.22 268.925 153.663 268.95 156.083 269.032C155.887 270.05 155.62 270.862 155.895 271.837L156.281 272.195C156.87 272 157.528 271.702 158.108 271.46C158.457 270.757 159.29 269.652 159.77 268.972C161.216 268.955 167.692 268.777 168.74 269.255L169.539 268.987C170.664 268.812 170.908 268.772 172.034 268.885C172.977 269.315 182.784 268.957 184.558 268.952L184.13 269.42C184.847 270.365 185.467 270.535 186.1 271.672L186.209 271.722C186.468 272.622 186.773 273.595 186.964 274.505L187.696 274.49C187.804 273.877 188.407 272.857 188.721 272.28C189.034 271.832 189.344 271.74 189.848 271.437L190.296 271.127C189.996 270.582 189.686 269.847 189.421 269.267L189.866 269.002L191.388 268.97L191.073 266.897C192.278 265.977 192.959 266.037 194.435 265.975C195.365 266.002 196.491 266.067 197.403 266.02C199.886 265.872 201.499 265.797 203.985 265.917C205.5 266.007 205.917 266.04 207.399 265.795L207.965 265.637L209.431 265.942L210.858 265.982C212.559 265.887 215.848 266.312 217.166 265.827C218.596 265.697 222.086 266.205 223.685 266.395L223.779 268.34C223.964 269.4 223.614 269.65 224.259 270.492L224.99 270.735L226.456 270.097C227.897 269.927 231.859 269.51 233.039 270.352C233.117 270.875 233.086 270.85 232.885 271.35L232.957 271.727C233.847 271.705 234.033 271.722 234.874 271.482L235.107 270.932C235.901 271 235.548 270.847 236.148 271.515L236.231 272.355C238.382 270.91 238.534 270.945 241.104 270.495C242.082 270.432 246.363 270.307 246.966 270.732L247.001 270.822C249.915 270.74 248.362 271.352 249.614 272.277L250.48 273.945L250.673 274.352C253.503 275.095 258.94 274.22 261.443 274.855L261.26 274.902C260.39 275.12 259.758 275.205 258.883 275.322L258.83 275.56L259.83 275.912L259.488 276.147C259.888 276.987 260.328 277.87 260.698 278.717L262.488 280.267L261.818 281.06C259.44 281.157 256.335 280.512 253.788 280.59C253.043 280.615 245.325 280.77 245.374 280.787L245.084 280.152C241.517 280.377 231.541 280.437 227.922 280.182C226.884 280.312 226.278 280.267 225.253 280.222L135.24 280.232L134.285 280.045C133.697 280.12 133.105 280.21 132.515 280.23C130.735 280.465 118.198 280.56 117.177 280.005C113.364 280.417 106.494 280.2 102.51 280.18C104.155 278.617 104.552 278.432 104.865 276.25C104.433 275.525 104.722 275.685 104.116 275.512L103.27 276.167L103.19 275.912L103.12 275.167C103.583 274.78 105.01 274.782 105.893 274.615C106.975 274.51 108.455 274.5 109.36 274.017C110.306 274.572 110.152 274.697 111.02 274.602L111.303 274.045L111.809 272.47L110.856 271.757C111.279 271.367 111.705 270.732 112.06 270.257L110.9 269.492C112.261 269.47 112.543 269.467 113.857 269.107C114.018 268.63 113.786 266.967 113.905 265.925C114.679 265.787 116.171 265.772 117.009 265.74L121.029 265.632L121.341 264.752Z" fill="#97B4D8"/>
<path d="M136.685 276.965L136.852 276.29C138.84 275.352 159.027 275.895 162.554 275.902L199.566 275.855C207.922 275.852 216.666 275.975 224.994 275.782C225.103 277.157 225.287 278.877 225.253 280.222L135.24 280.232C136.141 278.47 136.261 279.057 136.685 276.965Z" fill="#334C78"/>
<path d="M172.034 268.885C172.977 269.315 182.784 268.958 184.558 268.953L184.13 269.42C184.847 270.365 185.467 270.535 186.1 271.673L186.209 271.723C186.468 272.623 186.773 273.595 186.964 274.505C184.627 274.295 181.234 274.418 178.796 274.425L164.457 274.545C162.225 274.578 158.23 274.74 156.142 274.468C156.05 273.575 155.873 272.963 156.281 272.195C156.87 272 157.528 271.703 158.108 271.46C158.457 270.758 159.29 269.653 159.77 268.973C161.216 268.955 167.692 268.778 168.74 269.255L169.539 268.988C170.664 268.813 170.908 268.773 172.034 268.885Z" fill="#334C78"/>
<path d="M169.539 268.988C170.664 268.813 170.908 268.773 172.034 268.885C172.189 269.448 172.348 269.958 172.434 270.535L171.109 270.558C171.591 270.988 171.754 270.98 171.9 271.503C169.746 272.208 160.3 271.945 158.108 271.46C158.457 270.758 159.29 269.653 159.77 268.973C161.216 268.955 167.692 268.778 168.74 269.255L169.539 268.988Z" fill="#556C98"/>
<path d="M169.539 268.988C170.664 268.813 170.908 268.773 172.034 268.885C172.189 269.448 172.348 269.958 172.434 270.535L171.109 270.558C169.573 270.428 169.459 270.543 168.74 269.255L169.539 268.988Z" fill="#A8BCD7"/>
<path d="M172.034 268.885C172.977 269.315 182.784 268.957 184.558 268.952L184.13 269.42C184.847 270.365 185.467 270.535 186.1 271.672C183.398 271.82 180.693 271.887 177.987 271.877C176.682 271.882 174.069 271.745 172.954 271.992L172.434 270.535C172.348 269.957 172.189 269.447 172.034 268.885Z" fill="#5E7AA3"/>
<path d="M172.434 270.535L172.954 271.993C172.821 272.463 172.726 272.668 172.536 273.11C172.058 272.815 172.067 272.2 171.9 271.503C171.754 270.98 171.591 270.988 171.109 270.558L172.434 270.535Z" fill="#899FC0"/>
<path d="M121.341 264.752C122.537 264.595 124.787 264.14 125.837 264.425C126.175 264.785 126.261 264.787 126.335 265.257C127.304 265.967 127.222 265.957 128.489 265.612L128.145 265.12L128.385 264.785L130.249 264.542C131.337 264.675 134.879 264.877 135.428 265.427L135.494 265.687C135.671 266.715 135.44 268.275 135.515 268.66L135.022 269.212C135.925 269.167 136.841 269.09 137.737 269.172C140.963 269.33 145.011 269.055 147.868 269.262L149.728 269.742C148.974 269.95 148.37 269.945 147.599 269.987C146.417 270.137 144.739 270.435 143.97 271.425C142.606 272.855 142.122 272.657 141.782 274.45L141.603 274.602L140.785 274.427C141.381 272.175 141.553 272.87 141.795 270.302C138.363 270.417 131.296 269.7 128.926 271.307C128.385 270.397 128.138 270.412 127.204 270.257C123.633 270.5 117.294 270.137 114.47 270.61C113.614 271.215 112.678 271.905 111.809 272.47L110.856 271.757C111.279 271.367 111.705 270.732 112.06 270.257L110.9 269.492C112.261 269.47 112.543 269.467 113.857 269.107C114.018 268.63 113.786 266.967 113.905 265.925C114.679 265.787 116.171 265.772 117.009 265.74L121.029 265.632L121.341 264.752Z" fill="#334C78"/>
<path d="M116.841 269.298C118.693 269.208 120.156 269 122.04 268.995C125.705 268.988 131.55 269.618 135.022 269.213C135.925 269.168 136.841 269.09 137.737 269.173C140.963 269.33 145.011 269.055 147.868 269.263L149.728 269.743C148.974 269.95 148.37 269.945 147.599 269.988C146.417 270.138 144.739 270.435 143.97 271.425C142.606 272.855 142.122 272.658 141.782 274.45L141.603 274.603L140.785 274.428C141.381 272.175 141.553 272.87 141.795 270.303C138.363 270.418 131.296 269.7 128.926 271.308C128.385 270.398 128.138 270.413 127.204 270.258C123.633 270.5 117.294 270.138 114.47 270.61C113.614 271.215 112.678 271.905 111.809 272.47L110.856 271.758C111.279 271.368 111.705 270.733 112.06 270.258L110.9 269.493C112.261 269.47 112.543 269.468 113.857 269.108C115.046 268.98 115.68 269.123 116.841 269.298Z" fill="#899FC0"/>
<path d="M121.341 264.752C122.537 264.595 124.787 264.14 125.837 264.425C126.175 264.785 126.261 264.787 126.335 265.257C122.461 266.372 123.941 267.105 121.549 268.257C120.689 267.667 120.963 266.607 121.029 265.632L121.341 264.752Z" fill="#899FC0"/>
<path d="M113.905 265.925C114.679 265.788 116.171 265.773 117.009 265.74L116.841 269.298C115.68 269.123 115.046 268.98 113.857 269.108C114.018 268.63 113.786 266.968 113.905 265.925Z" fill="#445C85"/>
<path d="M130.249 264.543C131.337 264.675 134.879 264.878 135.428 265.428L135.494 265.688C132.816 265.795 131.101 266.388 128.489 265.613L128.145 265.12L128.385 264.785L130.249 264.543Z" fill="#5E9BDF"/>
<path d="M207.965 265.638L209.431 265.943L210.858 265.983C210.753 266.81 210.485 268.513 210.518 269.233C211.839 269.27 212.844 269.163 214.155 269.04L213.776 271.783C210.577 271.785 207.38 271.65 204.193 271.378L203.529 272.095L201.888 271.92C197.872 271.948 193.774 272.245 189.848 271.438L190.296 271.128C189.995 270.583 189.686 269.848 189.42 269.268L189.865 269.003L191.388 268.97L191.073 266.898C192.278 265.978 192.959 266.038 194.435 265.975C195.364 266.003 196.491 266.068 197.403 266.02C199.886 265.873 201.499 265.798 203.985 265.918C205.499 266.008 205.917 266.04 207.399 265.795L207.965 265.638Z" fill="#556C98"/>
<path d="M207.965 265.638L209.431 265.943C208.78 266.78 208.606 266.873 207.702 267.443L207.599 267.753C207.208 268.45 207.049 268.81 206.511 269.39C205.512 268.9 193.688 268.88 192.548 269.345L191.388 268.97L191.073 266.898C192.278 265.978 192.959 266.038 194.435 265.975C195.364 266.003 196.491 266.068 197.403 266.02C199.886 265.873 201.499 265.798 203.985 265.918C205.499 266.008 205.917 266.04 207.399 265.795L207.965 265.638Z" fill="#334C78"/>
<path d="M209.431 265.942L210.858 265.982C210.753 266.81 210.485 268.512 210.518 269.232C210.129 270.965 207.482 271.217 206.511 269.39C207.049 268.81 207.208 268.45 207.599 267.752L207.702 267.442C208.606 266.872 208.78 266.78 209.431 265.942Z" fill="#A8BCD7"/>
<path d="M209.431 265.942L210.858 265.982C210.753 266.81 210.485 268.512 210.518 269.232C209.356 268.942 208.713 268.342 207.6 267.752L207.702 267.442C208.607 266.872 208.78 266.78 209.431 265.942Z" fill="#556C98"/>
<path d="M191.388 268.97L192.548 269.345C192.272 270.962 191.838 270.78 190.296 271.127C189.995 270.582 189.686 269.847 189.42 269.267L189.865 269.002L191.388 268.97Z" fill="#97B4D8"/>
<path d="M201.888 271.92L201.763 271.365C202.19 270.665 201.894 270.933 202.758 270.633C203.81 270.808 203.428 270.613 204.193 271.378L203.529 272.095L201.888 271.92Z" fill="#899FC0"/>
<path d="M244.935 277.2C244.895 276.598 244.891 276.628 245.046 276.045C246.71 275.595 256.065 275.425 257.335 276.168L257.498 277.01L257.763 276.458C258.505 275.98 258.428 276.148 259.488 276.148C259.888 276.988 260.328 277.87 260.698 278.718L262.488 280.268L261.818 281.06C259.44 281.158 256.335 280.513 253.788 280.59C253.043 280.615 245.325 280.77 245.374 280.788L245.084 280.153C244.681 279.64 244.14 279.08 243.695 278.59C243.916 277.428 243.978 277.498 244.935 277.2Z" fill="#334C78"/>
<path d="M243.695 278.59C243.916 277.428 243.978 277.498 244.935 277.2C245.412 278.735 245.81 279.03 246.964 280.208C249.194 280.3 257.778 280.57 259.505 280.04C260.385 279.628 260.328 279.493 260.698 278.718L262.488 280.268L261.818 281.06C259.44 281.158 256.335 280.513 253.788 280.59C253.043 280.615 245.325 280.77 245.374 280.788L245.084 280.153C244.681 279.64 244.14 279.08 243.695 278.59Z" fill="#A8BCD7"/>
<path d="M257.498 277.01L257.763 276.458C258.505 275.98 258.428 276.148 259.488 276.148C259.888 276.988 260.328 277.87 260.698 278.718C260.328 279.493 260.385 279.628 259.505 280.04C258.908 279.063 258.175 278.14 257.498 277.01Z" fill="#A8BCD7"/>
<path d="M226.71 275.872C231.346 275.67 237.414 275.527 242.095 276.015C242.819 276.092 243.186 277.812 243.695 278.59C244.14 279.08 244.681 279.64 245.083 280.152C241.516 280.377 231.54 280.437 227.922 280.182C227.01 278.872 226.911 277.417 226.71 275.872Z" fill="#334C78"/>
<path d="M217.166 265.828C218.596 265.698 222.085 266.205 223.685 266.395L223.778 268.34C223.963 269.4 223.614 269.65 224.258 270.493L224.989 270.735C222.872 271.588 223.36 271.278 221.208 271.658C220.918 272.05 220.663 272.32 220.542 272.79C219.729 272.283 219.417 271.898 218.567 271.888C218.069 272.723 218.235 272.99 218.222 274.058C218.135 273.285 218.172 272.883 217.745 272.268C216.824 271.738 215.069 271.878 213.776 271.783L214.155 269.04C212.844 269.163 211.839 269.27 210.518 269.233C210.485 268.513 210.753 266.81 210.858 265.983C212.559 265.888 215.848 266.313 217.166 265.828Z" fill="#334C78"/>
<path d="M223.779 268.34C223.964 269.4 223.614 269.65 224.259 270.492L224.99 270.735C222.872 271.587 223.361 271.277 221.208 271.657C220.918 272.05 220.663 272.32 220.542 272.79C219.729 272.282 219.418 271.897 218.568 271.887C218.069 272.722 218.235 272.99 218.222 274.057C218.136 273.285 218.172 272.882 217.745 272.267C216.824 271.737 215.069 271.877 213.776 271.782L214.156 269.04C216.932 269.042 221.122 269.497 223.567 268.907L223.779 268.34Z" fill="#5E7AA3"/>
<path d="M118.974 279.96C119.96 279.155 121.484 276.117 121.602 276.05C122.601 275.482 133.786 275.6 135.188 275.937C136.005 276.26 136.115 276.302 136.685 276.965C136.261 279.057 136.141 278.47 135.24 280.232L134.285 280.045C133.697 280.12 133.105 280.21 132.515 280.23C129.983 279.91 121.961 280.027 118.974 279.96Z" fill="#334C78"/>
<path d="M135.188 275.938C136.005 276.26 136.115 276.302 136.685 276.965C136.261 279.057 136.141 278.47 135.24 280.233L134.285 280.045C134.909 278.365 134.964 277.74 135.188 275.938Z" fill="#A8BCD7"/>
<path d="M147.868 269.263C150.22 268.926 153.663 268.95 156.082 269.033C155.887 270.05 155.62 270.863 155.895 271.838L156.281 272.195C155.873 272.963 156.05 273.575 156.142 274.468C155.72 274.42 154.905 274.47 154.444 274.485C152.664 274.518 142.882 274.843 141.782 274.451C142.122 272.658 142.606 272.855 143.97 271.425C144.738 270.435 146.416 270.138 147.599 269.988C148.37 269.945 148.974 269.95 149.727 269.743L147.868 269.263Z" fill="#334C78"/>
<path d="M147.868 269.263C150.22 268.926 153.663 268.95 156.082 269.033C155.887 270.05 155.62 270.863 155.895 271.838L156.281 272.195C155.873 272.963 156.05 273.575 156.142 274.468C155.72 274.42 154.905 274.47 154.444 274.485C155.261 273.985 155.434 272.795 155.736 271.808C155.653 271.363 155.523 270.985 155.388 270.558C153.469 270.75 149.467 270.465 147.599 269.988C148.37 269.945 148.974 269.95 149.727 269.743L147.868 269.263Z" fill="#5E7AA3"/>
<path d="M143.97 271.425C144.738 270.435 146.416 270.137 147.599 269.987C149.467 270.465 153.469 270.75 155.388 270.557C155.523 270.985 155.653 271.362 155.736 271.807C153.462 270.95 150.878 271.85 148.392 271.695C146.966 271.607 145.326 271.345 143.97 271.425Z" fill="#445C85"/>
<path d="M104.865 276.25C106.679 275.56 117 275.78 119.668 275.775C118.958 277.28 118.343 278.805 117.177 280.005C113.364 280.417 106.494 280.2 102.51 280.18C104.155 278.617 104.552 278.432 104.865 276.25Z" fill="#334C78"/>
<path d="M114.47 270.61C117.294 270.138 123.633 270.5 127.204 270.258C127.013 271.803 126.695 273.143 125.497 274.253C124.057 274.743 113.037 274.893 111.75 274.46L111.303 274.045L111.809 272.47C112.678 271.905 113.614 271.215 114.47 270.61Z" fill="#334C78"/>
<path d="M128.926 271.307C131.296 269.7 138.363 270.417 141.795 270.302C141.553 272.87 141.381 272.175 140.785 274.427C139.259 274.817 128.702 274.612 126.845 274.567C127.526 273.225 127.871 272.372 128.926 271.307Z" fill="#334C78"/>
<path d="M226.455 270.097C227.897 269.927 231.859 269.51 233.039 270.352C233.117 270.875 233.085 270.85 232.885 271.35L232.957 271.727C233.847 271.705 234.032 271.722 234.873 271.482C234.976 272.567 235.07 273.652 235.155 274.74L232.548 274.73C229.501 274.13 224.533 275.225 221.431 274.292C220.93 274.142 220.765 273.352 220.542 272.79C220.663 272.32 220.918 272.05 221.208 271.657C223.36 271.277 222.872 271.587 224.989 270.735L226.455 270.097Z" fill="#334C78"/>
<path d="M226.455 270.097C227.897 269.927 231.859 269.51 233.039 270.352C233.117 270.875 233.085 270.85 232.885 271.35L232.957 271.727C229.423 271.49 225.292 271.915 221.208 271.657C223.36 271.277 222.872 271.587 224.989 270.735L226.455 270.097Z" fill="#556C98"/>
<path d="M241.103 270.495C242.082 270.433 246.363 270.308 246.965 270.733L247.001 270.823C249.914 270.74 248.361 271.353 249.614 272.278L250.48 273.945L249.216 274.405C246.765 274.543 244.23 274.445 241.937 274.588C238.213 274.7 238.858 274.733 236.23 272.355C238.382 270.91 238.534 270.945 241.103 270.495Z" fill="#334C78"/>
<path d="M247.001 270.823C249.915 270.74 248.362 271.353 249.614 272.278L250.48 273.945L249.216 274.405C248.194 272.883 247.435 272.53 247.001 270.823Z" fill="#A8BCD7"/>
<path d="M204.193 271.378C207.38 271.65 210.577 271.785 213.776 271.783C215.069 271.878 216.824 271.738 217.745 272.268C218.172 272.883 218.136 273.285 218.222 274.058L217.991 274.443C216.744 274.613 215.597 274.57 214.341 274.563C211.899 274.383 206.319 274.6 203.6 274.575C203.534 273.815 203.544 272.875 203.529 272.095L204.193 271.378Z" fill="#334C78"/>
<path d="M189.848 271.438C193.774 272.245 197.872 271.948 201.888 271.92L203.529 272.095C203.543 272.875 203.533 273.815 203.6 274.575L201.799 274.487L187.696 274.49C187.804 273.877 188.407 272.857 188.721 272.28C189.034 271.832 189.343 271.74 189.848 271.438Z" fill="#334C78"/>
<path d="M201.888 271.92L203.529 272.095C203.543 272.875 203.533 273.815 203.6 274.575L201.799 274.487C201.948 273.382 201.95 273.037 201.888 271.92Z" fill="#5E7AA3"/>
<path d="M218.222 274.058C218.235 272.99 218.069 272.723 218.568 271.888C219.418 271.898 219.729 272.283 220.542 272.79C220.765 273.353 220.93 274.143 221.431 274.293C224.533 275.225 229.501 274.13 232.548 274.73C230.766 275.008 215.668 275.025 214.341 274.563C215.597 274.57 216.744 274.613 217.991 274.443L218.222 274.058Z" fill="#899FC0"/>
<path d="M234.874 271.483L235.107 270.933C235.901 271 235.548 270.848 236.148 271.515L236.231 272.355C238.858 274.733 238.213 274.7 241.937 274.588C241.183 275.028 236.209 274.808 235.156 274.74C235.07 273.653 234.976 272.568 234.874 271.483Z" fill="#899FC0"/>
<path d="M245.277 261.977L246.517 261.957C253.1 262.007 259.68 262.02 266.262 261.995C266.06 262.51 266.075 262.637 265.71 263.027C266.192 264.472 266.375 264.625 267.475 265.652C268.205 266.277 268.312 266.27 269.26 266.557C269.75 267.117 269.607 266.807 269.737 267.507C269.962 268.392 269.912 269.107 270.957 269.34L270.462 269.675L270.752 270.325C269.39 270.582 269.035 270.597 267.645 270.565C264.165 269.907 264.567 271.105 263.997 273.977C263.942 273.107 263.185 271.27 262.565 270.607L262.145 270.702L261.822 271.447C262.26 272.417 262.865 273.36 262.652 274.32C262.112 274.832 262.275 274.672 261.442 274.855C258.94 274.22 253.502 275.095 250.672 274.352L250.48 273.945L249.614 272.277C248.361 271.352 249.914 270.74 247.001 270.822L246.965 270.732C246.363 270.307 242.082 270.432 241.103 270.495C238.534 270.945 238.382 270.91 236.23 272.355L236.147 271.515C235.548 270.847 235.901 271 235.107 270.932L234.873 271.482C234.032 271.722 233.847 271.705 232.957 271.727L232.885 271.35C233.085 270.85 233.117 270.875 233.039 270.352C231.859 269.51 227.897 269.927 226.455 270.097L224.989 270.735L224.258 270.492C223.614 269.65 223.963 269.4 223.778 268.34L223.685 266.395L224.17 265.815L224.008 265.065C225.252 265.135 228.014 264.792 229.325 264.632C230.273 264.515 230.567 264.117 231.021 263.385L231.208 263.8L231.497 263.895C231.734 263.197 231.774 262.737 231.879 262.007C231.903 262.707 231.808 263.96 232.326 264.297C235.462 266.342 239.967 262.045 240.723 268.54L240.896 266.25L241.217 266.06C241.205 263.967 243.257 264.932 244.758 264.235C245.371 263.415 245.191 263.15 245.277 261.977Z" fill="#5E9BDF"/>
<path d="M246.517 261.957C253.1 262.007 259.68 262.02 266.263 261.995C266.06 262.51 266.075 262.637 265.71 263.027C266.193 264.472 266.375 264.625 267.475 265.652L266.388 266.085C265.408 265.982 264.508 266.015 263.525 266.025C260.715 266.687 259.14 265.23 256.508 267.112C256.073 266.065 255.075 265.805 254.165 265.002L254.003 264.857C251.318 264.57 248.932 265.36 247.182 264.337C246.52 263.615 246.6 262.967 246.517 261.957Z" fill="#556C98"/>
<path d="M263.525 266.025C264.057 264.36 264.027 263.672 265.71 263.027C266.192 264.472 266.375 264.625 267.475 265.652L266.387 266.085C265.407 265.982 264.507 266.015 263.525 266.025Z" fill="#899FC0"/>
<path d="M245.277 261.977L246.517 261.957C246.6 262.967 246.52 263.615 247.182 264.337C248.932 265.36 251.318 264.57 254.003 264.857L254.165 265.002C255.075 265.805 256.073 266.065 256.508 267.112L256.065 267.947L255.74 268.49C255.243 268.595 255.245 268.635 254.765 268.505L254.55 269.14C250.488 269.08 245.831 269.492 241.722 269.215C241.017 269.167 241.048 269.02 240.724 268.54L240.896 266.25L241.217 266.06C241.206 263.967 243.257 264.932 244.758 264.235C245.372 263.415 245.191 263.15 245.277 261.977Z" fill="#334C78"/>
<path d="M245.277 261.977L246.517 261.957C246.6 262.967 246.52 263.615 247.182 264.337C248.932 265.36 251.318 264.57 254.003 264.857C253.13 265.282 252.878 265.452 251.943 265.625C250.125 266 244.15 265.725 241.217 266.06C241.206 263.967 243.257 264.932 244.758 264.235C245.372 263.415 245.191 263.15 245.277 261.977Z" fill="#5E9BDF"/>
<path d="M254.002 264.857L254.165 265.002C255.075 265.805 256.072 266.065 256.507 267.112L256.065 267.947L255.74 268.49C255.242 268.595 255.245 268.635 254.765 268.505C254.547 267.615 254.455 267.197 254.082 266.365C253.447 265.702 252.882 265.75 251.942 265.625C252.877 265.452 253.13 265.282 254.002 264.857Z" fill="#A8BCD7"/>
<path d="M226.163 269.39C225.349 268.785 225.297 268.92 225.12 267.687C225.038 267.075 224.964 266.46 224.897 265.845C227.978 265.842 235.641 265.635 238.121 265.935C238.266 267.007 238.552 268.23 238.184 269.227C238.756 270.795 239.606 270.377 241.104 270.495C238.534 270.945 238.382 270.91 236.231 272.355L236.148 271.515C235.548 270.847 235.901 271 235.107 270.932L234.874 271.482C234.033 271.722 233.847 271.705 232.957 271.727L232.885 271.35C233.086 270.85 233.117 270.875 233.039 270.352C231.859 269.51 227.897 269.927 226.456 270.097L226.163 269.39Z" fill="#334C78"/>
<path d="M226.163 269.39C229.161 268.785 234.92 269.337 238.184 269.227C238.756 270.795 239.606 270.377 241.104 270.495C238.534 270.945 238.382 270.91 236.231 272.355L236.148 271.515C235.548 270.847 235.901 271 235.107 270.932L234.874 271.482C234.033 271.722 233.847 271.705 232.957 271.727L232.885 271.35C233.086 270.85 233.117 270.875 233.039 270.352C231.859 269.51 227.897 269.927 226.456 270.097L226.163 269.39Z" fill="#5E7AA3"/>
<path d="M249.614 272.277C250.23 269.702 256.51 270.77 258.567 270.815C259.492 270.832 260.442 271.4 261.822 271.447C262.26 272.417 262.865 273.36 262.652 274.32C262.112 274.832 262.275 274.672 261.442 274.855C258.94 274.22 253.502 275.095 250.672 274.352L250.48 273.945L249.614 272.277Z" fill="#334C78"/>
<path d="M263.525 266.025C264.507 266.015 265.407 265.982 266.387 266.085C267.47 266.467 268.265 267.142 268.182 268.44C267.055 269.777 263.88 269.357 262.127 269.33C260.165 269.147 256.757 270.012 256.065 267.947L256.507 267.112C259.14 265.23 260.715 266.687 263.525 266.025Z" fill="#334C78"/>
<path d="M254.765 268.505C255.245 268.635 255.242 268.595 255.74 268.49L256.065 267.947C256.757 270.012 260.165 269.147 262.127 269.33L261.997 269.742C261.035 270.572 256.005 270.305 254.712 269.805L254.55 269.14L254.765 268.505Z" fill="#899FC0"/>
<path d="M103.27 276.168L104.116 275.513C104.722 275.685 104.433 275.525 104.865 276.25C104.552 278.433 104.155 278.618 102.51 280.18C106.494 280.2 113.363 280.418 117.177 280.005C118.198 280.56 130.735 280.465 132.515 280.23C133.105 280.21 133.697 280.12 134.285 280.045L135.24 280.233L225.252 280.223C226.278 280.268 226.883 280.313 227.922 280.183C231.54 280.438 241.516 280.378 245.083 280.153L245.374 280.788C244.519 281.365 244.092 281.75 243.047 281.853C231.185 281.965 219.441 282.025 207.57 281.793C205.262 281.748 194.823 281.878 193.322 281.433C194.573 281.1 198.282 281.313 199.951 281.218C197.642 280.775 192.876 280.903 190.403 280.838C183.024 280.645 174.777 280.33 167.432 280.688C163.416 281.168 159.669 281.885 155.601 281.988C129.53 282.648 103.472 281.838 77.4068 282.158C75.6485 282.18 64.9548 281.67 64.082 281.178C64.7565 281.02 66.016 280.885 66.7148 280.91C67.846 280.95 68.3198 280.433 69.232 280.375C72.4945 280.213 82.3745 280.533 84.755 279.915L86.4343 280.208C86.5405 279.878 88.8745 276.093 89.2068 276.028C91.437 275.585 101.511 275.62 103.19 275.913L103.27 276.168Z" fill="#BED3E8"/>
<path d="M86.4346 280.207C86.5408 279.877 88.8748 276.092 89.2071 276.027C91.4373 275.585 101.512 275.62 103.19 275.912L103.27 276.167C102.756 278.272 102.461 278.63 100.936 280.2C96.2166 280.412 91.1861 280.25 86.4346 280.207Z" fill="#334C78"/>
<path d="M102.928 267.277C104.106 267.485 103.888 267.257 104.517 267.975C104.558 268.365 104.514 268.887 104.79 268.992C106.642 269.707 108.786 269.052 110.9 269.492L112.06 270.257C111.705 270.732 111.279 271.367 110.856 271.757L111.809 272.47L111.303 274.045L111.02 274.602C110.152 274.697 110.306 274.572 109.36 274.017C108.455 274.5 106.975 274.51 105.893 274.615C105.01 274.782 103.583 274.78 103.12 275.167L103.19 275.912C101.512 275.62 91.4374 275.585 89.2072 276.027C88.8749 276.092 86.5409 279.877 86.4347 280.207L84.7554 279.915C82.3749 280.532 72.4949 280.212 69.2324 280.375C69.2879 280.175 71.8194 276.372 72.2689 275.467C72.4917 274.91 72.5502 274.612 73.0092 274.217C73.7319 272.94 74.5037 271.73 75.2859 270.487C75.6329 269.872 75.8284 269.477 76.2804 268.937C76.9844 269.232 100.076 269.297 101.963 268.972C102.671 268.425 102.58 268.207 102.928 267.277Z" fill="#334C78"/>
<path d="M72.2689 275.468C74.8022 276.015 86.5009 275.425 87.4684 276.113C87.3154 276.8 85.2054 279.493 84.7554 279.915C82.3749 280.533 72.4949 280.213 69.2324 280.375C69.2879 280.175 71.8194 276.373 72.2689 275.468Z" fill="#334C78"/>
<path d="M102.928 267.277C104.106 267.485 103.888 267.257 104.517 267.975C104.558 268.365 104.514 268.887 104.79 268.992C106.642 269.707 108.786 269.052 110.9 269.492L112.06 270.257C99.6696 270.372 87.6986 270.572 75.2856 270.487C75.6326 269.872 75.8281 269.477 76.2801 268.937C76.9841 269.232 100.076 269.297 101.963 268.972C102.671 268.425 102.58 268.207 102.928 267.277Z" fill="#859CC1"/>
<path d="M72.2686 275.468C72.4913 274.91 72.5498 274.613 73.0088 274.218C74.7448 274.855 101.729 274.478 105.893 274.615C105.01 274.783 103.583 274.78 103.12 275.168L103.19 275.913C101.511 275.62 91.4371 275.585 89.2068 276.028C88.8746 276.093 86.5406 279.878 86.4343 280.208L84.7551 279.915C85.2051 279.493 87.315 276.8 87.468 276.113C86.5005 275.425 74.8018 276.015 72.2686 275.468Z" fill="#899FC0"/>
<path d="M110.856 271.758L111.809 272.47L111.302 274.045L111.02 274.603C110.152 274.698 110.306 274.573 109.359 274.018C109.735 273.105 110.252 272.535 110.856 271.758Z" fill="#A8BCD7"/>
<path d="M158.465 261.978C159.141 261.93 159.82 261.848 160.488 261.948L173.279 261.963C172.963 263.648 172.91 264.083 172.096 265.563L172.455 266.108C172.353 267.068 172.198 267.938 172.033 268.885C170.907 268.773 170.664 268.813 169.538 268.988L168.74 269.255C167.692 268.778 161.216 268.955 159.77 268.973C159.29 269.653 158.457 270.758 158.108 271.46C157.528 271.703 156.87 272 156.281 272.195L155.895 271.838C155.62 270.863 155.887 270.05 156.082 269.033C153.663 268.95 150.22 268.925 147.868 269.263C145.011 269.055 140.963 269.33 137.737 269.173C137.565 265.6 139.852 266.018 142.429 265.325L142.011 264.665C141.923 263.48 142.006 263.11 142.195 261.978L144.127 261.995C148.906 261.918 153.686 261.913 158.465 261.978Z" fill="#5E9BDF"/>
<path d="M142.429 265.325C144.607 265.853 146.892 265.708 149.158 265.75L150.51 267.32C152.322 267.408 151.476 265.673 154.515 265.698C160.303 265.745 166.04 265.913 171.828 265.72C171.362 266.408 170.015 268.48 169.538 268.988L168.74 269.255C167.692 268.778 161.216 268.955 159.77 268.973C159.29 269.653 158.457 270.758 158.108 271.46C157.528 271.703 156.87 272 156.281 272.195L155.895 271.838C155.62 270.863 155.887 270.05 156.082 269.033C153.663 268.95 150.22 268.925 147.868 269.263C145.011 269.055 140.963 269.33 137.737 269.173C137.565 265.6 139.852 266.018 142.429 265.325Z" fill="#334C78"/>
<path d="M156.083 269.032C157.485 268.812 158.397 268.567 159.77 268.972C159.29 269.652 158.457 270.757 158.108 271.46C157.528 271.702 156.87 272 156.281 272.195L155.895 271.837C155.62 270.862 155.887 270.05 156.083 269.032Z" fill="#A8BCD7"/>
<path d="M144.127 261.995C148.906 261.918 153.686 261.913 158.465 261.978L157.816 263.76L157.65 264.178C156.56 265.09 145.717 265 144.058 264.21C143.728 263.508 143.991 262.9 144.127 261.995Z" fill="#445C85"/>
<path d="M160.488 261.947L173.279 261.962C172.963 263.647 172.91 264.082 172.096 265.562C169.857 263.435 161.991 265.847 159.865 264.23C160.329 263.347 160.345 262.925 160.488 261.947Z" fill="#445C85"/>
<path d="M158.465 261.978C159.141 261.93 159.82 261.848 160.488 261.948C160.345 262.925 160.329 263.348 159.865 264.23L159.442 264.193C158.913 264.44 158.795 264.55 158.21 264.563L157.816 263.76L158.465 261.978Z" fill="#899FC0"/>
<path d="M173.279 261.962C174.339 261.825 174.602 261.765 175.644 261.947L203.449 261.99C203.264 263.397 203.182 263.612 203.606 265.002L203.985 265.917C201.499 265.797 199.886 265.872 197.403 266.02C196.491 266.067 195.365 266.002 194.435 265.975C192.959 266.037 192.278 265.977 191.073 266.897L191.388 268.97L189.866 269.002L189.421 269.267C187.422 269.445 186.52 269.077 184.558 268.952C182.784 268.957 172.977 269.315 172.034 268.885C172.198 267.937 172.353 267.067 172.456 266.107L172.096 265.562C172.91 264.082 172.963 263.647 173.279 261.962Z" fill="#445C85"/>
<path d="M173.279 261.962C174.339 261.825 174.602 261.765 175.644 261.947C175.276 263.15 175.053 263.175 175.371 264.252C177.564 266.195 182.014 263.782 184.283 265.107L184.409 265.555C187.263 266.707 186.127 266.062 188.067 265.905L188.981 266.105C189.76 266.14 189.374 266.195 190.154 265.792L190.634 266.3L191.073 266.897L191.388 268.97L189.866 269.002L189.421 269.267C187.422 269.445 186.52 269.077 184.558 268.952C182.784 268.957 172.977 269.315 172.034 268.885C172.198 267.937 172.353 267.067 172.456 266.107L172.096 265.562C172.91 264.082 172.963 263.647 173.279 261.962Z" fill="#334C78"/>
<path d="M173.279 261.962C174.339 261.825 174.601 261.765 175.644 261.947C175.275 263.15 175.053 263.175 175.371 264.252C177.564 266.195 182.014 263.782 184.283 265.107L184.409 265.555L184.246 265.68C183.174 266.515 183.026 267.125 181.736 267.717C180.352 267.57 180.271 266.857 179.774 265.69C178.138 265.742 173.838 265.792 172.455 266.107L172.096 265.562C172.91 264.082 172.963 263.647 173.279 261.962Z" fill="#899FC0"/>
<path d="M190.154 265.793L190.634 266.3L191.073 266.898L191.388 268.97L189.866 269.003C189.643 267.855 189.663 266.843 188.981 266.105C189.76 266.14 189.374 266.195 190.154 265.793Z" fill="#5E7AA3"/>
<path d="M195.083 264.75C197.955 264.645 200.406 264.605 203.265 265.147L203.605 265.002L203.985 265.917C201.499 265.797 199.886 265.872 197.403 266.02C196.491 266.067 195.364 266.002 194.435 265.975C194.509 265.25 194.365 265.57 194.975 265.032L195.083 264.75Z" fill="#899FC0"/>
<path d="M194.975 265.033C196.055 264.978 196.633 264.87 197.67 265.195L197.89 265.598L197.403 266.02C196.491 266.068 195.364 266.003 194.435 265.975C194.509 265.25 194.365 265.57 194.975 265.033Z" fill="#97B4D8"/>
<path d="M188.067 265.905C187.167 265.647 187.221 265.415 187.129 264.595C187.416 263.73 187.482 263.647 188.203 263.09C189.059 262.905 188.654 262.87 189.462 263.195C190.181 263.962 190.084 264.7 190.154 265.792C189.373 266.195 189.76 266.14 188.981 266.105L188.067 265.905Z" fill="#899FC0"/>
<path d="M190.634 266.3C191.642 264.2 193.019 264.608 195.084 264.75L194.975 265.033C194.365 265.57 194.509 265.25 194.435 265.975C192.959 266.038 192.278 265.978 191.073 266.898L190.634 266.3Z" fill="#556C98"/>
<path d="M272.643 269.175C274.228 268.89 276.13 269.003 277.765 269.033C277.755 269.893 277.77 270.922 277.723 271.767C278.143 273.832 279.153 277.065 278.705 278.987L279.59 279.605C278.628 280.068 278.42 280.105 277.723 280.87L277 280.383C273.563 280.058 266.223 280.26 262.488 280.267L260.698 278.718C260.328 277.87 259.888 276.987 259.488 276.147L259.83 275.913L258.83 275.56L258.883 275.323C259.758 275.205 260.39 275.12 261.26 274.903L261.443 274.855C262.275 274.673 262.113 274.833 262.653 274.32C262.865 273.36 262.26 272.418 261.823 271.448L262.145 270.703L262.565 270.608C263.185 271.27 263.943 273.108 263.998 273.978C264.568 271.105 264.165 269.908 267.645 270.565C269.035 270.598 269.39 270.583 270.753 270.325L270.463 269.675L270.958 269.34L272.643 269.175Z" fill="#334C78"/>
<path d="M272.643 269.175C274.228 268.89 276.13 269.003 277.765 269.033C277.755 269.893 277.77 270.922 277.723 271.767C278.143 273.832 279.153 277.065 278.705 278.987C277.593 277.712 277.208 277.023 276.75 275.453L276.79 274.33C274.72 274.77 265.338 275.208 263.998 273.978C264.568 271.105 264.165 269.908 267.645 270.565C269.035 270.598 269.39 270.583 270.753 270.325L270.463 269.675L270.958 269.34L272.643 269.175Z" fill="#334C78"/>
<path d="M272.643 269.175C274.228 268.89 276.13 269.003 277.765 269.033C277.755 269.893 277.77 270.922 277.723 271.767C276.915 272.007 276.793 272.04 275.955 272.093C275.453 271.963 271.635 271.625 270.658 271.485L270.76 271.455C269.643 271.03 268.8 270.843 267.645 270.565C269.035 270.598 269.39 270.583 270.753 270.325L270.463 269.675L270.958 269.34L272.643 269.175Z" fill="#556C98"/>
<path d="M270.957 269.34L272.642 269.175C274.207 269.207 275.522 269.082 276.952 269.655L276.827 269.935C274.775 270.402 272.862 270.415 270.752 270.325L270.462 269.675L270.957 269.34Z" fill="#5E9BDF"/>
<path d="M275.955 272.093C276.792 272.04 276.915 272.008 277.722 271.768C278.142 273.833 279.152 277.065 278.705 278.988C277.592 277.713 277.207 277.023 276.75 275.453L276.79 274.33L275.73 274.075C276.242 273.988 276.637 273.87 277.135 273.733L277.215 273.328C276.5 272.415 276.875 272.643 275.837 272.403L275.955 272.093Z" fill="#334C78"/>
<path d="M261.823 271.447L262.145 270.702L262.565 270.607C263.185 271.27 263.943 273.107 263.998 273.977C265.338 275.207 274.72 274.77 276.79 274.33L276.75 275.452C276.328 275.667 275.97 275.82 275.59 276.102C271.873 275.125 263.938 276.155 259.83 275.912L258.83 275.56L258.883 275.322C259.758 275.205 260.39 275.12 261.26 274.902L261.443 274.855C262.275 274.672 262.113 274.832 262.653 274.32C262.865 273.36 262.26 272.417 261.823 271.447Z" fill="#A8BCD7"/>
<path d="M275.59 276.102C275.97 275.82 276.327 275.667 276.75 275.452C277.207 277.022 277.592 277.712 278.705 278.987L279.59 279.605C278.627 280.067 278.42 280.105 277.722 280.87L277 280.382C277.2 279.52 276 277.097 275.59 276.102Z" fill="#BED3E8"/>
<path d="M88.9993 261.725C90.9125 261.787 95.5643 261.745 97.103 261.93C96.958 262.865 96.8048 263.797 96.6435 264.73C98.141 264.722 101.756 264.595 102.961 264.997C103.171 265.435 103.139 265.257 103.147 265.732L103.449 266.24L102.928 267.277C102.58 268.207 102.671 268.425 101.963 268.972C100.076 269.297 76.9843 269.232 76.2803 268.937C77.1073 267.515 77.7305 266.582 78.6928 265.242C79.2363 264.287 79.3548 264.077 80.1165 263.295C80.2483 263.1 80.5075 262.705 80.6808 262.56C81.9848 261.467 87.292 261.93 89 261.987L88.9993 261.725Z" fill="#334C78"/>
<path d="M88.9994 261.725C90.9126 261.787 95.5644 261.745 97.1031 261.93C96.9581 262.865 96.8049 263.797 96.6436 264.73C98.1411 264.722 101.756 264.595 102.961 264.997C103.171 265.435 103.139 265.257 103.147 265.732C99.4949 265.785 95.8716 265.685 92.1709 265.757C91.3789 266.217 79.8614 265.96 78.6929 265.242C79.2364 264.287 79.3549 264.077 80.1166 263.295C80.2484 263.1 80.5076 262.705 80.6809 262.56C81.9849 261.467 87.2921 261.93 89.0001 261.987L88.9994 261.725Z" fill="#445C85"/>
<path d="M78.6929 265.242C79.2364 264.287 79.3549 264.077 80.1166 263.295C80.5001 263.55 81.2121 263.995 81.5509 264.257C85.5426 264.697 89.3441 264.37 93.3536 264.787C93.7951 264.985 93.9719 265.007 94.4549 265.012L94.6219 265.267L94.1976 265.055L93.8721 265.455C93.2764 265.48 92.4619 265.445 91.9456 265.65L92.1709 265.757C91.3789 266.217 79.8614 265.96 78.6929 265.242Z" fill="#556C98"/>
<path d="M88.999 261.725C90.9123 261.787 95.564 261.745 97.1028 261.93C96.9578 262.865 96.8045 263.797 96.6433 264.73C98.1408 264.722 101.755 264.595 102.961 264.997C103.171 265.435 103.139 265.257 103.147 265.732C99.4945 265.785 95.8713 265.685 92.1705 265.757L91.9453 265.65C92.4615 265.445 93.276 265.48 93.8718 265.455L94.1973 265.055L94.6215 265.267L94.4545 265.012C93.9715 265.007 93.7948 264.985 93.3533 264.787C93.973 264.787 94.1808 264.647 94.7413 264.405C95.4273 263.727 95.538 263.002 95.831 262.062L88.9998 261.987L88.999 261.725Z" fill="#899FC0"/>
<path d="M64.082 281.177C66.228 277.215 75.1683 263.32 78.4153 261.06C81.9513 261.942 85.3145 261.667 88.999 261.725L88.9998 261.987C87.2918 261.93 81.9845 261.467 80.6805 262.56C80.5073 262.705 80.248 263.1 80.1163 263.295C79.3545 264.077 79.236 264.287 78.6925 265.242C77.7303 266.582 77.107 267.515 76.28 268.937C75.828 269.477 75.6325 269.872 75.2855 270.487C74.5033 271.73 73.7315 272.94 73.0088 274.217C72.5498 274.612 72.4913 274.91 72.2685 275.467C71.819 276.372 69.2875 280.175 69.232 280.375C68.3198 280.432 67.846 280.95 66.7148 280.91C66.016 280.885 64.7565 281.02 64.082 281.177Z" fill="#A8BCD7"/>
<path d="M266.262 261.995C270.005 261.995 274.015 261.922 277.73 262.115C277.645 263.4 277.522 264.797 277.52 266.075C277.617 267.055 277.737 268.05 277.765 269.032C276.13 269.002 274.227 268.89 272.642 269.175L270.957 269.34C269.912 269.107 269.962 268.392 269.737 267.507C269.607 266.807 269.75 267.117 269.26 266.557C268.312 266.27 268.205 266.277 267.475 265.652C266.375 264.625 266.192 264.472 265.71 263.027C266.075 262.637 266.06 262.51 266.262 261.995Z" fill="#445C85"/>
<path d="M277.267 266.05L277.52 266.075C277.617 267.055 277.737 268.05 277.765 269.033C276.13 269.003 274.227 268.89 272.642 269.175L270.957 269.34C269.912 269.108 269.962 268.393 269.737 267.508C270.66 266.018 272.39 266.368 274.055 266.035C274.82 266.055 276.662 266.178 277.267 266.05Z" fill="#334C78"/>
<path d="M274.055 266.035C272.742 266.033 272.44 266.238 271.4 265.668L271.215 265.135C272.365 263.338 276.57 262.963 277.222 265.38C277.255 265.498 277.262 265.95 277.267 266.05C276.662 266.178 274.82 266.055 274.055 266.035Z" fill="#5E7AA3"/>
<path d="M203.449 261.99C203.916 261.977 204.737 261.932 205.173 261.955C207.765 261.987 215.027 261.772 217.07 262.087C217.23 262.915 217.57 263.977 217.234 264.685L217.166 265.827C215.848 266.312 212.559 265.887 210.858 265.982L209.431 265.942L207.965 265.637L207.399 265.795C205.917 266.04 205.5 266.007 203.985 265.917L203.606 265.002C203.182 263.612 203.264 263.397 203.449 261.99Z" fill="#445C85"/>
<path d="M207.965 265.637L208.185 265.135C209.136 264.622 215.622 264.717 217.234 264.685L217.166 265.827C215.848 266.312 212.559 265.887 210.858 265.982L209.431 265.942L207.965 265.637Z" fill="#899FC0"/>
<path d="M203.449 261.99C203.916 261.978 204.737 261.933 205.173 261.955C205.343 265.44 205.552 263.855 207.399 265.795C205.917 266.04 205.5 266.008 203.985 265.918L203.606 265.003C203.182 263.613 203.264 263.398 203.449 261.99Z" fill="#899FC0"/>
<path d="M111.449 262.612C111.958 262.717 112.609 262.797 113.027 263.032C112.788 264.055 112.669 263.82 113.056 264.52C115.048 265.385 119.08 264.927 121.341 264.752L121.029 265.632L117.009 265.74C116.171 265.772 114.679 265.787 113.905 265.925C113.786 266.967 114.018 268.63 113.857 269.107C112.543 269.467 112.261 269.47 110.9 269.492C108.786 269.052 106.642 269.707 104.79 268.992C104.514 268.887 104.558 268.365 104.517 267.975C103.888 267.257 104.106 267.485 102.928 267.277L103.449 266.24L104.946 265.027C108.739 264.855 109.055 265.717 111.449 262.612Z" fill="#334C78"/>
<path d="M111.449 262.612C111.958 262.717 112.609 262.797 113.027 263.032C112.788 264.055 112.669 263.82 113.056 264.52C115.048 265.385 119.08 264.927 121.341 264.752L121.029 265.632L117.009 265.74C116.171 265.772 114.679 265.787 113.905 265.925C111.684 265.827 106.836 265.222 105.063 266.567C104.755 266.8 104.648 267.517 104.517 267.975C103.888 267.257 104.106 267.485 102.928 267.277L103.449 266.24L104.946 265.027C108.739 264.855 109.055 265.717 111.449 262.612Z" fill="#5E9BDF"/>
<path d="M128.658 262.902C129.99 261.332 139.706 261.947 142.195 261.977C142.006 263.11 141.923 263.48 142.012 264.665L142.43 265.325C139.852 266.017 137.565 265.6 137.737 269.172C136.841 269.09 135.925 269.167 135.022 269.212L135.515 268.66C135.44 268.275 135.671 266.715 135.494 265.687L135.428 265.427C134.879 264.877 131.337 264.675 130.249 264.542C129.87 263.857 129.256 263.41 128.658 262.902Z" fill="#445C85"/>
<path d="M142.011 264.665L142.429 265.325C139.852 266.018 137.565 265.6 137.737 269.173C136.841 269.09 135.924 269.168 135.022 269.213L135.515 268.66L135.865 268.568L135.965 267.768C136.088 266.705 136.04 266.605 136.608 265.678C137.942 264.675 140.271 264.775 142.011 264.665Z" fill="#899FC0"/>
<path d="M217.069 262.087L218.976 262.02C221.235 261.977 228.874 261.625 230.575 262.297C230.909 262.81 230.886 262.782 231.021 263.385C230.567 264.117 230.273 264.515 229.325 264.632C228.014 264.792 225.252 265.135 224.008 265.065L224.17 265.815L223.685 266.395C222.085 266.205 218.596 265.697 217.166 265.827L217.234 264.685C217.57 263.977 217.23 262.915 217.069 262.087Z" fill="#334C78"/>
<path d="M217.069 262.087L218.976 262.02C218.785 263.195 218.669 262.86 219.084 263.807C220.467 265.002 222.232 264.767 224.008 265.065L224.17 265.815L223.685 266.395C222.085 266.205 218.596 265.697 217.166 265.827L217.234 264.685C217.57 263.977 217.23 262.915 217.069 262.087Z" fill="#5E9BDF"/>
<path d="M115.597 262.022C117.401 262.005 125.727 261.742 126.82 262.227C127.406 262.82 127.472 262.9 127.9 263.612C128.531 263.365 128.259 263.562 128.658 262.902C129.256 263.41 129.87 263.857 130.249 264.542L128.385 264.785L128.145 265.12L128.489 265.612C127.222 265.957 127.304 265.967 126.335 265.257C126.261 264.787 126.175 264.785 125.837 264.425C124.787 264.14 122.537 264.595 121.341 264.752C119.08 264.927 115.048 265.385 113.056 264.52C112.669 263.82 112.788 264.055 113.027 263.032C113.693 262.097 114.533 262.165 115.597 262.022Z" fill="#445C85"/>
<path d="M97.1031 261.93C101.82 261.98 106.537 262.002 111.254 261.995L111.449 262.612C109.055 265.717 108.739 264.855 104.946 265.027L103.449 266.24L103.147 265.732C103.139 265.257 103.171 265.435 102.961 264.997C101.756 264.595 98.1411 264.722 96.6436 264.73C96.8048 263.797 96.9581 262.865 97.1031 261.93Z" fill="#445C85"/>
<path d="M231.879 262.008C236.345 261.955 240.811 261.945 245.277 261.978C245.191 263.15 245.372 263.415 244.758 264.235C243.257 264.933 241.206 263.968 241.217 266.06L240.896 266.25L240.724 268.54C239.968 262.045 235.462 266.343 232.326 264.298C231.808 263.96 231.903 262.708 231.879 262.008Z" fill="#445C85"/>
<path d="M262.487 280.267C266.222 280.26 273.562 280.057 277 280.382L277.722 280.87C275.297 282.59 263.63 281.4 260.197 281.452L246.317 281.725C245.31 281.735 243.932 282.012 243.047 281.852C244.092 281.75 244.519 281.365 245.374 280.787C245.324 280.77 253.042 280.615 253.787 280.59C256.335 280.512 259.44 281.157 261.817 281.06L262.487 280.267Z" fill="#BED3E8"/>
<path d="M111.254 261.995L115.597 262.023C114.533 262.165 113.693 262.098 113.027 263.033C112.609 262.798 111.958 262.718 111.449 262.613L111.254 261.995Z" fill="#5E7AA3"/>
<path d="M152.618 295.708C152.803 293.518 154.74 284.473 157.072 284.253C178.573 284.883 200.262 284.155 221.775 284.55C222.332 284.56 222.782 284.795 223.215 285.123C225.686 288.21 226.637 291.678 226.629 295.568C222.636 296.505 209.481 296.063 204.351 296.098C192.719 296.255 181.084 296.238 169.453 296.045C165.337 296.01 156.366 296.2 152.618 295.708Z" fill="#97B4D8"/>
<path d="M157.071 284.253C178.573 284.883 200.262 284.155 221.775 284.55C222.331 284.56 222.782 284.795 223.215 285.123C221.248 286.325 184.754 285.515 179.274 285.5L165.066 285.513C162.881 285.515 160.472 285.55 158.273 285.385C157.643 285.34 157.417 284.765 157.071 284.253Z" fill="#556C98"/>
<path d="M282.89 183.194C283.16 182.876 283.448 182.576 283.755 182.294C286.283 179.958 288.463 179.46 291.878 179.47C303.703 179.504 315.53 179.402 327.355 179.503C331.403 179.537 332.703 180.906 335.285 183.73C335.778 186.03 335.885 189.127 335.475 191.442L335.473 224.359C335.468 229.614 335.265 236.071 335.46 241.223C335.853 247.014 335.415 253.295 335.543 259.132C335.645 263.735 335.54 268.472 335.41 273.072C335.253 276.677 333.415 278.972 329.543 278.987C315.978 279.032 302.405 278.98 288.84 278.99C287.958 278.99 285.778 278.782 285.123 278.205C281.848 275.32 282.525 268.58 282.805 264.505L282.713 261.885C282.323 260.18 282.44 250.85 282.438 248.549L282.555 216.423L282.478 194.631C282.485 191.477 282.338 186.121 282.89 183.194Z" fill="#FEFEFF"/>
<path d="M335.46 241.224C335.852 247.014 335.415 253.295 335.542 259.133C335.645 263.735 335.54 268.473 335.41 273.073C335.252 276.678 333.415 278.973 329.542 278.988C315.977 279.033 302.405 278.98 288.84 278.99C287.957 278.99 285.777 278.783 285.122 278.205C281.847 275.32 282.525 268.58 282.805 264.505C288.972 265 297.627 264.738 304.015 264.718L335.225 264.735C335.327 257.46 334.96 248.317 335.46 241.224Z" fill="#334C78"/>
<path d="M307.417 268.78C310.737 268.587 314.232 269.257 312.872 274.155C312.637 275 312.037 275.73 311.192 276.072C309.142 276.38 306.925 276.577 305.627 274.61C304.14 272.352 305.57 270.162 307.417 268.78Z" fill="#97B4D8"/>
<path d="M282.89 183.194C283.16 182.876 283.448 182.576 283.755 182.294C286.283 179.958 288.463 179.46 291.878 179.47C303.703 179.504 315.53 179.402 327.355 179.503C331.403 179.537 332.703 180.906 335.285 183.73C335.778 186.03 335.885 189.127 335.475 191.442C335.318 191.327 335.18 191.18 335.005 191.098C334.413 190.823 288.5 190.664 282.763 190.873L282.683 242.338C282.665 247.725 283.01 256.98 282.713 261.885C282.323 260.18 282.44 250.85 282.438 248.549L282.555 216.423L282.478 194.631C282.485 191.477 282.338 186.121 282.89 183.194Z" fill="#556C98"/>
<path d="M309.482 182.86C310.83 182.811 312.202 182.752 313.555 182.783C315.06 182.816 316.05 184.256 315.265 185.607C313.692 185.902 309.132 185.783 307.225 185.802C305.7 185.85 302.492 186.138 301.292 185.434C301.087 184.698 301.175 184.457 301.272 183.677C302.182 182.736 307.757 182.907 309.482 182.86Z" fill="#A8BCD7"/>
<path d="M287.355 196.507C291.04 195.999 300.97 196.156 305.31 196.221C313.108 196.339 322.693 195.941 330.283 196.489C330.29 199.432 330.265 202.376 330.213 205.319C330.405 210.813 330.563 217.798 330.168 223.194C325.565 223.414 320.608 223.311 315.973 223.308C313.91 223.307 309.71 223.406 307.838 223.223C303.745 223.349 290.965 223.467 287.585 223.007C286.993 219.658 287.193 214.632 287.233 211.14L287.355 196.507Z" fill="#5E9BDF"/>
<path d="M307.837 223.222C308.877 222.432 319.817 223.425 322.332 222.969C322.205 222.484 322.222 222.654 322.255 222.167C324.812 220.353 327.117 216.649 329.355 215.767L329.837 216.06C330.732 214.733 329.292 207.001 330.212 205.318C330.405 210.813 330.562 217.798 330.167 223.194C325.565 223.414 320.607 223.31 315.972 223.308C313.91 223.307 309.71 223.406 307.837 223.222Z" fill="#B779EC"/>
<path d="M297.648 249.056C302.955 248.832 315.73 248.626 321.155 249.36C324.188 249.771 327.198 256.698 320.36 258.968C314.398 259.143 308.398 258.995 302.43 259.07C299.68 259.248 293.705 258.945 293.17 255.253C292.64 251.608 294.435 249.773 297.648 249.056Z" fill="#A75DE0"/>
<path d="M323.722 229.117C325.045 229.078 328.427 228.733 329.51 229.579C330.59 230.424 330.617 232.274 329.692 233.365C327.97 234.116 298.747 233.752 295.072 233.756C292.887 233.762 290.702 233.747 288.515 233.711C288.405 231.082 288.04 229.578 291.312 229.384C295.18 229.154 299.065 229.261 302.94 229.263C309.867 229.295 316.795 229.246 323.722 229.117Z" fill="#BED3E8"/>
<path d="M294.353 238.125C299.408 237.959 304.913 238.106 310 238.069C313.378 238.044 318.678 237.9 321.813 238.322C322.405 241.331 322.543 242.471 318.898 242.302C317.968 242.259 316.793 242.28 315.84 242.27C312.05 242.273 290.925 242.561 288.583 241.878C287.655 241.079 287.508 239.572 288.22 238.625C289.683 237.965 292.628 238.131 294.353 238.125Z" fill="#BED3E8"/>
<path d="M106.937 68.3066C119.422 67.9158 133.796 68.2671 146.499 68.2723L218.842 68.2483L248.673 68.2361C254.178 68.2188 271.812 67.7211 275.712 68.9403C279.845 72.7501 278.548 80.1098 278.628 85.4693L272.812 85.5463C239.114 86.5478 203.505 85.8783 169.78 85.7408L130.961 85.7196C126.675 85.7478 122.359 86.0018 118.064 86.0576C112.477 86.0771 106.89 86.0191 101.304 85.8841C101.28 84.4138 101.202 82.8876 101.237 81.4223C101.372 75.7461 99.8305 69.9573 106.937 68.3066Z" fill="#516C9B"/>
<path d="M173.215 74.3736C177.688 74.2211 182.393 74.2156 186.871 74.2824C214.223 74.6886 241.97 73.6416 269.278 74.5254C269.323 76.4181 269.268 78.2691 269.225 80.1596L266.813 80.1999L204.901 80.3276C195.102 80.3266 185.237 80.3479 175.436 80.2994C174.575 80.1951 172.38 80.2711 171.673 79.7619C169.423 78.1416 170.633 74.8289 173.215 74.3736Z" fill="#FEFEFF"/>
<path d="M109.668 73.302C113.777 72.7432 114.467 74.6202 116.345 77.8155C115.213 79.2017 114.683 79.7475 113.344 80.937C108.28 83.6535 105.61 76.2005 109.668 73.302Z" fill="#D55D6B"/>
<path d="M124.314 73.2949C126.34 73.3934 127.666 74.0364 128.126 76.2297C128.369 77.3929 128.136 78.6047 127.48 79.5957C126.703 80.7699 126.016 81.1114 124.703 81.3802C119.568 79.7562 118.485 75.0047 124.314 73.2949Z" fill="#F7C351"/>
<path d="M135.937 73.743C137.662 73.64 139.321 73.8335 140.51 75.262C141.106 75.9785 141.37 76.914 141.237 77.8365C141.025 79.349 140.051 80.1275 138.961 81.0167C134.583 82.7742 132.047 76.8997 135.937 73.743Z" fill="#54D28A"/>
<path d="M44.9952 191.671C44.9019 184.221 48.9934 184.363 55.1864 184.5C58.0537 184.564 61.1337 184.957 63.9852 184.889L64.3097 184.88C70.5352 184.509 77.1622 184.829 83.4484 184.668C90.8194 184.478 98.3994 184.394 105.744 184.942C109.396 185.215 111.061 188.791 111.103 192.056C111.115 192.98 111.282 194.643 111.031 195.497C110.97 201.814 110.995 208.132 111.105 214.448C111.159 218.529 111.356 223.304 110.917 227.301C109.647 228.927 108.752 229.819 106.541 230.028C102.772 230.384 98.7244 230.281 94.9307 230.28L75.247 230.267L58.1917 230.254C55.4779 230.25 50.1512 230.37 47.7007 229.912C46.4082 228.935 46.1279 228.633 45.0667 227.396C44.4339 220.587 44.9979 212.182 44.7894 205.185C44.3622 203.516 44.8622 193.664 44.9952 191.671Z" fill="#CCE0F0"/>
<path d="M44.9952 191.671C44.9019 184.221 48.9934 184.363 55.1864 184.5C58.0537 184.564 61.1337 184.957 63.9852 184.889L64.3097 184.88C70.5352 184.509 77.1622 184.829 83.4484 184.668C90.8194 184.478 98.3994 184.394 105.744 184.942C109.396 185.215 111.061 188.791 111.103 192.056C111.115 192.98 111.282 194.643 111.031 195.497L72.9335 195.441C64.9027 195.371 52.6894 194.957 44.9407 195.448C44.9159 197.024 45.0847 204.151 44.7894 205.185C44.3622 203.516 44.8622 193.664 44.9952 191.671Z" fill="#516F9C"/>
<path d="M44.9952 191.671C44.902 184.221 48.9935 184.363 55.1865 184.5C58.0537 184.564 61.1337 184.957 63.9852 184.889L64.3097 184.88C65.0017 185.493 65.0602 185.612 65.9242 185.818C64.622 186.265 64.3175 186.513 63.7545 187.756C62.2127 187.223 61.662 186.944 60.1645 187.744C59.0337 187.37 59.4855 187.363 58.4347 187.676C57.6017 188.456 57.4305 189.197 57.2997 190.336L56.524 190.403C55.9037 189.717 55.846 189.545 54.9937 189.374C53.6352 190.835 53.477 189.959 52.1237 190.857C51.2842 193.118 47.84 193.299 45.7782 192.707C45.2805 192.564 45.2037 192.113 44.9952 191.671Z" fill="#5E7AA3"/>
<path d="M52.1239 190.857C51.0202 190.916 49.4389 191.07 49.0449 189.855C49.6324 188.335 51.2302 187.858 52.6982 187.189L54.9939 189.374C53.6354 190.834 53.4772 189.959 52.1239 190.857Z" fill="#D55D6B"/>
<path d="M65.9243 185.817C67.2905 186.455 68.5438 187.904 68.1233 189.491C66.9481 190.929 65.0158 190.963 63.6573 189.743C63.32 188.875 63.3136 188.687 63.7546 187.755C64.3176 186.512 64.622 186.264 65.9243 185.817Z" fill="#54D28A"/>
<path d="M57.2998 190.336C57.4306 189.196 57.6018 188.455 58.4348 187.676C59.4856 187.363 59.0338 187.369 60.1646 187.743C60.7528 189.183 60.7956 190.621 59.3811 191.556C58.1081 191.658 58.0233 191.356 57.2998 190.336Z" fill="#DBD346"/>
<path d="M64.1108 203.751C65.3458 203.566 66.1283 203.49 66.6821 204.664C66.4703 207.026 61.5633 211.064 59.6811 212.643C61.4488 214.228 67.6963 218.677 66.7968 220.922C66.0011 221.502 65.8821 221.463 64.8621 221.575C61.2033 219.598 57.2086 215.588 54.2993 212.693C56.4818 210.264 61.4331 205.289 64.1108 203.751Z" fill="#000215"/>
<path d="M89.7588 203.082C93.0056 204.123 98.3813 210.048 100.924 212.692C97.8701 215.853 95.7593 218.072 92.3256 220.766C91.8418 221.116 91.3506 221.402 90.8411 221.711C89.9543 221.722 90.2886 221.789 89.4518 221.089C88.3336 218.225 93.9971 214.394 96.1153 212.637C94.1986 211.314 89.8428 207.797 89.1433 205.489C88.8613 204.559 89.3158 203.888 89.7588 203.082Z" fill="#06103E"/>
<path d="M80.8997 201.306C81.1959 201.368 81.4857 201.458 81.7652 201.575C82.3842 201.834 82.9724 202.338 83.1919 202.987C83.7279 204.574 76.1767 221.917 74.8922 224.585C73.9622 224.553 72.9872 224.581 72.3399 223.925C72.0844 221.594 79.4979 203.86 80.8997 201.306Z" fill="#06103E"/>
<path d="M45.7673 121.128C58.7493 121.056 71.7313 121.059 84.7133 121.139C91.5878 121.162 98.8638 120.89 105.603 121.59C110.559 122.255 112.726 127.014 112.364 131.597C111.921 137.203 114.05 146.998 110.022 151.319C107.13 154.422 100.127 153.994 96.125 154.004L63.287 154.061C55.378 154.14 47.0345 154.583 39.2663 153.784C30.0933 152.397 29.8563 146.473 29.7753 139.053C29.6105 123.916 30.218 121.34 45.7673 121.128Z" fill="#A969DE"/>
<path d="M46.9775 131.398C49.1165 132.036 52.735 141.022 51.9627 142.994C50.534 143.425 49.663 140.877 47.9422 140.43C44.6582 140.053 45.7927 141.143 42.7145 143.282L42.347 143.127C42.3182 140.142 44.5375 135.571 45.5117 132.677C45.6357 132.308 46.642 131.62 46.9775 131.398Z" fill="#FCEEF8"/>
<path d="M89.44 134.09L92.1581 134.855C94.1621 136.519 93.8473 140.469 93.535 142.91C89.6665 143.008 88.0298 143.668 85.5508 140.214L84.9445 140.414C84.8848 139.477 84.9258 139.295 84.5236 138.479C83.7083 137.771 82.6108 137.755 81.4873 137.582C82.5513 137.037 83.5033 137.228 84.7093 137.297C85.4226 137.795 88.2398 137.207 89.3873 137.075L87.1965 137.113L86.8951 136.648C87.2398 135.368 88.3485 134.806 89.44 134.09Z" fill="#FCEEF8"/>
<path d="M89.3873 137.075C90.1183 137.078 90.1583 137.022 90.7911 137.421C89.0823 138.728 87.4641 136.325 85.5508 140.214L84.9445 140.414C84.8848 139.477 84.9258 139.295 84.5236 138.479C83.7083 137.771 82.6108 137.755 81.4873 137.582C82.5513 137.037 83.5033 137.228 84.7093 137.297C85.4226 137.795 88.2398 137.207 89.3873 137.075Z" fill="#7F5CB0"/>
<path d="M89.44 134.09L92.158 134.855C89.2238 136.374 88.545 134.308 87.1965 137.113L86.895 136.648C87.2398 135.368 88.3485 134.806 89.44 134.09Z" fill="#F7D9FA"/>
<path d="M53.3225 140.45C53.2202 139.764 52.945 138.21 53.2002 137.63C55.0045 133.524 58.7205 132.612 60.7845 136.885L61.5912 137.019C61.4837 138.496 61.4545 138.768 61.7775 140.213C61.458 140.367 61.0907 140.587 60.761 140.631C59.8157 143.684 58.375 143.264 55.586 142.911C54.7182 142.201 54.0415 141.313 53.3225 140.45Z" fill="#FCEEF8"/>
<path d="M60.784 136.886L61.5908 137.019C61.4833 138.497 61.454 138.769 61.777 140.214C61.4575 140.368 61.0903 140.588 60.7605 140.632C59.0765 140.516 57.5655 141.431 56.1733 140.419C55.6805 139.54 55.3928 139.153 55.3008 138.128C56.1973 135.953 59.2623 137.917 60.784 136.886Z" fill="#B779EC"/>
<path d="M61.591 137.019C63.0295 135.562 63.9063 134.304 66.1633 134.285C67.9688 134.27 69.019 136.464 69.3603 137.897C69.2383 138.375 69.0787 138.845 69.098 139.332L68.5992 139.714L68.4297 140.413C69.09 140.907 69.0325 141.321 68.8207 142.014C68.0102 142.698 66.988 142.922 65.9555 143.259C65.734 143.197 65.5135 143.132 65.2935 143.065C63.392 142.482 62.7085 141.962 61.7772 140.214C61.4542 138.769 61.4835 138.497 61.591 137.019Z" fill="#F7D9FA"/>
<path d="M68.4296 140.412C67.2231 140.662 66.2481 140.928 65.1294 140.407L65.2454 140.028C66.2939 139.518 67.3939 139.683 68.5991 139.714L68.4296 140.412Z" fill="#7F5CB0"/>
<path d="M70.4035 137.171C71.4418 135.783 73.611 132.892 75.6465 134.667C76.1405 135.102 76.425 135.728 76.428 136.387C76.4255 136.905 76.4465 136.703 76.1148 137.153C75.433 137.198 74.099 137.182 73.547 137.394C74.5088 137.735 75.0538 137.891 76.0385 138.128C76.5878 138.856 77.2268 139.66 77.732 140.407C77.0185 141.243 76.2398 142.124 75.5565 142.975C73.7968 142.965 72.3335 143.175 70.9315 142.129C70.542 141.519 70.5528 141.558 70.568 140.834C69.8198 139.526 70.0193 141.182 69.0978 139.332C69.0785 138.845 69.238 138.375 69.36 137.896C69.9615 137.66 69.9808 137.694 70.4035 137.171Z" fill="#FCEEF8"/>
<path d="M70.4038 137.171C71.4421 135.783 73.6113 132.892 75.6468 134.667C76.1408 135.102 76.4253 135.728 76.4283 136.387C76.4258 136.905 76.4468 136.703 76.1151 137.153C75.4333 137.198 74.0993 137.182 73.5473 137.394C73.1973 138.338 73.3106 138.44 73.4013 139.393C73.2201 139.344 70.5851 137.347 70.4038 137.171Z" fill="#F7D9FA"/>
<path d="M69.36 137.896C69.9615 137.66 69.9808 137.694 70.4035 137.171C70.5848 137.347 73.2198 139.344 73.401 139.393C74.2838 139.778 74.3358 139.619 74.707 140.28C73.7013 141.086 71.8335 140.943 70.568 140.834C69.8198 139.526 70.0193 141.182 69.0978 139.332C69.0785 138.845 69.238 138.375 69.36 137.896Z" fill="#B779EC"/>
<path d="M81.4873 137.582C82.6108 137.756 83.7083 137.772 84.5236 138.48C84.9258 139.296 84.8848 139.477 84.9446 140.414C84.7488 141.254 84.6881 141.916 83.9383 142.462C82.5848 143.448 79.9698 143.682 78.9928 142.014L78.9238 140.767L79.1856 140.541C79.2231 139.988 79.0171 138.557 78.9451 137.94C79.6318 138.274 80.1398 138.465 80.6981 138.982C80.9373 138.448 81.1828 138.074 81.4873 137.582Z" fill="#FCEEF8"/>
<path d="M78.9451 137.939C79.6318 138.274 80.1398 138.464 80.6981 138.982C81.7368 139.47 82.0083 139.401 82.6228 140.261C82.0013 141.216 79.9558 140.729 78.9238 140.767L79.1856 140.541C79.2231 139.988 79.0171 138.556 78.9451 137.939Z" fill="#B779EC"/>
<path d="M95.8096 134.658C97.1581 134.82 99.6956 134.518 100.696 135.442C99.8508 137.553 98.4288 136.123 98.1461 139.849C98.0911 140.972 98.3093 142.607 97.1956 143.07L96.6478 142.819C95.6818 141.266 95.8923 136.814 95.8096 134.658Z" fill="#FCEEF8"/>
<path d="M78.9455 137.939C77.6272 134.879 84.441 131.69 84.7097 137.297C83.5037 137.227 82.5517 137.036 81.4877 137.581C81.1832 138.074 80.9377 138.448 80.6985 138.981C80.1402 138.464 79.6322 138.273 78.9455 137.939Z" fill="#F7D9FA"/>
<path d="M212.778 304.062C217.293 303.835 222.899 303.982 227.509 303.985L253.39 303.977L340.707 303.9C339.892 306.465 337.805 311.417 334.86 311.73C324.02 312.88 311.53 312.285 300.655 312.267L263.992 312.38L121.979 312.387L78.3941 312.297C68.9221 312.35 59.4499 312.335 49.9779 312.25C43.8576 312.142 40.7521 309.977 39.0781 304.02C53.2646 303.627 68.8829 303.957 83.2409 303.932L165.214 304.03C181.162 303.727 196.904 304.09 212.778 304.062Z" fill="#97B4D8"/>
<path d="M165.214 304.03C181.162 303.728 196.904 304.09 212.778 304.063C211.193 307.92 207.32 308.433 203.682 308.458C195.238 308.518 186.787 308.533 178.344 308.405C176.083 308.373 173.743 308.333 171.51 307.983C169.005 307.605 168.552 305.578 166.765 304.21C166.765 304.21 165.33 304.045 165.214 304.03Z" fill="#5E9BDF"/>
<path d="M68.8329 234.272C71.2882 234.327 73.7442 234.355 76.2 234.356C76.2612 237.559 75.3694 244.27 77.2142 246.625C77.9934 247.62 79.6167 247.708 80.8779 247.737C86.6842 247.871 92.593 247.827 98.4065 247.838L136.389 247.785L244.596 247.875C255.858 247.909 267.168 247.594 278.385 247.768C278.37 249.118 278.72 252.42 278.025 253.578C277.848 253.873 277.285 253.788 276.813 253.813L139.045 254.123L99.375 254.128C93.4147 254.123 87.9729 254.16 82.0332 253.81C78.8832 253.625 75.7477 253.868 72.4197 253.6C66.9562 250.015 69.1332 240.407 68.8329 234.272Z" fill="#334C78"/>
<path d="M344.27 70.4961C347.498 70.5631 347.473 74.3456 346.158 76.3871C336.293 91.6928 324.133 105.409 312.633 119.483C310.468 122.131 308.195 123.992 306.24 126.846C305.308 125.903 304.258 124.96 303.28 124.054C300.6 121.914 298.858 120.538 296.645 117.885C299.38 114.007 304.003 109.04 307.27 105.507C313.923 98.3676 320.73 91.3741 327.688 84.5323C331.758 80.5306 339.053 72.4661 344.27 70.4961Z" fill="#D58660"/>
<path d="M278.692 137.14C282.9 137.319 283.715 137.678 286.602 140.811L287.187 141.451C288.257 142.593 289.07 143.792 289.975 145.06C288.557 162.555 271.562 166.334 257.217 161.499C261.085 159.608 262.092 158.912 264.462 155.126C265.91 152.563 266.537 150.243 267.347 147.452C269.4 141.371 271.977 138.036 278.692 137.14Z" fill="#F7714B"/>
<path d="M287.187 141.452C288.257 142.594 289.07 143.793 289.975 145.061C288.557 162.555 271.562 166.335 257.217 161.5C261.085 159.608 262.092 158.913 264.462 155.127C269.42 162.214 283.517 149.968 284.792 144.152C284.922 143.558 285.635 142.112 285.902 141.515C286.34 141.536 286.752 141.511 287.187 141.452Z" fill="#D55D6B"/>
<path d="M267.348 147.452C269.4 141.371 271.978 138.036 278.693 137.14C278.035 140.336 273.585 144.79 270.875 146.526C269.318 147.523 269.138 147.461 267.348 147.452Z" fill="#FDD1AE"/>
<path d="M299.4 138.705C299.745 139.135 299.36 172.004 299.307 175.218C294.33 175.248 288.205 174.933 283.53 176.381C283.107 175.721 283.212 166.528 283.202 164.945C285.6 162.152 288.93 160.175 290.89 156.957C293.172 153.209 293.835 148.564 294.045 144.244C295.667 142.737 298.022 140.378 299.4 138.705Z" fill="#93DBF6"/>
<path d="M80.2526 158.494L96.6734 158.474C96.2789 164.954 96.5321 173.951 96.5161 180.605C91.3696 180.475 85.7311 180.668 80.4899 180.63C80.3151 173.253 80.2361 165.873 80.2526 158.494Z" fill="#93DBF6"/>
<path d="M310.403 127.959C310.483 128.093 310.563 128.228 310.645 128.362C310.545 142.181 310.478 162.421 310.49 175.407C308.893 175.314 306.535 175.382 304.8 175.33C304.508 175.303 304.43 175.238 304.148 175.129C303.645 173.564 303.915 138.834 304.103 135.2C306.208 132.823 308.283 130.233 310.403 127.959Z" fill="#445C85"/>
<path d="M78.5779 95.8536C84.3436 95.6781 90.9194 95.9166 96.7594 95.9636L96.7531 102.76C93.0314 102.712 89.2291 102.546 85.5216 102.581C82.2599 102.613 77.4006 101.595 76.2196 105.359C75.8104 107.434 76.0326 114.604 76.0649 117.066L69.0559 117.007C68.9504 107.886 66.3669 96.6451 78.5779 95.8536Z" fill="#5E7AA3"/>
<path d="M283.27 106.762C288.652 106.699 294.035 106.713 299.415 106.806C295.935 111.156 293.207 114.638 290.035 119.181C287.19 122.925 285.3 125.301 283.305 129.617C283.19 121.999 283.177 114.38 283.27 106.762Z" fill="#96E0F8"/>
<path d="M84.4949 106.875C88.5427 106.812 92.6037 106.88 96.6662 106.811L96.6524 117.074L93.0627 117.059C88.7824 117.098 84.5022 117.089 80.2222 117.034L80.2887 106.984L84.4949 106.875Z" fill="#93DBF6"/>
<path d="M69.1977 158.253C71.4607 158.262 73.724 158.283 75.9867 158.318C76.2285 165.441 75.9452 173.707 75.9612 180.946C73.7855 181.009 71.4635 180.975 69.2737 180.977C69.0037 173.405 68.9785 165.826 69.1977 158.253Z" fill="#445C85"/>
<path d="M293.393 121.625C295.695 122.883 300.453 127.634 302.293 129.487C298.908 133.008 297.055 135.432 293.158 138.611C292.623 139.045 292.508 139.19 291.83 139.385C289.868 138.059 287.078 135.465 285.333 133.814C287.265 130.26 291 125.127 293.393 121.625Z" fill="#A3C9E0"/>
<path d="M283.208 95.8099C290.5 95.7807 301.453 94.5912 307.443 98.5497L305.45 100.85C304.555 101.753 304.223 102.022 303.193 102.758C298.343 102.228 288.428 102.472 283.253 102.448L283.208 95.8099Z" fill="#5E7AA3"/>
<path d="M80.2368 234.48C85.7218 234.459 91.2068 234.465 96.6918 234.499C96.6968 237.247 96.7208 239.994 96.7641 242.742C91.5728 242.785 85.6246 242.894 80.4926 242.62C80.3431 239.935 80.3038 237.175 80.2368 234.48Z" fill="#5E9BDF"/>
</svg>
