<svg width="380" height="380" viewBox="0 0 380 380" fill="none" xmlns="http://www.w3.org/2000/svg">
<path d="M83.8844 67.0338C85.4799 65.3008 92.3469 60.3573 94.6112 58.6448C120.876 39.0868 152.405 27.859 185.12 26.4135C215.301 25.1928 247.704 34.5185 273.637 49.6885C276.995 51.6523 296.012 64.5995 296.612 67.043C299.302 67.129 302.062 67.2475 304.747 67.2563C306.187 65.1075 307.592 62.9348 308.96 60.7383C310.642 58.0038 313.332 52.3048 316.772 51.5468C320.442 50.794 323.615 53.09 325.345 56.1505C328.932 62.5003 332.822 68.7438 336.247 75.1738C338.792 79.9501 344.525 85.7868 340.507 91.136C338.295 94.0838 333.025 93.4978 329.792 93.477C329.735 98.7015 329.635 103.945 329.785 109.167C335.177 112.559 346.84 147.781 348.452 155.677C358.192 203.371 347.722 249.167 319.76 288.805C325.41 294.58 333.335 300.542 333.015 309.285C332.622 319.995 324.145 328.522 313.307 328.07C302.932 327.635 300.237 320.902 293.552 315.035C292.545 315.89 291.535 316.737 290.517 317.582C245.05 354.977 181.735 363.895 128.307 340.487C109.16 332.097 91.7104 319.825 76.8204 305.032C75.9007 304.12 71.4887 299.58 70.8147 299.395L65.2627 299.482C60.4867 299.55 52.8062 299.84 51.3249 293.412C50.7434 290.89 51.0172 286.8 51.0264 284.112L51.0039 271.672C48.9452 265.972 47.1822 264.065 44.8044 259.062C42.1192 253.415 39.5367 246.208 37.1762 240.354C35.2594 235.601 34.3239 229.686 33.1302 224.777C27.6427 202.211 27.7107 178.556 32.9704 155.957C34.1304 150.972 35.3154 144.518 37.1689 139.721C40.6462 130.721 43.8629 120.87 49.2942 112.864C50.8282 110.602 51.0089 110.285 51.1777 107.663C51.3282 99.4498 50.9352 91.1636 50.9987 82.9473C51.1259 79.2323 50.6287 74.826 52.9494 71.6775C56.6149 66.7045 61.7137 67.1758 67.2519 67.114C72.7954 67.0525 78.3477 67.267 83.8844 67.0338Z" fill="#0A1339"/>
<path d="M88.3142 235.522L108.722 235.477C112.239 235.473 117.181 235.362 120.62 235.613L120.893 235.821C123.118 237.543 124.484 239.764 126.499 241.617C144.868 258.527 169.966 267.595 194.94 264.7C203.263 263.735 213.531 260.395 221.245 257.06C224.564 255.625 234.201 249.901 236.717 247.554C237.503 248.653 248.477 259.752 249.338 260.345C248.458 263.617 247.787 266.002 249.766 269.067C253.6 275.005 260.165 281.187 265.168 286.185L283.85 305.21C286.605 308.012 291.1 312.222 293.553 315.035C292.545 315.89 291.535 316.737 290.518 317.582C245.05 354.977 181.735 363.895 128.307 340.487C109.16 332.097 91.7107 319.825 76.8207 305.032C75.9009 304.12 71.4889 299.58 70.8149 299.395L71.1012 299.367C74.8222 299.037 82.3094 299.272 86.2444 299.277L114.521 299.28C118.78 299.287 123.971 299.642 128.139 299.055C130.912 298.662 133.702 295.595 133.842 292.685C134.106 287.21 133.845 281.625 133.819 276.092L133.803 263.562C133.808 257.715 134.85 250.725 126.666 250.412C113.916 249.924 101.087 250.41 88.3222 250.232C88.3262 245.515 88.4552 240.187 88.3142 235.522Z" fill="#F9833E"/>
<path d="M224.489 261.707C227.564 265.757 227.829 270.665 229.287 275.722C235.203 276.442 238.451 276.725 239.001 283.942C239.267 289.5 239.144 295.182 239.107 300.752C239.065 307.04 239.346 313.402 238.821 319.655C238.676 321.375 237.342 323.51 235.916 324.45L235.457 324.647C231.979 325.94 199.165 325.202 192.712 325.242L164.419 325.165C159.517 325.195 154.572 325.31 149.72 325.207C145.376 325.195 142.67 321.537 142.651 317.397C142.597 306.095 142.65 294.78 142.685 283.48C142.695 280.105 144.618 277.385 147.808 276.325C150.274 275.945 216.294 276.04 217.847 276.497C220.084 271.892 222.284 265.79 224.489 261.707Z" fill="#0A1339"/>
<path d="M147.808 276.325C150.274 275.945 216.294 276.04 217.847 276.497L217.841 276.665L217.423 277.025C209.791 276.94 202.784 277.085 195.154 277.385C186.263 277.735 177.122 276.84 168.19 277.132C164.678 277.247 161.071 276.992 157.556 276.98C154.918 276.85 150.06 277.402 147.808 276.325Z" fill="#040F27"/>
<path d="M192.712 325.243C192.93 325.068 192.801 325.188 193.06 324.845C191.439 324.488 189.228 325.003 188.04 324.683C189.132 324.55 190.026 324.65 191.101 324.625C203.696 324.355 216.215 323.228 228.838 324.185C230.403 324.303 234.222 324.11 235.457 324.648C231.979 325.94 199.165 325.203 192.712 325.243Z" fill="#040F27"/>
<path d="M224.019 271.35C224.725 274.32 225.08 277.377 227.286 279.497C228.818 279.835 234.547 280.167 235.275 281.457C235.924 282.602 236.066 318.045 235.268 320.072C235.036 320.662 234.299 320.927 233.737 321.122C231.44 321.922 228.668 322.62 226.236 322.712C225.066 322.632 223.493 322.672 222.302 322.695C215.357 322.817 208.22 322.095 201.305 322.227L201.019 322.192C198.593 321.925 194.945 321.957 192.374 321.912C185.726 321.77 179.076 321.792 172.429 321.975C164.556 322.185 157.655 322.722 149.824 321.222C146.71 320.627 146.378 319.562 146.129 316.487C146.114 306.392 146.657 296.322 146.308 286.215C146.254 284.667 146.353 282.417 147.254 281.127C150.558 279.607 161.894 280.307 166.082 280.375C172.384 280.445 178.687 280.467 184.99 280.447C195.447 280.427 210.417 279.757 220.479 280.495C222.017 277.185 222.981 274.862 224.019 271.35Z" fill="#39537E"/>
<path d="M226.925 301.057C225.917 302.465 198.712 301.932 194.609 301.802C193.161 301.757 193.343 298.197 193.638 297.235C195.218 296.407 201.659 297.412 203.568 297.765C206.962 298.082 211.427 298.037 214.917 298.055C218.736 298.075 223.044 298.207 226.828 298.072L226.925 301.057Z" fill="#61D18E"/>
<path d="M226.925 301.057C225.917 302.465 198.712 301.932 194.609 301.802C193.161 301.757 193.343 298.197 193.638 297.235C195.218 296.407 201.659 297.412 203.568 297.765C200.995 297.702 196.2 297.44 193.772 297.63C193.78 298.757 193.767 299.957 193.805 301.077C201.24 301.317 209.211 300.837 216.68 300.922C219.672 300.955 224.153 300.617 226.925 301.057Z" fill="#1B4B6C"/>
<path d="M173.162 290.695C175.927 290.275 197.658 289.83 199.405 290.598L198.919 290.458L199.062 290.655C197.067 290.783 195.369 290.818 193.382 290.828C195.572 291.005 198.943 290.925 201.221 290.938C201.245 292.275 201.136 293.703 201.059 295.048C196.173 294.555 175.726 295.145 173.066 294.12C172.447 293.098 172.884 291.825 173.162 290.695Z" fill="#FA913D"/>
<path d="M173.162 290.695C175.927 290.275 197.658 289.83 199.405 290.598L198.919 290.458L199.062 290.655C197.067 290.783 195.369 290.818 193.382 290.828L181.313 290.81C178.965 290.818 175.326 290.948 173.162 290.695Z" fill="#35383E"/>
<path d="M170.955 297.487C176.541 297.467 184.544 297.397 189.983 297.145L190.003 301.49C187.688 301.52 175.366 301.052 174.254 301.377C173.073 301.627 172.711 301.502 171.565 301.27C171.472 300.852 170.296 298.245 170.004 297.465L170.955 297.487Z" fill="#CB7D81"/>
<path d="M170.004 297.465L170.955 297.487C171.976 299.357 172.37 300.625 174.254 301.377C173.073 301.627 172.711 301.502 171.565 301.27C171.472 300.852 170.296 298.245 170.004 297.465Z" fill="#563A5C"/>
<path d="M159.509 284.525C164.029 284.48 168.807 284.702 173.374 284.715C176.532 284.722 181.55 284.585 184.553 284.88C184.921 285.742 184.761 286.73 184.713 287.702L159.53 287.707L159.509 284.525Z" fill="white"/>
<path d="M186.94 304.287C188.579 304.187 195.813 304.167 197.375 304.38C197.359 305.575 197.334 306.335 197.193 307.522L193.463 307.585C193.267 307.615 192.714 307.565 192.485 307.552C186.854 307.345 180.712 307.447 175.042 307.442L175.128 304.43C178.396 304.11 183.565 304.27 186.94 304.287Z" fill="white"/>
<path d="M193.779 304.517C195.129 304.527 196.032 304.497 197.375 304.38C197.359 305.575 197.334 306.335 197.193 307.522L193.463 307.585C193.509 306.607 193.666 305.5 193.779 304.517Z" fill="white"/>
<path d="M186.94 304.287C188.579 304.187 195.813 304.167 197.375 304.38C196.032 304.497 195.129 304.527 193.779 304.517C193.666 305.5 193.509 306.607 193.463 307.585C193.267 307.615 192.714 307.565 192.485 307.552L192.5 304.515C190.516 304.497 188.929 304.487 186.94 304.287Z" fill="#567499"/>
<path d="M171.847 310.868C174.185 310.863 184.21 310.593 185.309 311.413C185.378 312.225 185.501 312.788 185.237 313.558C184.203 313.97 177.267 313.808 175.631 313.8C171.417 313.738 166.294 314.018 162.093 313.56C161.551 313.503 161.544 313.238 161.277 312.773C161.265 311.825 161.119 312.23 161.705 311.508C163.59 310.55 169.373 310.893 171.847 310.868Z" fill="#EC7442"/>
<path d="M190.053 311.115C192.948 310.927 196.271 311.04 199.214 310.977C201.367 310.932 207.515 310.465 208.783 312.09C208.832 313.04 208.892 312.667 208.445 313.527C207.498 314.142 207.395 313.92 206.107 313.87C202.964 313.905 189.083 314.48 187.436 313.057C187.263 312.21 187.243 312.557 187.634 311.71C188.675 310.965 188.581 311.195 190.053 311.115Z" fill="#61D18E"/>
<path d="M163.721 289.22C164.976 288.997 167.609 288.845 168.79 289.515C170.424 290.445 171.144 292.867 170.131 294.565C169.1 294.867 166.398 294.575 165.187 294.497C163.663 294.525 158.395 295.525 158.754 292.355C159.19 288.502 162.453 291.137 164.057 289.802L163.721 289.22Z" fill="#223C5F"/>
<path d="M159.815 290.822L169.701 290.68C169.81 292.115 169.804 292.677 169.687 294.112C166.441 294.187 163.193 294.217 159.946 294.2C159.79 292.935 159.805 292.095 159.815 290.822Z" fill="#FA913D"/>
<path d="M161.248 304.51C162.959 304.468 169.401 304.2 170.845 304.593C171.239 305.495 171.082 306.495 171.039 307.515C169.208 307.533 163.078 307.705 161.519 307.348C161.099 306.528 161.234 305.478 161.248 304.51Z" fill="white"/>
<path d="M170.004 297.465C170.296 298.245 171.472 300.852 171.565 301.27C170.017 301.245 167.346 301.285 165.914 301.002C164.714 301.012 162.766 301.245 161.882 300.645C161.364 299.842 161.563 299.032 161.636 298.025L165.227 298.095C166.804 297.805 168.409 297.645 170.004 297.465Z" fill="#CB7D81"/>
<path d="M161.636 298.025L165.227 298.095C166.114 298.44 165.802 298.148 166.21 298.985C166.181 299.91 166.178 300.123 165.914 301.003C164.714 301.013 162.766 301.245 161.882 300.645C161.364 299.843 161.563 299.033 161.636 298.025Z" fill="#E3F7E9"/>
<path d="M153.644 290.502C156.919 290.337 156.392 294.02 154.661 294.897C152.336 294.07 151.194 292.047 153.644 290.502Z" fill="#EC7442"/>
<path d="M152.265 284.842C153.666 284.752 154.882 284.467 156.011 285.115C156.464 285.922 156.282 286.842 156.229 287.817C155.605 287.8 154.981 287.78 154.357 287.757C153.41 287.73 153.257 287.825 152.509 287.292C152.03 286.472 152.198 285.82 152.265 284.842Z" fill="#E0F1F6"/>
<path d="M83.8843 67.0338C85.4798 65.3008 92.3468 60.3573 94.611 58.6448C120.876 39.0868 152.405 27.859 185.12 26.4135C215.301 25.1928 247.704 34.5185 273.637 49.6885C276.995 51.6523 296.012 64.5995 296.612 67.043C293.717 67.2218 288.82 67.0558 285.712 67.049L263.96 67.022L193.269 67.049L121.011 67.0365L96.997 67.1185C92.9738 67.1278 87.789 67.2688 83.8843 67.0338Z" fill="#FDB245"/>
<path d="M329.785 109.167C335.177 112.559 346.84 147.781 348.452 155.677C358.192 203.371 347.722 249.167 319.76 288.805C317.227 286.687 311.452 280.425 308.85 277.815L287.285 256.43C283.392 252.537 279.145 248.043 274.745 244.743C271.952 242.65 268.49 243.49 265.32 244.053C262.5 241.878 259.765 238.034 256.212 235.35C256.53 235.382 256.845 235.41 257.162 235.433C260.302 235.67 264.28 235.604 267.485 235.625L289.967 235.575C296.762 235.652 303.557 235.667 310.352 235.62C314.252 235.584 322.622 236.03 325.457 233.549C327.56 231.714 328.975 229.217 329.465 226.469C329.957 223.562 329.795 218.559 329.782 215.406L329.74 198.892L329.68 138.044L329.677 119.837C329.675 116.91 329.537 112.223 329.76 109.439L329.785 109.167Z" fill="#FA913D"/>
<path d="M51.0039 271.673C48.9452 265.973 47.1822 264.065 44.8044 259.063C42.1192 253.415 39.5367 246.209 37.1762 240.355C35.2594 235.601 34.3239 229.687 33.1302 224.778C27.6427 202.211 27.7107 178.556 32.9704 155.957C34.1304 150.972 35.3154 144.518 37.1689 139.721C40.6462 130.722 43.8629 120.871 49.2942 112.864C50.8282 110.603 51.0089 110.285 51.1777 107.663L51.2882 191.164L51.1952 214.219C51.1702 218.046 50.8977 222.955 51.3434 226.63C51.7842 230.26 56.2827 234.832 59.9784 235.266C63.4717 235.77 67.5987 235.532 71.2054 235.501C75.6522 235.464 80.0992 235.478 84.5457 235.542C84.5034 240.459 84.4914 245.376 84.5097 250.293L67.4054 250.235C63.6852 250.228 56.0082 249.508 53.3934 252.375C48.9109 257.293 52.6859 265.883 51.0039 271.673Z" fill="#FA913D"/>
<path d="M55.4569 90.0128C55.1001 86.9328 54.9114 83.8355 54.8911 80.735C54.8836 73.1953 56.3729 70.898 64.2106 70.8628C67.9129 70.8463 71.7131 70.9183 75.4191 70.9575L91.7431 71.0003L143.2 71.0653L302.98 71.0638C299.115 78.9978 296.988 78.3508 295.09 88.5508C295.873 90.635 296.615 91.2985 298.23 92.8598C302.333 93.856 308.59 93.4218 313.01 93.3878C317.268 93.3875 321.525 93.4163 325.783 93.474C326.103 103.413 325.955 114.067 325.968 124.048L326.013 175.721L326.03 208.624C326.033 214.035 326.163 219.529 325.95 224.929C325.728 230.699 319.953 230.948 315.638 230.98L272.47 230.97C266.185 230.966 258.853 230.763 252.683 231.013C257.9 224.411 260.018 220.189 263.565 212.71C263.65 212.036 265.43 207.068 265.8 206.297C268.143 201.428 267.855 195.358 269.415 190.581C270.303 182.596 270.575 176.884 269.495 168.861C269.218 166.8 269.155 164.555 268.595 162.546C268.115 161.923 268.088 161.941 268.17 160.972C268.418 158.066 262.148 145.323 262.415 143.738C254.415 124.427 237.807 108.905 218.912 100.622C192.703 89.1323 163.061 91.643 139.043 107.072C123.48 117.069 111.881 131.447 104.991 148.687C100.896 158.875 99.8106 169.152 99.3091 180.06C99.6866 181.727 99.7664 183.455 99.8861 185.157C100.281 190.78 101.218 196.353 102.314 201.878C103.781 206.537 104.995 209.669 107.1 214.143C108.017 216.09 109.904 219.705 110.599 221.564C112.58 224.996 115.166 227.989 117.77 230.95L88.3814 231.002C88.3999 230.23 88.2461 228.852 88.1804 228.037L84.7259 228.062C84.6044 229.037 84.6084 229.868 84.5926 230.845C77.0769 231.115 68.7891 231.115 61.2529 230.778C58.3124 230.646 55.8389 228.416 55.6111 225.336C55.2404 220.321 55.3041 215.178 55.2771 210.108L55.2199 183.012L55.3196 128.318C55.4519 115.55 55.4976 102.781 55.4569 90.0128Z" fill="#E8F0F5"/>
<path d="M55.4569 90.0128C55.1001 86.9328 54.9114 83.8355 54.8911 80.735C54.8836 73.1953 56.3729 70.898 64.2106 70.8628C67.9129 70.8463 71.7131 70.9183 75.4191 70.9575L91.7431 71.0003L143.2 71.0653L302.98 71.0638C299.115 78.9978 296.988 78.3508 295.09 88.5508C294.528 88.0513 294.23 87.893 293.378 87.8708C288.53 87.7433 283.548 87.7845 278.7 87.7805L251.025 87.7858L120.579 87.7843L76.0459 87.8305L62.7774 87.813C61.2754 87.8103 57.0034 87.6405 55.7371 88C55.3531 88.5065 55.4571 89.329 55.4569 90.0128Z" fill="#53729C"/>
<path d="M75.2163 76.0473C79.9211 75.598 80.5336 80.363 77.0416 82.6575C71.8808 82.5755 70.6626 77.3663 75.2163 76.0473Z" fill="#FDB245"/>
<path d="M64.0718 75.9889C66.2098 75.8849 67.328 78.0919 68.2838 79.6847C67.2985 81.1212 66.7065 81.6714 65.397 82.7811C63.0648 82.4954 60.455 80.3429 61.5723 77.7999C62.098 76.6032 62.9415 76.4414 64.0718 75.9889Z" fill="#DD5C50"/>
<path d="M86.6255 76.5469C87.897 76.6699 89.247 76.6416 89.893 77.9329C90.9375 80.0199 89.4965 81.5109 87.7752 82.4116C86.2577 82.1014 85.3635 81.4406 84.064 80.6279C84.5262 78.4949 84.4227 77.3726 86.6255 76.5469Z" fill="#61D18E"/>
<path d="M65.7709 213.306C68.8851 212.153 78.6284 199.524 82.7924 196.144C87.3334 199.225 90.8601 203.1 95.6601 205.489C98.4069 204.42 99.7686 202.99 102.314 201.877C103.781 206.536 104.995 209.668 107.1 214.142C108.017 216.089 109.904 219.705 110.599 221.564C95.5758 221.737 80.6916 221.345 65.5716 221.695C65.4959 218.729 65.4996 216.254 65.7709 213.306Z" fill="#6297D2"/>
<path d="M292.233 186.257C295.265 186.264 298.295 186.291 301.325 186.34C301.463 194.118 301.488 201.897 301.408 209.676C301.39 213.06 301.175 218.413 301.415 221.622L300.315 221.583C298.593 221.523 296.678 221.578 294.94 221.592C293.675 221.584 292.935 221.815 292.043 221.233L291.825 220.114C292.143 216.79 292.003 211.237 292.02 207.775C292.045 200.602 292.118 193.429 292.233 186.257Z" fill="#FA913D"/>
<path d="M262.415 143.738C263.868 145.918 267.568 156.17 268.238 158.877C274.678 159.577 280.15 162.692 285.133 166.654C287.528 164.818 289.07 163.767 292.258 164.199C293.088 164.319 293.915 164.459 294.74 164.619C297.558 161.872 302.618 157.294 304.77 154.421C304.653 151.78 304.423 149.952 305.643 147.518C308.923 145.794 313.523 144.727 315.65 148.836C316.278 150.052 316.395 151.467 315.98 152.771C314.57 157.177 310.538 157.256 306.843 156.651C304.293 159.621 300.145 163.054 297.893 166.114C296.368 168.186 296.57 175.356 291.898 175.549C287.783 175.718 286.063 173.038 284.823 169.726C281.93 167.843 272.15 161.596 268.933 161.73C268.698 162.168 268.705 162.075 268.595 162.546C268.115 161.923 268.088 161.941 268.17 160.972C268.418 158.066 262.148 145.323 262.415 143.738Z" fill="#071E4F"/>
<path d="M290.435 166.745C292.025 166.734 294.01 167.694 293.655 169.568C293.332 171.263 292.455 171.641 291.142 172.599L290.63 172.728C287.155 171.754 287.742 168.564 290.435 166.745Z" fill="#61D18E"/>
<path d="M309.205 149.208C312.3 148.913 315.103 151.759 311.608 153.534C311.09 153.576 310.568 153.571 310.05 153.517C307.563 153.254 306.713 150.831 309.205 149.208Z" fill="#E1CF3D"/>
<path d="M99.3091 180.06C99.6866 181.726 99.7664 183.454 99.8861 185.156C100.281 190.779 101.218 196.353 102.314 201.878C99.7686 202.99 98.4069 204.421 95.6601 205.489C90.8601 203.1 87.3334 199.225 82.7924 196.144C78.6284 199.524 68.8851 212.153 65.7709 213.307C65.6784 211.296 65.6404 208.868 65.7764 206.856C65.7379 205.635 67.6801 205.674 68.3321 205.018C72.5436 200.783 77.0341 193.628 81.5919 190.065C85.8416 192.771 88.5014 195.098 92.2426 198.485C94.0739 193.703 96.8536 183.897 99.3091 180.06Z" fill="#FA913D"/>
<path d="M305.805 201.081C305.917 200.242 306.102 198.137 306.555 197.583C308.027 197.205 312.66 197.208 314.392 197.183C314.712 197.659 314.947 198.035 315.237 198.53C315.47 206.118 315.27 214.068 315.335 221.698L305.995 221.772L305.87 220.545C305.635 214.613 305.85 207.167 305.805 201.081Z" fill="#1AA4B6"/>
<path d="M278.047 199C281.502 198.749 283.757 198.67 287.247 198.993C287.437 206.566 287.257 214.057 287.435 221.502C286.137 221.62 285.08 221.489 283.855 221.563L281.942 221.571C280.64 221.563 279.337 221.531 278.037 221.473C278.042 214.066 277.912 206.38 278.047 199Z" fill="#F9833E"/>
<path d="M269.415 190.581L269.645 191.123C270.857 191.527 271.285 191.334 272.225 192.144C272.45 193.038 271.755 193.394 272.075 194.377C272.52 195.732 272.502 199.035 272.992 200.122L273.307 220.104L273.26 221.77C270.77 221.627 266.882 221.61 264.4 221.647C264.347 219.79 264.36 214.179 263.565 212.71C263.65 212.036 265.43 207.067 265.8 206.297C268.142 201.428 267.855 195.358 269.415 190.581Z" fill="#23B298"/>
<path d="M305.84 176.101L315.023 176.059C315.273 183.546 315.345 191.039 315.238 198.53C314.948 198.035 314.713 197.659 314.393 197.182C312.66 197.208 308.028 197.205 306.555 197.583C306.103 198.137 305.918 200.242 305.805 201.08C305.748 192.754 305.76 184.427 305.84 176.101Z" fill="#56CD88"/>
<path d="M269.645 191.123L273.045 190.716C273.04 193.654 273.13 197.236 272.993 200.121C272.503 199.035 272.52 195.732 272.075 194.376C271.755 193.394 272.45 193.038 272.225 192.143C271.285 191.333 270.858 191.527 269.645 191.123Z" fill="#61D18E"/>
<path d="M287.435 221.503C289.515 221.292 291.337 222.425 291.825 220.114L292.042 221.234C292.935 221.816 293.675 221.585 294.94 221.592C293.985 222.21 285.322 221.907 283.855 221.563C285.08 221.489 286.137 221.62 287.435 221.503Z" fill="#BAD8EB"/>
<path d="M273.307 220.104C273.455 220.634 273.447 221.086 273.825 221.257C274.832 221.714 276.845 221.456 278.037 221.473C279.337 221.531 280.64 221.563 281.942 221.57C280.947 221.967 274.632 221.907 273.26 221.77L273.307 220.104Z" fill="#BAD8EB"/>
<path d="M305.87 220.545L305.995 221.772C304.9 222.066 301.247 222.138 300.315 221.583L301.415 221.622C302.542 221.578 304.64 221.644 305.55 221.296L305.87 220.545Z" fill="#BAD8EB"/>
<path d="M66.0119 96.7716C75.8226 96.3984 87.0654 96.9566 97.0389 96.7554C101.813 96.6589 116.168 96.4676 120.372 97.1116C123.045 99.5464 123.11 101.505 121.002 104.408C119.151 104.993 105.186 104.795 102.369 104.795L65.7368 104.74C65.0066 101.802 64.6804 99.5156 66.0119 96.7716Z" fill="#BAD8EB"/>
<path d="M266.555 97.538C282.76 97.27 298.968 97.3513 315.168 97.7818C315.198 99.2605 315.495 105.045 314.753 106.025C298.613 106.311 282.47 106.467 266.328 106.495C266.158 103.533 266.335 100.492 266.555 97.538Z" fill="#C6D2DF"/>
<path d="M307.865 110.983C310.01 110.968 312.25 111.03 314.403 111.063C314.608 116.891 314.482 124.026 314.455 129.892C314.52 133.17 314.558 136.448 314.568 139.726C312.37 139.75 310.115 139.804 307.925 139.757C307.612 136.431 307.725 130.751 307.733 127.275C307.74 122.139 307.56 116.05 307.865 110.983Z" fill="#2AB0D5"/>
<path d="M307.865 110.983C310.01 110.968 312.25 111.03 314.403 111.063C314.608 116.891 314.482 124.026 314.455 129.892C313.637 126.397 314.543 122.037 313.843 118.81C311.465 119.721 310.22 119.27 308.378 119.892C308.338 123.483 308.195 127.12 308.047 130.712C307.937 133.397 308.157 137.22 307.925 139.757C307.612 136.431 307.725 130.751 307.733 127.275C307.74 122.139 307.56 116.05 307.865 110.983Z" fill="#4AC9DE"/>
<path d="M277.25 113.367C279.58 113.24 281.592 113.332 283.922 113.419C284.022 121.725 284.257 131.617 283.985 139.829C281.727 139.812 279.657 139.777 277.402 139.939C276.962 133.02 277.09 120.406 277.25 113.367Z" fill="#FA913D"/>
<path d="M289.457 120.335C290.895 120.256 292.695 120.301 294.16 120.297C294.225 122.459 294.617 138.67 294.145 139.662L293.562 139.782C291.537 139.805 289.512 139.813 287.487 139.803C287.56 134.687 287.142 125.644 287.61 120.946C288.21 120.331 288.455 120.479 289.457 120.335Z" fill="#2AB0D5"/>
<path d="M75.1147 111.602C80.3909 111.269 86.8736 111.644 92.3046 111.626C98.1191 111.606 104.498 111.327 110.233 111.544C110.289 112.657 110.589 114.249 109.71 114.957C98.9699 114.187 87.6681 114.877 76.8846 114.677C74.3564 114.631 73.7639 112.675 75.1147 111.602Z" fill="#6297D2"/>
<path d="M267.705 124.113C270.063 124.065 272.138 124.139 274.493 124.236C274.433 129.388 274.58 134.631 274.46 139.772C272.208 139.79 269.92 139.761 267.668 139.753C267.428 136.287 267.463 127.583 267.705 124.113Z" fill="#FA913D"/>
<path d="M297.742 125.804L304.32 125.75C304.48 130.257 304.582 135.312 304.427 139.793C301.957 139.969 300.192 139.954 297.715 139.895C297.59 135.196 297.682 130.504 297.742 125.804Z" fill="#2AB0D5"/>
<path d="M75.2788 119.505C82.5978 119.582 94.2828 119.898 101.963 120.037C102.109 120.153 102.255 120.269 102.401 120.385C102.652 121.234 102.531 121.551 102.4 122.458C99.3363 122.471 76.8398 123.203 75.6468 122.219C75.1488 121.287 75.2648 120.576 75.2788 119.505Z" fill="#6297D2"/>
<path d="M75.3482 143.327C80.82 143.091 90.0017 143.145 95.4622 143.361C95.5377 144.422 95.912 146.133 94.992 146.739C89.595 146.875 79.9687 147.103 74.751 146.704C74.7072 145.5 74.4415 144.17 75.3482 143.327Z" fill="#BAD8EB"/>
<path d="M256.945 96.389C258.465 95.887 260.14 96.2423 261.325 97.3193C262.51 98.3963 263.025 100.028 262.673 101.591C262.318 103.153 261.15 104.404 259.618 104.865C257.288 105.565 254.83 104.264 254.1 101.946C253.368 99.6268 254.635 97.1513 256.945 96.389Z" fill="#307486"/>
<path d="M257.525 98.0459C261.085 98.2344 261.825 101.168 258.982 102.895C255.632 102.273 253.857 99.9724 257.525 98.0459Z" fill="#A0E2DC"/>
<path d="M88.7682 127.617C90.7749 127.55 92.4007 127.607 94.3959 127.693L94.2539 130.603C90.8111 130.973 84.0854 130.773 80.4374 130.771C79.0139 130.798 76.8347 130.932 75.4514 130.637C74.8039 130.498 74.7217 129.998 74.4937 129.466C75.0634 126.705 86.0524 127.651 88.7682 127.617Z" fill="#6297D2"/>
<path d="M74.9238 136.047C80.0618 135.908 85.5868 136.064 90.782 135.999C93.3963 135.966 99.2663 135.835 101.598 136.09C101.944 136.831 101.756 137.459 101.651 138.301C96.7178 138.129 91.7815 138.058 86.8455 138.089C84.77 138.096 76.6358 138.329 75.222 137.932C74.7495 137.081 74.9173 137.173 74.9238 136.047Z" fill="#6297D2"/>
<path d="M68.0695 126.288C71.5373 127.081 72.472 129.923 68.6253 131.523C64.529 131.499 64.7268 127.257 68.0695 126.288Z" fill="#61D18E"/>
<path d="M66.4586 119.026C69.7826 118.818 72.9144 119.85 69.6426 123.268C66.4091 124.701 64.5129 121.478 66.4586 119.026Z" fill="#ABC948"/>
<path d="M66.7459 135.024C68.4961 134.879 70.8711 135.052 71.1241 137.206C70.7809 138.11 70.6556 138.142 69.8676 138.774C66.8766 140.047 63.9474 137.651 66.7459 135.024Z" fill="#52938E"/>
<path d="M66.519 143.314C68.2223 143.167 70.954 143.047 71.0885 145.358C70.7235 146.235 70.5545 146.271 69.736 146.844C66.6208 147.857 64.2105 146.253 66.519 143.314Z" fill="#DD5C50"/>
<path d="M67.5583 110.693C70.6635 110.832 72.4213 113.672 69.02 115.132C68.633 115.17 67.8858 115.194 67.5128 115.154C66.998 115.094 66.5318 114.822 66.2268 114.403C65.1803 112.961 66.4105 111.523 67.5583 110.693Z" fill="#F9833E"/>
<path d="M127.605 122.104C157.672 91.9718 205.932 90.2523 238.068 118.168C263.188 139.989 272.408 174.951 261.318 206.322C250.228 237.692 221.081 259.09 187.829 260.275C154.577 261.46 123.982 242.19 110.688 211.688C97.3928 181.186 104.102 145.657 127.605 122.104Z" fill="#93B2D0"/>
<path d="M140.273 125.152C144.897 121.715 148.922 118.549 154.179 116.086C166.738 110.203 179.667 107.755 193.483 109.528C198.126 110.123 201.772 111.464 206.19 112.38L206.371 112.416C209.248 113.601 213.756 115.161 216.359 116.484C231.394 124.215 243.216 137.008 249.736 152.606C255.902 167.404 256.03 190.721 249.658 205.46C248.116 209.027 245.885 214.02 243.767 217.279C236.522 228.427 225.645 238.329 213.448 243.564C194.537 251.68 175.573 251.43 156.718 243.345C140.088 236.215 126.423 221.715 119.79 204.851C113.989 190.102 114.001 168.043 120.066 153.316C123.734 144.407 127.864 137.939 134.36 130.856C135.113 130.034 140.185 125.283 140.273 125.152Z" fill="#0A1339"/>
<path d="M121.34 194.559C114.261 165.018 128.449 134.49 155.596 120.855C182.742 107.221 215.703 114.068 235.173 137.387C240.034 143.21 243.846 149.834 246.438 156.962C254.653 179.558 249.811 204.839 233.829 222.801C233.196 223.512 232.548 224.209 231.885 224.892C219.594 237.546 202.715 244.7 185.074 244.732C167.434 244.764 150.529 237.67 138.193 225.06C137.481 224.331 136.785 223.587 136.107 222.826C128.929 214.766 123.855 205.055 121.34 194.559Z" fill="#E0F1F6"/>
<path d="M235.173 137.387C240.034 143.209 243.846 149.833 246.438 156.962C254.653 179.558 249.811 204.839 233.829 222.8C233.196 223.511 232.548 224.208 231.885 224.891C219.594 237.545 202.715 244.7 185.074 244.732C167.434 244.763 150.529 237.669 138.193 225.059C137.481 224.331 136.785 223.586 136.107 222.825C137.923 222.582 140.314 222.651 141.954 222.168C144.057 221.994 149.985 221.889 152.036 222.197C154.18 222.269 157.231 222.172 159.205 222.329L160.255 222.116L160.937 222.368C162.49 222.451 169.52 222.753 170.705 222.338C172.358 222.307 174.84 222.332 176.415 222.209C177.228 222.156 177.397 222.172 178.209 222.28C180.955 222.485 183.766 222.158 186.878 222.454C186.774 220.809 186.821 218.772 186.814 217.095C186.677 207.607 186.881 198.085 186.817 188.593C186.801 186.241 186.855 183.977 186.656 181.627L188.019 181.053C186.608 180.356 185.978 180.442 184.408 180.34C186.224 179.896 186.563 180.376 187.645 179.94C188.962 175.853 189.989 175.484 194.025 174.777C194.108 174.783 194.192 174.789 194.276 174.795L194.05 173.7L194.742 174.271C194.782 174.208 194.822 174.145 194.863 174.081L195.069 173.769C195.91 172.475 195.989 172.381 197.2 171.372C197.947 171.088 199.652 170.218 200.464 169.846C201.548 170.213 202.724 170.651 203.837 170.879C205.8 168.983 208.072 165.661 209.87 163.373C213.893 158.252 217.573 153.855 222.037 149.112C222.385 147.723 221.511 146.45 221.806 144.427C222.385 140.444 224.341 138.54 228.574 139.44C229.369 140.023 230.177 140.588 230.999 141.134C232.268 139.906 233.287 139.218 234.749 138.246L235.173 137.387Z" fill="#3FBEB8"/>
<path d="M212.451 201.2C212.606 208.157 212.624 215.116 212.504 222.074C215.815 222.039 219.943 221.885 223.163 222.22C225.091 222.404 232.855 222.504 233.829 222.8C233.196 223.511 232.548 224.208 231.885 224.891C219.594 237.545 202.715 244.7 185.074 244.731C167.434 244.763 150.529 237.669 138.193 225.059C137.481 224.331 136.785 223.586 136.107 222.825C137.923 222.582 140.314 222.651 141.954 222.168C144.057 221.993 149.985 221.889 152.036 222.197C154.18 222.268 157.231 222.172 159.205 222.328L160.255 222.116L160.937 222.368C162.49 222.451 169.52 222.753 170.705 222.338C172.358 222.307 174.84 222.332 176.415 222.209C177.228 222.156 177.397 222.171 178.209 222.28C180.955 222.485 183.766 222.158 186.878 222.454C186.774 220.809 186.821 218.771 186.814 217.094L187.171 218.419L187.547 218.543L188.03 218.255L188.05 222.591L194.056 222.601C193.926 220.104 193.85 217.605 193.829 215.105C194.164 216.788 193.955 218.118 195.01 219.312L195.073 222.276L200.197 222.201C201.644 222.252 205.559 222.49 206.763 222.199C208.507 222.214 210.32 222.172 212.07 222.157C212.206 215.389 212.112 207.883 212.451 201.2Z" fill="#BAD8EB"/>
<path d="M212.451 201.2C212.606 208.157 212.624 215.116 212.504 222.074C215.815 222.039 219.943 221.885 223.163 222.22C225.091 222.404 232.855 222.504 233.829 222.8C233.196 223.511 232.548 224.208 231.885 224.891C231.285 224.559 226.684 224.68 225.734 224.681L209.974 224.756L155.384 224.791C153.114 224.79 139.246 224.479 138.193 225.059C137.481 224.331 136.785 223.586 136.107 222.825C137.923 222.582 140.314 222.651 141.954 222.168C144.057 221.993 149.985 221.889 152.036 222.197C154.18 222.268 157.231 222.172 159.205 222.328L160.255 222.116L160.937 222.368C162.49 222.451 169.52 222.753 170.705 222.338C172.358 222.307 174.84 222.332 176.415 222.209C177.228 222.156 177.397 222.171 178.209 222.28C180.955 222.485 183.766 222.158 186.878 222.454C186.774 220.809 186.821 218.771 186.814 217.094L187.171 218.419L187.547 218.543L188.03 218.255L188.05 222.591L194.056 222.601C193.926 220.104 193.85 217.605 193.829 215.105C194.164 216.788 193.955 218.118 195.01 219.312L195.073 222.276L200.197 222.201C201.644 222.252 205.559 222.49 206.763 222.199C208.507 222.214 210.32 222.172 212.07 222.157C212.206 215.389 212.112 207.883 212.451 201.2Z" fill="#071E4F"/>
<path d="M185.908 232.619C187.199 232.494 187.962 232.662 188.572 233.809C188.642 236.494 185.469 236.317 183.687 236.278C182.11 236.197 180.274 234.952 181.177 233.291C182.102 232.65 184.687 232.687 185.908 232.619Z" fill="#6297D2"/>
<path d="M235.172 137.387C240.034 143.209 243.846 149.833 246.438 156.962L245.937 156.781C245.678 156.112 244.967 153.945 244.608 153.611C244.039 153.642 243.905 153.668 243.347 153.793C243.184 153.39 243.1 153.143 242.976 152.727L242.717 152.879L242.677 153.282L242.115 153.481C241.886 154.089 241.886 154.104 241.906 154.768C241.963 156.647 240.008 158.801 240.35 160.524L240.178 160.714C240.734 162.723 242.304 167.161 241.529 168.951C240.793 170.652 234.134 169.551 232.741 170.145C234.913 170.356 237.169 170.307 239.356 170.308L239.449 170.483C238.982 170.755 235 170.834 234.2 170.795C228.426 170.516 225.977 173.629 220.199 174.763C216.058 175.576 212.981 175.22 209.096 175.757C206.176 176.16 208.133 179.591 204.054 180.755C206.319 177.903 206.427 176.88 206.452 173.27C205.624 172.299 204.997 171.395 203.836 170.879C205.8 168.983 208.072 165.661 209.869 163.373C213.893 158.252 217.573 153.855 222.036 149.112C222.385 147.723 221.511 146.45 221.805 144.427C222.385 140.444 224.341 138.54 228.574 139.44C229.369 140.023 230.177 140.588 230.999 141.134C232.267 139.906 233.287 139.218 234.748 138.246L235.172 137.387Z" fill="#72DA8F"/>
<path d="M235.172 137.387C240.034 143.209 243.846 149.833 246.438 156.962L245.937 156.781C245.678 156.112 244.967 153.945 244.608 153.611C244.039 153.642 243.905 153.668 243.347 153.793C243.184 153.39 243.1 153.143 242.976 152.727L242.717 152.879L242.677 153.282L242.115 153.481C241.886 154.089 241.886 154.104 241.906 154.768C241.963 156.647 240.008 158.801 240.35 160.524L240.178 160.714C239.796 160.068 239.502 158.678 239.17 157.946C237.568 154.422 235.654 145.659 232.318 143.763L232.152 142.952L231.991 142.993C231.333 142.33 231.315 142.051 230.999 141.134C232.267 139.906 233.287 139.218 234.748 138.246L235.172 137.387Z" fill="#61D18E"/>
<path d="M234.748 138.246L235.323 138.669C235.576 140.333 233.351 142.024 232.152 142.952L231.991 142.993C231.333 142.33 231.315 142.051 230.999 141.134C232.267 139.906 233.287 139.218 234.748 138.246Z" fill="#1B4B6C"/>
<path d="M222.036 149.113C222.385 147.724 221.511 146.451 221.805 144.427C222.385 140.444 224.341 138.54 228.574 139.44C229.369 140.024 230.177 140.589 230.999 141.134C231.315 142.051 231.333 142.331 231.991 142.993L231.929 145.554C230.967 145.475 231.31 145.546 230.444 144.956L230.225 145.769L229.658 147.073C229.899 148.082 229.91 148.695 230.89 149.27C229.67 151.275 226.254 150.726 224.243 150.397L223.833 150.168L222.036 149.113Z" fill="#F9833E"/>
<path d="M228.471 147.967C222.264 147.789 223.724 142.745 226.739 142.225C227.396 142.108 228.073 142.261 228.616 142.649C229.745 143.456 229.974 144.521 230.225 145.768L229.658 147.072C229.081 147.4 228.922 147.454 228.471 147.967Z" fill="#FAF5E8"/>
<path d="M229.658 147.072C229.899 148.081 229.91 148.695 230.89 149.269C229.67 151.274 226.254 150.726 224.243 150.396L223.833 150.167C224.388 149.75 224.593 149.606 225.204 149.281C225.53 149.544 225.759 149.69 226.113 149.918C226.952 149.908 227.779 149.884 228.089 149.035C227.253 149.032 225.777 149.114 225.061 148.831C225.52 148.355 226.724 148.906 228.215 148.468L228.471 147.967C228.922 147.454 229.081 147.4 229.658 147.072Z" fill="#EC7442"/>
<path d="M222.036 149.112L223.833 150.167L224.243 150.396C221.643 155.145 214.733 162.136 211.253 166.753C209.639 168.893 207.542 170.649 206.452 173.27C205.624 172.299 204.997 171.395 203.836 170.879C205.8 168.983 208.072 165.661 209.869 163.373C213.893 158.252 217.573 153.855 222.036 149.112Z" fill="#1B4B6C"/>
<path d="M230.225 145.768L230.445 144.955C231.31 145.546 230.967 145.474 231.929 145.553C231.644 146.909 231.473 148.007 230.891 149.269C229.91 148.695 229.9 148.081 229.658 147.072L230.225 145.768Z" fill="#EF6A18"/>
<path d="M212.605 189.535C216.39 189.344 218.929 189.369 222.717 189.646C223.561 199.371 222.205 211.999 223.163 222.22C219.943 221.885 215.815 222.039 212.504 222.074C212.624 215.116 212.606 208.157 212.451 201.2C212.541 197.312 212.592 193.424 212.605 189.535Z" fill="#DD5C50"/>
<path d="M193.829 215.106C193.775 212.855 193.586 198.635 193.919 196.945L194.492 196.776C194.89 197.346 194.929 197.324 194.938 198.046L201.46 198.03C203.218 197.813 203.814 198.585 205.066 197.079C206.063 197.154 205.835 196.991 206.503 197.519C206.935 199.189 206.805 203.203 206.834 205.13C206.92 210.798 206.687 216.53 206.763 222.2C205.559 222.491 201.644 222.252 200.197 222.202L195.073 222.277L195.009 219.313C193.954 218.118 194.163 216.789 193.829 215.106Z" fill="#FA913D"/>
<path d="M205.066 197.078C206.063 197.153 205.836 196.991 206.503 197.518C206.936 199.189 206.805 203.202 206.834 205.129C206.921 210.797 206.687 216.53 206.763 222.199C205.559 222.49 201.644 222.252 200.197 222.201C201.536 222.009 202.898 222.07 204.253 222.087C204.076 215.793 204.266 209.484 204.229 203.187C204.22 201.665 204.348 200.102 204.083 198.597C203.406 198.067 202.377 198.11 201.461 198.03C203.218 197.812 203.814 198.585 205.066 197.078Z" fill="#307486"/>
<path d="M193.829 215.106C193.775 212.855 193.586 198.635 193.919 196.945L194.492 196.776C194.89 197.346 194.929 197.324 194.938 198.046C195.017 205.134 195.04 212.224 195.009 219.313C193.954 218.118 194.163 216.789 193.829 215.106Z" fill="#00131A"/>
<path d="M200.463 169.846C201.547 170.213 202.724 170.651 203.836 170.879C204.997 171.395 205.624 172.299 206.452 173.27C206.427 176.88 206.319 177.903 204.054 180.755C203.421 181.059 202.749 181.279 202.058 181.408C196.79 182.43 195.512 178.364 194.742 174.271C194.782 174.208 194.822 174.145 194.862 174.081L195.069 173.769C195.91 172.475 195.989 172.381 197.2 171.372C197.947 171.088 199.652 170.218 200.463 169.846Z" fill="#EC7442"/>
<path d="M200.335 173.424C204.222 173.013 205.071 176.503 201.133 178.734L200.766 178.936C197.928 178.547 197.609 175.295 200.335 173.424Z" fill="#FAF5E8"/>
<path d="M188.019 181.054C188.933 183.557 187.963 213.282 188.029 218.256L187.546 218.544L187.17 218.419L186.814 217.095C186.676 207.607 186.881 198.085 186.817 188.593C186.801 186.242 186.855 183.978 186.655 181.627L188.019 181.054Z" fill="#040F27"/>
<path d="M194.492 196.776C198.014 196.819 201.553 196.821 205.066 197.079C203.814 198.585 203.218 197.813 201.46 198.03L194.938 198.046C194.929 197.324 194.89 197.346 194.492 196.776Z" fill="#1B4B6C"/>
<path d="M230.916 171.299L239.506 171.247C239.468 175.643 239.996 193.835 238.867 197.497C238.624 196.921 239.154 192.433 238.944 190.742L238.682 190.848C235.948 190.012 234.472 190.767 231.518 191.233C231.456 192.946 231.867 196.943 231.27 197.905C231.285 188.842 230.699 180.758 230.916 171.299Z" fill="#77E092"/>
<path d="M151.513 172.459C152.192 171.851 152.78 171.979 153.699 171.991C156.813 174.849 158.203 175.459 161.979 177.423C163.048 177.875 164.345 178.158 165.502 177.952L165.959 177.638C166.98 178.273 167.15 178.47 167.949 179.321C168.255 179.391 168.388 179.454 168.69 179.44L168.964 178.858C169.322 180.758 169.564 181.867 169.584 183.824C171.301 183.101 172.523 183.041 174.376 183.13L174.864 183.544L175.262 183.511C176.489 181.819 175.338 181.516 175.998 180.359L176.712 180.474L176.698 180.773C179.231 182.37 179.758 181.521 182.561 181.797C183.752 181.789 185.545 181.835 186.656 181.627C186.855 183.977 186.801 186.241 186.817 188.593C186.881 198.084 186.677 207.606 186.814 217.094C186.821 218.771 186.774 220.809 186.878 222.454C183.766 222.158 180.955 222.485 178.209 222.28C177.397 222.171 177.228 222.156 176.415 222.209C174.84 222.332 172.358 222.307 170.705 222.338C169.52 222.753 162.49 222.451 160.937 222.368L160.255 222.116L159.205 222.328C157.231 222.172 154.18 222.268 152.036 222.197C149.985 221.889 144.057 221.993 141.954 222.168C140.314 222.651 137.923 222.582 136.107 222.825C128.929 214.765 123.855 205.055 121.34 194.559C123.501 195.627 124.386 194.429 125.723 197.207C126.374 197.585 126.488 197.546 127.269 197.581C126.112 195.367 125.732 194.383 125.13 191.957C125.771 190.12 125.994 189.787 127.28 188.448C129.168 187.034 130.746 186.584 132.975 185.879C133.522 186.143 133.841 186.418 134.372 186.367C136.194 186.192 138.043 183.674 139.214 182.298C140.679 180.272 143.401 176.232 145.361 175.098L144.664 173.994L145.251 173.728C146.356 173.743 147.98 173.829 148.795 173.05C149.848 172.757 150.205 172.946 151.513 172.459Z" fill="#3CB9B9"/>
<path d="M176.415 222.209C175.963 218.06 176.398 208.861 176.26 204.486C176.161 201.361 175.952 182.364 176.698 180.773C179.231 182.37 179.758 181.521 182.561 181.797C183.751 181.789 185.545 181.836 186.655 181.627C186.855 183.977 186.801 186.241 186.817 188.593C186.881 198.085 186.676 207.607 186.814 217.095C186.82 218.772 186.774 220.809 186.878 222.454C183.766 222.158 180.955 222.485 178.209 222.28C177.396 222.172 177.227 222.156 176.415 222.209Z" fill="#F9833E"/>
<path d="M176.415 222.209C175.963 218.06 176.398 208.861 176.26 204.486C176.161 201.361 175.952 182.364 176.698 180.773C179.231 182.37 179.758 181.521 182.561 181.797C181.041 181.898 179.675 181.969 178.153 181.992C177.884 188.292 178.113 194.64 178.095 200.942C178.074 208.098 178.057 215.12 178.209 222.28C177.396 222.172 177.227 222.156 176.415 222.209Z" fill="#223C5F"/>
<path d="M151.513 172.459C152.192 171.851 152.78 171.979 153.699 171.991C156.812 174.849 158.203 175.459 161.978 177.423C160.441 178.893 159.711 179.333 158.366 181.101C158.695 181.715 158.844 181.901 158.935 182.606L159.618 184.766C159.651 185.174 159.691 185.425 159.855 185.802C156.541 187.611 145.669 187.768 142.001 186.835C141.128 186.173 141.02 185.632 140.326 184.986C140.53 183.702 140.033 183.259 139.213 182.298C140.678 180.272 143.401 176.232 145.36 175.098L144.664 173.994L145.251 173.728C146.356 173.743 147.979 173.829 148.794 173.05C149.848 172.757 150.205 172.946 151.513 172.459Z" fill="#61D18E"/>
<path d="M151.513 172.459C152.192 171.851 152.78 171.979 153.699 171.991C156.813 174.849 158.203 175.459 161.979 177.423C160.441 178.893 159.712 179.333 158.366 181.101C155.571 178.014 154.401 177.054 151.058 174.639C151.404 173.89 151.416 173.279 151.513 172.459Z" fill="#1B4B6C"/>
<path d="M151.513 172.459C151.416 173.279 151.404 173.89 151.058 174.639C149.456 174.311 146.903 174.581 145.361 175.098L144.664 173.994L145.251 173.728C146.356 173.743 147.98 173.829 148.795 173.05C149.848 172.757 150.205 172.946 151.513 172.459Z" fill="#1E9D71"/>
<path d="M169.171 201.995C169.477 200.995 169.7 200.866 170.516 200.189C171.067 204.117 170.098 220.922 170.705 222.338C169.519 222.753 162.49 222.451 160.936 222.368L160.254 222.116C160.496 220.854 160.3 212.17 160.28 210.129L160.531 207.832L160.546 202.15C160.609 201.889 160.632 201.982 160.995 201.753C162.622 201.669 167.626 201.557 169.013 201.976L169.171 201.995Z" fill="#249ED5"/>
<path d="M169.171 201.995C169.477 200.995 169.7 200.866 170.517 200.189C171.068 204.117 170.098 220.922 170.705 222.338C169.52 222.753 162.49 222.451 160.937 222.368C163.361 222.207 166.792 222.267 169.297 222.231C169.474 217.536 169.335 212.829 169.248 208.131C169.258 206.085 169.232 204.04 169.171 201.995Z" fill="#025C91"/>
<path d="M160.546 202.15C160.61 201.89 160.632 201.982 160.995 201.753C162.623 201.669 167.626 201.558 169.013 201.976C168.979 203.067 168.972 204.311 168.905 205.387C167.404 205.448 165.869 205.534 164.375 205.643C161.209 205.875 160.957 204.647 160.546 202.15Z" fill="#A0E2DC"/>
<path d="M169.013 201.976L169.171 201.995C169.232 204.04 169.258 206.085 169.248 208.131L168.909 208.608C167.966 209.062 162.846 208.716 161.703 208.464C162.149 208.138 163.996 208.054 164.693 207.98C163.383 207.769 161.47 207.283 160.531 207.832L160.546 202.15C160.957 204.646 161.209 205.875 164.374 205.643C165.868 205.534 167.404 205.448 168.904 205.386C168.972 204.311 168.979 203.067 169.013 201.976Z" fill="#4AC9DE"/>
<path d="M139.214 182.298C140.033 183.259 140.531 183.702 140.326 184.986L140.16 185.263C136.737 191.052 136.175 199.276 127.269 197.581C126.112 195.367 125.732 194.383 125.13 191.957C125.771 190.121 125.994 189.787 127.28 188.448C129.168 187.034 130.746 186.584 132.975 185.879C133.522 186.143 133.841 186.418 134.372 186.367C136.194 186.193 138.043 183.674 139.214 182.298Z" fill="#FA913D"/>
<path d="M131.792 189.253C133.06 189.326 133.911 190.681 134.698 191.603C133.662 193.376 133.403 193.753 132.006 195.318C130.686 194.049 129.498 192.648 128.46 191.139L131.792 189.253Z" fill="#FAF5E8"/>
<path d="M142.192 210.489C145.201 210.571 148.581 210.74 151.562 210.723C151.847 214.582 151.848 218.359 152.035 222.197C149.985 221.889 144.056 221.994 141.954 222.168C142.005 218.275 142.084 214.382 142.192 210.489Z" fill="#FA913D"/>
<path d="M161.979 177.424C163.048 177.876 164.345 178.159 165.502 177.953L165.959 177.639C166.98 178.274 167.15 178.471 167.949 179.322C168.255 179.391 168.388 179.454 168.69 179.441L168.796 180.295C169.761 184.439 167.398 190.076 162.052 187.5C161.482 187.226 160.342 185.356 159.618 184.767L158.935 182.606C158.844 181.902 158.696 181.716 158.366 181.102C159.712 179.334 160.441 178.894 161.979 177.424Z" fill="#1E9D71"/>
<path d="M161.979 177.424C163.048 177.876 164.345 178.159 165.502 177.953L165.959 177.639C166.98 178.274 167.15 178.471 167.949 179.322C168.255 179.391 168.388 179.454 168.69 179.441L168.796 180.295C168.057 180.645 167.675 180.675 167.271 181.282C165.015 180.564 163.227 179.506 162.44 182.452C162.325 182.888 162.215 183.325 162.109 183.763C160.784 183.05 160.414 182.799 158.935 182.606C158.844 181.902 158.696 181.716 158.366 181.102C159.712 179.334 160.441 178.894 161.979 177.424Z" fill="#61D18E"/>
<path d="M162.109 183.762C162.214 183.324 162.325 182.887 162.44 182.452C163.227 179.505 165.015 180.564 167.271 181.281C167.194 185.158 163.318 187.551 162.109 183.762Z" fill="#97F8CC"/>
<path d="M158.957 199.274C162.058 199.251 166.861 198.57 169.883 199.357C170.383 199.487 170.375 199.779 170.517 200.19C169.7 200.866 169.477 200.995 169.171 201.996L169.013 201.976C167.626 201.558 162.623 201.669 160.995 201.753C160.632 201.982 160.61 201.89 160.546 202.15L160.531 207.832L160.28 210.13C160.3 212.17 160.496 220.854 160.255 222.116L159.205 222.329L159.186 218.6C158.757 215.658 158.96 202.985 158.957 199.274Z" fill="#307486"/>
<path d="M159.186 218.6C159.217 212.89 159.278 207.179 159.368 201.47L159.803 201.209L159.98 201.399C159.938 201.992 159.872 202.311 160.005 202.892C160.488 205.009 160.22 207.836 160.28 210.13C160.3 212.17 160.496 220.854 160.254 222.116L159.205 222.329L159.186 218.6Z" fill="#223C5F"/>
<path d="M121.34 194.559C114.261 165.018 128.449 134.49 155.596 120.855C182.742 107.221 215.703 114.068 235.173 137.387L234.749 138.247C233.287 139.219 232.268 139.906 230.999 141.134C230.177 140.589 229.369 140.024 228.574 139.44C227.07 135.766 216.25 128.837 212.42 126.817C201.49 121.054 187.826 117.326 175.658 120.926C171.665 121.638 166.615 122.728 162.851 124.271C155.238 127.393 143.858 134.989 140.117 142.561C138.741 144.018 137.572 145.827 136.457 147.504C134.921 149.779 132.89 153.02 132.238 155.678C126.965 162.644 125.505 176.781 126.131 185.531C126.207 186.592 126.647 187.588 127.28 188.449C125.994 189.788 125.771 190.121 125.13 191.957C125.732 194.384 126.112 195.368 127.269 197.581C126.488 197.546 126.374 197.586 125.723 197.208C124.386 194.429 123.501 195.627 121.34 194.559Z" fill="#BAD8EB"/>
<path d="M140.117 142.561C143.858 134.989 155.238 127.392 162.851 124.271C166.614 122.728 171.664 121.637 175.658 120.926C180.384 125.589 179.602 129.713 172.799 131.036C165.72 132.413 158.425 136.379 152.841 140.898C150.792 142.556 147.321 146.292 144.601 146.295C142.199 146.298 140.868 144.712 140.117 142.561Z" fill="white"/>
<path d="M180.026 163.082C182.083 163.74 182.572 163.944 184.689 163.45C187.002 165.928 193.099 170.874 194.05 173.7L194.276 174.795C194.192 174.789 194.108 174.783 194.025 174.777C189.989 175.484 188.962 175.853 187.645 179.94C186.563 180.376 186.224 179.896 184.408 180.34C185.978 180.442 186.608 180.356 188.019 181.053L186.656 181.627C185.545 181.836 183.752 181.789 182.561 181.797C179.758 181.521 179.231 182.37 176.698 180.773L176.712 180.475L175.998 180.359C175.338 181.516 176.489 181.819 175.262 183.511L174.864 183.545L174.376 183.13C172.523 183.041 171.301 183.102 169.584 183.825C169.564 181.868 169.322 180.758 168.964 178.858C169.41 177.962 172.353 174.451 173.082 173.567C176.083 169.925 177.985 167.31 180.026 163.082Z" fill="#61D18E"/>
<path d="M176.712 180.475C179.612 180.413 181.397 180.252 184.408 180.34C185.978 180.442 186.608 180.356 188.02 181.053L186.656 181.627C185.545 181.836 183.752 181.789 182.561 181.797C179.758 181.521 179.231 182.37 176.698 180.773L176.712 180.475Z" fill="#00201F"/>
<path d="M178.361 161.894C173.954 158.11 178.746 151.271 183.886 152.747C187.5 153.785 187.801 157.559 187.014 160.606C185.996 161.471 185.089 162.128 184.689 163.45C182.572 163.944 182.082 163.74 180.026 163.082C179.624 162.479 179.008 162.24 178.361 161.894Z" fill="#FA913D"/>
<path d="M181.518 155.277C185.853 154.899 185.924 158.453 182.959 160.72C179.84 161.227 178.208 157.042 181.518 155.277Z" fill="#FAF9C9"/>
<path d="M142.819 173.636C141.753 171.542 141.255 169.892 142.616 167.702C143.468 166.358 144.817 165.407 146.369 165.054C150.766 164.068 153.054 168.391 153.699 171.991C152.78 171.98 152.192 171.851 151.513 172.46C150.205 172.947 149.848 172.758 148.794 173.051C147.979 173.83 146.356 173.744 145.251 173.728L144.664 173.995C143.773 174.048 143.679 173.965 142.819 173.636Z" fill="#61D18E"/>
<path d="M145.47 171.744C144.895 171.075 144.806 171.038 144.716 170.204C145.777 168.074 150.561 167.607 149.229 172.075L148.795 173.051C147.98 173.829 146.356 173.743 145.251 173.728C145.514 172.899 145.468 172.632 145.47 171.744Z" fill="#E3F7E9"/>
<path d="M145.47 171.744C146.783 171.744 148.476 172.1 149.228 172.076L148.794 173.051C147.979 173.83 146.356 173.744 145.251 173.728C145.514 172.9 145.468 172.632 145.47 171.744Z" fill="#97F8CC"/>
<path d="M136.457 147.503C138.742 148.445 139.39 148.77 141.017 150.601C140.469 153.558 137.16 164.154 132.965 158.129C132.562 157.55 132.46 156.359 132.238 155.677C132.89 153.019 134.921 149.778 136.457 147.503Z" fill="white"/>
<path d="M178.361 161.895C179.008 162.24 179.624 162.48 180.026 163.082C177.985 167.31 176.083 169.925 173.082 173.567C172.353 174.452 169.41 177.963 168.964 178.859L168.689 179.44C168.388 179.454 168.255 179.391 167.949 179.322C167.15 178.47 166.979 178.274 165.958 177.639C169.758 174.317 174.521 164.391 178.361 161.895Z" fill="#1B4B6C"/>
<path d="M187.014 160.606C187.879 161.085 196.069 169.977 197.2 171.372C195.989 172.381 195.91 172.476 195.069 173.769L194.863 174.082C194.822 174.145 194.782 174.208 194.742 174.272L194.05 173.701C193.099 170.874 187.002 165.929 184.689 163.45C185.089 162.128 185.996 161.471 187.014 160.606Z" fill="#1B4B6C"/>
<path d="M142.819 173.636C143.679 173.965 143.774 174.048 144.664 173.995L145.361 175.099C143.401 176.233 140.679 180.272 139.214 182.298C138.043 183.675 136.194 186.193 134.372 186.368C133.841 186.418 133.522 186.143 132.975 185.879C134.729 183.97 136.023 182.442 137.582 180.388C138.999 178.523 141.187 175.152 142.819 173.636Z" fill="#223C5F"/>
<path d="M127.605 122.104C157.672 91.9718 205.932 90.2523 238.068 118.168C238.66 119.97 242.806 122.647 243.21 124.053C242.168 125.239 238.518 124.05 236.471 124.673C235.642 124.926 229.957 124.378 229.233 123.632C228.53 122.906 225.868 120.974 225.265 119.883C224.988 119.381 225.298 118.882 225.494 118.281C224.393 115.935 222.23 113.088 220.541 111.484C217.383 108.484 211.265 111.875 207.788 112.497C207.894 112.478 206.433 112.419 206.371 112.416L206.19 112.38C201.773 111.465 198.126 110.123 193.484 109.528C179.667 107.756 166.738 110.203 154.179 116.087C148.922 118.55 144.897 121.715 140.273 125.153C138.043 125.106 134.644 130.396 132.943 131.281L132.692 131.081C130.654 129.442 129.367 130.011 127.187 128.952C126.548 128.641 124.268 127.539 124.002 127.112C124.769 125.222 127.306 123.705 127.605 122.104Z" fill="#BAD8EB"/>
<path d="M55.0023 265.565C54.494 263.33 54.0488 257.355 55.5075 255.43C56.2635 254.432 56.5808 254.385 57.7308 254.215C61.2808 253.682 65.0925 253.885 68.6878 253.925C72.7423 253.982 76.7973 253.992 80.8518 253.955C90.181 253.89 99.5105 253.877 108.84 253.915C114.559 253.895 120.305 253.765 126.019 254.012C128.679 254.235 130.298 255.08 130.377 257.9C130.504 262.367 130.643 267.02 130.504 271.475C130.374 275.647 130.822 280.717 130.461 284.757C130.546 288.832 131.412 292.465 127.856 295.152C124.888 295.577 120.189 295.47 117.061 295.48L99.7218 295.51L74.2388 295.475C69.682 295.465 65.0315 295.64 60.486 295.385C59.406 295.325 57.0023 295.222 56.1318 294.517C54.2085 292.962 55.3935 269.687 55.0023 265.565Z" fill="#E0F1F6"/>
<path d="M55.0023 265.565C54.494 263.33 54.0488 257.355 55.5075 255.43C56.2635 254.432 56.5808 254.385 57.7308 254.215C61.2808 253.682 65.0925 253.885 68.6878 253.925C72.7423 253.982 76.7973 253.992 80.8518 253.955C90.181 253.89 99.5105 253.877 108.84 253.915C114.559 253.895 120.305 253.765 126.019 254.012C128.679 254.235 130.298 255.08 130.377 257.9C130.504 262.367 130.643 267.02 130.504 271.475C130.374 275.647 130.822 280.717 130.461 284.757C129.983 281.49 130.263 269.565 130.261 265.577C114.039 265.78 97.8145 265.815 81.5915 265.682C74.0795 265.675 62.0993 266.137 55.0023 265.565Z" fill="#567499"/>
<path d="M60.1631 256.82C62.1464 256.753 65.0599 256.868 64.0714 260.34C63.8236 261.21 63.0074 261.493 62.1544 261.8C58.4119 261.763 56.9401 257.648 60.1631 256.82Z" fill="#DD5C50"/>
<path d="M68.7837 256.755C71.6579 256.86 73.2267 257.97 70.9722 260.777C67.8797 261.335 66.6812 258.742 68.7837 256.755Z" fill="#ABC948"/>
<path d="M78.0303 257.223L78.8396 257.328C79.6126 258.21 79.4831 259.618 78.9846 260.6C78.7383 261.088 78.3748 261.04 77.8386 261.208C76.0243 261.01 75.2598 260.065 76.1493 258.233C76.5496 257.41 77.1883 257.425 78.0303 257.223Z" fill="#61D18E"/>
<path d="M93.2203 279.025C93.785 279.243 93.8923 279.343 94.4875 279.38C94.6573 279.28 94.808 279.138 94.9965 279.083C95.8068 278.848 121.452 279.175 123.599 279.503L124.172 279.943C124.255 280.643 124.338 280.24 124.043 280.76C123.783 281.22 122.832 281.675 122.329 281.678C117.974 281.718 113.494 281.445 109.142 281.555C107.722 281.94 93.3278 281.988 91.7808 281.68L92.9855 281.438C93.5 280.62 93.2713 280.165 93.2203 279.025Z" fill="#6297D2"/>
<path d="M93.2203 279.025C93.785 279.243 93.8923 279.343 94.4875 279.38C94.446 280.14 94.2858 280.79 94.5813 281.398C97.207 281.863 105.954 281.418 109.142 281.555C107.722 281.94 93.3278 281.988 91.7808 281.68L92.9855 281.438C93.5 280.62 93.2713 280.165 93.2203 279.025Z" fill="#BAD8EB"/>
<path d="M75.6639 286.205C77.4827 286.553 80.8679 286.473 82.8157 286.478L97.4147 286.505C99.5967 286.508 103.332 286.37 105.33 286.68C105.938 287.363 105.831 287.66 106.025 288.65C101.018 288.948 94.4362 288.693 89.3029 288.765C85.7862 288.815 78.8777 288.973 75.6999 288.645C75.3499 287.9 75.5662 287.068 75.6639 286.205Z" fill="#6297D2"/>
<path d="M65.1567 270.91C67.2665 271.385 71.269 277.938 70.8207 280.143C70.01 280.748 67.949 280.38 66.8122 280.29C65.3287 280.28 61.6182 280.41 60.5045 280.04C59.2285 278.018 63.6422 272.418 65.1567 270.91Z" fill="#F9833E"/>
<path d="M65.2076 274.605C66.3896 275.33 66.6519 277.16 66.1039 278.393C64.1476 277.803 64.8341 276.258 65.2076 274.605Z" fill="#F9DEA4"/>
<path d="M75.6085 271.613C82.3177 271.518 89.0277 271.488 95.7377 271.523C95.7877 272.618 95.828 273.138 95.6707 274.248L95.235 274.55C92.827 274.798 76.5257 274.868 75.443 274.208C75.0247 273.33 75.07 272.408 75.6085 271.613Z" fill="#BAD8EB"/>
<path d="M98.4915 271.508C101.645 271.583 114.505 271.385 116.722 271.875C117.146 272.585 117.015 273.508 117.004 274.385C114.658 274.548 100.177 274.85 98.771 274.293C98.3245 273.505 98.473 272.465 98.4915 271.508Z" fill="#BAD8EB"/>
<path d="M91.7809 281.68C88.5681 281.09 80.0371 281.915 76.2454 281.52C75.4186 281.435 75.4936 281.455 75.1206 280.957C75.0771 280.12 74.9889 279.912 75.4101 279.247C76.0849 278.89 91.0091 279.027 93.2204 279.025C93.2714 280.165 93.5001 280.62 92.9856 281.437L91.7809 281.68Z" fill="#6297D2"/>
<path d="M62.4139 285.095C65.4462 284.92 67.2252 284.87 70.2099 285.367C70.3819 286.53 70.6047 287.585 70.4564 288.75C67.8027 288.917 64.9682 288.802 62.2944 288.745C62.2607 287.51 62.1652 286.302 62.4139 285.095Z" fill="#BAD8EB"/>
<path d="M109.079 286.117C110.107 286.29 110.461 286.415 111.128 287.185C111.124 287.97 111.255 287.632 110.691 288.215C109.793 288.12 109.416 288.16 108.667 287.712C108.515 286.89 108.625 287.055 109.079 286.117Z" fill="#6297D2"/>
<path d="M266.945 250.017C269.518 248.22 270.215 247.671 273.033 249.264C276.86 251.885 280.753 256.53 284.168 259.89L306.958 282.492C312.823 288.4 318.793 294.132 324.568 300.12C328.77 304.48 329.398 313.83 325.013 318C322.475 322.26 314.18 325.37 309.675 323.06C304.308 320.307 298.983 314.03 294.783 309.72L280.665 295.4L266.748 281.13C262.958 277.295 254.68 269.745 252.788 265.105C253.85 261.605 255.463 260.375 258.265 258.117C261.09 255.227 263.67 252.405 266.945 250.017Z" fill="#FA924A"/>
<path d="M252.788 265.105C253.85 261.605 255.463 260.375 258.265 258.117C258.865 259.24 259.353 260.492 260.25 261.415C276.375 278.032 293.068 294.147 309.793 310.16C313.708 313.91 317.03 315.137 322.3 315.112C318.525 315.822 317.7 315.39 314.39 313.832C314.725 315.715 315.223 317.672 315.588 319.56C315.87 321.01 316.233 322.61 318.065 322.607C319.12 322.045 324.79 318.035 325.013 318C322.475 322.26 314.18 325.37 309.675 323.06C304.308 320.307 298.983 314.03 294.783 309.72L280.665 295.4L266.748 281.13C262.958 277.295 254.68 269.745 252.788 265.105Z" fill="#DD5C50"/>
<path d="M266.945 250.017C269.517 248.22 270.215 247.671 273.032 249.264L272.497 250.362C272.752 250.89 273.065 251.382 273.222 251.947C282.962 263.91 296.117 274.09 306.46 285.645C309.335 288.855 312.905 291.867 315.875 295.142C315.325 295.127 315.077 294.89 314.547 294.595L314.182 294.763L314.102 295.47C314.515 296.482 315.085 295.99 315.612 297.07C314.675 296.91 310.13 292.675 309.18 291.795C298.052 281.488 287.12 270.797 276.657 259.812C273.92 256.937 270.237 254.12 268.08 250.86L266.945 250.017Z" fill="#F9DEA4"/>
<path d="M266.945 250.017C269.517 248.22 270.215 247.671 273.032 249.264L272.497 250.362C272.752 250.89 273.065 251.382 273.222 251.947C271.54 250.735 269.93 249.474 268.08 250.86L266.945 250.017Z" fill="#FDB245"/>
<path d="M317.298 55.4976C319.155 55.3976 320.488 55.9496 321.483 57.6029C326.53 65.9824 331.528 74.5621 336.34 83.0874C336.978 84.2156 338.095 87.1151 337.675 88.3251C334.88 90.7631 324.375 89.8461 320.313 89.8139C314.415 89.8174 308.36 89.9799 302.493 89.6326C298.035 89.5339 298.075 85.6369 300.31 83.0456C304.215 78.5206 313.705 58.0711 317.298 55.4976Z" fill="#F9833E"/>
<path d="M316.638 64.3241C318 64.2309 319.175 63.8739 320.088 64.9984C320.725 67.4811 320.27 74.5956 319.973 77.2981C315.478 78.2994 316.695 75.9464 316.45 72.3081C316.3 70.0759 316.288 66.4906 316.638 64.3241Z" fill="#FAF5E8"/>
<path d="M318.397 79.9689C318.992 79.9594 319.997 80.5151 320.265 80.9964C321.545 83.2804 320.317 84.5626 318.805 85.7429C315 84.0271 314.887 82.0009 318.397 79.9689Z" fill="white"/>
<path d="M247.899 237.418C248.599 236.762 249.17 236.075 250.063 235.826C250.883 235.919 261.04 245.99 262.723 247.533C260.838 248.89 259.025 250.428 257.225 251.905C255.62 253.755 253.808 255.438 252.053 257.49C249.773 254.2 243.36 247.201 240.535 244.46C244.329 241.641 244.922 239.952 247.899 237.418Z" fill="#6297D2"/>
<path d="M247.899 237.418C248.599 236.762 249.17 236.075 250.062 235.826C250.882 235.919 261.04 245.99 262.722 247.533C260.837 248.89 259.025 250.428 257.225 251.905C256.03 250.815 254.61 249.422 253.592 248.165C250.522 244.369 247.639 242.614 247.899 237.418Z" fill="#E0F1F6"/>
</svg>
