<svg width="380" height="380" viewBox="0 0 380 380" fill="none" xmlns="http://www.w3.org/2000/svg">
<path d="M94.4524 56.211C98.0984 55.4052 104.113 51.0732 107.547 49.0607C138.298 31.0415 176.287 23.0583 211.667 27.8297C231.025 30.4405 251.832 36.5297 268.81 46.3675C271.602 47.9865 277.577 51.088 279.495 53.6942C283.022 51.97 286.562 49.57 290.17 48.4107C296.142 51.4917 302.097 54.7667 308.12 57.7805C310.675 59.0597 314.355 61.5435 316.702 62.553C316.722 67.5215 316.715 72.49 316.677 77.4585C316.665 80.1137 316.535 85.2532 317 87.733C320.792 92.2695 325.63 99.4575 328.74 104.481C347.59 134.86 355.995 170.568 352.672 206.165C348.572 248.632 328.052 287.822 295.485 315.382C262.607 343.35 219.938 357.052 176.926 353.455C133.681 349.48 93.8027 328.435 66.1159 294.977C38.1112 261.215 24.153 219.422 28.3392 175.502C30.9099 150.434 39.1077 126.271 52.3212 104.815C54.8392 100.741 57.3854 96.8255 60.5072 93.1912C61.0869 92.5165 63.2939 90.0785 63.6444 89.43C64.2047 83.3625 62.9889 74.7185 63.9462 68.9042C68.0987 65.3115 74.4274 62.7902 79.3472 60.243C82.4484 58.6375 87.1017 55.9082 90.2559 54.799C91.8177 55.1867 92.9427 55.6325 94.4524 56.211ZM106.546 127.858C104.437 127.321 104.199 127.277 102.094 127.879L101.835 128.181C102.767 128.971 104.93 128.586 106.213 128.627L106.071 128.296L106.546 127.858Z" fill="#10B0B4"/>
<path d="M290.17 48.4111C296.142 51.4921 302.097 54.7671 308.12 57.7809C310.675 59.0601 314.355 61.5439 316.702 62.5534C316.722 67.5219 316.715 72.4904 316.677 77.4589C316.665 80.1141 316.535 85.2536 317 87.7334C316.502 88.7446 316.575 92.7399 316.495 94.2574C312.89 97.1211 308.482 98.7369 304.412 100.807C300.665 102.715 297.05 104.922 293.157 106.53C292.077 106.977 291.12 107.33 290.117 107.953C284.707 106.479 280.38 103.622 275.382 101.193C271.015 99.0691 267.065 97.3636 262.965 94.6939C262.557 92.0514 262.775 84.8239 262.782 81.9324C262.805 75.4269 262.677 68.7461 262.837 62.2644C265.137 61.2449 267.767 59.6164 270.052 58.4289C273.132 56.8284 276.48 55.3494 279.495 53.6946C283.022 51.9704 286.562 49.5704 290.17 48.4111Z" fill="#07113D"/>
<path d="M312.18 67.7712L312.52 67.709C313.017 68.3757 312.86 89.4365 312.935 92.244C309.665 93.108 304.91 95.9702 301.805 97.613C298.602 99.3032 295.325 100.851 291.985 102.252L291.5 102.367C291.038 101.709 291.262 80.332 291.4 77.773C294.665 76.4677 297.87 74.5557 301.017 72.9122C304.64 70.9925 308.367 69.2762 312.18 67.7712Z" fill="#108DA6"/>
<path d="M266.922 67.3467C272.88 69.9894 278.56 72.6854 284.17 76.0169C285.385 76.7397 286.627 77.3152 287.95 77.8217C288.072 86.1352 288.117 94.4499 288.08 102.765C284.385 100.788 280.322 99.0012 276.532 97.1349C273.59 95.6862 269.877 93.4052 266.932 92.2547C267.207 84.5339 266.94 75.1824 266.922 67.3467Z" fill="#17B6A6"/>
<path d="M288.785 53.7271C291.99 53.1619 305.985 61.6661 310.293 63.6549C307.538 65.0284 304.65 66.9509 301.868 68.3444C298.038 70.2621 294.175 72.0554 290.348 73.9886L290.058 74.1716C288.315 74.2401 272 64.3294 268.638 63.1396C270.92 62.2421 273.598 61.3059 275.743 60.1936C280.315 57.8226 283.878 55.4664 288.785 53.7271Z" fill="#78ECA8"/>
<path d="M90.2562 54.7988C91.8179 55.1866 92.9429 55.6323 94.4527 56.2108C101.471 60.8318 110.437 63.5478 117.183 68.4941C117.648 71.8118 117.768 98.3196 117.015 100.354C113.783 103.935 100.838 108.328 96.5359 111.586C95.5992 112.295 92.0124 113.984 90.7907 114.33C87.3232 113.212 82.8739 110.432 79.1464 108.523C75.8842 106.853 66.2439 102.893 64.3792 100.166C63.5039 98.8863 63.7612 91.5803 63.6447 89.4298C64.2049 83.3623 62.9892 74.7183 63.9464 68.9041C68.0989 65.3113 74.4277 62.7901 79.3474 60.2428C82.4487 58.6373 87.1019 55.9081 90.2562 54.7988Z" fill="#07113D"/>
<path d="M67.7839 73.0938C74.7119 76.83 81.9274 80.0255 88.5057 84.4675L88.5807 107.896C85.5939 106.808 83.5382 105.967 80.7272 104.558C76.7142 102.545 72.2044 99.6793 67.9867 98.3335C67.6399 90.152 67.7452 81.3115 67.7839 73.0938Z" fill="#FC894C"/>
<path d="M112.968 73.0195C113.511 73.7253 113.266 95.6278 113.212 98.218C106.23 101.014 100.103 104.991 93.0808 108.201C92.2725 105.354 92.7485 88.4233 92.7595 84.519C95.9065 82.263 99.2343 80.2708 102.709 78.5623C106.333 76.7645 109.71 75.4678 112.968 73.0195Z" fill="#DA7853"/>
<path d="M89.9283 60.0269C92.158 59.6191 107.244 68.1149 110.75 69.7946C107.441 71.2671 104.561 73.1396 101.393 74.8129C98.0748 76.5646 94.6743 78.2781 91.3333 79.9999C91.3018 80.0191 91.2738 80.0469 91.2385 80.0579C89.6908 80.5386 73.3417 71.2424 70.625 69.6641C76.1865 66.3646 83.909 62.1784 89.9283 60.0269Z" fill="#FED676"/>
<path d="M246.894 109.65C249.577 110.602 252.832 112.415 255.495 113.699C262.06 116.874 268.592 120.114 275.095 123.42C277.895 124.867 281.402 127.143 284.21 128.276C298.37 133.989 312.475 140.152 326.87 145.211C328.86 145.91 329.912 148.918 327.922 150.535C323.3 154.287 318.482 157.715 313.627 161.163C306.727 166.072 299.907 171.091 293.17 176.221C301.177 183.941 309.097 191.753 316.925 199.655C320.142 202.948 324.99 207.385 327.13 211.167C324.045 214.477 312.55 218.68 308.082 220.881C303.325 223.226 296.622 226.923 291.75 228.383C291.05 237.97 292.445 287.975 290.87 291.055C290.462 291.852 288.755 292.642 287.975 293.05C285.03 294.59 281.85 295.732 278.85 297.175C269.042 301.937 259.147 306.52 249.17 310.915C243.308 313.67 237.696 316.452 231.751 319.135C222.003 323.53 212.44 328.512 202.57 332.677C198.569 334.365 195.373 336.885 191.031 338.165C187.862 337.147 184.781 335.107 181.717 333.735C154.323 321.475 127.393 308.157 100.006 295.885C87.4633 290.265 89.5585 291.305 89.6185 278.025L89.6763 261.102C89.691 250.892 89.2915 238.541 89.6535 228.517C84.295 226.272 78.698 223.526 73.4703 220.917C68.099 218.237 59.2065 215.437 55.1213 211.193C55.625 209.896 56.2308 208.636 57.1495 207.582C59.637 204.729 62.6733 201.864 65.3908 199.208C70.4708 194.244 75.3173 189.267 80.1895 184.104C82.888 181.244 85.8685 178.822 88.4213 175.73C82.6603 172.124 75.1503 166.219 69.5323 162.179C66.0915 159.705 54.5815 151.856 52.3853 149.037C51.9918 147.688 52.8918 146.381 54.0605 145.811C57.7323 144.021 61.7438 142.622 65.5428 141.119L87.1975 132.604C90.7853 131.192 94.6785 129.783 98.182 128.252C101.041 126.907 103.652 124.613 106.49 123.27C115.78 118.875 124.959 114.232 134.187 109.718C136.03 110.199 140.195 112.619 142.082 113.519C144.486 114.666 145.671 115.064 148.226 115.819C151.94 114.996 155.237 113.759 158.89 112.836C161.735 113.96 167.373 117.718 170.202 119.446L190.497 131.885C192.1 130.681 193.436 129.932 195.171 128.96C204.54 123.71 213.282 117.534 222.298 111.712C225.636 112.987 229.687 114.725 232.948 116.177C237.038 115.133 243.124 111.764 246.894 109.65ZM106.546 127.858C104.437 127.321 104.199 127.277 102.094 127.879L101.835 128.181C102.767 128.971 104.93 128.586 106.213 128.627L106.071 128.296L106.546 127.858Z" fill="#07113D"/>
<path d="M192.768 225.107C200.17 229.445 223.827 256.878 226.611 257.69C227.83 258.045 230.605 256.888 231.732 256.435C235.815 254.798 239.685 252.525 243.716 250.735C258.422 244.22 273.015 237.445 287.483 230.414C287.78 243.87 287.352 257.503 287.525 270.975C287.597 276.54 287.665 282.293 287.515 287.845C283.858 289.885 280.13 291.793 276.337 293.563C267.102 297.313 257.027 302.628 247.874 306.818C238.892 310.933 229.114 315.193 220.257 319.483L205.96 326.368C201.178 328.675 197.842 330.593 192.698 332.003C192.944 317.913 192.783 303.315 192.762 289.198L192.768 225.107Z" fill="#C87955"/>
<path d="M234.304 276.485L234.642 276.665C235.351 278.545 235.118 301.235 234.925 304.555C230.846 307.148 227.441 308.228 223.301 310.298C215.997 313.95 208.435 316.89 201.086 320.31C199.786 318.808 200.13 294.475 200.733 291.26C205.054 288.94 210.53 287.133 215.048 285.103C221.455 282.228 227.929 279.423 234.304 276.485Z" fill="#07113D"/>
<path d="M231.686 279.995L231.98 280.003C232.077 280.118 232.174 280.235 232.271 280.35C232.178 286.77 232.506 296.998 232.496 303.105C228.627 306.1 221.409 308.185 216.871 310.35C212.241 312.56 207.772 315.045 203.092 317.14L202.804 317.15C202.71 317.053 202.616 316.955 202.522 316.86C202.425 310.003 202.642 299.74 202.728 293.263C205.607 292.163 209.418 289.823 212.456 288.648C219.116 286.073 225.418 283.493 231.686 279.995Z" fill="#DA7853"/>
<path d="M213.589 293.168C213.898 293.253 213.981 293.345 214.265 293.518C214.746 295.615 211.069 300.163 209.842 302.368C210.069 304.545 218.361 303.048 213.798 307.775C210.946 306.828 208.645 305.865 206.908 303.41C208.334 299.575 210.724 296.075 213.589 293.168Z" fill="#07113D"/>
<path d="M221.429 289.357C224.158 290.025 226.745 291.845 228.731 293.777C226.681 296.56 224.762 300.042 222.617 302.605C222.32 303.025 222.198 303.027 221.736 303.287L221.348 303.112C220.321 299.782 225.6 297.01 224.855 294.142C223.545 292.725 221.316 293.777 220.582 291.547C220.736 290.465 220.86 290.302 221.429 289.357Z" fill="#07113D"/>
<path d="M188.771 224.501C188.774 227.274 188.758 230.047 188.723 232.819L188.53 293.797C188.529 305.965 189.025 320.34 188.547 332.175C183.861 330.22 179.67 327.862 175.118 325.79L127.565 303.662C119.573 299.897 111.447 296.272 103.41 292.602C100.985 291.497 96.2707 289.1 94.2837 287.45C93.885 282.242 94.009 275.852 94.0067 270.555C93.9962 260.702 94.0725 250.852 94.2352 241.001C94.2402 237.461 94.2072 233.921 94.1357 230.382C98.1372 232.415 102.435 234.269 106.507 236.201C117.42 241.444 128.431 246.48 139.535 251.307C145.267 253.827 148.538 256.377 154.702 257.94C158.566 255.907 166.054 247.262 169.53 243.859C176.017 237.51 182.098 230.722 188.771 224.501Z" fill="#E49C64"/>
<path d="M188.771 224.501C188.773 227.274 188.758 230.047 188.723 232.819C188.58 231.47 188.427 229.602 188.111 228.311C186.826 233.59 183.087 238.185 180.363 242.896L170.731 259.827C168.871 263.077 165.396 269.917 162.805 272.185C161.28 272.635 152.082 267.75 150.093 266.862C139.028 261.922 127.945 257.017 117.05 251.717C110.709 248.632 103.862 246.378 97.7292 242.781C96.6602 242.155 95.377 241.479 94.2352 241.001C94.2402 237.461 94.2072 233.921 94.1357 230.382C98.1372 232.415 102.435 234.269 106.507 236.201C117.42 241.444 128.431 246.48 139.535 251.307C145.267 253.827 148.538 256.377 154.702 257.94C158.566 255.907 166.054 247.262 169.53 243.859C176.017 237.51 182.098 230.722 188.771 224.501Z" fill="#DA7853"/>
<path d="M100.356 259.935C102.036 261.125 108.489 263.605 110.746 264.55C114.885 266.282 117.487 267.55 121.376 269.807C121.613 272.455 121.697 290.947 121.327 293.092C117.006 291.582 103.183 285.057 100.097 282.37C99.9254 280.132 100.046 276.377 100.041 273.982C100.032 269.402 99.8859 264.46 100.356 259.935Z" fill="#424A58"/>
<path d="M102.078 264C105.557 265.38 116.333 270.26 118.911 272.538C119.04 277.905 118.972 283.277 118.707 288.642C116.215 287.392 113.085 286.345 110.515 285.16C107.601 283.818 104.856 282.31 102.04 280.783C101.53 276.875 101.759 267.957 102.078 264Z" fill="#F7B16F"/>
<path d="M111.327 271.987C113.244 272.24 113.897 272.437 115.672 273.17C115.814 275.695 116.161 280.817 115.869 283.255C114.299 283.055 113.03 282.955 111.88 281.685C110.251 279.885 110.96 274.387 111.327 271.987Z" fill="#424A58"/>
<path d="M105.806 268.645C106.779 268.817 108.046 268.972 108.725 269.722C110.322 271.482 109.553 277.355 109.45 279.792C109.163 279.807 108.847 279.807 108.556 279.827C104.817 280.08 105.822 273.87 105.735 271.58C105.702 270.695 105.783 269.525 105.806 268.645Z" fill="#424A58"/>
<path d="M92.6392 178.201C93.2087 178.192 111.708 186.718 113.69 187.608L148.948 203.155C152.122 204.536 155.374 205.724 158.557 207.14L174.897 214.51C178.934 216.362 182.648 218.202 186.806 219.804L165.441 241.507C161.567 245.414 158.533 248.78 154.36 252.553C154.135 252.798 154.26 252.695 153.905 252.898C153.474 253.143 153.19 252.913 152.76 252.733C146.137 249.948 139.741 246.639 133.214 243.645L93.9052 225.651L75.8202 217.255C71.2712 215.102 65.3182 212.003 60.5864 210.658C64.1412 206.276 70.2404 200.349 74.4017 196.143C79.9269 190.558 86.7382 183.229 92.6392 178.201Z" fill="#F2BB81"/>
<path d="M288.63 178.515L289.222 178.594C298.785 187.937 308.477 197.132 317.785 206.753C319.165 208.182 319.795 208.963 320.782 210.697C315.26 212.636 311.952 214.423 306.735 216.866L287.44 225.85L248.98 243.297C247.073 244.177 229.131 252.92 227.99 252.793C223.642 249.356 220.04 245.072 216.148 241.133C210.698 235.617 205.208 230.139 199.774 224.606C198.252 223.057 196.535 221.245 194.745 220.037C202.096 217.524 209.076 213.287 216.367 210.47C218.547 209.627 220.928 208.366 223.095 207.395L266.817 188.141C274.427 184.821 280.702 181.734 288.63 178.515Z" fill="#EDB078"/>
<path d="M221.904 168.499L222.185 168.672C222.72 169.624 222.462 198.418 222.76 202.735C218.07 204.16 213.782 206.439 209.392 208.574C204.135 211.131 198.683 213.671 193.125 215.492L192.773 215.401C192.151 214.443 192.677 186.802 192.752 183.122C202.234 179.021 212.477 172.863 221.904 168.499Z" fill="#118D90"/>
<path d="M211.565 185.518C211.221 184.668 210.927 184.203 211.065 183.308L211.441 182.909C212.924 182.992 213.644 184.084 213.851 185.475C217.637 188.714 215.569 190.072 213.784 193.57C213.132 194.849 212.553 196.33 211.119 196.819C210.494 196.571 210.699 196.671 210.307 195.89C210.381 193.018 214.572 190.891 214.131 188.544C212.744 187.398 211.433 188.514 209.484 188.123L209.317 187.605C209.89 186.293 210.318 186.186 211.565 185.518Z" fill="#D4F8F5"/>
<path d="M211.565 185.518C211.221 184.668 210.927 184.203 211.065 183.308L211.441 182.909C212.924 182.992 213.644 184.084 213.851 185.475C212.915 185.629 212.487 185.573 211.565 185.518Z" fill="#76E3F5"/>
<path d="M204.807 188.877L205.345 189.15C205.381 190.941 201.664 193.441 201.075 195.649C202.066 197.929 204.827 196.175 206.429 196.832C206.463 197.563 206.225 197.583 205.657 198.354C205.363 198.848 205.145 198.967 204.698 199.313C199.496 200.358 197.961 192.932 204.807 188.877Z" fill="#D4F8F5"/>
<path d="M102.662 132.363C110.222 135.736 117.688 139.315 125.052 143.096C127.587 144.381 130.005 145.346 132.49 146.79L132.707 165.895C132.753 169.941 132.893 175.822 132.549 179.766C125.029 175.614 117.068 172.228 109.349 168.464C107.163 167.398 104.836 166.501 102.538 165.711C102.159 157.082 101.984 140.508 102.662 132.363Z" fill="#B364D1"/>
<path d="M125.814 162.796C126.578 162.908 126.976 162.945 127.701 163.189C128.363 163.855 128.399 163.974 128.658 164.883C128.429 165.659 128.655 165.354 127.903 165.784C125.972 165.917 122.71 163.592 121.926 161.952C121.952 159.294 127.799 157.708 124.825 155.222C123.507 155.352 124.561 155.966 123.126 156.392L122.755 156.001C122.56 155.145 122.59 155.028 122.808 154.172C124.912 151.805 130.145 155.624 127.409 158.169C126.405 159.102 129.007 160.004 127.788 161.357C127.672 162.342 127.849 162.197 127.293 162.745L125.814 162.796Z" fill="#F9E6F6"/>
<path d="M125.814 162.796C124.912 162.272 124.596 162.016 124.28 161.147C125.044 159.644 126.803 160.787 127.788 161.357C127.672 162.342 127.849 162.197 127.293 162.746L125.814 162.796Z" fill="#884CBB"/>
<path d="M111.092 154.76C110.318 156.021 111.159 156.975 110.419 157.806L109.858 157.834C108.241 156.654 107.829 151.289 108.814 149.625L109.247 149.581C110.135 150.449 110.881 152.33 111.111 153.55C113.101 153.072 114.208 150.392 116.64 150.657C117.474 151.661 117.249 158.321 116.554 159.684C115.873 160.201 116.249 160.095 115.38 159.987L114.628 159.425C114.434 158.014 114.778 156.222 114.872 154.739L111.092 154.76Z" fill="#F9E6F6"/>
<path d="M117.751 159.567C118.888 159.619 120.033 160.037 120.678 161.008L120.513 161.603C120.38 161.653 120.247 161.699 120.113 161.743C119.097 162.078 118.79 162.088 117.959 161.66C117.526 160.812 117.642 160.568 117.751 159.567Z" fill="#F9E6F6"/>
<path d="M266.515 138.406C270.62 136.384 274.692 134.296 278.73 132.143C279.042 142.59 279.275 155.303 279.025 165.777C271.362 168.697 264.21 172.591 256.712 175.909C254.16 177.039 251.652 178.717 249.086 179.833C248.979 169.014 248.751 157.078 248.995 146.334C253.002 144.65 257.725 142.801 261.382 140.563C262.397 139.445 265.092 138.737 266.515 138.406Z" fill="#3178D1"/>
<path d="M261.382 140.563C262.397 139.445 265.092 138.736 266.515 138.406C267.167 141.292 267.06 143.524 266.325 146.327C260.24 150.374 261.155 144.739 261.382 140.563Z" fill="#2F247D"/>
<path d="M260.468 153.672L260.723 153.855C261.238 155.165 259.638 158.438 259.073 159.9C259.933 161.62 260.958 162.197 260.29 164.123C259.468 164.805 259.768 164.753 258.848 164.866C257.418 163.229 257.383 162.736 255.533 161.511C256.49 159.614 259.198 155.327 260.468 153.672Z" fill="#D4F8F5"/>
<path d="M271.905 151.294C272.372 151.765 273.07 152.405 272.965 153.121C272.455 156.592 268.93 160.919 266.135 162.821C267.305 160.257 268.662 157.918 269.905 155.394C270.465 154.257 270.615 153.383 271.03 152.383L271.905 151.294Z" fill="#D4F8F5"/>
<path d="M269.642 149.472C270.74 150.165 270.987 150.407 271.905 151.294L271.03 152.383C268.635 151.768 269.062 152.955 266.837 152.755L266.732 152.441C267.377 151.315 268.642 150.343 269.642 149.472Z" fill="#D4F8F5"/>
<path d="M159.238 168.687C164.664 171.797 170.769 174.485 176.453 177.144C179.721 178.673 186.121 182.391 189.307 183.184C188.952 193.595 189.65 204.98 189.317 215.589C185.603 213.737 181.769 212.492 178.065 210.813C171.857 207.999 165.415 205.193 159.266 202.271C159.101 194.915 159.04 187.556 159.084 180.198C159.095 176.581 159.006 172.252 159.238 168.687Z" fill="#25B89C"/>
<path d="M164.23 186.362C165.157 185.616 164.75 185.761 165.799 185.625C166.376 185.856 166.838 186.01 167.363 186.355C167.396 188.152 167.875 192.11 166.517 193.24C165.705 193.423 165.636 193.348 164.819 193.037C164.121 192.218 164.515 192.069 164.134 190.715C163.564 190.312 163.508 190.28 163.041 189.771C162.843 188.43 163.547 187.53 164.23 186.362Z" fill="#D4F8F5"/>
<path d="M164.23 186.362C165.157 185.616 164.75 185.761 165.799 185.625C166.377 185.856 166.839 186.01 167.363 186.355C166.788 187.266 166.734 187.111 165.764 187.262C164.904 187 164.779 187.018 164.23 186.362Z" fill="#C9F7F6"/>
<path d="M168.906 194.332C169.976 192.583 172.161 191.168 172.148 189.575C171.23 189.086 170.162 189.39 169.096 189.598C168.945 189.039 170.02 186.633 170.774 186.668C174.527 186.844 175.705 190.096 173.074 192.767C172.17 193.685 171.404 193.543 170.706 194.113C170.125 194.437 169.589 194.343 168.906 194.332Z" fill="#C9F7F6"/>
<path d="M183.622 195.233C185.958 197.364 185.582 199.653 182.604 200.782C180.615 200.187 178.463 199.998 178.04 197.657C179.239 196.558 181.343 198.89 183.164 198.209C183.329 197.573 182.906 196.98 182.456 196.523C182.753 195.775 182.933 195.728 183.622 195.233Z" fill="#D4F8F5"/>
<path d="M170.706 194.113C172.647 194.288 175.798 196.112 177.364 197.259C175.29 197.11 171.345 196.413 169.407 195.518C168.932 195.299 168.998 194.886 168.906 194.332C169.589 194.344 170.125 194.437 170.706 194.113Z" fill="#D4F8F5"/>
<path d="M178.561 194.365C178.184 190.147 183.198 190.856 183.605 192.55C182.916 192.99 180.868 193.374 179.678 193.826C179.263 194 178.942 194.117 178.561 194.365Z" fill="#D4F8F5"/>
<path d="M178.562 194.365C178.943 194.117 179.263 194 179.678 193.826C181.337 194.684 181.8 193.978 183.622 195.233C182.934 195.728 182.754 195.775 182.457 196.523C180.9 196.604 179.552 195.419 178.562 194.365Z" fill="#C9F7F6"/>
<path d="M215.688 131.498C217.368 132.419 219.1 133.324 220.824 134.159C229.051 138.147 237.017 142.716 245.31 146.542C245.615 149.906 245.468 156.385 245.452 159.949C245.424 166.311 245.697 173.489 245.394 179.759C240.051 177.414 231.27 172.992 226.209 170.192C226.017 168.316 225.976 165.754 225.851 163.794C221.888 161.392 219.841 160.527 215.476 158.704C215.477 150.47 215.177 139.507 215.688 131.498Z" fill="#34A6E5"/>
<path d="M240.395 158.272C241.04 158.392 241.208 158.412 241.835 158.677C241.804 159.186 241.77 160.279 241.699 160.733C243.645 170.891 235.767 165.102 235.085 162.707C235.227 161.766 235.043 162.07 235.692 161.505C236.49 161.616 236.141 161.445 236.715 162.141L236.838 163.123C237.079 161.997 237.253 161.908 238.178 161.435C237.251 161.022 236.736 160.901 236.473 159.885L236.796 159.482C237.752 159.038 238.29 159.205 239.316 159.35C239.433 159.264 240.243 158.425 240.395 158.272Z" fill="#76E3F5"/>
<path d="M240.395 158.272C241.04 158.392 241.208 158.412 241.835 158.677C241.804 159.186 241.77 160.279 241.699 160.733L240.98 160.496C240.696 161.622 240.779 162.054 239.497 162.345L238.452 161.458L238.178 161.435C237.251 161.022 236.736 160.901 236.473 159.885L236.796 159.482C237.752 159.038 238.29 159.205 239.316 159.35C239.433 159.264 240.243 158.425 240.395 158.272Z" fill="#D4F8F5"/>
<path d="M240.395 158.272C241.04 158.392 241.208 158.412 241.835 158.677C241.804 159.186 241.77 160.279 241.699 160.733L240.98 160.496L240.227 159.939C240.033 159.752 239.569 159.501 239.316 159.35C239.433 159.264 240.243 158.425 240.395 158.272Z" fill="#2D95D5"/>
<path d="M238.178 161.435L238.452 161.458L239.497 162.345C239.228 163.264 239.445 162.988 238.753 163.528C237.968 163.653 237.552 163.556 236.838 163.123C237.079 161.996 237.253 161.908 238.178 161.435Z" fill="#3178D1"/>
<path d="M226.446 151.014C228.4 149.035 231.025 150.196 232.218 152.175C232.146 152.899 231.938 154.544 232.002 155.193L231.981 156.378C231.525 156.791 231.779 156.667 231.209 156.799L228.219 156.271C227.712 155.58 227.257 155.805 226.619 154.894C225.812 153.742 226.22 152.378 226.446 151.014Z" fill="#2D95D5"/>
<path d="M226.446 151.015C226.503 151.807 226.536 152.295 226.685 153.072C227.228 153.181 226.974 153.213 227.47 152.981C228.908 153.772 230.451 154.704 232.002 155.193L231.981 156.378C231.525 156.791 231.779 156.667 231.209 156.799L228.219 156.271C227.712 155.58 227.257 155.806 226.619 154.894C225.812 153.742 226.22 152.378 226.446 151.015Z" fill="#C9F7F6"/>
<path d="M226.446 151.014C228.4 149.035 231.026 150.196 232.218 152.175L232.01 152.169C230.213 152.103 228.183 151.028 227.471 152.981C226.975 153.213 227.228 153.181 226.685 153.072C226.536 152.295 226.503 151.807 226.446 151.014Z" fill="#D4F8F5"/>
<path d="M221.704 147.892L222.393 148.422C223.119 149.806 224.249 155.712 224.141 157.263C223.524 157.237 222.948 156.632 222.355 156.191C221.101 155.09 219.585 154.465 219.235 152.937C219.675 152.075 219.818 152.178 220.711 151.618C220.945 150.447 221.171 148.92 221.704 147.892Z" fill="#C9F7F6"/>
<path d="M231.238 159.231L231.716 159.389C232.132 159.988 232.344 160.755 231.886 161.369C230.313 161.367 227.237 159.791 226.107 158.737C226.236 157.631 226.399 157.071 226.691 156.022L227.023 155.909L227.543 156.54L228.219 156.27L231.209 156.798L231.238 159.231Z" fill="#C9F7F6"/>
<path d="M228.219 156.271L231.209 156.799L231.238 159.232C229.717 158.533 228.028 158.176 227.543 156.541L228.219 156.271Z" fill="#2D95D5"/>
<path d="M240.395 158.272L240.104 158.172C238.233 157.547 236.395 157.938 235.665 157.485C235.427 156.97 235.518 157.231 235.688 156.492C238.006 153.7 241.109 155.39 241.835 158.677C241.209 158.412 241.04 158.392 240.395 158.272Z" fill="#D4F8F5"/>
<path d="M282.688 132.625L308.26 142.776C313.59 144.871 317.783 146.212 322.98 148.881C322.085 149.611 321.153 150.285 320.188 150.923C315.908 153.757 312.013 157.079 307.76 159.949C305.365 161.59 302.748 163.753 300.365 165.513C296.708 168.162 293.015 170.762 289.288 173.312C285.403 171.348 283.93 171.022 280.223 168.314C281.133 167.977 281.445 167.842 282.28 167.351C283.165 166.239 282.785 156.896 282.78 154.887L282.688 132.625Z" fill="#F7B16F"/>
<path d="M154.842 137.536C158.271 135.958 162.198 134.019 165.013 131.479C165.826 140.847 165.178 149.085 165.737 157.948C164.194 158.745 161.295 160.256 159.694 160.77C154.064 162.577 155.395 166.246 155.002 171.029C147.625 173.755 142.831 176.804 136.331 179.6C136.254 168.636 135.864 157.159 136.261 146.274C139.752 144.466 143.968 142.975 147.202 141.025C148.535 140.089 153.24 137.938 154.842 137.536Z" fill="#884CBB"/>
<path d="M147.203 141.026C148.535 140.089 153.24 137.938 154.842 137.536L154.971 147.284C152.544 147.979 149.32 149.522 147.303 151.051C147.275 147.928 147.352 144.085 147.203 141.026Z" fill="#2F247D"/>
<path d="M98.1997 133.264C98.6447 133.871 98.4002 162.975 98.9002 166.834C99.9687 168.158 100.426 168.67 101.686 169.798C98.0239 170.369 95.5942 171.96 92.4187 173.754C87.2987 169.224 80.7657 164.884 75.1177 160.865C69.2774 156.75 64.2284 152.678 58.2119 148.714L98.1997 133.264Z" fill="#F5BC82"/>
<path d="M190.635 151.108C197.815 153.656 205.076 158.682 212.27 161.598C214.433 162.475 217.628 164.602 219.829 165.786C215.818 167.122 213.145 168.47 209.339 170.349C208.027 171.284 204.281 173.339 202.773 173.601C198.994 175.197 193.965 177.861 190.263 179.742C184.632 176.694 180.29 174.631 174.511 171.965C168.838 169.348 166.947 167.709 160.686 165.748C164.655 163.049 170.387 160.535 174.802 158.686C175.638 158.002 178.255 156.74 179.279 156.34C182.729 154.463 186.867 152.148 190.635 151.108Z" fill="#78ECA8"/>
<path d="M174.802 158.686C178.856 162.951 200.958 171.244 202.773 173.601C198.994 175.197 193.965 177.861 190.263 179.742C184.632 176.694 180.29 174.631 174.511 171.965C168.838 169.348 166.947 167.709 160.686 165.748C164.655 163.049 170.387 160.535 174.802 158.686Z" fill="#78ECA8"/>
<path d="M174.802 158.685C175.638 158.002 178.255 156.739 179.279 156.34C185.813 159.673 192.719 162.657 199.286 166C202.441 167.606 206.101 168.791 209.339 170.349C208.027 171.284 204.281 173.339 202.773 173.6C200.958 171.244 178.856 162.951 174.802 158.685Z" fill="#17B6A6"/>
<path d="M247.025 114.566C251.492 115.988 255.312 118.429 259.485 120.39C265.25 123.101 270.705 125.843 276.32 128.877C273.312 130.342 268.327 132.731 265.52 134.369C264.08 135.303 261.147 136.706 259.535 137.352C255.255 139.223 251.377 141.538 246.973 143.155C243.964 140.868 236.39 137.717 232.677 135.822C229.043 133.967 222.748 130.064 219.234 128.767C223.032 126.325 227.516 124.098 231.602 122.206C232.387 121.69 234.333 120.863 235.273 120.434C239.503 118.073 242.607 116.516 247.025 114.566Z" fill="#76E3F5"/>
<path d="M219.234 128.767C223.032 126.324 227.516 124.098 231.602 122.205C233.786 124.705 252.572 133.111 256.167 135.413C257.17 136.055 259.037 136.576 259.535 137.352C255.255 139.222 251.377 141.538 246.973 143.155C243.964 140.868 236.39 137.716 232.677 135.821C229.043 133.967 222.748 130.063 219.234 128.767Z" fill="#76E3F5"/>
<path d="M235.273 120.434C235.936 121.26 240.791 122.235 242.013 123.001C245.492 125.182 264.007 132.288 265.52 134.368C264.08 135.303 261.147 136.705 259.535 137.352C259.037 136.576 257.17 136.055 256.167 135.413C252.572 133.111 233.786 124.705 231.602 122.205C232.387 121.689 234.333 120.862 235.273 120.434Z" fill="#2D95D5"/>
<path d="M134.313 114.477C139.153 116.121 142.126 118.246 146.467 120.273C152.304 122.999 157.397 125.705 163.091 128.688C159.261 130.337 155.083 132.926 151.603 134.331C150.815 135.061 147.502 136.766 146.532 136.936C142.815 138.549 137.897 141.1 134.205 142.999C130.331 140.436 123.026 137.611 118.686 135.327C114.7 133.23 110.155 130.381 106.213 128.628L106.071 128.296L106.547 127.858C108.658 127.342 115.71 123.537 118.47 122.35C119.375 121.652 121.448 120.793 122.514 120.361C126.916 117.786 129.519 116.189 134.313 114.477Z" fill="#EC99E8"/>
<path d="M118.47 122.351C121.433 124.766 130.037 128.479 133.69 130.4C136.439 131.846 139.711 133.42 142.424 134.948C143.168 135.367 146.395 136.837 146.532 136.937C142.815 138.549 137.897 141.1 134.205 143C130.331 140.436 123.026 137.612 118.686 135.328C114.7 133.23 110.155 130.381 106.213 128.628L106.071 128.297L106.547 127.859C108.658 127.342 115.71 123.538 118.47 122.351Z" fill="#EC99E8"/>
<path d="M118.47 122.351C119.375 121.652 121.448 120.794 122.514 120.361C124.266 121.285 128.279 122.552 129.404 123.153C133.048 125.098 149.408 132.148 151.603 134.332C150.815 135.062 147.502 136.766 146.532 136.937C146.395 136.838 143.168 135.367 142.424 134.948C139.711 133.42 136.439 131.846 133.69 130.4C130.037 128.479 121.433 124.766 118.47 122.351Z" fill="#884CBB"/>
<path d="M275.83 171.723C276.735 171.674 282.49 174.919 283.735 175.579C274.948 179.83 266.055 183.865 257.07 187.681C254.058 188.982 250.935 190.135 247.933 191.46L233.862 197.735C231.565 198.77 228.864 200.154 226.57 201.006C226.149 200.26 226.265 199.177 226.261 198.266L226.287 174.816C232.28 178.036 238.166 181.274 244.435 183.944C245.424 184.365 246.262 184.881 247.1 185.55C253.39 182.412 259.653 179.182 265.965 176.105C269.143 174.555 272.585 173.191 275.83 171.723Z" fill="#9E5646"/>
<path d="M105.788 172.52C108.869 171.794 128.067 182.684 133.176 184.55C133.271 184.584 133.364 184.625 133.46 184.656C135.713 185.396 151.729 176.7 154.982 175.177L155.178 198.927C155.196 199.582 155.293 200.011 154.935 200.541C152.715 200.234 137.573 193.095 134.687 191.814C132.091 190.661 126.708 188.614 124.022 187.439C115.128 183.621 106.339 179.564 97.665 175.27C100.162 174.561 103.286 173.385 105.788 172.52Z" fill="#9E5646"/>
<path d="M222.382 116.965C223.5 116.843 226.986 118.628 228.326 119.192C222.488 122.585 217.633 122.879 212.09 128.165C211.633 132.163 211.764 137.762 211.75 141.883C209.44 140.748 207.317 139.512 204.906 138.554C202.402 137.39 197.778 135.121 195.285 134.427C203.513 128.502 213.758 122.898 222.382 116.965Z" fill="#F7B16F"/>
<path d="M192.621 137.533C198.374 139.481 205.059 144.187 211.51 145.63C211.562 149.321 211.539 153.013 211.441 156.704C210.496 156.389 206.666 154.094 205.481 153.529C201.258 151.519 197.003 149.329 192.743 147.401C192.737 144.112 192.697 140.822 192.621 137.533Z" fill="#9E5646"/>
<path d="M158.438 116.738C159.811 117.396 162.89 119.995 164.385 121.094C170.851 125.845 179.742 129.596 185.866 134.514C183.259 135.734 180.047 136.857 177.312 137.883C174.82 138.955 172.335 140.042 169.856 141.143C169.717 137.415 170.676 127.21 167.701 125.723C163.574 123.659 157.547 121.457 153.24 119.086C154.83 118.465 156.851 117.466 158.438 116.738Z" fill="#F7B16F"/>
<path d="M187.872 137.992C188.233 137.998 188.05 137.96 188.396 138.257C188.682 140.095 188.649 145.124 188.684 147.21C182.568 150.182 176.747 152.317 170.595 155.293L169.963 155.424C169.421 154.648 169.729 146.717 169.754 145.232C175.482 144.296 182.393 140.546 187.872 137.992Z" fill="#9E5646"/>
<path d="M106.213 128.628C104.93 128.586 102.767 128.971 101.835 128.182L102.094 127.879C104.2 127.277 104.437 127.321 106.547 127.858L106.071 128.296L106.213 128.628Z" fill="#6B7A86" fill-opacity="0.984314"/>
<path d="M189.96 47.7437C192.333 47.4607 197.985 50.9702 200.42 52.141C204.361 54.0362 208.475 56.0412 212.32 58.1127C217.061 60.6667 221.986 62.1695 225.958 65.8882C226.678 78.4542 225.97 93.082 226.239 105.848C219.268 109.011 212.361 113.07 205.36 116.386C200.225 118.818 197.406 120.986 191.612 122.509C187.307 123.087 181.214 118.477 177.293 116.737C172.169 114.463 167.065 111.979 162.161 109.259C160.031 108.078 157.846 106.872 155.489 106.237C155.325 95.6057 155.419 85.003 155.412 74.373C155.41 71.2445 155.35 68.1115 155.558 64.9892C158.259 62.8985 163.512 60.8627 166.779 59.3107C174.032 55.8652 182.785 50.7057 189.96 47.7437Z" fill="#07113D"/>
<path d="M215.748 73.145C216.713 72.5347 221.052 70.2525 222.043 70.556C222.32 74.368 222.207 79.3387 222.209 83.2432L222.255 103.377C218.319 105.251 214.225 107.078 210.341 109.01C204.409 111.96 198.686 115.253 192.392 117.467C192.522 106.562 192.574 95.657 192.549 84.752C198.539 82.3302 204.647 78.4757 210.644 75.7847C211.835 75.2505 214.88 73.4215 215.748 73.145Z" fill="#DA7853"/>
<path d="M215.749 73.145C216.713 72.5347 221.053 70.2525 222.043 70.556L222.017 70.8257C221.783 73.4212 222.172 91.3105 221.792 92.1977C221.223 86.7455 220.769 81.4172 220.883 75.938C220.901 75.0805 221.004 71.9015 220.766 71.3815C219.115 71.8822 216.956 73.2287 215.749 73.145Z" fill="#FC894C"/>
<path d="M205.044 91.1758L205.835 91.4348C206.483 93.13 199.975 95.5343 201.625 98.3908C203.589 99.533 204.758 98.3683 206.332 98.6335L206.371 99.1013C205.084 99.899 203.764 100.409 202.235 100.387C200.599 100.362 200.028 98.848 200.258 97.4295C200.711 94.6478 202.915 92.7808 205.044 91.1758Z" fill="white"/>
<path d="M214.077 88.3467L214.375 87.9902C215.246 89.3552 215.291 90.7747 215.671 92.4147C214.697 94.0385 211.733 97.6937 209.693 97.6425C209.451 96.1292 212.707 93.6435 213.727 92.568L214.077 88.3467Z" fill="white"/>
<path d="M214.077 88.346C213.016 88.7383 211.235 89.519 210.185 89.273C210.347 87.7953 213.067 85.5228 214.533 85.3008C215.437 85.9458 215.019 87.2693 214.375 87.9895L214.077 88.346Z" fill="white"/>
<path d="M159.318 69.6689C164.993 72.9202 170.174 75.5654 176.062 78.3752C180.311 80.4034 184.418 82.7102 188.756 84.6797C188.985 95.5984 188.762 106.586 188.864 117.504C182.343 114.649 176.943 112.019 170.63 108.72C166.38 106.499 163.567 105.516 159.326 102.84C159.146 95.3892 159.099 87.9354 159.185 80.4827C159.203 77.0547 159.067 73.0342 159.318 69.6689Z" fill="#F7B16F"/>
<path d="M164.804 86.3779C166.701 87.0189 166.134 89.9709 167.043 91.6199C167.801 92.1844 167.392 92.0524 168.293 92.0834C170.064 90.9382 170.346 86.1379 173.749 89.6004C175.336 91.2154 172.904 93.1702 173.058 94.7084C173.293 97.0582 176.591 96.3529 176.179 99.4004C173.585 98.8892 173.038 98.6682 171.372 96.6469C171.32 94.4337 171.444 91.6749 171.49 89.4322C170.393 91.5289 169.219 93.1867 168.147 95.3697C166.946 94.4294 165.773 93.4067 164.611 92.4159C164.456 90.3472 164.331 88.4082 164.804 86.3779Z" fill="#FBF9D7"/>
<path d="M181.952 94.7637C180.886 94.1775 178.808 93.5275 178.92 92.2827C180.096 91.726 182.129 92.2925 183.101 93.086C183.941 93.6975 184.083 93.7275 184.462 94.6442C184.531 97.5442 181.224 97.639 180.391 99.1282C182.009 99.8615 183.706 100.224 184.759 101.739L184.798 102.159C182.961 103.424 179.061 100.745 177.565 99.5712C178.417 98.1102 179.167 97.084 180.578 96.1072C181.32 95.5942 181.619 95.5982 181.952 94.7637Z" fill="#FBF9D7"/>
<path d="M191.023 52.3809C192.029 53.0179 193.24 53.6124 194.35 54.0446C198.406 55.6239 202.164 58.1261 206.096 59.8926C211.087 62.1354 215.403 64.2676 220.074 67.1491C216.386 68.4911 212.14 70.5509 208.574 72.2419C207.289 73.1384 204.495 74.5916 203.014 75.2854C198.967 77.3206 194.915 78.4689 190.917 81.0824C184.748 77.8579 178.165 75.1649 171.945 71.9091C167.967 69.8269 165.592 69.0006 161.901 66.1736C165.662 63.8876 171.404 61.3879 175.464 59.8361C176.217 59.3306 177.56 58.7489 178.416 58.3426C183.473 55.6016 185.963 54.6494 191.023 52.3809Z" fill="#FED676"/>
<path d="M175.464 59.8359C179.424 62.4552 202.082 73.7477 203.014 75.2852C198.967 77.3204 194.915 78.4687 190.917 81.0822C184.748 77.8577 178.165 75.1647 171.945 71.9089C167.967 69.8267 165.592 69.0004 161.901 66.1734C165.662 63.8874 171.404 61.3877 175.464 59.8359Z" fill="#FED676"/>
<path d="M175.464 59.8363C176.217 59.3308 177.561 58.749 178.416 58.3428C179.768 58.708 180.928 58.3773 181.895 58.662C183.175 59.0388 184.911 60.1583 186.233 60.6493C192.979 63.5743 199.085 67.7318 205.854 70.5795C207.31 71.192 207.402 71.2778 208.574 72.242C207.29 73.1385 204.495 74.5918 203.014 75.2855C202.082 73.748 179.424 62.4555 175.464 59.8363Z" fill="#FC894C"/>
<path d="M251.373 74.7979C253.165 75.0981 257.62 77.9086 258.803 79.2289C261.81 82.5906 254.263 86.5681 251.88 88.1816C251.948 86.1556 252.048 85.3213 252.44 83.3321C248.956 83.6688 245.636 83.2319 241.631 83.7826C241.115 88.4896 241.315 95.3423 241.325 100.169C242.843 99.5521 243.866 98.8884 245.374 99.3896C246.547 100.585 245.678 102.271 244.897 103.512C242.829 105.688 241.146 106.596 238.595 108.108C237.036 106.466 233.193 102.329 232.855 100.318C233.431 98.4476 235.82 99.6311 237.231 100.065C237.218 95.3818 237.013 90.3124 237.342 85.6716C237.891 77.9354 247.241 78.7421 252.563 79.5196C251.94 77.6136 251.67 76.7911 251.373 74.7979Z" fill="#07113D"/>
<path d="M124.491 82.6174C137.442 82.4052 146.227 80.1739 143.82 97.1089C143.685 98.0544 143.552 98.9822 143.366 99.9307C144.678 98.9277 146.123 97.4119 147.777 98.2847C148.973 100.902 144.276 105.978 141.83 107.133C141.628 107.111 141.152 106.972 140.931 106.915C139.474 105.468 138.128 103.679 136.689 102.173C135.8 101.243 135.015 100.288 135.612 99.0292C137.092 98.2294 138.256 98.7762 139.976 99.1747C140.033 96.4869 141.169 86.3799 137.31 86.2282C132.339 86.0324 126.968 86.6274 121.966 86.0289L121.612 85.9847C121.375 84.7594 121.108 84.0729 121.601 83.0322C122.42 82.5367 123.482 82.6417 124.491 82.6174Z" fill="#07113D"/>
</svg>
