<svg width="380" height="380" viewBox="0 0 380 380" fill="none" xmlns="http://www.w3.org/2000/svg">
<path d="M86.3156 62.4947C89.4923 61.542 102.338 51.8787 106.425 49.422C130.635 34.8705 163.014 25.9975 191.243 26.5455C214.006 26.9415 236.46 31.8767 257.29 41.062C261.783 43.0825 276.688 50.5672 279.65 53.6407C285.44 52.1435 290.275 49.3705 295.345 46.2C297.218 45.0292 299.253 43.139 301.165 42.0467C303.278 43.4075 305.26 45.0185 307.253 46.382C314.08 51.0545 321.625 53.8782 329.828 54.8787C331.28 55.056 334.038 55.4322 335.438 55.8707C338.378 58.9677 338.088 62.7317 337.995 66.8497C337.78 76.5882 337.05 87.2025 333.25 96.2837C331.998 99.2792 329.885 102.033 328.54 104.925C331.543 108.362 334.875 115.329 336.94 119.538C349.575 145.24 355.128 173.845 353.028 202.407C351.93 218.989 348.23 235.295 342.065 250.727C340.538 254.462 333.01 270.845 330.715 273.385C330.335 275.42 330.513 281.79 330.53 284.152L330.64 303.78C330.655 308.51 331.423 313.16 328.058 316.857C324.468 317.432 320.095 317.277 316.403 317.275L300.11 317.235C297.42 317.227 293.823 317.127 291.23 317.495C289.563 320.455 281.24 325.697 278.153 327.705C255.208 342.672 228.856 351.597 201.541 353.655C160.745 356.592 121.747 343.892 89.5856 319.015C85.3266 315.72 81.9231 312.475 77.9051 309L74.8131 309.105C74.3866 311.93 74.1831 313.647 73.2738 316.377C69.8933 318.512 58.1451 319.022 54.7796 316.99C54.0733 316.065 53.7648 314.262 53.6848 313.11C53.3768 308.68 51.8503 305.2 55.0431 301.45C57.5781 298.475 60.3271 295.495 62.6846 292.41C61.8483 291.137 60.9453 289.8 60.0338 288.585C54.6566 281.41 49.7366 274.015 45.4696 266.112C29.7458 236.682 23.6541 203.059 28.0531 169.982C31.3656 143.245 41.5071 117.121 57.4316 95.2947C58.9108 93.2675 60.2078 91.2505 62.4638 90.038L62.5306 86.404C63.7611 84.0347 64.3493 83.7287 66.7423 82.922L65.0728 79.3162C63.7826 77.3557 64.7198 66.8787 64.3808 63.9522C63.5778 57.0172 68.9088 56.7425 74.2596 56.6467C78.7518 56.5662 81.8516 56.6897 85.2301 59.9727C85.7243 60.9157 86.0428 61.4447 86.3156 62.4947Z" fill="#0B133D"/>
<path d="M86.3156 62.4947C89.4923 61.542 102.338 51.8787 106.425 49.422C130.635 34.8705 163.014 25.9975 191.243 26.5455C214.006 26.9415 236.46 31.8767 257.29 41.062C261.783 43.0825 276.688 50.5672 279.65 53.6407C285.44 52.1435 290.275 49.3705 295.345 46.2C297.218 45.0292 299.253 43.139 301.165 42.0467C303.278 43.4075 305.26 45.0185 307.253 46.382C314.08 51.0545 321.625 53.8782 329.828 54.8787C331.28 55.056 334.038 55.4322 335.438 55.8707C338.378 58.9677 338.088 62.7317 337.995 66.8497C337.78 76.5882 337.05 87.2025 333.25 96.2837C331.998 99.2792 329.885 102.033 328.54 104.925C331.543 108.362 334.875 115.329 336.94 119.538C349.575 145.24 355.128 173.845 353.028 202.407C351.93 218.989 348.23 235.295 342.065 250.727C340.538 254.462 333.01 270.845 330.715 273.385C329.365 266.252 332.918 257.627 327.99 252.347C324.635 251.822 320.383 252.042 316.93 252.015C310.653 251.962 304.323 252.127 298.043 252C292.375 246.106 290.948 241.597 282.73 240.594C282.69 244.398 282.688 248.202 282.723 252.007C277.775 251.867 272.778 252.057 267.82 252.045C274.803 239.205 281.06 225.432 284.423 211.15C291.825 211.152 301.365 210.95 308.615 211.315C312.288 213.694 313.933 217.516 317.72 220.425C311.835 227.806 316.018 236.972 325.725 236.427C331.248 236.117 334.853 230.713 333.675 225.446C332.365 219.174 327.513 217.787 321.97 217.995C319.093 215.335 313.685 209.023 310.893 207.267C309.02 206.091 289.588 206.55 286.095 206.569C286.975 202.775 287.603 198.838 288.415 195.006C299.325 194.982 312.375 195.235 323.153 194.762C324.823 197.744 327.155 200.785 330.605 201.747C338.415 203.923 345.87 194.118 340.9 187.327C334.975 179.228 327.475 181.997 323.588 190.116C312.628 190.488 300.288 190.168 289.198 190.2C289.963 186.177 290.443 182.105 290.633 178.014C294.633 177.995 307.955 178.207 311.41 177.661C314.428 175.052 319.683 169.695 322.073 166.469C328.075 167.43 332.58 165.143 333.688 158.867C335.23 150.118 324.85 144.931 318.29 150.523C313.418 154.678 314.575 159.885 318.145 164.429C314.613 167.305 312.018 171.933 309.265 173.701C302.995 174.164 296.428 173.515 290.775 173.886C290.94 165.448 291.985 131.949 287.403 127.085C286.465 126.091 284.753 125.473 283.468 125.079C277.093 123.126 270.313 122.323 263.86 120.58C257.795 118.942 251.608 116.049 245.432 115.044C245.314 108.026 245.299 100.875 243.349 94.0632C240.39 83.7265 235.966 75.5042 228.22 68.0082C216.949 57.1012 204.033 52.5097 188.449 52.7522C174.412 52.8547 160.999 58.565 151.196 68.612C139.409 80.8422 134.238 95.8282 134.584 112.749C134.6 113.493 134.634 114.238 134.686 114.981C127.803 117.219 121.053 119.62 113.975 121.215C108.941 122.349 99.7161 123.418 95.4366 125.128C93.8498 125.763 92.6681 126.773 91.8971 128.325C88.6048 134.95 88.0773 165.786 89.2198 173.892C84.8481 173.843 80.4946 173.857 76.1058 173.82C73.5636 173.799 71.0368 173.594 69.1016 171.712C66.7311 169.407 64.6386 166.218 62.1821 164.091C67.9046 157.742 64.0066 147.819 55.1186 148.078C50.4116 148.215 45.6486 153.207 46.3008 158.008C46.9871 163.223 51.0956 167.289 56.5143 166.688C57.0676 166.623 57.6188 166.542 58.1676 166.446C60.1278 169.115 66.5056 175.81 69.1571 177.636C73.8968 178.002 84.7603 178.101 89.5586 177.77C89.9008 181.94 90.3146 186.103 90.7996 190.259C83.8876 190.106 76.9738 190.046 70.0603 190.079C65.9028 190.099 60.7236 190.27 56.6571 190.063C54.7441 184.662 50.5561 181.178 44.5031 183.125C40.1501 184.524 36.5641 190.844 38.3986 195.241C40.3103 199.912 45.3456 203.669 50.4638 201.468C53.2158 200.284 55.4131 197.394 57.0568 194.949C59.6361 194.719 62.1701 194.828 64.7526 194.858C73.6511 194.961 82.6608 195.228 91.5481 194.745C92.2118 197.901 93.3098 203.87 94.2456 206.781C87.5326 206.353 80.6783 206.605 73.9531 206.467C71.7276 206.421 69.5356 206.518 67.9203 208.204C64.6523 211.616 61.5283 215.177 58.2606 218.601C55.7193 217.926 53.3778 217.659 51.0101 219.085C44.2523 223.157 44.7178 234.217 53.0076 236.221C58.0793 237.447 63.7216 234.028 64.8401 228.865C65.5368 225.647 64.2841 223.019 62.5753 220.341L62.7921 220.173C65.6411 217.919 67.3606 214.371 70.3146 212.234C73.0138 210.281 91.2818 211.234 95.5738 211.268C96.7306 215.406 97.8193 219.089 99.3751 223.112C100.861 226.955 102.584 230.739 103.988 234.594C98.4018 236.56 96.4541 237.896 91.5026 241.107C85.2433 237.67 79.2051 236.393 72.3098 238.49C65.3478 240.608 60.7523 243.786 57.2668 250.257C54.0311 256.162 53.3613 263.137 55.4138 269.55C57.4278 276.18 62.0096 281.73 68.1388 284.962C68.4876 285.142 68.8458 285.3 69.2121 285.44C66.2991 287.617 64.8378 290.51 62.6846 292.41C61.8483 291.137 60.9453 289.8 60.0338 288.585C54.6566 281.41 49.7366 274.015 45.4696 266.112C29.7458 236.682 23.6541 203.059 28.0531 169.982C31.3656 143.245 41.5071 117.121 57.4316 95.2947C58.9108 93.2675 60.2078 91.2505 62.4638 90.038L62.5306 86.404C63.7611 84.0347 64.3493 83.7287 66.7423 82.922L65.0728 79.3162C63.7826 77.3557 64.7198 66.8787 64.3808 63.9522C63.5778 57.0172 68.9088 56.7425 74.2596 56.6467C78.7518 56.5662 81.8516 56.6897 85.2301 59.9727C85.7243 60.9157 86.0428 61.4447 86.3156 62.4947Z" fill="#EE5C5C"/>
<path d="M301.165 42.0469C303.278 43.4076 305.26 45.0186 307.253 46.3821C314.08 51.0546 321.625 53.8784 329.828 54.8789C331.28 55.0561 334.038 55.4324 335.438 55.8709C338.378 58.9679 338.088 62.7319 337.995 66.8499C337.78 76.5884 337.05 87.2026 333.25 96.2839C331.998 99.2794 329.885 102.034 328.54 104.925C322.75 113.125 317.355 118.029 308.63 123.101C306.18 124.525 303.995 125.793 301.3 126.729C297.728 125.285 293.995 123.127 290.723 121.093C278.46 113.471 269.245 101.331 266.003 87.2326C264.93 82.5691 262.408 60.8114 264.72 57.5131C266.893 54.4136 275.775 54.5649 279.408 53.7001L279.65 53.6409C285.44 52.1436 290.275 49.3706 295.345 46.2001C297.218 45.0294 299.253 43.1391 301.165 42.0469Z" fill="#0B133D"/>
<path d="M300.973 47.3555C303.428 48.827 305.888 50.8052 308.47 52.3385C313.97 55.6025 319.115 56.8792 325.175 58.63C327.96 59.1807 330.73 59.8095 333.48 60.5157C334.19 78.905 332.948 95.6682 319.293 109.443C315.135 113.637 306.655 120.396 301.213 122.17C287.908 116.275 277.233 105.834 271.82 92.193C271.68 91.84 271.61 91.682 271.565 91.3005C268.188 84.9882 267.703 67.6187 268.168 60.352C282.095 57.7917 289.468 55.9195 300.973 47.3555Z" fill="#DD4458"/>
<path d="M300.973 47.3555C303.428 48.827 305.888 50.8052 308.47 52.3385C313.97 55.6025 319.115 56.8792 325.175 58.63L324.983 58.8842C325.96 59.235 325.948 59.049 326.43 59.738C326.393 61.217 324.93 60.6597 324.12 61.6925C323.603 62.3552 323.308 63.379 322.683 63.74C316.085 62.1195 310.32 60.6532 304.62 56.9492C303.525 56.2372 302.193 54.6535 300.963 55.007C300.945 58.5282 300.093 69.5735 301.95 72.0297C298.558 72.004 294.72 75.1155 294.46 78.6362C294.308 80.7027 296.425 83.04 297.628 84.6345C297.333 86.3542 297.093 88.083 296.908 89.8182L296.62 88.8185C295.928 91.4387 296.303 94.3847 295.54 96.3917C293.938 97.205 284.478 100.899 283.068 100.295C281.51 99.6282 277.808 90.544 277.183 90.1932L276.685 89.2935C275.293 90.283 272.945 88.5167 271.638 89.9722L271.565 91.3005C268.188 84.9882 267.703 67.6187 268.168 60.352C282.095 57.7917 289.468 55.9195 300.973 47.3555Z" fill="#F98657"/>
<path d="M300.973 47.3555C303.428 48.827 305.888 50.8052 308.47 52.3385C313.97 55.6025 319.115 56.8792 325.175 58.63L324.983 58.8842C325.96 59.235 325.948 59.049 326.43 59.738C326.393 61.217 324.93 60.6597 324.12 61.6925C323.603 62.3552 323.308 63.379 322.683 63.74C316.085 62.1195 310.32 60.6532 304.62 56.9492C303.525 56.2372 302.193 54.6535 300.963 55.007C297.693 59.0727 279.503 64.2942 274.175 65.1825C274.505 75.394 274.385 79.322 276.685 89.2935C275.293 90.283 272.945 88.5167 271.638 89.9722L271.565 91.3005C268.188 84.9882 267.703 67.6187 268.168 60.352C282.095 57.7917 289.468 55.9195 300.973 47.3555Z" fill="#C5DAED"/>
<path d="M325.175 58.6299C327.96 59.1806 330.73 59.8094 333.48 60.5156C334.19 78.9049 332.947 95.6681 319.292 109.443C315.135 113.637 306.655 120.396 301.212 122.17C287.907 116.275 277.232 105.834 271.82 92.1929C271.68 91.8399 271.61 91.6819 271.565 91.3004L271.637 89.9721C272.945 88.5166 275.292 90.2829 276.685 89.2934L277.182 90.1931C277.807 90.5439 281.51 99.6281 283.067 100.295C284.477 100.899 293.937 97.2049 295.54 96.3916C296.302 94.3846 295.927 91.4386 296.62 88.8184L296.907 89.8181C296.752 91.1256 296.1 94.8181 296.767 95.7589L297.375 95.9591C298.675 96.0856 299.442 96.1079 300.75 96.0884C300.565 102.319 300.927 108.165 301.1 114.417C302.91 114.537 309.71 107.999 310.487 108.736C325.587 97.7429 327.81 82.1256 327.51 64.9014C325.797 64.6124 324.35 64.1969 322.682 63.7399C323.307 63.3789 323.602 62.3551 324.12 61.6924C324.93 60.6596 326.392 61.2169 326.43 59.7379C325.947 59.0489 325.96 59.2349 324.982 58.8841L325.175 58.6299Z" fill="#8DAEDB"/>
<path d="M277.183 90.1931C277.808 90.5439 281.51 99.6281 283.068 100.295C284.478 100.899 293.938 97.2049 295.54 96.3916C296.303 94.3846 295.928 91.4386 296.62 88.8184L296.908 89.8181C296.753 91.1256 296.1 94.8181 296.768 95.7589L297.375 95.9591C298.675 96.0856 299.443 96.1079 300.75 96.0884C300.565 102.319 300.928 108.165 301.1 114.417C302.91 114.537 309.71 107.999 310.488 108.736C308.245 110.893 303.823 113.899 301.045 115.295C291.585 110.686 283.3 103.585 278.525 94.0199C278.01 92.9866 277.313 91.3294 277.183 90.1931Z" fill="#F14F50"/>
<path d="M301.95 72.0295C308.665 74.8925 308.312 79.5397 304.357 84.7282C305.19 87.858 305.785 92.5922 306.08 95.8467C303.327 95.8115 300.067 95.6902 297.375 95.959L296.767 95.7587C296.1 94.818 296.752 91.1255 296.907 89.818C297.092 88.0827 297.332 86.354 297.627 84.6342C296.425 83.0397 294.307 80.7025 294.46 78.636C294.72 75.1152 298.557 72.0037 301.95 72.0295Z" fill="#0B133D"/>
<path d="M65.0729 79.3166C63.7827 77.3561 64.7199 66.8791 64.3809 63.9526C63.5779 57.0176 68.9089 56.7428 74.2597 56.6471C78.7519 56.5666 81.8517 56.6901 85.2302 59.9731C85.7244 60.9161 86.0429 61.4451 86.3157 62.4951L85.6694 70.1506L87.0409 70.2718C94.4034 70.3003 101.696 70.5261 109.058 70.5016C110.109 67.7833 111.887 64.2043 114.658 63.3518C131.65 58.1251 132.121 86.4871 114.772 81.2546C112.247 80.4933 110.316 77.6051 109.329 75.0693C102.308 74.8358 94.7709 74.8118 87.7232 74.8048C87.6904 80.5436 87.7259 86.0373 88.1867 91.7651C88.2807 92.9361 88.0697 94.1636 88.1662 95.1253C88.7167 97.8913 93.5942 98.7458 96.0489 99.5023C98.0999 93.7276 102.706 90.7893 108.975 92.7563C113.508 94.1786 116.111 101.079 114.15 105.318C111.986 109.93 106.405 112.501 101.714 110.003C99.7944 108.981 97.2392 107.262 96.5399 105.19C96.3719 104.678 96.2239 104.159 96.0957 103.634C94.8374 103.271 94.1137 103.583 92.9622 103.246C91.9372 102.947 88.3434 100.691 87.5799 100.524C87.1939 100.439 83.4572 101.203 82.5114 101.243C78.1182 101.428 73.7984 101.507 69.4032 101.493C69.4724 102.946 69.6404 114.073 70.0014 114.554C71.9914 115.413 73.5109 115.846 74.8497 117.699C76.8862 120.518 77.8327 124.081 76.4559 127.485C72.9944 136.046 62.2889 135.847 58.7392 127.533C56.6289 122.591 59.9459 115.99 65.5069 114.583C65.4759 108.876 65.3992 103.17 65.2767 97.4636C68.7414 97.7193 83.0874 98.6418 85.5847 96.9991C85.7052 96.7101 85.8509 96.3943 85.9407 96.0988C85.7809 92.6736 85.3777 90.0686 83.7382 87.0618C79.8129 86.4693 71.7962 86.0151 68.0319 86.6643C66.5559 87.8298 64.3544 90.6818 62.4639 90.0383L62.5307 86.4043C63.7612 84.0351 64.3494 83.7291 66.7424 82.9223L65.0729 79.3166Z" fill="#0B133D"/>
<path d="M65.0729 79.3166C63.7827 77.3561 64.7199 66.8791 64.3809 63.9526C63.5779 57.0176 68.9089 56.7428 74.2597 56.6471C78.7519 56.5666 81.8517 56.6901 85.2302 59.9731C85.7244 60.9161 86.0429 61.4451 86.3157 62.4951L85.6694 70.1506L87.0409 70.2718C85.8079 70.4221 84.4887 70.6316 83.2544 70.5941L83.2497 71.5178C81.5142 71.5343 78.7237 71.6508 77.0972 71.3676C76.0627 70.5231 70.5202 70.9536 68.8007 71.0456L68.7142 73.9693C68.4367 75.7896 68.5439 77.0706 68.3967 78.7618C67.4327 78.9116 65.9752 79.0988 65.0729 79.3166Z" fill="white"/>
<path d="M65.0729 79.3166C63.7827 77.3561 64.7199 66.8791 64.3809 63.9526C63.5779 57.0176 68.9089 56.7428 74.2597 56.6471C78.7519 56.5666 81.8517 56.6901 85.2302 59.9731C83.8804 60.9933 83.6964 60.8026 81.9127 60.7301C79.5962 60.5501 76.6494 60.5611 74.4682 60.3193C65.8107 59.3596 66.5987 63.1833 69.1964 69.9778C69.0797 70.3671 69.0169 70.7183 68.8007 71.0456L68.7142 73.9693C68.4367 75.7896 68.5439 77.0706 68.3967 78.7618C67.4327 78.9116 65.9752 79.0988 65.0729 79.3166Z" fill="#081A41"/>
<path d="M85.2301 59.9727C85.7244 60.9157 86.0428 61.4447 86.3156 62.4947L85.6693 70.1502C83.2996 69.2339 83.4371 69.4094 82.9454 66.8992C82.9959 65.1389 83.7596 62.1904 83.1133 61.0202L81.9126 60.7297C83.6963 60.8022 83.8804 60.9929 85.2301 59.9727Z" fill="#3C273A"/>
<path d="M69.196 69.9774C71.6553 70.0099 74.0183 70.0384 76.478 69.9736C78.7633 70.1856 80.9655 70.5239 83.254 70.5936L83.2493 71.5174C81.5138 71.5339 78.7233 71.6504 77.0968 71.3671C76.0623 70.5226 70.5198 70.9531 68.8003 71.0451C69.0165 70.7179 69.0793 70.3666 69.196 69.9774Z" fill="#5C1621"/>
<path d="M76.478 69.9739C78.8903 69.5724 81.2765 68.7859 82.945 66.8994C83.4368 69.4097 83.2993 69.2342 85.669 70.1504L87.0405 70.2717C85.8075 70.4219 84.4883 70.6314 83.254 70.5939C80.9655 70.5242 78.7633 70.1859 76.478 69.9739Z" fill="#DD4458"/>
<path d="M68.8005 71.0448C70.52 70.9528 76.0625 70.5223 77.097 71.3668C76.8953 72.8933 76.2943 79.5783 76.588 80.8233C76.2948 81.4981 76.2725 81.9051 75.4955 82.1451C73.3743 82.8006 71.09 82.6493 68.8323 83.0513C67.864 83.3288 67.708 83.2503 66.7423 82.9216L65.0728 79.3158C65.975 79.0981 67.4325 78.9108 68.3965 78.7611C68.5438 77.0698 68.4365 75.7888 68.714 73.9686L68.8005 71.0448Z" fill="#F98657"/>
<path d="M68.714 73.9688L68.8323 83.0515C67.864 83.329 67.708 83.2505 66.7423 82.9217L65.0728 79.316C65.975 79.0983 67.4325 78.911 68.3965 78.7612C68.5438 77.07 68.4365 75.789 68.714 73.9688Z" fill="#2A4169"/>
<path d="M77.0972 71.3672C78.7237 71.6504 81.5142 71.5339 83.2497 71.5174L82.9365 83.1019C80.3945 82.9772 78.1815 83.1884 76.5882 80.8237C76.2945 79.5787 76.8955 72.8937 77.0972 71.3672Z" fill="#F4615A"/>
<path d="M104.253 96.0148C106.884 95.9433 109.369 97.1123 110.37 99.6748C110.921 101.059 110.858 102.612 110.197 103.948C109.272 105.799 108.206 106.095 106.416 106.673C104.37 106.784 102.215 106.332 101.127 104.495C98.7471 100.477 101.385 97.9668 104.253 96.0148Z" fill="#80C9ED"/>
<path d="M66.8264 118.463C70.4036 118.839 72.1531 120.253 73.0681 123.728C72.4171 127.113 71.8724 127.868 68.7194 129.219C61.8904 129.907 59.8999 122.209 66.8264 118.463Z" fill="#F98657"/>
<path d="M117.47 67.3374C120.207 66.7762 122.886 68.5197 123.481 71.2494C124.077 73.9792 122.366 76.6799 119.644 77.3092C117.853 77.7232 115.978 77.1419 114.735 75.7872C113.492 74.4327 113.074 72.5144 113.64 70.7654C114.206 69.0164 115.669 67.7069 117.47 67.3374Z" fill="#FDAC68"/>
<path d="M130.429 275.44C133.169 279.703 138.073 283.723 141.921 287.095C150.566 294.673 159.948 301.703 170.095 307.22C176.172 310.168 182.668 313.44 189.036 315.645C191.567 316.52 198.959 312.36 201.342 311.328C208.757 308.118 216.399 304.008 222.997 299.388C230.594 294.07 239.608 287.03 245.573 279.985C245.255 287.92 245.66 296.33 245.588 304.375C245.564 307.033 244.976 313.58 246.818 315.958C249.881 318.213 258.905 317.41 262.785 317.37L282.947 317.273C284.387 317.26 290.027 317.128 291.23 317.495C289.562 320.455 281.24 325.698 278.152 327.705C255.207 342.673 228.856 351.598 201.541 353.655C160.745 356.593 121.746 343.893 89.5853 319.015C85.3263 315.72 81.9228 312.475 77.9048 309C80.2813 307.668 82.4325 308.758 83.4753 305.213C84.268 302.52 84.364 299.725 85.3863 297.118C89.2235 297.378 89.7573 296.925 92.807 294.575C96.7915 299.033 97.7973 299.928 103.739 300.543C103.976 303.168 103.827 306.76 104.644 309.033C107.807 310.08 109.616 309.813 112.738 310.133C112.771 312.278 112.528 316.468 114.316 318.23C116.609 320.49 129.407 321.345 131.571 319.465C133.274 317.985 133.897 310.348 133.6 308.093C133.572 306.125 132.128 304.325 130.843 302.938C126.17 297.893 121.694 292.688 117.224 287.463C116.528 286.65 115.766 285.908 114.93 285.243C120.526 283.715 126.603 279.738 130.429 275.44Z" fill="#DD4458"/>
<path d="M232.293 146.899C237.535 146.63 244.514 145.813 248.266 149.579C250.722 151.716 251.772 154.903 251.725 158.11C251.605 165.914 251.892 173.751 251.79 181.552C251.555 191.148 252.77 201.35 250.207 210.722C247.367 221.103 243.052 229.983 235.828 237.884C212.116 263.815 172.395 265.735 147.183 240.756C135.436 229.118 127.428 212.753 128.275 195.772C128.065 187.63 128.455 179.345 128.333 171.188C128.293 168.477 128.306 165.595 128.45 162.9C127.996 158.703 128.278 152.656 131.499 149.619C132.699 148.343 134.075 147.56 135.879 147.354C141.727 146.686 148.091 146.913 153.981 146.909L185.56 146.852C201.138 146.966 216.715 146.981 232.293 146.899Z" fill="#F06760"/>
<path d="M207.009 151.305L223.446 151.348C225.983 151.34 230.001 151.172 232.437 151.341L232.645 151.42C232.561 161.939 232.898 172.418 232.795 182.986C232.703 192.566 233.171 204.18 230.431 213.422C228.528 219.839 223.057 227.349 218.462 232.146C212.343 238.534 198.782 245.241 190.18 245.934C190.536 240.496 190.256 231.953 190.245 226.24C192.259 226.267 201.343 226.799 202.354 225.584C202.236 224.919 202.091 223.588 201.72 223.114L201.656 223.689C201.473 223.029 201.501 223.039 201.061 222.463C199.989 214.526 198.494 206.653 196.582 198.877C204.071 194.112 205.053 184.652 199.251 177.97C196.61 174.927 193.111 174.117 189.226 173.953C189.971 173.85 190.165 173.815 190.877 173.582C189.536 167.673 190.241 159.802 190.012 153.421C190.018 152.644 190.043 152.368 190.184 151.603C191.411 151.325 194.446 151.453 195.842 151.437C199.569 151.397 203.277 151.503 207.009 151.305Z" fill="#DD4458"/>
<path d="M232.644 151.42C237.102 151.34 241.167 151.191 245.626 151.551C246.364 153.693 246.813 155.72 246.845 158.001C246.927 164.693 246.425 171.403 246.271 178.102C246.036 188.27 246.706 198.93 245.343 209.01C244.562 214.79 239.767 224.229 236.358 229.081C229.786 238.436 219.115 246.507 208.333 250.342C202.184 252.495 196.43 253.48 189.956 253.685C189.864 252.075 189.32 247.046 190.18 245.934C198.782 245.241 212.342 238.534 218.462 232.146C223.057 227.349 228.528 219.839 230.431 213.422C233.171 204.181 232.702 192.566 232.795 182.986C232.897 172.418 232.561 161.939 232.644 151.42Z" fill="#BD3163"/>
<path d="M189.226 173.953C193.111 174.117 196.61 174.927 199.251 177.969C205.053 184.652 204.071 194.112 196.582 198.876C198.494 206.653 199.989 214.526 201.061 222.462C193.778 222.724 186.183 222.268 178.901 222.574C178.346 221.419 182.847 201.735 183.478 198.587C179.169 196.005 177.304 193.943 176.706 188.745C176.328 185.176 177.387 181.604 179.651 178.818C182.171 175.676 185.315 174.361 189.226 173.953Z" fill="#0B133D"/>
<path d="M128.451 162.9C127.996 158.703 128.278 152.657 131.499 149.619C132.699 148.343 134.075 147.56 135.879 147.354C141.727 146.686 148.091 146.913 153.981 146.91L185.56 146.853C186.285 147.247 189.327 147.103 190.35 147.1C190.344 148.252 190.171 149.669 190.782 150.535C191.649 151.243 191.926 150.83 192.83 151.21C179.321 151.477 165.831 151.262 152.322 151.33C144.404 151.206 133.447 148.592 133.233 159.384C132.896 160.885 133.131 163.992 132.863 164.802L132.644 163.88C131.916 163.635 131.699 163.69 130.861 164.108C130.142 164.459 129.463 164.886 128.836 165.381L128.703 169.494C128.657 167.958 128.638 164.23 128.451 162.9Z" fill="#FFD4B3"/>
<path d="M185.56 146.853C201.138 146.966 216.715 146.981 232.293 146.899L232.904 147.2C233.293 148.789 233.244 149.502 233.083 151.07L232.437 151.341C230 151.172 225.983 151.34 223.445 151.348L207.009 151.305C202.688 150.983 197.368 151.502 192.83 151.21C191.925 150.83 191.649 151.243 190.782 150.535C190.171 149.669 190.344 148.252 190.35 147.1C189.326 147.103 186.284 147.247 185.56 146.853Z" fill="#FEB198"/>
<path d="M192.83 151.21C197.368 151.502 202.688 150.983 207.009 151.305C203.277 151.503 199.569 151.397 195.841 151.437C194.446 151.453 191.411 151.325 190.184 151.603C190.042 152.368 190.018 152.644 190.011 153.421C189.579 155.174 189.646 164.119 189.608 166.47C189.289 165.811 189.708 161.359 189.448 160.232C189.058 158.542 187.152 159.926 185.426 159.853C178.583 159.563 171.472 157.254 165.055 154.935C164.155 154.61 162.59 152.482 161.979 151.773C160.247 151.189 153.36 152.025 152.322 151.33C165.831 151.262 179.32 151.477 192.83 151.21Z" fill="#FDAC68"/>
<path d="M128.835 165.381C129.463 164.885 130.142 164.459 130.861 164.108C131.699 163.69 131.916 163.634 132.644 163.879L132.862 164.802C133.131 163.992 132.896 160.885 133.233 159.384C133.499 168.751 133.069 178.272 133.159 187.653C133.178 189.601 133.063 191.568 132.849 193.504C132.024 189.958 134.319 184.586 132.068 181.27L131.96 181.835C130.844 181.98 130.444 181.662 129.899 182.378C127.922 184.977 129.528 194.64 128.563 195.888L128.275 195.772C128.065 187.63 128.455 179.345 128.333 171.188C128.293 168.477 128.306 165.595 128.45 162.9C128.637 164.229 128.657 167.958 128.703 169.494L128.835 165.381Z" fill="#FEB198"/>
<path d="M201.06 222.463C201.5 223.039 201.473 223.029 201.655 223.69C201.759 224.614 201.803 224.853 201.655 225.764C200.95 226.299 178.808 225.576 178.346 225.168C178.14 224.256 178.237 223.277 178.901 222.575C186.183 222.269 193.778 222.724 201.06 222.463Z" fill="#FA8B7B"/>
<path d="M145.11 166.419C144.774 173.275 145.145 180.718 144.308 187.69C144.177 188.51 143.673 189.43 142.905 189.845C138.832 192.048 138.689 184.598 138.684 182.681C138.662 174.414 138.169 166.298 138.301 158.085C138.313 157.333 140.706 156.508 141.306 156.294C146.621 157.716 145.31 160.203 144.996 164.816C145.028 165.177 145.133 166.109 145.11 166.419Z" fill="#FEB198"/>
<path d="M144.996 164.816C145.029 165.178 145.133 166.109 145.11 166.419C143.591 166.428 142.187 166.602 141 165.67L141.097 165.419C142.303 165.306 143.878 165.23 144.996 164.816Z" fill="#FA8B7B"/>
<path d="M245.242 136.561C249.673 137.235 266.883 141.355 270.225 143.205C270.935 145.963 271.365 153.004 271.523 155.872C272.045 163.01 270.975 170.065 270.553 177.131C269.82 189.404 267.83 199.47 263.968 211.133C257.68 230.741 247.202 248.747 233.263 263.905C223.278 274.807 211.526 283.19 198.562 290.172C196.211 291.437 192.847 293.652 190.153 293.697C184.83 293.787 165.343 280.307 160.799 276.85C157.966 274.695 155.225 272.237 152.627 269.802C149.458 266.832 146.549 263.357 143.702 260.077C129.489 243.687 122.743 229.804 115.967 209.346C113.837 202.916 111.15 194.39 110.933 187.656C110.967 187.702 111.004 187.747 111.036 187.794C112.73 190.275 113.215 204.526 115.966 205.227C118.708 205.927 121.383 203.733 122.846 204.07L123.328 203.32C123.433 203.634 123.421 203.745 123.672 203.971C123.825 201.496 123.048 196.005 123.766 193.871C124.232 205.355 124.592 214.795 129.92 225.276C138.555 242.26 152.506 254.225 170.524 260.117C187.245 265.585 203.209 264.337 219.006 256.642C233.149 249.753 247.45 234.312 252.55 219.52C254.093 214.979 255.11 210.277 255.585 205.505C256.613 195.413 255.99 184.299 256.075 174.085C255.85 167.785 256.448 161.277 255.92 155.008C255.315 147.783 251.49 144.779 245.307 142.649C245.191 140.666 245.236 138.556 245.242 136.561Z" fill="#4365B7"/>
<path d="M183.003 57.6588C192.46 55.4156 208.013 59.2656 216.171 64.3091C226.792 70.8746 236.762 83.3276 238.896 95.8176C240.76 104.183 240.571 111.591 240.65 120.06C240.787 127.449 240.731 134.84 240.48 142.225C235.135 142.351 229.788 142.375 224.441 142.295C223.996 135.231 224.213 124.656 224.236 117.266C224.751 103.511 223.598 91.1923 212.578 81.4073C206.412 75.9321 196.615 72.6391 188.033 73.1243C173.809 73.9288 160.428 84.9201 156.544 98.6096C154.327 106.423 155.992 117.432 155.509 125.58C155.474 130.266 155.385 138.012 155.664 142.438C150.388 142.301 145.111 142.258 139.834 142.309C139.827 140.791 139.737 137.999 139.827 136.572C139.743 130.931 139.849 125.081 139.772 119.593C139.57 105.05 139.419 92.6611 147.976 80.2043C153.085 72.7653 157.629 68.3656 165.461 63.5228C169.928 61.0113 177.914 58.2496 183.003 57.6588Z" fill="#86ADD2"/>
<path d="M183.003 57.6588C192.46 55.4156 208.013 59.2656 216.171 64.3091C226.792 70.8746 236.762 83.3276 238.896 95.8176L238.625 96.4601C237.834 93.2636 236.971 89.3673 235.412 86.5236L235.142 86.4636C233.701 88.0058 230.49 95.3631 230.826 97.1341C231.638 101.409 232.221 105.024 231.099 109.572C230.945 109.207 231.404 102.028 231.094 100.194C226.656 73.8801 197.701 57.8373 173.324 69.0001C154.638 77.5563 147.468 94.5353 148.569 114.057C148.661 115.678 148.66 119.928 148.265 121.38C148.176 119.13 148.718 113.233 147.796 112.065C145.755 112.069 143.416 115.741 141.627 116.79C141.339 116.686 141.091 116.597 140.884 116.522C140.16 117.253 140.351 117.395 140.325 118.599C140.171 125.576 140.408 132.891 140.186 139.816C140.151 138.99 140.213 137.109 139.827 136.572C139.743 130.931 139.849 125.081 139.772 119.593C139.57 105.05 139.419 92.6611 147.976 80.2043C153.085 72.7653 157.629 68.3656 165.461 63.5228C169.928 61.0113 177.914 58.2496 183.003 57.6588Z" fill="#D4E3EE"/>
<path d="M165.461 63.5232C169.928 61.0117 177.914 58.2499 183.003 57.6592L183.05 58.1177C179.98 61.4967 174.867 64.8134 170.215 65.0874C168.095 65.2122 166.874 63.5927 165.461 63.5232Z" fill="white"/>
<path d="M89.9842 269.625C89.3272 267.245 88.4987 264.48 88.2125 262.055C87.6207 256.662 89.233 251.26 92.6832 247.071C96.358 242.543 101.363 239.649 107.252 239.243C119.494 238.401 129.577 246.262 130.632 258.687C131.102 264.225 129.046 269.737 125.572 273.867C119.837 281.877 108.446 281.435 99.7775 280.222C99.4735 280.552 98.4985 281.652 98.2055 281.862C96.089 284.922 93.3622 287.032 91.7137 289.332C91.2717 289.782 89.9612 291.205 89.511 291.09C86.0642 290.225 85.814 290.04 84.4547 294.532C83.5237 294.627 81.798 294.76 80.9372 294.94C80.6415 296.132 80.3045 297.317 80.1862 298.537L79.7395 304.162C77.2935 304.42 74.0415 304.53 71.8052 305.117C70.9532 307.627 70.1357 311.33 68.788 313.367C66.0935 314.097 64.647 314.065 61.8312 314L58.5735 314.06C58.462 312.047 57.8117 306.032 58.6502 304.632C61.7297 299.352 67.2592 295.097 71.0685 290.47C76.7202 283.602 84.7555 276.59 89.9842 269.625Z" fill="#AEC6DB"/>
<path d="M96.7568 282.703C96.979 281.805 97.0258 280.77 97.2923 279.908C97.674 278.67 98.2253 277.835 98.5173 276.548C98.0858 276.165 97.9865 276.088 97.6175 275.623C98.198 275.408 103.508 275.518 104.744 275.445C106.983 275.298 109.201 274.923 111.364 274.328C116.077 273.068 118.587 271.36 122.636 269C123.051 268.758 126.783 269.73 127.364 270.243C126.863 271.288 126.103 272.373 125.46 273.358L125.572 273.868C119.837 281.878 108.446 281.435 99.7775 280.223C99.4735 280.553 98.4985 281.653 98.2055 281.863C96.089 284.923 93.3623 287.033 91.7138 289.333C90.479 288.253 88.8755 288.463 87.1768 288.408L87.1948 288.288C90.4793 288.3 93.105 284.71 96.1493 283.493C96.3568 283.41 96.6543 282.923 96.7568 282.703Z" fill="#86ADD2"/>
<path d="M78.9123 299.877L80.1861 298.537L79.7393 304.162C77.2933 304.42 74.0413 304.53 71.8051 305.117C70.9531 307.627 70.1356 311.33 68.7878 313.367C66.0933 314.097 64.6468 314.065 61.8311 314C63.0538 313.497 63.9601 313.635 65.3606 313.1C67.1996 311.285 65.9441 309.435 66.4586 308.105C67.5011 305.41 72.0118 301.817 74.3663 300.327L78.9123 299.877Z" fill="#86ADD2"/>
<path d="M74.3667 300.328C77.2112 298.04 76.0324 296.528 80.9374 294.94C80.6417 296.133 80.3047 297.318 80.1864 298.538L78.9127 299.878L74.3667 300.328Z" fill="#86ADD2"/>
<path d="M113.81 246.435C118.127 245.81 122.136 248.794 122.776 253.11C123.416 257.425 120.446 261.445 116.133 262.098C111.799 262.758 107.756 259.768 107.113 255.433C106.47 251.098 109.472 247.064 113.81 246.435Z" fill="#0B133D"/>
<path d="M113.757 250.772C117.899 250.317 120.97 255.302 115.993 257.515C114.284 257.515 112.686 257.435 111.613 255.862C111.168 255.222 111.018 254.422 111.203 253.665C111.568 252.145 112.54 251.507 113.757 250.772Z" fill="#DD4458"/>
<path d="M82.3948 282.253C82.2571 282.808 82.2091 282.813 82.3228 283.36C83.9093 284.613 85.0656 283.688 86.8609 283.675C86.1089 284.9 83.0701 287.585 81.8701 288.813C78.9306 291.823 76.0203 295.348 73.1093 298.28C69.3428 302.078 67.3611 302.33 64.1949 307.043C62.9856 307.925 61.0529 308.893 59.7354 307.63C60.0254 306.115 79.6591 285.63 82.3948 282.253Z" fill="#5D91CB"/>
<path d="M245.226 119.79C249.362 121.229 253.632 122.154 257.822 123.388C266.455 125.93 274.505 128.368 283.547 129.176C287.517 140.298 287.08 164.148 286.22 176.386C285.9 180.937 284.807 187.412 284.14 192.145C283.69 195.346 282.995 201.392 282.2 204.353C279.7 213.658 276.175 224.932 272.127 233.617C269.81 238.59 265.53 248.148 261.995 251.927C256.815 252.105 246.18 250.115 245.678 257.195C245.347 257.145 245.504 257.18 245.191 256.877C245.418 256.025 245.41 255.997 245.137 255.177C245.652 253.567 249.976 248.427 251.15 246.586C263.157 227.777 269.327 207.577 272.86 185.592C275.23 170.833 274.685 154.499 273.21 139.359C262.727 137.499 256.962 135.779 246.973 132.87C246.028 132.7 246.1 132.861 245.482 132.323C245.109 129.411 245.249 123.037 245.226 119.79Z" fill="#9FBEDF"/>
<path d="M245.482 132.324C245.541 131.611 245.593 130.898 245.639 130.185L245.8 130.304C246.408 130.747 246.456 130.801 247.15 131.034C247.371 131.796 247.175 132.023 246.973 132.87C246.028 132.7 246.1 132.861 245.482 132.324Z" fill="#D3E5F0"/>
<path d="M245.788 121.17C246.424 121.982 246.158 124.655 246.116 125.797L245.862 125.704C245.633 124.644 245.762 122.349 245.788 121.17Z" fill="#D3E5F0"/>
<path d="M132.564 271.895C134.485 266.813 135.647 260.023 134.123 254.74C138.632 259.343 142.712 264.505 147.383 269.235C155.837 277.798 163.197 283.375 173.54 289.48C179.247 292.848 183.342 295.42 189.864 297.618C194.513 296.408 200.504 293.053 204.709 290.68C222.177 280.823 232.411 270.168 245.137 255.178C245.41 255.998 245.418 256.025 245.191 256.878C245.504 257.18 245.348 257.145 245.678 257.195C245.471 260.945 246.202 271.158 244.877 273.893C243.767 276.183 241.548 278.178 239.773 279.958C235.208 284.54 230.145 288.695 224.942 292.535C218.651 297.18 197.217 311.04 189.764 310.785C186.809 310.683 183.234 308.658 180.571 307.435C162.117 298.968 146.512 286.518 132.564 271.895Z" fill="#7A9FCF"/>
<path d="M100.738 128.644C109.034 126.9 116.746 125.338 124.935 122.858C127.893 121.963 131.974 121.127 134.745 119.998L134.566 132.343C131.494 133.376 122.281 136.619 119.51 136.913C117.266 137.491 113.771 138.122 111.436 138.392C109.937 138.703 108.439 139.023 106.944 139.353C103.84 157.809 105.497 179.7 109.393 197.904C110.681 203.924 111.787 209.998 114.059 215.755C116.247 221.298 118.422 226.927 120.914 232.339C122.07 234.83 124.029 237.586 125.485 239.968C117.907 235.537 117.03 235.164 108.343 234.282C107.58 231.588 105.861 228.046 104.818 225.319C100.233 213.329 97.741 203.194 95.7457 190.588C92.4762 169.931 92.9235 151.867 95.7832 131.258C96.2812 128.52 98.3537 128.874 100.738 128.644Z" fill="#CDE0ED"/>
<path d="M111.436 138.392C111.244 138.345 111.095 138.258 110.924 138.16L110.944 138.283L110.8 138.18C111.249 137.996 111.225 137.999 111.589 137.673C110.938 137.594 110.93 137.625 110.34 137.274L110.346 136.77C111.661 135.727 112.454 136.21 113.637 137.108C114.524 137.78 117.893 136.504 119.51 136.913C117.266 137.491 113.771 138.122 111.436 138.392Z" fill="white"/>
<path d="M95.7832 131.258C96.2812 128.521 98.3537 128.875 100.738 128.645C100.092 129.326 98.0047 131.433 97.254 131.844C96.128 131.715 96.3825 131.92 95.7832 131.258Z" fill="white"/>
<path d="M189.739 111.825C191.073 112.276 195.558 114.979 197.201 115.855C202.853 118.867 208.513 121.701 214.369 124.318C216.17 125.123 217.939 126.379 219.748 127.17C219.738 132.166 219.662 137.361 219.768 142.34C209.86 142.439 199.951 142.424 190.044 142.293C180.391 141.971 170.391 142.676 160.289 142.272C160.261 137.266 160.258 132.259 160.281 127.252C161.718 126.857 164.834 125.101 166.349 124.403C174.41 120.691 182.077 116.311 189.739 111.825Z" fill="#5D91CB"/>
<path d="M160.281 127.252C161.718 126.857 164.834 125.101 166.349 124.403C174.41 120.691 182.077 116.311 189.739 111.825C190.238 113.129 189.906 138.272 190.044 142.293C180.391 141.971 170.391 142.676 160.289 142.272C160.261 137.266 160.258 132.259 160.281 127.252Z" fill="#80C9ED"/>
<path d="M134.672 136.542C134.586 138.652 134.503 140.369 134.625 142.484C131.073 143.996 126.697 145.959 125.494 150.13C122.446 160.698 124.389 175.112 123.846 186.271C123.733 188.606 124.021 191.847 123.765 193.871C123.048 196.005 123.825 201.497 123.672 203.972C123.421 203.745 123.433 203.634 123.327 203.32L122.846 204.071C121.383 203.734 118.708 205.927 115.966 205.228C113.214 204.526 112.729 190.276 111.036 187.794C111.004 187.747 110.967 187.702 110.933 187.656C110.575 186.496 110.311 181.982 110.186 180.481C109.393 170.968 108.99 161.61 109.526 152.07C109.698 149.021 109.66 145.883 110.104 142.851C118.872 141 126.325 138.382 134.672 136.542Z" fill="#86ADD2"/>
<path d="M286.812 246.111C291.53 251.127 295.877 256.112 296.112 263.372C296.21 266.37 296.33 269.325 296.657 272.31C299.76 269.907 301.032 268.492 303.32 265.417C305.105 268.942 306.422 271.265 307.277 275.195C309.14 285.315 305.837 291.225 297.507 296.655C298.562 293.04 299.262 289.947 297.415 286.41C296.045 283.785 291.935 280.23 290.812 277.817C290.022 276.857 288.447 273.81 287.772 272.58C286.75 273.74 285.752 275.36 284.887 276.675C283.735 278.78 282.16 281.482 280.675 283.337C276.77 288.22 276.577 290.312 278.36 296.405C278.407 296.57 278.457 296.735 278.507 296.9C272.09 292.567 267.01 286.97 268.467 278.63C268.2 273.812 271.822 269.432 274.932 266.115C274.955 267.672 275.175 269.22 275.362 270.765C282.205 262.51 286.675 257.617 286.812 246.111Z" fill="#F98657"/>
<path d="M307.277 275.195C309.14 285.315 305.838 291.225 297.508 296.655C298.563 293.04 299.263 289.948 297.415 286.41C296.045 283.785 291.935 280.23 290.812 277.818C292.247 278.508 293.795 281.185 294.728 282.02C295.503 282.718 303.028 283.628 304.008 283.615C304.3 284.063 304.597 284.505 304.905 284.943C305.587 285.065 305.24 285.088 305.957 284.73C308.172 281.445 306.38 277.553 307.277 275.195Z" fill="#F4615A"/>
<path d="M268.467 278.63C269.012 283.635 268.312 285.145 271.45 289.765C272.712 289.4 272.2 288.618 273.192 287.73C273.472 287.48 275.295 286.985 275.557 286.845C278.275 285.4 283.027 279.268 284.295 276.638L284.385 276.445L284.887 276.675C283.735 278.78 282.16 281.483 280.675 283.338C276.77 288.22 276.577 290.313 278.36 296.405C278.407 296.57 278.457 296.735 278.507 296.9C272.09 292.568 267.01 286.97 268.467 278.63Z" fill="#F4615A"/>
<path d="M67.709 279.702C64.6895 277.975 61.6378 273.817 60.269 270.615C55.6568 259.827 60.1413 248.164 70.986 243.5C77.0805 240.879 82.6115 241.385 88.6748 243.857C86.685 248.615 85.159 250.395 84.0203 255.845C83.5128 260.687 83.8843 263.507 85.269 268.205C82.6173 271.98 76.0575 278.577 72.6203 282C71.2018 281.452 68.8333 280.622 67.709 279.702Z" fill="#86ADD2"/>
<path d="M67.709 279.702C64.6895 277.975 61.6378 273.817 60.269 270.615C55.6568 259.827 60.1413 248.164 70.986 243.5C77.0805 240.879 82.6115 241.385 88.6748 243.857C86.685 248.615 85.159 250.395 84.0203 255.845C83.0813 255.487 82.2103 254.925 81.3388 254.412C77.928 246.475 65.4628 247.859 65.5018 257.95C64.6305 259.905 66.7808 262.15 66.5758 262.742C65.802 264.985 64.7818 268.182 64.3343 270.615C64.0028 270.975 63.883 271.15 63.4683 271.412C64.9453 273.61 68.406 276.357 68.9543 278.372C68.7383 279.07 68.4595 279.45 67.709 279.702Z" fill="#A8BED5"/>
<path d="M65.502 257.95C65.463 247.859 77.9283 246.475 81.339 254.412C81.8418 257.03 81.9613 258.987 80.4485 261.33C77.3713 266.097 68.5215 265.847 66.1695 260.48C65.8635 259.777 65.684 258.712 65.502 257.95Z" fill="#0B133D"/>
<path d="M72.6068 253.443C77.3318 253.413 78.7335 257.433 74.6523 260.675C71.8105 261.608 70.2785 259.483 70.4563 256.785C70.5658 255.128 71.4523 254.493 72.6068 253.443Z" fill="#DD4458"/>
<path d="M189.716 92.916C190.683 93.292 192.556 94.8095 193.622 95.4943C196.157 97.1105 198.737 98.6545 201.36 100.125C204.357 101.814 207.42 103.576 210.496 105.102C213.7 106.693 216.616 107.82 219.654 109.742C219.714 114.12 219.728 118.499 219.694 122.877C210.217 119.234 198.946 113.013 190.492 107.308C188.559 107.562 182.62 111.842 180.146 113.085C173.424 116.462 167.416 120.213 160.278 122.774C160.176 118.586 160.255 114.223 160.272 110.022C161.688 109.207 163.166 108.389 164.637 107.677C173.489 103.395 181.692 98.5443 189.716 92.916Z" fill="#D3E5F0"/>
<path d="M188.126 77.8498C194.793 77.2483 202.911 80.0081 208.084 84.0891C215.816 90.1873 218.208 95.6691 219.511 104.999C213.737 101.59 207.85 98.5438 202.051 95.1856C198.661 93.2226 195.207 91.1378 191.557 89.6931C186.878 88.4111 177.068 96.0826 172.743 98.3196C168.668 100.427 164.256 102.883 160.33 105.235C162.693 90.3361 172.622 79.2021 188.126 77.8498Z" fill="#F4615A"/>
<path d="M96.9443 291.625C99.7553 286.273 102.169 285.09 108.032 285.588C111.091 287.118 123.497 301.54 126.407 304.885C127.252 305.855 128.477 307.848 129.178 309.01C129.44 311.055 128.804 314.263 128.382 316.333C124.925 316.31 121.274 315.975 117.838 315.633C117.399 307.505 117.141 306.293 108.698 305.393C108.776 301.755 109.397 297.548 104.858 296.495C101.061 295.97 99.0173 294.988 96.9443 291.625Z" fill="#86ADD2"/>
<path d="M96.9443 291.625C99.7553 286.273 102.169 285.09 108.032 285.588C111.091 287.118 123.497 301.54 126.407 304.885C127.252 305.855 128.477 307.848 129.178 309.01C128.989 309.893 129.149 309.908 128.607 310.323C127.785 310.16 127.001 309.155 126.355 308.498L125.851 309.215C121.76 310.62 109.31 295.955 107.121 292.433C105.794 290.295 103.348 288.515 101.496 286.758C99.4413 288.565 98.7921 289.323 97.4431 291.695C98.5183 292.803 99.1653 293.565 100.453 294.468C102.174 295.675 103.576 295.343 104.858 296.495C101.061 295.97 99.0173 294.988 96.9443 291.625Z" fill="#5D91CB"/>
<path d="M108.032 285.588C111.091 287.118 123.497 301.54 126.407 304.885C127.252 305.855 128.477 307.848 129.178 309.01C128.989 309.893 129.149 309.908 128.607 310.323C127.785 310.16 127.001 309.155 126.355 308.498C119.623 302.06 112.763 292.718 106.229 286.14C106.676 285.663 107.255 285.718 108.032 285.588Z" fill="white"/>
<path d="M276.615 301.87C284.415 301.817 292.215 301.857 300.015 301.992C300.025 303.41 300.233 311.687 299.933 312.605C292.578 312.542 283.793 312.46 276.535 312.685C276.508 309.227 276.408 305.275 276.615 301.87Z" fill="#E85756"/>
<path d="M303.827 301.96C311.132 301.747 319.325 301.885 326.605 302.002C326.682 305.52 326.6 309.16 326.565 312.685C324.31 312.522 320.375 312.695 317.96 312.702C313.235 312.687 308.512 312.637 303.79 312.545C303.742 309.017 303.755 305.487 303.827 301.96Z" fill="#E25051"/>
<path d="M249.97 301.993C257.182 301.805 265.432 301.918 272.665 302C272.717 305.563 272.745 309.128 272.75 312.693C270.502 312.448 267.095 312.523 264.755 312.518C259.877 312.545 254.997 312.505 250.12 312.395C249.829 309.253 249.94 305.203 249.97 301.993Z" fill="#E55250"/>
<path d="M254.855 271.87C258.355 271.813 261.895 271.95 265.39 271.808C264.543 274.863 264.258 279.673 264.138 282.818L260.988 282.64C257.263 282.59 253.538 282.563 249.811 282.555C249.753 279.02 249.743 275.488 249.782 271.955L254.855 271.87Z" fill="#F4615A"/>
<path d="M311.522 271.837C316.647 271.772 321.557 271.907 326.682 272.052C326.68 275.632 326.7 279.212 326.74 282.79C323.715 282.327 315.58 282.452 312.2 282.46C312.027 278.845 311.877 275.442 311.522 271.837Z" fill="#F4615A"/>
<path d="M287.267 281.907C288.3 282.402 287.702 285.487 288.49 286.5C289.81 288.197 290.165 286.122 291.86 286.507C294.96 289.327 294.615 295.902 290.277 297.257C287.795 297.412 286.587 297.375 284.15 297.137C280.51 290.06 282.522 287.602 287.267 281.907Z" fill="#F4615A"/>
<path d="M262.877 256.612C267.405 256.595 276.72 256.917 280.682 256.482C279.257 258.425 278.317 259.83 277.072 261.892C276.647 260.245 276.742 259.17 275.097 258.557C272.137 260.562 269.987 264.907 266.365 267.185C265.287 267.23 264.092 267.212 263.005 267.217C262.845 263.847 262.655 259.982 262.877 256.612Z" fill="#F98657"/>
<path d="M316.91 286.77C319.395 286.762 321.88 286.72 324.36 286.86C325.205 286.825 325.925 286.672 326.595 287.112C326.945 290.095 326.438 294.335 326.738 297.785C323.42 297.607 320.058 297.615 316.733 297.585C316.76 294.562 316.64 289.627 316.91 286.77Z" fill="#DD4458"/>
<path d="M316.91 286.77C319.395 286.762 321.88 286.72 324.36 286.86L325.843 287.142C325.795 287.297 325.745 287.452 325.698 287.61C323.835 288.587 319.445 288.672 317.338 288.62C317.04 288.237 316.998 287.337 316.91 286.77Z" fill="#F4615A"/>
<path d="M316.685 256.75C320.028 256.697 323.37 256.722 326.71 256.82C326.708 260.367 326.743 263.912 326.815 267.46C324.918 267.112 319.028 267.245 316.788 267.257L316.685 256.75Z" fill="#F98657"/>
<path d="M249.99 286.722C253.168 286.667 256.345 286.66 259.523 286.702C259.485 290.21 259.405 293.72 259.28 297.225C256.243 297.317 253.053 297.267 250.003 297.265C249.954 293.777 249.99 290.217 249.99 286.722Z" fill="#F4615A"/>
<path d="M250.25 256.882C253.302 256.667 256.262 256.725 259.317 256.755C259.325 258.245 259.505 266.177 258.957 267.08C255.987 267.007 252.85 267.042 249.865 267.027C249.83 264.847 249.638 258.877 250.25 256.882Z" fill="#F98657"/>
<path d="M54.5024 221.768C58.6666 221.385 59.6381 223.946 60.5374 227.501C60.0329 229.858 59.1164 231.679 56.8646 232.787C49.9759 232.826 48.2189 224.542 54.5024 221.768Z" fill="#80C9ED"/>
<path d="M300.445 256.848C304.255 256.533 309.128 256.7 313.008 256.773C313.088 259.01 313.47 265.278 312.863 267.068L312.305 267.32C307.7 267.25 307.478 263.908 304.98 260.653C303.298 258.458 302.388 259.245 299.935 258.83L299.663 258.37C299.898 257.558 299.923 257.53 300.445 256.848Z" fill="#F98657"/>
<path d="M45.7259 187.271C49.0767 186.909 50.1534 187.59 52.1412 190.165C52.6637 193.3 52.5389 195.973 49.0742 197.052C48.2299 197.229 47.0979 197.324 46.2444 197.23C43.2147 196.894 41.7762 193.897 42.4634 191.124C43.0062 188.934 43.9704 188.373 45.7259 187.271Z" fill="#80C9ED"/>
<path d="M332.135 187.011C334.458 186.998 336.365 187.861 337.403 190.06C337.983 191.296 338.03 192.717 337.535 193.99C336.87 195.708 335.69 196.628 334.075 197.323C331.44 197.496 329.143 197.067 328.16 194.228C327.648 192.752 327.758 191.132 328.458 189.736C329.325 188.047 330.485 187.567 332.135 187.011Z" fill="#80C9ED"/>
<path d="M323.462 221.768C325.075 221.744 325.802 221.966 327.275 222.491C330.18 225.761 330.267 231.247 325.402 232.522C322.95 232.497 321.12 231.715 320.102 229.313C319.517 227.92 319.53 226.349 320.132 224.964C320.785 223.499 321.997 222.387 323.462 221.768Z" fill="#80C9ED"/>
<path d="M323.492 152.018C329.992 151.657 330.677 157.225 327.7 161.741C326.982 162.062 326.145 162.257 325.38 162.468C319.045 162.654 317.397 154.384 323.492 152.018Z" fill="#80C9ED"/>
<path d="M54.5917 152.02C61.2549 151.62 62.5017 159.597 56.9189 162.582C49.4529 162.597 48.6412 154.025 54.5917 152.02Z" fill="#80C9ED"/>
<path d="M263.388 286.562C266.193 287.03 266.995 291.487 268.543 293.742C269.37 294.95 270.255 296.46 271.05 297.715C268.935 297.487 265.645 297.542 263.428 297.525C263.3 294.277 263.193 289.757 263.388 286.562Z" fill="#F4615A"/>
<path d="M311.878 286.362L312.34 286.73C312.905 288.642 312.743 294.975 312.738 297.332C310.33 297.24 307.413 297.337 304.968 297.357L304.383 297.435L304.265 297.17C307.918 293.432 309.218 290.672 311.878 286.362Z" fill="#F4615A"/>
</svg>
