<svg width="2184" height="2184" viewBox="0 0 2184 2184" fill="none" xmlns="http://www.w3.org/2000/svg">
<path d="M324.935 1370.14C329.487 1369.47 666.68 1369.07 1096.94 1369.2L1860.94 1369.34L1872.27 1372.27C1910 1381.73 1938.27 1397.34 1963.6 1422.67C1989.87 1448.94 2006.27 1479.74 2014.54 1518C2017.87 1533.6 2017.87 1571.07 2014.54 1587.6C2006.94 1625.6 1988 1660 1960.4 1686.4C1934 1711.47 1901.34 1728.27 1865.6 1734.94C1853.47 1737.2 1817.07 1737.34 1092.27 1737.34C374.145 1737.34 330.936 1737.2 319.335 1735.07C272.802 1726.27 231.602 1700.67 203.468 1663.47C192.935 1649.47 178.803 1621.47 174.269 1605.34C163.736 1568.54 164.668 1528 176.935 1492.8C186.535 1465.33 200.269 1443.34 220.802 1422.67C249.202 1394.27 285.469 1375.87 324.935 1370.14ZM615.269 1597C587.655 1597 565.269 1619.39 565.269 1647C565.269 1674.61 587.655 1697 615.269 1697C642.883 1697 665.269 1674.61 665.269 1647C665.269 1619.39 642.883 1597 615.269 1597ZM474.269 1566C441.132 1566 414.269 1592.86 414.269 1626C414.269 1659.14 441.132 1686 474.269 1686C507.406 1686 534.269 1659.14 534.269 1626C534.269 1592.86 507.406 1566 474.269 1566ZM1632.27 1429C1563.79 1429 1508.27 1484.52 1508.27 1553C1508.27 1621.48 1563.79 1677 1632.27 1677C1685.89 1677 1731.55 1642.97 1748.85 1595.34H1750.94V1589.08C1754.4 1577.67 1756.27 1565.55 1756.27 1553C1756.27 1540.45 1754.4 1528.34 1750.94 1516.92V1511.34H1749.09C1731.98 1463.35 1686.14 1429 1632.27 1429ZM326.269 1483C287.609 1483 256.269 1514.34 256.269 1553C256.269 1591.66 287.609 1623 326.269 1623C364.929 1623 396.269 1591.66 396.269 1553C396.269 1514.34 364.929 1483 326.269 1483Z" fill="#F97316"/>
<path d="M1632.27 1603C1659.88 1603 1682.27 1580.61 1682.27 1553C1682.27 1525.39 1659.88 1503 1632.27 1503C1604.65 1503 1582.27 1525.39 1582.27 1553C1582.27 1580.61 1604.65 1603 1632.27 1603Z" fill="#F97316"/>
<path d="M1995.07 354C1996.54 354 1997.6 446.267 1997.6 588.134C1997.6 667.334 1998 866.4 1998.54 1030.27L1999.34 1328.4L2008.8 1335.47C2022.27 1345.73 2046 1369.87 2057.07 1384.67C2095.2 1435.47 2113.6 1490.27 2113.6 1553.07C2113.6 1585.87 2109.87 1610.27 2100.27 1639.6C2071.07 1728.67 1996.54 1798.27 1905.87 1821.2C1871.6 1830 1905.87 1829.2 1498.67 1829.6L1341.66 1829.77H842.957L686.002 1829.6C339.203 1829.33 316.136 1829.2 304.269 1826.93C262.002 1819.07 228.536 1806 196.269 1784.93C127.602 1740.13 82.4014 1667.73 72.4014 1586C70.2681 1569.73 70.669 1533.87 72.9356 1516.4C80.9356 1456 108.269 1400.67 151.602 1357.33C167.469 1341.47 188.136 1325.2 203.736 1316.27L213.469 1310.67L213.869 874.267L214.269 437.867L229.602 450.8C238.002 457.866 255.603 472.4 268.669 482.934L292.269 502.134L292.402 677.066C292.402 773.333 292.936 886.533 293.469 928.8L294.402 1005.73L299.469 1011.87C310.669 1025.47 340.803 1047.73 362.269 1058C375.869 1064.53 391.203 1069.73 398.936 1070.27L404.936 1070.67L404.402 948.267C404.002 875.338 404.269 826.007 405.069 826C405.735 826 417.735 832 431.602 839.2L456.936 852.267L458.403 972.8C459.336 1039.07 460.136 1113.87 460.269 1139.07L460.403 1184.8L416.002 1227.87C391.604 1251.47 370.806 1271.86 369.736 1273.07C368.136 1275.2 370.002 1275.33 397.069 1275.33H426.269L859.203 857.333C1097.34 627.333 1292.67 439.2 1293.2 439.2C1294.94 439.202 1297.34 461.468 1298.94 491.467C1304.54 595.733 1279.87 702.667 1232.67 778.267C1224.94 790.667 1181.87 836.133 1119.34 898C1066.27 950.667 1029.87 984.134 980.936 1025.47L963.736 1040L919.335 1040.8L874.802 1041.47L868.536 1047.47C865.069 1050.8 852.402 1062.8 840.269 1074.13C828.135 1085.47 789.202 1122.4 753.602 1156.13C718.002 1189.87 675.203 1230.4 658.403 1246.13L628.002 1274.67L658.269 1275.07L688.536 1275.33L731.869 1233.07C755.602 1209.73 800.669 1165.6 832.002 1135.07L888.936 1079.47L934.669 1079.33H980.403L1006 1054.93C1028.14 1034 1054.4 1009.73 1063.74 1001.73C1066.4 999.333 1066.67 999.467 1078.14 1012L1089.87 1024.67L964.002 1150L838.269 1275.2L1110.67 1275.33C1260.4 1275.33 1382.94 1275.07 1382.94 1274.8C1382.85 1274.19 1102.8 1003.73 1090 992L1081.2 983.867L1173.47 888.934C1224.27 836.667 1266 794 1266.4 794C1266.81 794.009 1280.81 807.072 1297.34 822.934C1314 838.934 1331.74 856 1336.94 860.934L1346.27 870H1341.6C1322.67 870.133 1303.47 882.801 1295.2 900.4C1292 907.067 1291.6 909.733 1291.6 921.333C1291.6 933.2 1292 935.467 1295.34 942.267C1307.47 966.8 1339.2 974.533 1362.54 958.533C1376 949.333 1382.27 935.466 1382.27 915.066V902.134L1407.6 926.934C1421.47 940.667 1436.4 955.2 1440.8 959.467L1448.54 967.066H1439.07C1421.87 967.2 1406.8 977.067 1398.54 993.467C1394.27 1002.13 1393.47 1006 1393.47 1017.07C1393.47 1034.13 1400.8 1044 1419.87 1053.07C1428 1056.93 1430.14 1057.33 1440.94 1057.33C1451.2 1057.2 1453.87 1056.8 1459.6 1053.73C1473.87 1046.4 1482.27 1032.4 1484 1012.93L1484.94 1003.2L1517.34 1034.13L1549.74 1065.2L1543.74 1066.67C1530.4 1070.13 1518.94 1083.07 1518.94 1095.07C1518.94 1106.53 1526.27 1117.87 1536.8 1122.8C1545.07 1126.67 1549.74 1126.8 1557.6 1123.2C1568 1118.53 1574.94 1109.87 1577.34 1098.53L1578.27 1093.73L1650.27 1162.8C1689.87 1200.93 1729.6 1239.07 1738.67 1247.87L1754.94 1263.73V1125.47C1754.94 1049.47 1755.34 987.333 1756 987.333C1756.54 987.333 1786 1017.07 1821.6 1053.47C1865.74 1098.4 1887.47 1121.6 1890 1126.27L1893.6 1132.93V1281.47L1910.8 1286.13L1927.87 1290.8L1928.54 1215.33C1928.94 1173.87 1928.67 1135.6 1928 1130.27C1926.67 1118.93 1922.67 1109.33 1915.47 1099.87C1907.07 1088.8 1846.54 1025.87 1799.87 979.733L1756.54 936.8L1756.14 798.4L1755.87 660L1758.8 650C1769.07 615.333 1780 586.4 1792.94 560C1834 476.133 1895.74 410.8 1978.94 362.8C1987.33 358.001 1994.67 354.002 1995.07 354ZM1096.94 1331.87C260.939 1331.6 316.669 1331.07 288.936 1338.67C275.603 1342.27 258.402 1348.93 245.869 1355.2C234.402 1361.07 211.736 1376.53 200.269 1386.53C164.269 1418 137.736 1464.93 128.802 1513.33C124.936 1533.73 125.336 1577.6 129.469 1596.67C150.269 1693.33 227.336 1763.33 324.536 1773.87C342.67 1775.87 1841.87 1775.87 1860 1773.87C1957.2 1763.33 2034.27 1693.33 2055.07 1596.67C2059.2 1577.6 2059.6 1533.73 2055.74 1513.33C2046.8 1464.93 2020.67 1418.53 1984.67 1386.93C1955.6 1361.47 1921.34 1344.13 1882 1335.07L1868.94 1332L1096.94 1331.87Z" fill="#F97316"/>
</svg>
