<svg width="2184" height="2184" viewBox="0 0 2184 2184" fill="none" xmlns="http://www.w3.org/2000/svg">
<path d="M1557.91 1865.26V2005.52H1598.94H1639.98V1966.28L1640.13 1927.19L1679.22 1967.18L1718.31 2007.16L1776.96 2006.72L1835.75 2006.27L1790.53 1960.01C1765.76 1934.5 1736.82 1904.95 1726.22 1894.21L1706.97 1874.81L1763.97 1808.41C1795.31 1772 1824.26 1738.28 1828.29 1733.51L1835.75 1725H1782.92L1730.25 1725.15L1685.49 1777.37L1640.72 1829.6L1640.27 1777.23L1639.98 1725H1598.94H1557.91V1865.26Z" fill="#F97316"/>
<path d="M1303.94 1729.03C1301.11 1729.48 1299.47 1730.97 1298.27 1734.4C1292.9 1749.17 1202.78 2008.96 1202.78 2009.4C1202.78 2009.85 1220.38 2009.85 1241.87 2009.7L1280.82 2009.25L1289.47 1984.63L1297.98 1960.01H1342.44H1386.76L1394.97 1984.19L1403.02 2008.51H1473.6H1544.33L1527.02 1979.11C1517.47 1962.85 1505.53 1942.56 1500.46 1934.05L1491.21 1918.53L1504.94 1904.95C1516.13 1893.76 1519.71 1889.14 1524.78 1878.69C1528.21 1871.68 1532.24 1861.68 1533.59 1856.31C1536.87 1843.77 1536.87 1821.39 1533.44 1808.56C1525.98 1779.02 1504.79 1753.65 1476.59 1739.92C1454.35 1729.03 1453.46 1729.03 1376.61 1728.58C1338.86 1728.43 1306.18 1728.58 1303.94 1729.03ZM1439.43 1801.85C1447.49 1804.23 1458.23 1812.44 1461.52 1818.86C1464.95 1825.27 1465.69 1833.03 1463.9 1839.75C1461.07 1850.34 1447.79 1862.43 1437.19 1863.92C1433.91 1864.52 1433.16 1862.87 1423.61 1835.42C1418.09 1819.45 1413.17 1804.83 1412.57 1802.89C1411.53 1799.76 1411.83 1799.61 1421.82 1799.61C1427.35 1799.61 1435.4 1800.65 1439.43 1801.85ZM1352.74 1860.79C1357.21 1874.21 1360.94 1886 1360.94 1887.05C1360.94 1888.69 1357.07 1889.14 1342.29 1889.14C1332 1889.14 1323.64 1888.69 1323.64 1887.94C1323.64 1887.35 1327.82 1874.66 1332.89 1859.74C1338.56 1843.33 1342.59 1833.33 1343.34 1834.52C1343.93 1835.57 1348.11 1847.36 1352.74 1860.79Z" fill="#F97316"/>
<path d="M349.269 1771.26V1813.04H398.51H447.751V1911.52V2010H489.531H531.311V1911.52V1813.04L580.253 1812.74L629.046 1812.29L629.494 1770.81L629.792 1729.48H489.531H349.269V1771.26Z" fill="#F97316"/>
<path d="M757.371 1730.97C703.355 1739.47 658.143 1779.76 642.923 1833.18C639.939 1843.48 639.491 1848.4 639.641 1869.74C639.79 1898.69 642.028 1909.43 652.921 1931.36C678.586 1983.74 736.63 2015.52 793.63 2008.66C855.703 2001.05 903.154 1956.88 915.688 1894.96C918.672 1879.88 917.926 1850.04 913.897 1835.42C900.617 1785.43 861.672 1746.49 812.58 1733.95C798.853 1730.37 770.95 1728.88 757.371 1730.97ZM795.272 1811.4C813.327 1816.92 825.711 1827.81 833.769 1845.27C837.499 1853.18 837.947 1855.71 837.947 1869.74C837.947 1884.51 837.648 1886 833.023 1895.55C810.193 1941.96 745.434 1941.96 723.35 1895.55C718.874 1886.15 718.575 1884.21 718.575 1869.74C718.575 1855.71 719.023 1853.18 722.753 1845.27C730.811 1827.96 741.853 1817.96 759.46 1811.99C771.546 1807.81 783.334 1807.66 795.272 1811.4Z" fill="#F97316"/>
<path d="M1054.31 1730.37C1021.48 1735.59 996.263 1747.98 974.03 1769.62C935.533 1806.92 922.104 1860.93 938.219 1912.26C945.381 1934.65 957.617 1954.34 975.224 1970.91C1028.79 2021.94 1112.35 2022.24 1166.97 1971.8C1185.77 1954.34 1199.94 1930.17 1206.81 1904.36C1211.58 1886.3 1212.18 1857.5 1208.3 1840.34C1196.21 1786.92 1155.63 1746.04 1102.51 1733.21C1092.96 1730.82 1062.37 1729.18 1054.31 1730.37ZM1096.09 1814.23C1120.86 1825.87 1135.63 1852.43 1131.45 1877.95C1126.98 1905.25 1107.88 1924.65 1080.87 1929.72C1055.2 1934.5 1027.9 1919.58 1016.11 1894.51C1000.29 1860.79 1019.39 1821.09 1056.55 1810.5C1067.59 1807.37 1084.6 1809.01 1096.09 1814.23Z" fill="#F97316"/>
<path d="M324.935 1189.14C329.487 1188.47 666.68 1188.07 1096.94 1188.2L1860.94 1188.34L1872.27 1191.27C1910 1200.73 1938.27 1216.34 1963.6 1241.67C1989.87 1267.94 2006.27 1298.74 2014.54 1337C2017.87 1352.6 2017.87 1390.07 2014.54 1406.6C2006.94 1444.6 1988 1479 1960.4 1505.4C1934 1530.47 1901.34 1547.27 1865.6 1553.94C1853.47 1556.2 1817.07 1556.34 1092.27 1556.34C374.145 1556.34 330.936 1556.2 319.335 1554.07C272.802 1545.27 231.602 1519.67 203.468 1482.47C192.935 1468.47 178.803 1440.47 174.269 1424.34C163.736 1387.54 164.668 1347 176.935 1311.8C186.535 1284.33 200.269 1262.34 220.802 1241.67C249.202 1213.27 285.469 1194.87 324.935 1189.14ZM615.269 1416C587.655 1416 565.269 1438.39 565.269 1466C565.269 1493.61 587.655 1516 615.269 1516C642.883 1516 665.269 1493.61 665.269 1466C665.269 1438.39 642.883 1416 615.269 1416ZM474.269 1385C441.132 1385 414.269 1411.86 414.269 1445C414.269 1478.14 441.132 1505 474.269 1505C507.406 1505 534.269 1478.14 534.269 1445C534.269 1411.86 507.406 1385 474.269 1385ZM1632.27 1248C1563.79 1248 1508.27 1303.52 1508.27 1372C1508.27 1440.48 1563.79 1496 1632.27 1496C1685.89 1496 1731.55 1461.97 1748.85 1414.34H1750.94V1408.08C1754.4 1396.67 1756.27 1384.55 1756.27 1372C1756.27 1359.45 1754.4 1347.34 1750.94 1335.92V1330.34H1749.09C1731.98 1282.35 1686.14 1248 1632.27 1248ZM326.269 1302C287.609 1302 256.269 1333.34 256.269 1372C256.269 1410.66 287.609 1442 326.269 1442C364.929 1442 396.269 1410.66 396.269 1372C396.269 1333.34 364.929 1302 326.269 1302Z" fill="#F97316"/>
<path d="M1632.27 1422C1659.88 1422 1682.27 1399.61 1682.27 1372C1682.27 1344.39 1659.88 1322 1632.27 1322C1604.65 1322 1582.27 1344.39 1582.27 1372C1582.27 1399.61 1604.65 1422 1632.27 1422Z" fill="#F97316"/>
<path d="M1995.07 173C1996.54 173 1997.6 265.267 1997.6 407.134C1997.6 486.334 1998 685.4 1998.54 849.267L1999.34 1147.4L2008.8 1154.47C2022.27 1164.73 2046 1188.87 2057.07 1203.67C2095.2 1254.47 2113.6 1309.27 2113.6 1372.07C2113.6 1404.87 2109.87 1429.27 2100.27 1458.6C2071.07 1547.67 1996.54 1617.27 1905.87 1640.2C1871.6 1649 1905.87 1648.2 1498.67 1648.6L1341.66 1648.77H842.957L686.002 1648.6C339.203 1648.33 316.136 1648.2 304.269 1645.93C262.002 1638.07 228.536 1625 196.269 1603.93C127.602 1559.13 82.4014 1486.73 72.4014 1405C70.2681 1388.73 70.669 1352.87 72.9356 1335.4C80.9356 1275 108.269 1219.67 151.602 1176.33C167.469 1160.47 188.136 1144.2 203.736 1135.27L213.469 1129.67L213.869 693.267L214.269 256.867L229.602 269.8C238.002 276.866 255.603 291.4 268.669 301.934L292.269 321.134L292.402 496.066C292.402 592.333 292.936 705.533 293.469 747.8L294.402 824.733L299.469 830.867C310.669 844.467 340.803 866.733 362.269 877C375.869 883.533 391.203 888.733 398.936 889.267L404.936 889.667L404.402 767.267C404.002 694.338 404.269 645.007 405.069 645C405.735 645 417.735 651 431.602 658.2L456.936 671.267L458.403 791.8C459.336 858.066 460.136 932.866 460.269 958.066L460.403 1003.8L416.002 1046.87C391.604 1070.47 370.806 1090.86 369.736 1092.07C368.136 1094.2 370.002 1094.33 397.069 1094.33H426.269L859.203 676.333C1097.34 446.333 1292.67 258.2 1293.2 258.2C1294.94 258.202 1297.34 280.468 1298.94 310.467C1304.54 414.733 1279.87 521.667 1232.67 597.267C1224.94 609.667 1181.87 655.133 1119.34 717C1066.27 769.667 1029.87 803.134 980.936 844.467L963.736 859L919.335 859.8L874.802 860.467L868.536 866.467C865.069 869.8 852.402 881.801 840.269 893.134C828.135 904.467 789.202 941.401 753.602 975.134C718.002 1008.87 675.203 1049.4 658.403 1065.13L628.002 1093.67L658.269 1094.07L688.536 1094.33L731.869 1052.07C755.602 1028.73 800.669 984.6 832.002 954.066L888.936 898.467L934.669 898.333H980.403L1006 873.934C1028.14 853 1054.4 828.733 1063.74 820.733C1066.4 818.333 1066.67 818.467 1078.14 831L1089.87 843.667L964.002 969L838.269 1094.2L1110.67 1094.33C1260.4 1094.33 1382.94 1094.07 1382.94 1093.8C1382.85 1093.19 1102.8 822.732 1090 811L1081.2 802.867L1173.47 707.934C1224.27 655.667 1266 613 1266.4 613C1266.81 613.009 1280.81 626.072 1297.34 641.934C1314 657.934 1331.74 675 1336.94 679.934L1346.27 689H1341.6C1322.67 689.133 1303.47 701.801 1295.2 719.4C1292 726.067 1291.6 728.733 1291.6 740.333C1291.6 752.2 1292 754.467 1295.34 761.267C1307.47 785.8 1339.2 793.533 1362.54 777.533C1376 768.333 1382.27 754.466 1382.27 734.066V721.134L1407.6 745.934C1421.47 759.667 1436.4 774.2 1440.8 778.467L1448.54 786.066H1439.07C1421.87 786.2 1406.8 796.067 1398.54 812.467C1394.27 821.133 1393.47 825 1393.47 836.066C1393.47 853.133 1400.8 863 1419.87 872.066C1428 875.933 1430.14 876.333 1440.94 876.333C1451.2 876.2 1453.87 875.8 1459.6 872.733C1473.87 865.4 1482.27 851.4 1484 831.934L1484.94 822.2L1517.34 853.134L1549.74 884.2L1543.74 885.667C1530.4 889.134 1518.94 902.067 1518.94 914.066C1518.94 925.533 1526.27 936.866 1536.8 941.8C1545.07 945.666 1549.74 945.8 1557.6 942.2C1568 937.534 1574.94 928.867 1577.34 917.533L1578.27 912.733L1650.27 981.8C1689.87 1019.93 1729.6 1058.07 1738.67 1066.87L1754.94 1082.73V944.467C1754.94 868.467 1755.34 806.333 1756 806.333C1756.54 806.333 1786 836.067 1821.6 872.467C1865.74 917.4 1887.47 940.6 1890 945.267L1893.6 951.934V1100.47L1910.8 1105.13L1927.87 1109.8L1928.54 1034.33C1928.94 992.867 1928.67 954.6 1928 949.267C1926.67 937.933 1922.67 928.334 1915.47 918.867C1907.07 907.801 1846.54 844.867 1799.87 798.733L1756.54 755.8L1756.14 617.4L1755.87 479L1758.8 469C1769.07 434.333 1780 405.4 1792.94 379C1834 295.133 1895.74 229.8 1978.94 181.8C1987.33 177.001 1994.67 173.002 1995.07 173ZM1096.94 1150.87C260.939 1150.6 316.669 1150.07 288.936 1157.67C275.603 1161.27 258.402 1167.93 245.869 1174.2C234.402 1180.07 211.736 1195.53 200.269 1205.53C164.269 1237 137.736 1283.93 128.802 1332.33C124.936 1352.73 125.336 1396.6 129.469 1415.67C150.269 1512.33 227.336 1582.33 324.536 1592.87C342.67 1594.87 1841.87 1594.87 1860 1592.87C1957.2 1582.33 2034.27 1512.33 2055.07 1415.67C2059.2 1396.6 2059.6 1352.73 2055.74 1332.33C2046.8 1283.93 2020.67 1237.53 1984.67 1205.93C1955.6 1180.47 1921.34 1163.13 1882 1154.07L1868.94 1151L1096.94 1150.87Z" fill="#F97316"/>
</svg>
